<svg width="16" height="16" viewBox="0 0 16 16" fill="none" xmlns="http://www.w3.org/2000/svg">
<path fill-rule="evenodd" clip-rule="evenodd" d="M14.5 5.50002H1.5V12.0045C1.5 12.6675 1.7635 13.3035 2.232 13.772C2.701 14.241 3.337 14.5045 4 14.5045C6.2195 14.5045 9.7805 14.5045 12 14.5045C12.663 14.5045 13.299 14.241 13.768 13.772C14.2365 13.3035 14.5 12.6675 14.5 12.0045V5.50002ZM4.5 12H5.5C5.776 12 6 11.776 6 11.5C6 11.224 5.776 11 5.5 11H4.5C4.224 11 4 11.224 4 11.5C4 11.776 4.224 12 4.5 12ZM7.5 12H8.5C8.776 12 9 11.776 9 11.5C9 11.224 8.776 11 8.5 11H7.5C7.224 11 7 11.224 7 11.5C7 11.776 7.224 12 7.5 12ZM10.5 12H11.5C11.776 12 12 11.776 12 11.5C12 11.224 11.776 11 11.5 11H10.5C10.224 11 10 11.224 10 11.5C10 11.776 10.224 12 10.5 12ZM4.5 10H5.5C5.776 10 6 9.77602 6 9.50002C6 9.22402 5.776 9.00002 5.5 9.00002H4.5C4.224 9.00002 4 9.22402 4 9.50002C4 9.77602 4.224 10 4.5 10ZM7.5 10H8.5C8.776 10 9 9.77602 9 9.50002C9 9.22402 8.776 9.00002 8.5 9.00002H7.5C7.224 9.00002 7 9.22402 7 9.50002C7 9.77602 7.224 10 7.5 10ZM10.5 10H11.5C11.776 10 12 9.77602 12 9.50002C12 9.22402 11.776 9.00002 11.5 9.00002H10.5C10.224 9.00002 10 9.22402 10 9.50002C10 9.77602 10.224 10 10.5 10ZM4.5 8.00002H5.5C5.776 8.00002 6 7.77602 6 7.50002C6 7.22402 5.776 7.00002 5.5 7.00002H4.5C4.224 7.00002 4 7.22402 4 7.50002C4 7.77602 4.224 8.00002 4.5 8.00002ZM7.5 8.00002H8.5C8.776 8.00002 9 7.77602 9 7.50002C9 7.22402 8.776 7.00002 8.5 7.00002H7.5C7.224 7.00002 7 7.22402 7 7.50002C7 7.77602 7.224 8.00002 7.5 8.00002ZM10.5 8.00002H11.5C11.776 8.00002 12 7.77602 12 7.50002C12 7.22402 11.776 7.00002 11.5 7.00002H10.5C10.224 7.00002 10 7.22402 10 7.50002C10 7.77602 10.224 8.00002 10.5 8.00002ZM5 1.50452V3.00002C5 3.27602 4.776 3.50002 4.5 3.50002C4.224 3.50002 4 3.27602 4 3.00002V1.50452C3.337 1.50452 2.701 1.76802 2.232 2.23652C1.7635 2.70552 1.5 3.34152 1.5 4.00452V4.50002H14.5V4.00452C14.5 3.34152 14.2365 2.70552 13.768 2.23652C13.299 1.76802 12.663 1.50452 12 1.50452V3.00002C12 3.27602 11.776 3.50002 11.5 3.50002C11.224 3.50002 11 3.27602 11 3.00002V1.50452H5Z" fill="#2581D9"/>
</svg>
