<svg width="187" height="187" viewBox="0 0 187 187" fill="none" xmlns="http://www.w3.org/2000/svg">
<g style="mix-blend-mode:screen">
<path d="M117.6 3.10001L0.0999756 89.3C0.0333089 90.6333 0 92 0 93.4C0 95.9 0.100049 98.4 0.300049 100.8L128.5 6.8C124.967 5.33334 121.333 4.10001 117.6 3.10001Z" fill="white"/>
<path d="M12 47.6L74.2001 1.89999C47.5001 7.49999 25 24.5 12 47.6Z" fill="white"/>
<path d="M183 66.8L41.1001 170.9C43.9668 172.767 46.9001 174.5 49.9001 176.1L185.4 76.8C184.8 73.4 184 70.0667 183 66.8Z" fill="white"/>
<path d="M166 34.6L15.5 145C17.2333 147.6 19.1 150.133 21.1 152.6L171.6 42.2C169.867 39.5333 168 37 166 34.6Z" fill="white"/>
<path d="M176 49.6L26.8999 159C29.0999 161.267 31.4332 163.433 33.8999 165.5L180.1 58.3C178.833 55.3667 177.467 52.4667 176 49.6Z" fill="white"/>
<path d="M153.3 21.6L7 128.9C8.2 131.9 9.56664 134.8 11.1 137.6L160.3 28.2C158.033 25.8667 155.7 23.6667 153.3 21.6Z" fill="white"/>
<path d="M137.4 10.9L1.6001 110.5C2.2001 113.9 3.00012 117.233 4.00012 120.5L146.1 16.2C143.3 14.2667 140.4 12.5 137.4 10.9Z" fill="white"/>
<path d="M185.4 109.7L81.2998 186.1C85.2998 186.6 89.2998 186.9 93.3998 186.9C94.3331 186.9 95.2998 186.867 96.2998 186.8L181.7 124.1C183.3 119.433 184.533 114.633 185.4 109.7Z" fill="white"/>
<path d="M186.9 93.4C186.9 91.0667 186.8 88.7667 186.6 86.5L58.7998 180.2C62.3998 181.667 66.0665 182.9 69.7998 183.9L186.8 98.1C186.866 96.5667 186.9 95 186.9 93.4Z" fill="white"/>
<path d="M174.3 140.2L113.7 184.6C139.6 178.9 161.4 162.5 174.3 140.2Z" fill="white"/>
<path d="M93.3998 0C92.7331 0 92.0664 0 91.3998 0L4.89978 63.4C3.36645 68.0667 2.16647 72.8667 1.2998 77.8L106.2 0.800003C102 0.300003 97.7998 0 93.3998 0Z" fill="white"/>
</g>
</svg>
