<svg width="25" height="25" viewBox="0 0 25 25" fill="none" xmlns="http://www.w3.org/2000/svg">
<g clip-path="url(#clip0_182_2416)">
<mask id="mask0_182_2416" style="mask-type:luminance" maskUnits="userSpaceOnUse" x="0" y="0" width="25" height="25">
<path d="M25 0H0V25H25V0Z" fill="white"/>
</mask>
<g mask="url(#mask0_182_2416)">
<path d="M15.2544 12.5002L24.6016 3.1526C24.8587 2.89529 25.0006 2.55199 25.001 2.18594C25.001 1.81968 24.8591 1.47598 24.6016 1.21907L23.7825 0.400164C23.525 0.142237 23.1817 0.000976562 22.8152 0.000976562C22.4494 0.000976562 22.1061 0.142237 21.8485 0.400164L12.5014 9.74711L3.15382 0.400164C2.89671 0.142237 2.55321 0.000976562 2.18695 0.000976562C1.8211 0.000976562 1.4776 0.142237 1.22049 0.400164L0.400976 1.21907C-0.132357 1.7524 -0.132357 2.61988 0.400976 3.1526L9.74833 12.5002L0.400976 21.8473C0.143659 22.105 0.0019926 22.4483 0.0019926 22.8144C0.0019926 23.1804 0.143659 23.5237 0.400976 23.7813L1.22028 24.6002C1.4774 24.8579 1.8211 24.9994 2.18675 24.9994C2.55301 24.9994 2.8965 24.8579 3.15362 24.6002L12.5012 15.253L21.8483 24.6002C22.1059 24.8579 22.4492 24.9994 22.815 24.9994C23.1811 24.9994 23.5248 24.8579 23.7823 24.6002L24.6014 23.7813C24.8585 23.5239 25.0004 23.1804 25.0004 22.8144C25.0004 22.4483 24.8585 22.105 24.6014 21.8475L15.2544 12.5002Z" fill="#2581D9"/>
</g>
</g>
<defs>
<clipPath id="clip0_182_2416">
<rect width="25" height="25" fill="white"/>
</clipPath>
</defs>
</svg>
