<svg width="25" height="25" viewBox="0 0 25 25" fill="none" xmlns="http://www.w3.org/2000/svg">
<g clip-path="url(#clip0_1_36)">
<path d="M2.78802 8.82633C3.09248 9.04118 4.01025 9.67927 5.54138 10.7403C7.07255 11.8013 8.24553 12.6183 9.06037 13.1912C9.14989 13.254 9.34009 13.3905 9.63105 13.601C9.92206 13.8115 10.1639 13.9817 10.3563 14.1115C10.5488 14.2412 10.7816 14.3868 11.0548 14.5479C11.328 14.7089 11.5854 14.83 11.8272 14.9101C12.069 14.9909 12.2928 15.031 12.4987 15.031H12.5122H12.5258C12.7317 15.031 12.9556 14.9909 13.1974 14.9101C13.4391 14.83 13.6968 14.7087 13.9697 14.5479C14.2427 14.3866 14.4755 14.2412 14.668 14.1115C14.8606 13.9817 15.1022 13.8115 15.3933 13.601C15.6842 13.3903 15.8747 13.254 15.9642 13.1912C16.7878 12.6183 18.8833 11.1632 22.2499 8.82605C22.9035 8.36958 23.4496 7.8188 23.8883 7.17407C24.3273 6.52962 24.5465 5.85356 24.5465 5.14626C24.5465 4.55521 24.3338 4.04926 23.9084 3.62845C23.4831 3.20756 22.9793 2.99722 22.3975 2.99722H2.6268C1.93738 2.99722 1.40682 3.23 1.03523 3.69554C0.66368 4.16117 0.477905 4.74319 0.477905 5.44155C0.477905 6.00565 0.724225 6.61693 1.21663 7.27502C1.70898 7.93316 2.23295 8.45031 2.78802 8.82633Z" fill="white"/>
<path d="M23.2033 10.2633C20.2666 12.2509 18.0368 13.7957 16.5148 14.8971C16.0044 15.2731 15.5904 15.5665 15.2724 15.7768C14.9544 15.9872 14.5316 16.2021 14.0032 16.4214C13.475 16.641 12.9827 16.7505 12.526 16.7505H12.5123H12.4988C12.0421 16.7505 11.5496 16.641 11.0214 16.4214C10.4932 16.2021 10.07 15.9872 9.75214 15.7768C9.43436 15.5665 9.02019 15.2731 8.50986 14.8971C7.30099 14.0107 5.07593 12.4659 1.83459 10.2633C1.32408 9.92329 0.871894 9.53353 0.477905 9.09485V19.7589C0.477905 20.3502 0.688236 20.8559 1.10913 21.2767C1.52994 21.6977 2.03594 21.9082 2.62694 21.9082H22.3977C22.9886 21.9082 23.4945 21.6977 23.9154 21.2767C24.3364 20.8558 24.5466 20.3503 24.5466 19.7589V9.09485C24.1615 9.52445 23.7139 9.91421 23.2033 10.2633Z" fill="white"/>
</g>
<defs>
<clipPath id="clip0_1_36">
<rect width="24.0686" height="24.0686" fill="white" transform="translate(0.477905 0.418304)"/>
</clipPath>
</defs>
</svg>
