<svg width="25" height="25" viewBox="0 0 25 25" fill="none" xmlns="http://www.w3.org/2000/svg">
<g clip-path="url(#clip0_182_2428)">
<path d="M2.54156 8.40802C2.84602 8.62287 3.76379 9.26097 5.29492 10.322C6.82609 11.383 7.99907 12.2 8.81391 12.7729C8.90343 12.8357 9.09363 12.9722 9.38459 13.1826C9.6756 13.3932 9.9174 13.5634 10.1098 13.6932C10.3024 13.8229 10.5351 13.9685 10.8084 14.1296C11.0815 14.2906 11.339 14.4117 11.5807 14.4918C11.8225 14.5726 12.0464 14.6127 12.2523 14.6127H12.2658H12.2793C12.4852 14.6127 12.7091 14.5726 12.951 14.4918C13.1926 14.4117 13.4503 14.2904 13.7232 14.1296C13.9963 13.9683 14.229 13.8229 14.4216 13.6932C14.6141 13.5634 14.8557 13.3932 15.1468 13.1826C15.4378 12.972 15.6282 12.8357 15.7177 12.7729C16.5414 12.2 18.6368 10.7449 22.0034 8.40774C22.657 7.95128 23.2031 7.40049 23.6418 6.75576C24.0808 6.11132 24.3001 5.43525 24.3001 4.72796C24.3001 4.1369 24.0873 3.63095 23.6619 3.21015C23.2366 2.78925 22.7329 2.57892 22.151 2.57892H2.38034C1.69092 2.57892 1.16036 2.81169 0.788769 3.27723C0.41722 3.74287 0.231445 4.32489 0.231445 5.02325C0.231445 5.58735 0.477765 6.19863 0.970168 6.85672C1.46252 7.51486 1.98649 8.032 2.54156 8.40802Z" fill="#024260"/>
<path d="M22.9568 9.84501C20.0202 11.8326 17.7903 13.3774 16.2683 14.4788C15.7579 14.8548 15.3439 15.1482 15.0259 15.3585C14.708 15.5689 14.2851 15.7838 13.7567 16.0031C13.2285 16.2227 12.7362 16.3322 12.2795 16.3322H12.2658H12.2523C11.7957 16.3322 11.3031 16.2227 10.7749 16.0031C10.2467 15.7838 9.82355 15.5689 9.50568 15.3585C9.1879 15.1482 8.77373 14.8548 8.2634 14.4788C7.05453 13.5924 4.82947 12.0476 1.58813 9.84501C1.07762 9.50498 0.625434 9.11522 0.231445 8.67654V19.3406C0.231445 19.9319 0.441776 20.4376 0.862674 20.8584C1.28348 21.2794 1.78948 21.4899 2.38048 21.4899H22.1512C22.7421 21.4899 23.2481 21.2794 23.6689 20.8584C24.0899 20.4374 24.3001 19.932 24.3001 19.3406V8.67654C23.915 9.10614 23.4675 9.4959 22.9568 9.84501Z" fill="#024260"/>
</g>
<defs>
<clipPath id="clip0_182_2428">
<rect width="24.0686" height="24.0686" fill="white" transform="translate(0.231445)"/>
</clipPath>
</defs>
</svg>
