<svg width="221" height="55" viewBox="0 0 221 55" fill="none" xmlns="http://www.w3.org/2000/svg">
<path d="M44.071 2.73538C43.9956 2.75422 43.9202 2.77307 43.8448 2.79192C38.3322 4.45984 33.0457 4.62947 27.8158 1.91556C22.6142 -0.741808 14.8399 -1.25068 11.4193 4.43157C10.1754 6.49527 9.66655 8.92648 9.38385 11.3294C8.36614 19.7256 9.4404 29.2242 11.3345 37.4508C12.6349 42.9634 15.1792 50.257 20.3243 53.3384C21.5964 54.1017 23.2361 54.554 24.5648 53.9038C25.4977 53.4232 26.0913 52.4904 26.5154 51.5292C28.0137 48.052 29.4555 35.3588 35.7879 38.1575C37.2862 38.8077 38.3039 40.2495 38.8411 41.7761C39.9436 45.0554 39.463 48.6457 41.0178 51.8119C41.4984 52.7731 42.1486 53.7625 43.1664 54.13C43.9296 54.4127 44.7777 54.2714 45.541 54.0169C48.9334 52.8013 51.5908 49.0131 53.1456 45.9317C58.4603 35.3588 60.3827 23.0897 58.63 11.386C58.0646 7.62607 56.6511 3.89444 52.9195 2.31133C50.149 1.12399 46.9545 1.85901 44.071 2.73538Z" fill="#F9FFF9"/>
<path d="M22.6424 46.3851C22.4728 47.0636 21.5964 47.2898 21.1724 46.7244C19.3631 44.491 17.8083 40.8442 16.734 36.208C14.6986 27.4726 14.0484 18.8785 14.8682 12.0089C15.0661 10.5106 15.3771 8.61658 16.1686 7.28789C16.423 6.86384 17.2146 5.53516 20.0981 5.53516C21.7661 5.53516 23.6601 6.01574 25.2432 6.83556C28.7204 8.64484 32.4803 9.54948 36.3816 9.54948C39.2651 9.54948 42.2334 9.09715 45.4562 8.10771L45.6541 8.05116C46.9545 7.65539 48.4528 7.23135 49.6684 7.23135C50.1207 7.23135 50.4882 7.28789 50.7709 7.42924C51.195 7.59886 52.5519 8.16425 53.1456 12.2068C54.8418 23.4582 52.8346 35.4164 47.1807 45.3109C46.9545 45.7066 46.7284 46.1024 46.3326 46.3286C44.6081 47.4028 44.7212 44.6041 44.6646 43.756C44.6269 43.1152 44.5422 42.4744 44.4102 41.8337C44.1841 40.5898 43.8165 39.3742 43.2511 38.2151C42.1486 35.9535 40.3394 34.0877 38.0212 33.07C36.7208 32.5046 35.3921 32.2219 34.0634 32.2219C26.1196 32.2219 24.1125 40.929 22.6424 46.3851Z" fill="#F0F5F0"/>
<path d="M69.7966 16.3327C69.1181 15.0606 67.6763 14.0428 65.9518 13.6188C63.6903 13.0817 61.3439 13.3361 58.9409 13.7036C58.9975 14.3067 59.0446 14.9192 59.0823 15.5411C61.3721 15.2019 63.5489 14.9475 65.4995 15.4281C66.7151 15.7108 67.7329 16.3893 68.1569 17.2091C68.4113 17.6614 68.4396 18.1137 68.27 18.5943C68.0155 19.3576 67.3088 20.1209 66.178 20.8559C64.0012 22.3259 61.57 23.4285 59.0823 24.3896C57.7536 24.9268 56.3966 25.4073 55.0397 25.8597C48.9051 27.9516 42.0073 29.4782 34.0069 30.5242C26.7981 31.4854 18.6281 32.5314 10.5994 31.966C10.4864 31.9471 10.3639 31.9377 10.2319 31.9377C8.70536 31.7963 7.00916 31.5984 5.51086 31.0331C3.89948 30.4394 2.68388 29.5065 2.17502 28.4322C1.83578 27.7255 1.80751 27.0753 2.09021 26.425C2.5708 25.2943 4.21046 23.6263 9.07287 21.8171C9.05403 21.1763 9.03518 20.5355 9.01633 19.8947C4.15391 21.5909 1.32693 23.485 0.39402 25.69C-0.0865681 26.8491 -0.0583085 28.0364 0.507089 29.252C1.24211 30.7503 2.76869 31.9942 4.86066 32.7858C6.72647 33.4642 8.73364 33.6904 10.4864 33.8035C10.5052 33.8035 10.5335 33.8035 10.5712 33.8035C12.1731 33.9166 13.7657 33.9731 15.3488 33.9731C21.9074 33.9731 28.4095 33.125 34.2613 32.3617C42.3748 31.3157 49.3857 29.7609 55.6616 27.6124C56.7076 27.2449 57.8101 26.8491 58.8844 26.4533C61.7679 25.3791 64.6514 24.1069 67.1957 22.4107C68.694 21.4213 69.5987 20.3753 70.0227 19.2162C70.3619 18.2551 70.2771 17.2374 69.7966 16.3327Z" fill="#4378FB"/>
<path d="M69.74 11.1039C69.0615 9.83179 67.6198 8.81407 65.8953 8.39002C63.5207 7.82462 60.5806 8.16387 58.008 8.55965L58.4603 10.3689C60.835 10.0014 63.4076 9.69044 65.4713 10.1993C66.6586 10.482 67.6763 11.1605 68.1286 11.9803C68.3548 12.4326 68.4113 12.8849 68.2417 13.3655C67.959 14.1288 67.2523 14.8921 66.1215 15.6554C64.0012 17.0689 61.6266 18.1714 59.1954 19.1043C57.8101 19.6697 56.3967 20.1503 55.0114 20.6309C48.8486 22.7228 41.9507 24.2494 33.9786 25.2954C26.7416 26.2566 18.5716 27.3026 10.5712 26.7372C10.1943 26.6995 9.80789 26.6618 9.41212 26.6241C8.1117 26.511 6.72648 26.2849 5.45433 25.8043C3.84295 25.2106 2.62735 24.2777 2.11849 23.2034C1.80752 22.4967 1.77926 21.8465 2.03369 21.1963C2.51427 20.0655 4.15393 18.3976 8.9598 16.6166C8.97865 15.9569 9.00692 15.2973 9.04461 14.6377C4.12565 16.3339 1.29867 18.2562 0.337493 20.4613C-0.143094 21.6203 -0.114818 22.8076 0.45058 24.0233C1.1856 25.5216 2.74043 26.7654 4.80413 27.557C6.41551 28.1224 8.11171 28.3768 9.66655 28.5182C9.9304 28.537 10.1848 28.5559 10.4298 28.5747C12.0506 28.6878 13.6715 28.7443 15.2923 28.7443C21.8791 28.7443 28.3529 27.8962 34.2048 27.1329C42.3182 26.087 49.3292 24.5321 55.6051 22.3836C56.7924 21.9596 57.9798 21.5355 59.1954 21.0832C61.9658 20.0372 64.708 18.8216 67.1392 17.182C68.6375 16.1925 69.5704 15.1465 69.9662 13.9875C70.3054 13.0263 70.2489 12.0086 69.74 11.1039Z" fill="#00ADEF"/>
<path d="M65.9235 10.8483L69.3441 11.4985L65.7539 12.1204L65.2167 15.6259L64.51 12.177L61.0894 11.4985L64.4535 10.6787L65.2167 7.37109L65.9235 10.8483Z" fill="#F9FFF9"/>
<path d="M69.3158 17.0113L71.7188 17.4919L69.2028 17.9159L68.8353 20.3754L68.3264 17.9442L65.9235 17.4636L68.2981 16.8982L68.8353 14.5801L69.3158 17.0113Z" fill="#F9FFF9"/>
<path d="M86.5524 24.6191C86.3112 24.6191 86.108 24.5556 85.9429 24.4287C85.7905 24.289 85.7143 24.1049 85.7143 23.8763V10.4858C85.7143 10.2699 85.7842 10.0922 85.9239 9.95247C86.0635 9.81279 86.2413 9.74295 86.4572 9.74295H91.0858C91.8477 9.74295 92.5334 9.90803 93.1429 10.2382C93.7651 10.5556 94.254 10.9937 94.6096 11.5525C94.9778 12.1112 95.162 12.7588 95.162 13.4953C95.162 14.181 94.9778 14.7906 94.6096 15.3239C94.2413 15.8572 93.7588 16.2636 93.162 16.5429C94.0127 16.7715 94.6985 17.2033 95.2191 17.8382C95.7397 18.4604 96 19.2541 96 20.2191C96 21.0826 95.8032 21.8445 95.4096 22.5049C95.0159 23.1652 94.4699 23.6858 93.7715 24.0668C93.0858 24.435 92.2985 24.6191 91.4096 24.6191H86.5524ZM87.2 23.1906H91.4096C92.0191 23.1906 92.5588 23.0699 93.0286 22.8287C93.4985 22.5874 93.8667 22.2445 94.1334 21.8001C94.4 21.3556 94.5334 20.8287 94.5334 20.2191C94.5334 19.6477 94.4 19.1525 94.1334 18.7334C93.8667 18.3017 93.4985 17.9715 93.0286 17.7429C92.5588 17.5017 92.0191 17.381 91.4096 17.381H87.2V23.1906ZM87.2 15.9525H91.0858C91.8477 15.9525 92.4762 15.7366 92.9715 15.3049C93.4667 14.8731 93.7143 14.2699 93.7143 13.4953C93.7143 12.7334 93.4667 12.1556 92.9715 11.762C92.4762 11.3683 91.8477 11.1715 91.0858 11.1715H87.2V15.9525ZM100.33 18.2001C100.368 17.4128 100.571 16.708 100.939 16.0858C101.32 15.4636 101.809 14.9747 102.406 14.6191C103.016 14.2636 103.689 14.0858 104.425 14.0858C105.009 14.0858 105.46 14.1683 105.777 14.3334C106.095 14.4985 106.216 14.7398 106.139 15.0572C106.089 15.2477 106 15.3747 105.873 15.4382C105.758 15.5017 105.612 15.5271 105.435 15.5144C105.269 15.5017 105.079 15.489 104.863 15.4763C104.152 15.4128 103.517 15.489 102.958 15.7049C102.412 15.908 101.974 16.2255 101.644 16.6572C101.327 17.089 101.168 17.6033 101.168 18.2001H100.33ZM100.444 24.6191C100.216 24.6191 100.038 24.5556 99.9108 24.4287C99.7838 24.3017 99.7203 24.1239 99.7203 23.8953V14.9239C99.7203 14.6953 99.7838 14.5176 99.9108 14.3906C100.038 14.2636 100.216 14.2001 100.444 14.2001C100.673 14.2001 100.85 14.2636 100.977 14.3906C101.104 14.5176 101.168 14.6953 101.168 14.9239V23.8953C101.168 24.1239 101.104 24.3017 100.977 24.4287C100.85 24.5556 100.673 24.6191 100.444 24.6191ZM110.444 24.6191C110.216 24.6191 110.032 24.5556 109.892 24.4287C109.765 24.289 109.701 24.1049 109.701 23.8763V14.9429C109.701 14.7144 109.765 14.5366 109.892 14.4096C110.032 14.2699 110.216 14.2001 110.444 14.2001C110.66 14.2001 110.832 14.2699 110.959 14.4096C111.098 14.5366 111.168 14.7144 111.168 14.9429V23.8763C111.168 24.1049 111.098 24.289 110.959 24.4287C110.832 24.5556 110.66 24.6191 110.444 24.6191ZM110.425 12.2191C110.146 12.2191 109.905 12.1176 109.701 11.9144C109.498 11.7112 109.397 11.4636 109.397 11.1715C109.397 10.8541 109.498 10.6064 109.701 10.4287C109.917 10.2382 110.165 10.1429 110.444 10.1429C110.711 10.1429 110.946 10.2382 111.149 10.4287C111.365 10.6064 111.473 10.8541 111.473 11.1715C111.473 11.4636 111.371 11.7112 111.168 11.9144C110.965 12.1176 110.717 12.2191 110.425 12.2191ZM120.445 24.7144C119.442 24.7144 118.553 24.4922 117.779 24.0477C117.004 23.5906 116.395 22.962 115.95 22.162C115.518 21.362 115.303 20.4477 115.303 19.4191C115.303 18.3779 115.531 17.4572 115.988 16.6572C116.445 15.8572 117.074 15.235 117.874 14.7906C118.674 14.3334 119.582 14.1049 120.598 14.1049C121.626 14.1049 122.534 14.3334 123.322 14.7906C124.122 15.235 124.744 15.8572 125.188 16.6572C125.645 17.4572 125.88 18.3779 125.893 19.4191L125.036 19.8763C125.036 20.816 124.839 21.6541 124.445 22.3906C124.052 23.1144 123.506 23.6858 122.807 24.1049C122.122 24.5112 121.334 24.7144 120.445 24.7144ZM120.636 28.7334C119.633 28.7334 118.75 28.543 117.988 28.162C117.226 27.7937 116.598 27.2858 116.103 26.6382C115.963 26.4858 115.899 26.3207 115.912 26.143C115.937 25.9652 116.033 25.8191 116.198 25.7049C116.363 25.5906 116.547 25.5525 116.75 25.5906C116.953 25.6287 117.112 25.7239 117.226 25.8763C117.595 26.3334 118.064 26.7017 118.636 26.981C119.22 27.2604 119.893 27.4001 120.655 27.4001C121.366 27.4001 122.007 27.2287 122.579 26.8858C123.15 26.543 123.601 26.0604 123.931 25.4382C124.274 24.816 124.445 24.0858 124.445 23.2477V20.3525L124.998 19.2477L125.893 19.4191V23.3049C125.893 24.3334 125.664 25.2541 125.207 26.0668C124.75 26.8922 124.128 27.5398 123.341 28.0096C122.553 28.4922 121.652 28.7334 120.636 28.7334ZM120.598 23.381C121.347 23.381 122.007 23.216 122.579 22.8858C123.163 22.543 123.62 22.0731 123.95 21.4763C124.28 20.8795 124.445 20.1937 124.445 19.4191C124.445 18.6445 124.28 17.9588 123.95 17.362C123.62 16.7525 123.163 16.2826 122.579 15.9525C122.007 15.6096 121.347 15.4382 120.598 15.4382C119.849 15.4382 119.182 15.6096 118.598 15.9525C118.014 16.2826 117.557 16.7525 117.226 17.362C116.896 17.9588 116.731 18.6445 116.731 19.4191C116.731 20.1937 116.896 20.8795 117.226 21.4763C117.557 22.0731 118.014 22.543 118.598 22.8858C119.182 23.216 119.849 23.381 120.598 23.381ZM130.441 20.3715C130.212 20.3715 130.028 20.3017 129.888 20.162C129.761 20.0223 129.698 19.8445 129.698 19.6287V10.4858C129.698 10.2572 129.761 10.0795 129.888 9.95247C130.028 9.81279 130.212 9.74295 130.441 9.74295C130.657 9.74295 130.828 9.81279 130.955 9.95247C131.095 10.0795 131.165 10.2572 131.165 10.4858V19.6287C131.165 19.8445 131.095 20.0223 130.955 20.162C130.828 20.3017 130.657 20.3715 130.441 20.3715ZM138.631 24.6191C138.415 24.6191 138.238 24.5493 138.098 24.4096C137.958 24.2699 137.888 24.0985 137.888 23.8953V18.943C137.888 18.1556 137.736 17.508 137.431 17.0001C137.139 16.4922 136.733 16.1112 136.212 15.8572C135.704 15.6033 135.127 15.4763 134.479 15.4763C133.857 15.4763 133.292 15.5969 132.784 15.8382C132.288 16.0795 131.895 16.4096 131.603 16.8287C131.311 17.2477 131.165 17.7239 131.165 18.2572H130.117C130.142 17.4572 130.358 16.7461 130.765 16.1239C131.171 15.489 131.711 14.9937 132.384 14.6382C133.057 14.2699 133.806 14.0858 134.631 14.0858C135.533 14.0858 136.339 14.2763 137.05 14.6572C137.761 15.0255 138.32 15.5715 138.727 16.2953C139.146 17.0191 139.355 17.9017 139.355 18.943V23.8953C139.355 24.0985 139.285 24.2699 139.146 24.4096C139.006 24.5493 138.834 24.6191 138.631 24.6191ZM130.441 24.6191C130.212 24.6191 130.028 24.5556 129.888 24.4287C129.761 24.289 129.698 24.1112 129.698 23.8953V14.9429C129.698 14.7144 129.761 14.5366 129.888 14.4096C130.028 14.2699 130.212 14.2001 130.441 14.2001C130.657 14.2001 130.828 14.2699 130.955 14.4096C131.095 14.5366 131.165 14.7144 131.165 14.9429V23.8953C131.165 24.1112 131.095 24.289 130.955 24.4287C130.828 24.5556 130.657 24.6191 130.441 24.6191ZM147.617 24.6191C146.944 24.6191 146.341 24.4604 145.808 24.143C145.287 23.8255 144.874 23.3937 144.57 22.8477C144.265 22.289 144.112 21.6541 144.112 20.943V11.6287C144.112 11.4128 144.176 11.235 144.303 11.0953C144.443 10.9556 144.62 10.8858 144.836 10.8858C145.052 10.8858 145.23 10.9556 145.37 11.0953C145.509 11.235 145.579 11.4128 145.579 11.6287V20.943C145.579 21.5906 145.77 22.1239 146.15 22.543C146.531 22.9493 147.02 23.1525 147.617 23.1525H148.131C148.335 23.1525 148.5 23.2223 148.627 23.362C148.754 23.5017 148.817 23.6795 148.817 23.8953C148.817 24.1112 148.741 24.289 148.589 24.4287C148.436 24.5556 148.246 24.6191 148.017 24.6191H147.617ZM142.874 15.8572C142.684 15.8572 142.525 15.8001 142.398 15.6858C142.271 15.5588 142.208 15.4064 142.208 15.2287C142.208 15.0382 142.271 14.8858 142.398 14.7715C142.525 14.6445 142.684 14.581 142.874 14.581H147.731C147.922 14.581 148.081 14.6445 148.208 14.7715C148.335 14.8858 148.398 15.0382 148.398 15.2287C148.398 15.4064 148.335 15.5588 148.208 15.6858C148.081 15.8001 147.922 15.8572 147.731 15.8572H142.874ZM169.984 24.8096C169.172 24.8096 168.416 24.6953 167.718 24.4668C167.032 24.2255 166.435 23.889 165.927 23.4572C165.419 23.0255 165.032 22.5239 164.765 21.9525C164.664 21.7493 164.657 21.5652 164.746 21.4001C164.848 21.2223 165.013 21.1017 165.242 21.0382C165.419 20.9874 165.591 21.0064 165.756 21.0953C165.934 21.1842 166.067 21.3176 166.156 21.4953C166.346 21.8636 166.626 22.1937 166.994 22.4858C167.362 22.7779 167.8 23.0064 168.308 23.1715C168.816 23.3239 169.375 23.4001 169.984 23.4001C170.657 23.4001 171.254 23.2922 171.775 23.0763C172.296 22.8477 172.702 22.5239 172.994 22.1049C173.299 21.6731 173.451 21.1525 173.451 20.5429C173.451 19.7683 173.165 19.1017 172.594 18.543C172.023 17.9842 171.127 17.6287 169.908 17.4763C168.423 17.2985 167.261 16.8414 166.423 16.1049C165.584 15.3556 165.165 14.4414 165.165 13.362C165.165 12.5874 165.369 11.9144 165.775 11.3429C166.194 10.7715 166.765 10.3334 167.489 10.0287C168.213 9.7112 169.045 9.55247 169.984 9.55247C170.683 9.55247 171.318 9.66676 171.889 9.89533C172.461 10.1112 172.956 10.4033 173.375 10.7715C173.807 11.1271 174.156 11.5207 174.423 11.9525C174.55 12.1556 174.588 12.3525 174.537 12.543C174.499 12.7334 174.391 12.8795 174.213 12.981C174.023 13.0699 173.826 13.0826 173.623 13.0191C173.432 12.9556 173.286 12.835 173.184 12.6572C172.994 12.3652 172.753 12.0922 172.461 11.8382C172.181 11.5715 171.838 11.362 171.432 11.2096C171.026 11.0572 170.537 10.9747 169.965 10.962C168.962 10.962 168.156 11.1779 167.546 11.6096C166.937 12.0287 166.632 12.6445 166.632 13.4572C166.632 13.889 166.746 14.289 166.975 14.6572C167.203 15.0128 167.578 15.3239 168.099 15.5906C168.632 15.8445 169.343 16.035 170.232 16.162C171.819 16.3906 172.994 16.8795 173.756 17.6287C174.53 18.3652 174.918 19.3303 174.918 20.5239C174.918 21.2096 174.791 21.8191 174.537 22.3525C174.296 22.8858 173.946 23.3366 173.489 23.7049C173.045 24.0604 172.518 24.3334 171.908 24.5239C171.311 24.7144 170.67 24.8096 169.984 24.8096ZM192.863 24.6191C192.647 24.6191 192.469 24.5556 192.329 24.4287C192.19 24.289 192.12 24.1112 192.12 23.8953V18.4096C192.12 17.508 191.885 16.7969 191.415 16.2763C190.945 15.7429 190.342 15.4763 189.606 15.4763C188.818 15.4763 188.171 15.7429 187.663 16.2763C187.167 16.7969 186.926 17.4953 186.939 18.3715H185.625C185.637 17.5207 185.821 16.7715 186.177 16.1239C186.533 15.4763 187.021 14.9747 187.644 14.6191C188.266 14.2636 188.971 14.0858 189.758 14.0858C190.507 14.0858 191.167 14.2636 191.739 14.6191C192.323 14.9747 192.774 15.4763 193.091 16.1239C193.421 16.7715 193.587 17.5334 193.587 18.4096V23.8953C193.587 24.1112 193.517 24.289 193.377 24.4287C193.25 24.5556 193.079 24.6191 192.863 24.6191ZM179.529 24.6191C179.301 24.6191 179.117 24.5556 178.977 24.4287C178.85 24.289 178.787 24.1112 178.787 23.8953V14.9429C178.787 14.7271 178.85 14.5493 178.977 14.4096C179.117 14.2699 179.301 14.2001 179.529 14.2001C179.745 14.2001 179.917 14.2699 180.044 14.4096C180.183 14.5493 180.253 14.7271 180.253 14.9429V23.8953C180.253 24.1112 180.183 24.289 180.044 24.4287C179.917 24.5556 179.745 24.6191 179.529 24.6191ZM186.215 24.6191C185.999 24.6191 185.821 24.5556 185.682 24.4287C185.542 24.289 185.472 24.1112 185.472 23.8953V18.4096C185.472 17.508 185.237 16.7969 184.767 16.2763C184.298 15.7429 183.694 15.4763 182.958 15.4763C182.171 15.4763 181.523 15.7366 181.015 16.2572C180.507 16.7652 180.253 17.4318 180.253 18.2572H179.206C179.231 17.4445 179.409 16.7271 179.739 16.1049C180.082 15.4699 180.545 14.9747 181.129 14.6191C181.713 14.2636 182.374 14.0858 183.11 14.0858C183.86 14.0858 184.52 14.2636 185.091 14.6191C185.675 14.9747 186.126 15.4763 186.444 16.1239C186.774 16.7715 186.939 17.5334 186.939 18.4096V23.8953C186.939 24.1112 186.869 24.289 186.729 24.4287C186.602 24.5556 186.431 24.6191 186.215 24.6191ZM198.83 24.6191C198.601 24.6191 198.417 24.5556 198.277 24.4287C198.15 24.289 198.087 24.1049 198.087 23.8763V14.9429C198.087 14.7144 198.15 14.5366 198.277 14.4096C198.417 14.2699 198.601 14.2001 198.83 14.2001C199.046 14.2001 199.217 14.2699 199.344 14.4096C199.484 14.5366 199.553 14.7144 199.553 14.9429V23.8763C199.553 24.1049 199.484 24.289 199.344 24.4287C199.217 24.5556 199.046 24.6191 198.83 24.6191ZM198.811 12.2191C198.531 12.2191 198.29 12.1176 198.087 11.9144C197.884 11.7112 197.782 11.4636 197.782 11.1715C197.782 10.8541 197.884 10.6064 198.087 10.4287C198.303 10.2382 198.55 10.1429 198.83 10.1429C199.096 10.1429 199.331 10.2382 199.534 10.4287C199.75 10.6064 199.858 10.8541 199.858 11.1715C199.858 11.4636 199.757 11.7112 199.553 11.9144C199.35 12.1176 199.103 12.2191 198.811 12.2191ZM206.488 24.6191C205.98 24.6191 205.523 24.4795 205.117 24.2001C204.723 23.9207 204.412 23.5334 204.183 23.0382C203.967 22.543 203.859 21.9715 203.859 21.3239V10.4668C203.859 10.2509 203.923 10.0795 204.05 9.95247C204.19 9.81279 204.367 9.74295 204.583 9.74295C204.799 9.74295 204.971 9.81279 205.098 9.95247C205.237 10.0795 205.307 10.2509 205.307 10.4668V21.3239C205.307 21.8699 205.415 22.3144 205.631 22.6572C205.859 23.0001 206.145 23.1715 206.488 23.1715H206.964C207.155 23.1715 207.307 23.2414 207.421 23.381C207.536 23.508 207.593 23.6795 207.593 23.8953C207.593 24.1112 207.51 24.289 207.345 24.4287C207.193 24.5556 206.99 24.6191 206.736 24.6191H206.488ZM214.716 24.7144C213.687 24.7144 212.773 24.4922 211.973 24.0477C211.186 23.5906 210.563 22.962 210.106 22.162C209.662 21.362 209.439 20.4477 209.439 19.4191C209.439 18.3779 209.649 17.4636 210.068 16.6763C210.5 15.8763 211.09 15.2477 211.839 14.7906C212.589 14.3334 213.452 14.1049 214.43 14.1049C215.395 14.1049 216.233 14.3271 216.944 14.7715C217.668 15.2033 218.227 15.8064 218.62 16.581C219.014 17.3556 219.211 18.2382 219.211 19.2287C219.211 19.4318 219.147 19.5969 219.02 19.7239C218.893 19.8382 218.728 19.8953 218.525 19.8953H210.43V18.6763H218.678L217.859 19.2668C217.871 18.5303 217.738 17.8699 217.459 17.2858C217.179 16.7017 216.779 16.2445 216.259 15.9144C215.751 15.5842 215.141 15.4191 214.43 15.4191C213.706 15.4191 213.071 15.5906 212.525 15.9334C211.979 16.2763 211.554 16.7525 211.249 17.362C210.957 17.9588 210.811 18.6445 210.811 19.4191C210.811 20.1937 210.976 20.8795 211.306 21.4763C211.649 22.0731 212.112 22.543 212.697 22.8858C213.281 23.2287 213.954 23.4001 214.716 23.4001C215.173 23.4001 215.63 23.3239 216.087 23.1715C216.557 23.0064 216.932 22.8033 217.211 22.562C217.351 22.4477 217.509 22.3906 217.687 22.3906C217.865 22.3779 218.017 22.4223 218.144 22.5239C218.309 22.6763 218.392 22.8414 218.392 23.0191C218.405 23.1969 218.335 23.3493 218.182 23.4763C217.763 23.8318 217.23 24.1303 216.582 24.3715C215.935 24.6001 215.312 24.7144 214.716 24.7144Z" fill="white"/>
<path d="M167.29 45.7117C167.395 45.7117 167.488 45.7522 167.569 45.8332L168.326 46.6546C167.907 47.1737 167.39 47.5713 166.776 47.8475C166.167 48.1237 165.433 48.2617 164.576 48.2617C163.81 48.2617 163.119 48.1308 162.505 47.8689C161.895 47.607 161.374 47.2427 160.94 46.776C160.507 46.3094 160.174 45.7522 159.94 45.1046C159.712 44.457 159.598 43.7498 159.598 42.9832C159.598 42.207 159.721 41.4975 159.969 40.8546C160.217 40.207 160.564 39.6498 161.012 39.1832C161.464 38.7165 162.002 38.3546 162.626 38.0975C163.25 37.8356 163.94 37.7046 164.698 37.7046C165.45 37.7046 166.117 37.8284 166.698 38.076C167.283 38.3237 167.781 38.6475 168.19 39.0475L167.548 39.9403C167.51 39.9975 167.46 40.0475 167.398 40.0903C167.34 40.1332 167.26 40.1546 167.155 40.1546C167.083 40.1546 167.01 40.1356 166.933 40.0975C166.857 40.0546 166.774 40.0046 166.683 39.9475C166.593 39.8856 166.488 39.8189 166.369 39.7475C166.25 39.676 166.112 39.6117 165.955 39.5546C165.798 39.4927 165.614 39.4427 165.405 39.4046C165.2 39.3617 164.962 39.3403 164.69 39.3403C164.229 39.3403 163.805 39.4237 163.419 39.5903C163.038 39.7522 162.71 39.9903 162.433 40.3046C162.157 40.6141 161.943 40.9951 161.79 41.4475C161.638 41.8951 161.562 42.407 161.562 42.9832C161.562 43.5641 161.643 44.0808 161.805 44.5332C161.971 44.9856 162.195 45.3665 162.476 45.676C162.757 45.9856 163.088 46.2237 163.469 46.3903C163.85 46.5522 164.26 46.6332 164.698 46.6332C164.96 46.6332 165.195 46.6189 165.405 46.5903C165.619 46.5617 165.814 46.5165 165.99 46.4546C166.171 46.3927 166.34 46.3141 166.498 46.2189C166.66 46.1189 166.819 45.9975 166.976 45.8546C167.024 45.8117 167.074 45.7784 167.126 45.7546C167.179 45.726 167.233 45.7117 167.29 45.7117ZM178.407 46.5617V48.1475H172.357V37.8189H174.278V46.5617H178.407ZM184.421 48.1475H182.493V37.8189H184.421V48.1475ZM198.155 37.8189V48.1475H197.17C197.017 48.1475 196.889 48.1237 196.784 48.076C196.684 48.0237 196.586 47.9379 196.491 47.8189L191.098 40.9332C191.127 41.2475 191.141 41.5379 191.141 41.8046V48.1475H189.448V37.8189H190.455C190.536 37.8189 190.605 37.8237 190.662 37.8332C190.724 37.8379 190.777 37.8522 190.82 37.876C190.867 37.8951 190.912 37.926 190.955 37.9689C190.998 38.007 191.046 38.0594 191.098 38.126L196.512 45.0403C196.498 44.8737 196.486 44.7094 196.477 44.5475C196.467 44.3856 196.462 44.2356 196.462 44.0975V37.8189H198.155ZM205.098 48.1475H203.17V37.8189H205.098V48.1475ZM217.218 45.7117C217.323 45.7117 217.416 45.7522 217.496 45.8332L218.254 46.6546C217.835 47.1737 217.318 47.5713 216.704 47.8475C216.094 48.1237 215.361 48.2617 214.504 48.2617C213.737 48.2617 213.046 48.1308 212.432 47.8689C211.823 47.607 211.301 47.2427 210.868 46.776C210.435 46.3094 210.101 45.7522 209.868 45.1046C209.639 44.457 209.525 43.7498 209.525 42.9832C209.525 42.207 209.649 41.4975 209.896 40.8546C210.144 40.207 210.492 39.6498 210.939 39.1832C211.392 38.7165 211.93 38.3546 212.554 38.0975C213.177 37.8356 213.868 37.7046 214.625 37.7046C215.377 37.7046 216.044 37.8284 216.625 38.076C217.211 38.3237 217.708 38.6475 218.118 39.0475L217.475 39.9403C217.437 39.9975 217.387 40.0475 217.325 40.0903C217.268 40.1332 217.187 40.1546 217.082 40.1546C217.011 40.1546 216.937 40.1356 216.861 40.0975C216.785 40.0546 216.701 40.0046 216.611 39.9475C216.52 39.8856 216.416 39.8189 216.296 39.7475C216.177 39.676 216.039 39.6117 215.882 39.5546C215.725 39.4927 215.542 39.4427 215.332 39.4046C215.127 39.3617 214.889 39.3403 214.618 39.3403C214.156 39.3403 213.732 39.4237 213.346 39.5903C212.966 39.7522 212.637 39.9903 212.361 40.3046C212.085 40.6141 211.87 40.9951 211.718 41.4475C211.566 41.8951 211.489 42.407 211.489 42.9832C211.489 43.5641 211.57 44.0808 211.732 44.5332C211.899 44.9856 212.123 45.3665 212.404 45.676C212.685 45.9856 213.016 46.2237 213.396 46.3903C213.777 46.5522 214.187 46.6332 214.625 46.6332C214.887 46.6332 215.123 46.6189 215.332 46.5903C215.546 46.5617 215.742 46.5165 215.918 46.4546C216.099 46.3927 216.268 46.3141 216.425 46.2189C216.587 46.1189 216.746 45.9975 216.904 45.8546C216.951 45.8117 217.001 45.7784 217.054 45.7546C217.106 45.726 217.161 45.7117 217.218 45.7117Z" fill="white"/>
<rect x="86.0869" y="45.5342" width="63.7665" height="1.13869" fill="white"/>
</svg>
