<svg width="213" height="55" viewBox="0 0 213 55" fill="none" xmlns="http://www.w3.org/2000/svg">
<path d="M43.8933 2.72434C43.8182 2.74311 43.7431 2.76189 43.668 2.78066C38.1776 4.44185 32.9125 4.6108 27.7036 1.90783C22.523 -0.738816 14.7801 -1.24563 11.3732 4.41369C10.1344 6.46907 9.62758 8.89048 9.34602 11.2837C8.33241 19.646 9.40234 29.1064 11.2888 37.2997C12.5839 42.7901 15.118 50.0543 20.2423 53.1233C21.5093 53.8835 23.1424 54.334 24.4657 53.6864C25.3949 53.2078 25.9861 52.2786 26.4085 51.3213C27.9007 47.8582 29.3367 35.2162 35.6436 38.0036C37.1358 38.6512 38.1495 40.0872 38.6844 41.6076C39.7825 44.8737 39.3039 48.4494 40.8524 51.6029C41.3311 52.5602 41.9786 53.5456 42.9923 53.9117C43.7525 54.1932 44.5972 54.0525 45.3574 53.7991C48.7361 52.5884 51.3827 48.8155 52.9313 45.7465C58.2246 35.2162 60.1392 22.9966 58.3935 11.34C57.8304 7.59531 56.4226 3.87873 52.706 2.30201C49.9468 1.11946 46.7651 1.85151 43.8933 2.72434Z" fill="#2581D9"/>
<path d="M22.5511 46.197C22.3821 46.8727 21.5093 47.098 21.087 46.5349C19.285 44.3105 17.7364 40.6784 16.6665 36.0609C14.6393 27.3607 13.9917 18.8013 14.8082 11.9595C15.0053 10.4672 15.315 8.58077 16.1034 7.25745C16.3568 6.83511 17.1452 5.51178 20.0171 5.51178C21.6783 5.51178 23.5647 5.99042 25.1414 6.80694C28.6046 8.60892 32.3493 9.50991 36.2348 9.50991C39.1067 9.50991 42.0631 9.05941 45.2728 8.07396L45.4699 8.01764C46.7651 7.62346 48.2574 7.20113 49.4681 7.20113C49.9186 7.20113 50.2846 7.25745 50.5662 7.39823C50.9885 7.56716 52.34 8.13027 52.9312 12.1566C54.6206 23.3626 52.6215 35.2725 46.9904 45.1271C46.7651 45.5212 46.5399 45.9154 46.1457 46.1407C44.4282 47.2106 44.5408 44.4232 44.4845 43.5785C44.4469 42.9403 44.3625 42.3021 44.2311 41.6639C44.0058 40.425 43.6398 39.2143 43.0767 38.0599C41.9786 35.8075 40.1766 33.9492 37.8679 32.9356C36.5727 32.3724 35.2494 32.0909 33.926 32.0909C26.0142 32.0909 24.0152 40.7629 22.5511 46.197Z" fill="#F0F5F0"/>
<path d="M69.5151 16.2673C68.8394 15.0003 67.4034 13.9867 65.6859 13.5644C63.4335 13.0294 61.0965 13.2828 58.7033 13.6488C58.7596 14.2495 58.8065 14.8595 58.8441 15.4789C61.1247 15.1411 63.2927 14.8877 65.2354 15.3663C66.4462 15.6479 67.4598 16.3236 67.8821 17.1401C68.1355 17.5906 68.1637 18.0411 67.9947 18.5198C67.7413 19.28 67.0374 20.0402 65.9112 20.7723C63.7432 22.2364 61.3218 23.3344 58.8441 24.2917C57.5207 24.8267 56.1693 25.3053 54.8178 25.7558C48.708 27.8394 41.8379 29.3598 33.8698 30.4015C26.6901 31.3588 18.5531 32.4006 10.5568 31.8375C10.4442 31.8187 10.3222 31.8093 10.1908 31.8093C8.67035 31.6686 6.981 31.4715 5.48874 30.9084C3.88385 30.3171 2.67316 29.3879 2.16635 28.318C1.82848 27.6141 1.80033 26.9665 2.08189 26.3189C2.56054 25.1927 4.19358 23.5315 9.03639 21.7295C9.01761 21.0913 8.99884 20.4532 8.98007 19.815C4.13726 21.5043 1.32168 23.3907 0.392536 25.5869C-0.086113 26.7413 -0.0579675 27.9238 0.50515 29.1345C1.2372 30.6268 2.75762 31.8657 4.84116 32.654C6.69944 33.3298 8.69852 33.555 10.4442 33.6676C10.4629 33.6676 10.4911 33.6676 10.5286 33.6676C12.1241 33.7803 13.7102 33.8366 15.287 33.8366C21.8191 33.8366 28.295 32.9919 34.1232 32.2317C42.204 31.1899 49.1866 29.6413 55.4372 27.5015C56.479 27.1355 57.5771 26.7413 58.647 26.3471C61.5189 25.2772 64.3908 24.0102 66.9248 22.3208C68.4171 21.3354 69.318 20.2936 69.7404 19.1392C70.0783 18.1819 69.9938 17.1683 69.5151 16.2673Z" fill="#4378FB"/>
<path d="M69.4587 11.0585C68.783 9.79148 67.3471 8.77785 65.6296 8.35552C63.2645 7.7924 60.3362 8.13028 57.7741 8.52446L58.2246 10.3264C60.5896 9.9604 63.1518 9.65069 65.2072 10.1575C66.3898 10.4391 67.4034 11.1148 67.8539 11.9313C68.0791 12.3818 68.1354 12.8323 67.9665 13.311C67.6849 14.0712 66.981 14.8314 65.8548 15.5916C63.7431 16.9994 61.378 18.0974 58.9566 19.0266C57.577 19.5897 56.1692 20.0683 54.7896 20.547C48.6516 22.6305 41.7815 24.1509 33.8416 25.1927C26.6337 26.15 18.4967 27.1918 10.5286 26.6287C10.1531 26.5911 9.76833 26.5536 9.37415 26.516C8.07898 26.4034 6.69935 26.1782 5.43233 25.6995C3.82745 25.1083 2.61675 24.1791 2.10995 23.1092C1.80023 22.4053 1.77208 21.7577 2.02548 21.1101C2.50413 19.9839 4.13717 18.3227 8.92367 16.5489C8.94244 15.8919 8.97059 15.2349 9.00813 14.578C4.10901 16.2673 1.29343 18.1819 0.336132 20.3781C-0.142517 21.5325 -0.114354 22.715 0.448762 23.9257C1.18081 25.418 2.72938 26.6568 4.78475 27.4452C6.38964 28.0083 8.07899 28.2617 9.62756 28.4025C9.89035 28.4213 10.1438 28.44 10.3878 28.4588C12.002 28.5714 13.6163 28.6277 15.2306 28.6277C21.7909 28.6277 28.2386 27.783 34.0668 27.0228C42.1476 25.9811 49.1302 24.4325 55.3808 22.2927C56.5634 21.8703 57.7459 21.448 58.9566 20.9975C61.7159 19.9557 64.447 18.745 66.8684 17.112C68.3607 16.1265 69.2898 15.0848 69.684 13.9304C70.0219 12.9731 69.9655 11.9595 69.4587 11.0585Z" fill="#00ADEF"/>
<path d="M65.6577 10.8051L69.0645 11.4527L65.4887 12.0721L64.9538 15.5634L64.2499 12.1284L60.843 11.4527L64.1936 10.6362L64.9538 7.34192L65.6577 10.8051Z" fill="#2581D9"/>
<path d="M69.0364 16.943L71.4297 17.4217L68.9238 17.844L68.5578 20.2936L68.051 17.8722L65.6577 17.3936L68.0228 16.8304L68.5578 14.5217L69.0364 16.943Z" fill="#2581D9"/>
<path d="M87.7778 24C87.5132 24 87.2906 23.9098 87.1102 23.7294C86.9298 23.549 86.8396 23.3264 86.8396 23.0618V10.8474C86.8396 10.5708 86.9298 10.3483 87.1102 10.1799C87.2906 9.99944 87.5132 9.90923 87.7778 9.90923H92.0898C92.9077 9.90923 93.6234 10.0716 94.2368 10.3964C94.8623 10.7091 95.3494 11.1481 95.6982 11.7134C96.059 12.2787 96.2395 12.9283 96.2395 13.662C96.2395 14.2513 96.0771 14.7866 95.7523 15.2677C95.4396 15.7368 95.0066 16.1097 94.4533 16.3863C95.2471 16.5787 95.8846 16.9576 96.3658 17.5229C96.8469 18.0883 97.0874 18.828 97.0874 19.7421C97.0874 20.572 96.889 21.3057 96.492 21.9432C96.1071 22.5807 95.5659 23.0859 94.8683 23.4587C94.1706 23.8196 93.3708 24 92.4687 24H87.7778ZM88.716 22.268H92.4687C93.022 22.268 93.5091 22.1717 93.9301 21.9793C94.3511 21.7869 94.6818 21.5042 94.9224 21.1313C95.163 20.7585 95.2832 20.2954 95.2832 19.7421C95.2832 19.2249 95.163 18.7979 94.9224 18.4611C94.6818 18.1243 94.3511 17.8717 93.9301 17.7034C93.5091 17.5229 93.022 17.4327 92.4687 17.4327H88.716V22.268ZM88.716 15.7007H92.0898C92.7754 15.7007 93.3347 15.5323 93.7677 15.1955C94.2127 14.8587 94.4353 14.3476 94.4353 13.662C94.4353 12.9764 94.2127 12.4712 93.7677 12.1464C93.3347 11.8096 92.7754 11.6413 92.0898 11.6413H88.716V15.7007ZM101.483 17.8297C101.483 17.108 101.658 16.4645 102.007 15.8992C102.368 15.3218 102.849 14.8648 103.45 14.528C104.051 14.1912 104.713 14.0228 105.435 14.0228C106.156 14.0228 106.692 14.1431 107.04 14.3836C107.401 14.6122 107.54 14.8888 107.455 15.2136C107.419 15.382 107.347 15.5143 107.239 15.6105C107.143 15.6947 107.028 15.7488 106.896 15.7729C106.764 15.7969 106.619 15.7909 106.463 15.7548C105.693 15.5985 105.002 15.5864 104.388 15.7187C103.775 15.851 103.288 16.0976 102.927 16.4585C102.578 16.8193 102.404 17.2764 102.404 17.8297H101.483ZM101.502 24C101.213 24 100.99 23.9278 100.834 23.7835C100.678 23.6271 100.599 23.3986 100.599 23.0979V15.0331C100.599 14.7445 100.678 14.522 100.834 14.3656C100.99 14.2092 101.213 14.131 101.502 14.131C101.802 14.131 102.025 14.2092 102.169 14.3656C102.325 14.5099 102.404 14.7324 102.404 15.0331V23.0979C102.404 23.3866 102.325 23.6091 102.169 23.7655C102.025 23.9218 101.802 24 101.502 24ZM111.376 24C111.112 24 110.889 23.9158 110.709 23.7474C110.54 23.567 110.456 23.3445 110.456 23.0799V15.0512C110.456 14.7745 110.54 14.552 110.709 14.3836C110.889 14.2152 111.112 14.131 111.376 14.131C111.653 14.131 111.876 14.2152 112.044 14.3836C112.212 14.552 112.297 14.7745 112.297 15.0512V23.0799C112.297 23.3445 112.212 23.567 112.044 23.7474C111.876 23.9158 111.653 24 111.376 24ZM111.376 12.5253C111.052 12.5253 110.769 12.411 110.528 12.1825C110.3 11.942 110.186 11.6593 110.186 11.3345C110.186 11.0098 110.3 10.7331 110.528 10.5046C110.769 10.2641 111.052 10.1438 111.376 10.1438C111.701 10.1438 111.978 10.2641 112.206 10.5046C112.447 10.7331 112.567 11.0098 112.567 11.3345C112.567 11.6593 112.447 11.942 112.206 12.1825C111.978 12.411 111.701 12.5253 111.376 12.5253ZM120.736 24.0722C119.834 24.0722 119.034 23.8617 118.336 23.4407C117.651 23.0077 117.109 22.4183 116.712 21.6726C116.316 20.9148 116.117 20.0488 116.117 19.0745C116.117 18.0883 116.328 17.2222 116.749 16.4765C117.182 15.7187 117.771 15.1294 118.517 14.7084C119.262 14.2754 120.122 14.0589 121.097 14.0589C122.059 14.0589 122.913 14.2754 123.659 14.7084C124.404 15.1294 124.988 15.7187 125.409 16.4765C125.842 17.2222 126.058 18.0883 126.058 19.0745H124.994C124.994 20.0488 124.807 20.9148 124.434 21.6726C124.074 22.4183 123.574 23.0077 122.937 23.4407C122.299 23.8617 121.566 24.0722 120.736 24.0722ZM121.061 28.0955C120.207 28.0955 119.407 27.9271 118.661 27.5903C117.915 27.2536 117.284 26.7604 116.767 26.1109C116.61 25.9064 116.55 25.6959 116.586 25.4794C116.634 25.2629 116.755 25.0885 116.947 24.9562C117.163 24.8119 117.386 24.7638 117.615 24.8119C117.855 24.86 118.048 24.9803 118.192 25.1727C118.517 25.5817 118.926 25.9004 119.419 26.129C119.912 26.3575 120.471 26.4717 121.097 26.4717C121.674 26.4717 122.203 26.3334 122.684 26.0568C123.177 25.7801 123.568 25.3712 123.857 24.8299C124.146 24.2887 124.29 23.6271 124.29 22.8453V20.2834L124.885 18.6957L126.058 19.0745V22.9716C126.058 23.9218 125.848 24.7818 125.427 25.5516C125.006 26.3334 124.416 26.9529 123.659 27.4099C122.913 27.867 122.047 28.0955 121.061 28.0955ZM121.097 22.4484C121.722 22.4484 122.275 22.3041 122.756 22.0154C123.238 21.7267 123.61 21.3298 123.875 20.8246C124.152 20.3194 124.29 19.7361 124.29 19.0745C124.29 18.413 124.152 17.8297 123.875 17.3245C123.61 16.8073 123.238 16.4043 122.756 16.1157C122.275 15.827 121.722 15.6827 121.097 15.6827C120.471 15.6827 119.918 15.827 119.437 16.1157C118.956 16.4043 118.577 16.8073 118.3 17.3245C118.023 17.8297 117.885 18.413 117.885 19.0745C117.885 19.7361 118.023 20.3194 118.3 20.8246C118.577 21.3298 118.956 21.7267 119.437 22.0154C119.918 22.3041 120.471 22.4484 121.097 22.4484ZM130.619 20.4097C130.355 20.4097 130.132 20.3255 129.952 20.1571C129.783 19.9766 129.699 19.7541 129.699 19.4895V10.8294C129.699 10.5527 129.783 10.3302 129.952 10.1618C130.132 9.99343 130.355 9.90923 130.619 9.90923C130.896 9.90923 131.118 9.99343 131.287 10.1618C131.455 10.3302 131.539 10.5527 131.539 10.8294V19.4895C131.539 19.7541 131.455 19.9766 131.287 20.1571C131.118 20.3255 130.896 20.4097 130.619 20.4097ZM138.034 24.018C137.77 24.018 137.547 23.9338 137.367 23.7655C137.199 23.585 137.114 23.3625 137.114 23.0979V18.6596C137.114 17.974 136.988 17.4147 136.735 16.9817C136.483 16.5487 136.14 16.2299 135.707 16.0255C135.286 15.809 134.799 15.7007 134.246 15.7007C133.741 15.7007 133.283 15.8029 132.874 16.0074C132.466 16.2119 132.141 16.4885 131.9 16.8373C131.66 17.1741 131.539 17.565 131.539 18.0101H130.403C130.403 17.2523 130.583 16.5787 130.944 15.9894C131.317 15.388 131.822 14.9129 132.46 14.5641C133.097 14.2152 133.813 14.0408 134.607 14.0408C135.436 14.0408 136.176 14.2213 136.826 14.5821C137.487 14.9309 138.004 15.4481 138.377 16.1337C138.762 16.8193 138.955 17.6613 138.955 18.6596V23.0979C138.955 23.3625 138.864 23.585 138.684 23.7655C138.516 23.9338 138.299 24.018 138.034 24.018ZM130.619 24.018C130.355 24.018 130.132 23.9338 129.952 23.7655C129.783 23.585 129.699 23.3625 129.699 23.0979V15.0512C129.699 14.7745 129.783 14.552 129.952 14.3836C130.132 14.2152 130.355 14.131 130.619 14.131C130.896 14.131 131.118 14.2152 131.287 14.3836C131.455 14.552 131.539 14.7745 131.539 15.0512V23.0979C131.539 23.3625 131.455 23.585 131.287 23.7655C131.118 23.9338 130.896 24.018 130.619 24.018ZM146.507 24C145.906 24 145.365 23.8497 144.884 23.549C144.402 23.2362 144.024 22.8152 143.747 22.286C143.47 21.7568 143.332 21.1614 143.332 20.4999V11.8938C143.332 11.6292 143.416 11.4127 143.585 11.2443C143.753 11.0759 143.969 10.9917 144.234 10.9917C144.499 10.9917 144.715 11.0759 144.884 11.2443C145.052 11.4127 145.136 11.6292 145.136 11.8938V20.4999C145.136 20.981 145.268 21.3839 145.533 21.7087C145.798 22.0334 146.122 22.1958 146.507 22.1958H147.121C147.337 22.1958 147.518 22.28 147.662 22.4484C147.818 22.6168 147.897 22.8333 147.897 23.0979C147.897 23.3625 147.794 23.579 147.59 23.7474C147.397 23.9158 147.145 24 146.832 24H146.507ZM142.502 16.0435C142.249 16.0435 142.045 15.9713 141.889 15.827C141.732 15.6827 141.654 15.5022 141.654 15.2857C141.654 15.0452 141.732 14.8527 141.889 14.7084C142.045 14.5641 142.249 14.4919 142.502 14.4919H146.67C146.922 14.4919 147.127 14.5641 147.283 14.7084C147.439 14.8527 147.518 15.0452 147.518 15.2857C147.518 15.5022 147.439 15.6827 147.283 15.827C147.127 15.9713 146.922 16.0435 146.67 16.0435H142.502ZM161.903 24.1804C161.133 24.1804 160.4 24.0601 159.702 23.8196C159.004 23.579 158.397 23.2422 157.88 22.8092C157.363 22.3762 156.984 21.8771 156.743 21.3117C156.623 21.0592 156.623 20.8246 156.743 20.6081C156.875 20.3916 157.092 20.2533 157.393 20.1931C157.609 20.145 157.82 20.1811 158.024 20.3014C158.241 20.4097 158.403 20.578 158.511 20.8066C158.656 21.1073 158.89 21.3839 159.215 21.6365C159.552 21.8891 159.955 22.0936 160.424 22.2499C160.893 22.4063 161.386 22.4845 161.903 22.4845C162.481 22.4845 163.01 22.3943 163.491 22.2138C163.984 22.0334 164.381 21.7748 164.682 21.438C164.982 21.0892 165.133 20.6622 165.133 20.1571C165.133 19.5196 164.88 18.9483 164.375 18.4431C163.882 17.9379 163.064 17.6252 161.921 17.5049C160.43 17.3606 159.257 16.9215 158.403 16.1878C157.549 15.4541 157.122 14.546 157.122 13.4635C157.122 12.6696 157.345 11.9961 157.79 11.4428C158.235 10.8895 158.836 10.4685 159.594 10.1799C160.364 9.89119 161.218 9.74685 162.156 9.74685C162.889 9.74685 163.527 9.84909 164.068 10.0536C164.621 10.258 165.103 10.5407 165.512 10.9015C165.921 11.2624 166.275 11.6894 166.576 12.1825C166.744 12.4471 166.811 12.6997 166.774 12.9403C166.75 13.1688 166.636 13.3492 166.432 13.4815C166.203 13.6259 165.957 13.6559 165.692 13.5717C165.427 13.4876 165.229 13.3312 165.097 13.1027C164.904 12.7538 164.67 12.4592 164.393 12.2186C164.116 11.978 163.792 11.7916 163.419 11.6593C163.046 11.515 162.607 11.4428 162.102 11.4428C161.212 11.4308 160.466 11.5992 159.864 11.948C159.263 12.2848 158.962 12.808 158.962 13.5176C158.962 13.8785 159.053 14.2273 159.233 14.5641C159.425 14.8888 159.768 15.1715 160.261 15.412C160.767 15.6526 161.488 15.821 162.426 15.9172C163.858 16.0615 164.97 16.5006 165.764 17.2343C166.57 17.9559 166.973 18.9122 166.973 20.1029C166.973 20.7885 166.829 21.3839 166.54 21.8891C166.263 22.3943 165.884 22.8213 165.403 23.1701C164.934 23.5069 164.393 23.7594 163.78 23.9278C163.178 24.0962 162.553 24.1804 161.903 24.1804ZM183.526 24.018C183.261 24.018 183.039 23.9338 182.858 23.7655C182.69 23.585 182.606 23.3625 182.606 23.0979V17.9379C182.606 17.1801 182.419 16.6208 182.047 16.26C181.674 15.8871 181.187 15.7007 180.585 15.7007C179.96 15.7007 179.443 15.9172 179.034 16.3502C178.637 16.7832 178.438 17.3365 178.438 18.0101H176.941C176.941 17.2283 177.109 16.5427 177.446 15.9533C177.783 15.3519 178.252 14.8828 178.853 14.546C179.467 14.2092 180.164 14.0408 180.946 14.0408C181.632 14.0408 182.239 14.1912 182.768 14.4919C183.297 14.7926 183.706 15.2376 183.995 15.827C184.296 16.4043 184.446 17.108 184.446 17.9379V23.0979C184.446 23.3625 184.362 23.585 184.194 23.7655C184.025 23.9338 183.803 24.018 183.526 24.018ZM171.492 24.018C171.227 24.018 171.005 23.9338 170.824 23.7655C170.656 23.585 170.572 23.3625 170.572 23.0979V15.0692C170.572 14.7926 170.656 14.5701 170.824 14.4017C171.005 14.2333 171.227 14.1491 171.492 14.1491C171.769 14.1491 171.991 14.2333 172.16 14.4017C172.328 14.5701 172.412 14.7926 172.412 15.0692V23.0979C172.412 23.3625 172.328 23.585 172.16 23.7655C171.991 23.9338 171.769 24.018 171.492 24.018ZM177.518 24.018C177.253 24.018 177.031 23.9338 176.85 23.7655C176.682 23.585 176.598 23.3625 176.598 23.0979V17.9379C176.598 17.1801 176.411 16.6208 176.039 16.26C175.666 15.8871 175.179 15.7007 174.577 15.7007C173.952 15.7007 173.435 15.9172 173.026 16.3502C172.617 16.7832 172.412 17.3365 172.412 18.0101H171.276C171.276 17.2283 171.432 16.5427 171.745 15.9533C172.057 15.3519 172.49 14.8828 173.044 14.546C173.597 14.2092 174.228 14.0408 174.938 14.0408C175.624 14.0408 176.231 14.1912 176.76 14.4919C177.29 14.7926 177.698 15.2376 177.987 15.827C178.288 16.4043 178.438 17.108 178.438 17.9379V23.0979C178.438 23.3625 178.354 23.585 178.186 23.7655C178.017 23.9338 177.795 24.018 177.518 24.018ZM189.507 24C189.242 24 189.019 23.9158 188.839 23.7474C188.671 23.567 188.586 23.3445 188.586 23.0799V15.0512C188.586 14.7745 188.671 14.552 188.839 14.3836C189.019 14.2152 189.242 14.131 189.507 14.131C189.783 14.131 190.006 14.2152 190.174 14.3836C190.342 14.552 190.427 14.7745 190.427 15.0512V23.0799C190.427 23.3445 190.342 23.567 190.174 23.7474C190.006 23.9158 189.783 24 189.507 24ZM189.507 12.5253C189.182 12.5253 188.899 12.411 188.659 12.1825C188.43 11.942 188.316 11.6593 188.316 11.3345C188.316 11.0098 188.43 10.7331 188.659 10.5046C188.899 10.2641 189.182 10.1438 189.507 10.1438C189.831 10.1438 190.108 10.2641 190.336 10.5046C190.577 10.7331 190.697 11.0098 190.697 11.3345C190.697 11.6593 190.577 11.942 190.336 12.1825C190.108 12.411 189.831 12.5253 189.507 12.5253ZM197.098 24C196.569 24 196.099 23.8557 195.691 23.567C195.282 23.2783 194.963 22.8874 194.734 22.3943C194.506 21.8891 194.392 21.3117 194.392 20.6622V10.8113C194.392 10.5467 194.476 10.3302 194.644 10.1618C194.812 9.99343 195.029 9.90923 195.294 9.90923C195.558 9.90923 195.775 9.99343 195.943 10.1618C196.112 10.3302 196.196 10.5467 196.196 10.8113V20.6622C196.196 21.1073 196.28 21.4741 196.448 21.7628C196.617 22.0515 196.833 22.1958 197.098 22.1958H197.549C197.789 22.1958 197.982 22.28 198.126 22.4484C198.283 22.6168 198.361 22.8333 198.361 23.0979C198.361 23.3625 198.246 23.579 198.018 23.7474C197.789 23.9158 197.495 24 197.134 24H197.098ZM205.154 24.0722C204.156 24.0722 203.266 23.8617 202.484 23.4407C201.714 23.0077 201.107 22.4183 200.662 21.6726C200.229 20.9148 200.012 20.0488 200.012 19.0745C200.012 18.0883 200.217 17.2222 200.626 16.4765C201.047 15.7187 201.624 15.1294 202.358 14.7084C203.091 14.2754 203.933 14.0589 204.883 14.0589C205.822 14.0589 206.628 14.2694 207.301 14.6903C207.975 15.0993 208.486 15.6706 208.835 16.4043C209.196 17.126 209.376 17.962 209.376 18.9122C209.376 19.1407 209.298 19.3331 209.141 19.4895C208.985 19.6338 208.787 19.706 208.546 19.706H201.275V18.2627H208.492L207.752 18.7678C207.74 18.1664 207.62 17.6312 207.391 17.1621C207.163 16.681 206.838 16.3021 206.417 16.0255C205.996 15.7488 205.485 15.6105 204.883 15.6105C204.198 15.6105 203.609 15.7608 203.115 16.0615C202.634 16.3622 202.267 16.7772 202.015 17.3064C201.762 17.8236 201.636 18.413 201.636 19.0745C201.636 19.7361 201.786 20.3255 202.087 20.8427C202.388 21.3599 202.803 21.7688 203.332 22.0695C203.861 22.3702 204.469 22.5206 205.154 22.5206C205.527 22.5206 205.906 22.4544 206.291 22.3221C206.688 22.1778 207.006 22.0154 207.247 21.835C207.427 21.7027 207.62 21.6365 207.824 21.6365C208.041 21.6245 208.227 21.6846 208.384 21.8169C208.588 21.9973 208.696 22.1958 208.708 22.4123C208.72 22.6288 208.624 22.8152 208.42 22.9716C208.011 23.2964 207.5 23.561 206.886 23.7655C206.285 23.9699 205.707 24.0722 205.154 24.0722Z" fill="#2581D9"/>
<path d="M162.843 43.8203C162.942 43.8203 163.03 43.8586 163.107 43.9353L163.824 44.7134C163.427 45.205 162.938 45.5817 162.356 45.8433C161.779 46.1049 161.084 46.2357 160.272 46.2357C159.546 46.2357 158.892 46.1116 158.31 45.8636C157.733 45.6155 157.239 45.2704 156.828 44.8284C156.418 44.3864 156.102 43.8586 155.881 43.2452C155.665 42.6318 155.556 41.962 155.556 41.2358C155.556 40.5006 155.674 39.8285 155.908 39.2196C156.143 38.6062 156.472 38.0785 156.896 37.6364C157.324 37.1944 157.834 36.8516 158.425 36.608C159.016 36.36 159.67 36.2359 160.387 36.2359C161.1 36.2359 161.731 36.3532 162.282 36.5877C162.836 36.8223 163.308 37.129 163.696 37.5079L163.087 38.3536C163.051 38.4077 163.003 38.4551 162.945 38.4957C162.89 38.5363 162.814 38.5566 162.715 38.5566C162.647 38.5566 162.577 38.5385 162.505 38.5024C162.433 38.4618 162.354 38.4145 162.268 38.3604C162.182 38.3017 162.083 38.2386 161.97 38.1709C161.858 38.1033 161.727 38.0424 161.578 37.9882C161.429 37.9296 161.255 37.8823 161.057 37.8462C160.863 37.8056 160.637 37.7853 160.38 37.7853C159.943 37.7853 159.541 37.8642 159.176 38.0221C158.815 38.1754 158.504 38.401 158.242 38.6986C157.981 38.9918 157.778 39.3527 157.633 39.7812C157.489 40.2052 157.417 40.69 157.417 41.2358C157.417 41.7861 157.494 42.2755 157.647 42.704C157.805 43.1325 158.017 43.4933 158.283 43.7865C158.549 44.0797 158.863 44.3052 159.223 44.4631C159.584 44.6164 159.972 44.6931 160.387 44.6931C160.635 44.6931 160.858 44.6796 161.057 44.6525C161.26 44.6254 161.445 44.5826 161.612 44.5239C161.783 44.4653 161.943 44.3909 162.092 44.3007C162.245 44.206 162.397 44.0909 162.545 43.9556C162.59 43.915 162.638 43.8835 162.687 43.8609C162.737 43.8338 162.789 43.8203 162.843 43.8203ZM173.372 44.6254V46.1274H167.642V36.3442H169.462V44.6254H173.372ZM179.07 46.1274H177.243V36.3442H179.07V46.1274ZM192.078 36.3442V46.1274H191.145C191 46.1274 190.879 46.1049 190.779 46.0598C190.685 46.0102 190.592 45.929 190.502 45.8162L185.394 39.294C185.421 39.5917 185.434 39.8669 185.434 40.1195V46.1274H183.831V36.3442H184.785C184.862 36.3442 184.927 36.3487 184.981 36.3577C185.04 36.3622 185.089 36.3757 185.13 36.3983C185.175 36.4163 185.218 36.4457 185.258 36.4863C185.299 36.5223 185.344 36.572 185.394 36.6351L190.522 43.1843C190.509 43.0265 190.497 42.8709 190.488 42.7175C190.479 42.5641 190.475 42.4221 190.475 42.2913V36.3442H192.078ZM198.655 46.1274H196.828V36.3442H198.655V46.1274ZM210.134 43.8203C210.234 43.8203 210.322 43.8586 210.398 43.9353L211.116 44.7134C210.719 45.205 210.229 45.5817 209.647 45.8433C209.07 46.1049 208.375 46.2357 207.564 46.2357C206.837 46.2357 206.183 46.1116 205.601 45.8636C205.024 45.6155 204.53 45.2704 204.12 44.8284C203.709 44.3864 203.394 43.8586 203.173 43.2452C202.956 42.6318 202.848 41.962 202.848 41.2358C202.848 40.5006 202.965 39.8285 203.2 39.2196C203.434 38.6062 203.763 38.0785 204.187 37.6364C204.616 37.1944 205.126 36.8516 205.716 36.608C206.307 36.36 206.961 36.2359 207.679 36.2359C208.391 36.2359 209.023 36.3532 209.573 36.5877C210.128 36.8223 210.599 37.129 210.987 37.5079L210.378 38.3536C210.342 38.4077 210.295 38.4551 210.236 38.4957C210.182 38.5363 210.105 38.5566 210.006 38.5566C209.938 38.5566 209.868 38.5385 209.796 38.5024C209.724 38.4618 209.645 38.4145 209.559 38.3604C209.474 38.3017 209.374 38.2386 209.262 38.1709C209.149 38.1033 209.018 38.0424 208.869 37.9882C208.72 37.9296 208.547 37.8823 208.348 37.8462C208.154 37.8056 207.929 37.7853 207.672 37.7853C207.234 37.7853 206.833 37.8642 206.467 38.0221C206.107 38.1754 205.795 38.401 205.534 38.6986C205.272 38.9918 205.069 39.3527 204.925 39.7812C204.781 40.2052 204.708 40.69 204.708 41.2358C204.708 41.7861 204.785 42.2755 204.938 42.704C205.096 43.1325 205.308 43.4933 205.574 43.7865C205.84 44.0797 206.154 44.3052 206.515 44.4631C206.876 44.6164 207.264 44.6931 207.679 44.6931C207.927 44.6931 208.15 44.6796 208.348 44.6525C208.551 44.6254 208.736 44.5826 208.903 44.5239C209.075 44.4653 209.235 44.3909 209.383 44.3007C209.537 44.206 209.688 44.0909 209.837 43.9556C209.882 43.915 209.929 43.8835 209.979 43.8609C210.028 43.8338 210.08 43.8203 210.134 43.8203Z" fill="#2581D9"/>
<rect x="87.0354" y="41" width="59" height="1" fill="#2581D9"/>
</svg>
