<svg width="23" height="25" viewBox="0 0 23 25" fill="none" xmlns="http://www.w3.org/2000/svg">
<g clip-path="url(#clip0_1_20)">
<path d="M11.2222 0.798405C6.92737 0.798405 3.43332 4.42737 3.43332 8.88752C3.43332 13.1808 10.5003 23.2114 10.8012 23.6362L11.0821 24.0331C11.0982 24.056 11.1193 24.0746 11.1436 24.0874C11.168 24.1003 11.1949 24.107 11.2222 24.107C11.2497 24.107 11.2767 24.1004 11.3012 24.0875C11.3257 24.0747 11.347 24.056 11.3632 24.0331L11.6439 23.6362C11.945 23.2114 19.0118 13.1808 19.0118 8.88752C19.0118 4.42737 15.5172 0.798405 11.2222 0.798405ZM11.2222 5.99001C12.7611 5.99001 14.0124 7.28954 14.0124 8.88752C14.0124 10.4847 12.761 11.785 11.2222 11.785C9.68426 11.785 8.43202 10.4847 8.43202 8.88752C8.43202 7.28954 9.68421 5.99001 11.2222 5.99001Z" fill="white"/>
</g>
<defs>
<clipPath id="clip0_1_20">
<rect width="22.4453" height="23.3086" fill="white" transform="translate(0 0.798336)"/>
</clipPath>
</defs>
</svg>
