<svg width="26" height="27" viewBox="0 0 26 27" fill="none" xmlns="http://www.w3.org/2000/svg">
<g clip-path="url(#clip0_182_2422)">
<path d="M12.5811 8.39233e-05C7.76621 8.39233e-05 3.84912 4.06843 3.84912 9.06859C3.84912 13.8817 11.7718 25.1268 12.1091 25.6029L12.4239 26.0479C12.442 26.0736 12.4657 26.0944 12.493 26.1088C12.5203 26.1232 12.5504 26.1307 12.5811 26.1308C12.6118 26.1308 12.6422 26.1233 12.6696 26.1089C12.6971 26.0945 12.7209 26.0736 12.7391 26.0479L13.0538 25.6029C13.3913 25.1268 21.3138 13.8817 21.3138 9.06859C21.3138 4.06843 17.396 8.39233e-05 12.5811 8.39233e-05ZM12.5811 5.82027C14.3062 5.82027 15.7091 7.27713 15.7091 9.06859C15.7091 10.8591 14.3062 12.3169 12.5811 12.3169C10.8569 12.3169 9.45305 10.8591 9.45305 9.06859C9.45305 7.27713 10.8568 5.82027 12.5811 5.82027Z" fill="#024260"/>
</g>
<defs>
<clipPath id="clip0_182_2422">
<rect width="25.1629" height="26.1307" fill="white"/>
</clipPath>
</defs>
</svg>
