<svg xmlns="http://www.w3.org/2000/svg" xmlns:xlink="http://www.w3.org/1999/xlink" version="1.1" width="1000" height="1000" viewBox="0 0 1000 1000" xml:space="preserve">
<desc>Created with Fabric.js 3.5.0</desc>
<defs>
</defs>
<rect x="0" y="0" width="100%" height="100%" fill="#ffffff"/>
<g transform="matrix(7.0472 0 0 7.0472 499.9989 499.999)" id="47773">
<g style="" vector-effect="non-scaling-stroke">
		<g transform="matrix(1 0 0 1 -1.4034 -29.438)">
<path style="stroke: none; stroke-width: 1; stroke-dasharray: none; stroke-linecap: butt; stroke-dashoffset: 0; stroke-linejoin: miter; stroke-miterlimit: 4; is-custom-font: none; font-file-url: none; fill: rgb(249,255,249); fill-rule: nonzero; opacity: 1;" transform=" translate(-63.0966, -29.562)" d="M 73.9171 3.00491 C 73.8351 3.02542 73.7531 3.04593 73.671 3.06643 C 67.6729 4.88125 61.9208 5.06582 56.2303 2.11289 C 50.5705 -0.778515 42.1116 -1.3322 38.3897 4.85049 C 37.0363 7.09594 36.4826 9.74128 36.175 12.3559 C 35.0677 21.4915 36.2365 31.8267 38.2974 40.7778 C 39.7124 46.7759 42.4807 54.7119 48.079 58.0647 C 49.4632 58.8952 51.2472 59.3874 52.6929 58.6799 C 53.708 58.157 54.354 57.1419 54.8153 56.0961 C 56.4456 52.3126 58.0144 38.5015 64.9045 41.5468 C 66.5348 42.2542 67.6421 43.823 68.2266 45.484 C 69.4262 49.0521 68.9033 52.9586 70.5951 56.4037 C 71.118 57.4495 71.8254 58.5261 72.9328 58.926 C 73.7633 59.2336 74.6861 59.0798 75.5166 58.8029 C 79.2078 57.4803 82.0992 53.3585 83.7909 50.0057 C 89.5738 38.5015 91.6654 25.1519 89.7583 12.4174 C 89.1431 8.32634 87.6051 4.26606 83.5449 2.54352 C 80.5304 1.25161 77.0546 2.05136 73.9171 3.00491 Z" stroke-linecap="round"/>
</g>
		<g transform="matrix(1 0 0 1 -1.4036 -30.3672)">
<path style="stroke: none; stroke-width: 1; stroke-dasharray: none; stroke-linecap: butt; stroke-dashoffset: 0; stroke-linejoin: miter; stroke-miterlimit: 4; is-custom-font: none; font-file-url: none; fill: rgb(240,245,240); fill-rule: nonzero; opacity: 1;" transform=" translate(-63.0964, -28.6329)" d="M 50.6013 50.4978 C 50.4167 51.2361 49.4632 51.4821 49.0018 50.867 C 47.0332 48.4369 45.3414 44.4689 44.1725 39.4244 C 41.9578 29.9196 41.2503 20.5687 42.1424 13.0941 C 42.3577 11.4638 42.696 9.40294 43.5573 7.95724 C 43.8342 7.49584 44.6954 6.05013 47.8329 6.05013 C 49.6477 6.05013 51.7086 6.57304 53.4312 7.46507 C 57.2146 9.43369 61.3056 10.418 65.5505 10.418 C 68.688 10.418 71.9177 9.92584 75.4243 8.84925 L 75.6396 8.78773 C 77.0546 8.3571 78.6848 7.89571 80.0075 7.89571 C 80.4997 7.89571 80.8995 7.95724 81.2071 8.11103 C 81.6685 8.29559 83.145 8.91077 83.7909 13.3094 C 85.6365 25.5517 83.4526 38.5631 77.3007 49.329 C 77.0546 49.7596 76.8085 50.1902 76.3779 50.4363 C 74.5015 51.6052 74.6246 48.56 74.563 47.6372 C 74.522 46.94 74.4298 46.2427 74.2862 45.5455 C 74.0401 44.1921 73.6403 42.8694 73.0251 41.6083 C 71.8254 39.1475 69.8568 37.1174 67.3345 36.01 C 65.9196 35.3948 64.4739 35.0872 63.0282 35.0872 C 54.3847 35.0872 52.2008 44.5612 50.6013 50.4978 Z" stroke-linecap="round"/>
</g>
		<g transform="matrix(1 0 0 1 -0.2979 -33.2469)">
<path style="stroke: none; stroke-width: 1; stroke-dasharray: none; stroke-linecap: butt; stroke-dashoffset: 0; stroke-linejoin: miter; stroke-miterlimit: 4; is-custom-font: none; font-file-url: none; fill: rgb(67,120,251); fill-rule: nonzero; opacity: 1;" transform=" translate(-64.202, -25.7532)" d="M 101.908 17.8003 C 101.17 16.4161 99.6014 15.3088 97.725 14.8474 C 95.2642 14.263 92.7112 14.5398 90.0966 14.9397 C 90.1581 15.5959 90.2094 16.2623 90.2504 16.939 C 92.742 16.5699 95.1105 16.2931 97.2329 16.816 C 98.5555 17.1236 99.6629 17.8618 100.124 18.7539 C 100.401 19.246 100.432 19.7382 100.247 20.2611 C 99.9705 21.0916 99.2015 21.9221 97.9711 22.7219 C 95.6026 24.3214 92.9573 25.521 90.2504 26.5668 C 88.8047 27.1513 87.3283 27.6742 85.8518 28.1663 C 79.177 30.4425 71.6716 32.1035 62.9666 33.2417 C 55.1229 34.2875 46.2334 35.4256 37.4976 34.8104 C 37.3746 34.7899 37.2413 34.7796 37.0978 34.7796 C 35.4367 34.6258 33.5911 34.4105 31.9609 33.7953 C 30.2076 33.1494 28.8849 32.1343 28.3312 30.9655 C 27.9621 30.1965 27.9314 29.489 28.239 28.7815 C 28.7619 27.5511 30.546 25.7363 35.8366 23.7677 C 35.8161 23.0705 35.7956 22.3733 35.7751 21.676 C 30.4844 23.5216 27.4085 25.5825 26.3934 27.9818 C 25.8705 29.2429 25.9012 30.5348 26.5164 31.8575 C 27.3162 33.4877 28.9772 34.8412 31.2534 35.7024 C 33.2836 36.4407 35.4675 36.6867 37.3746 36.8098 C 37.3951 36.8098 37.4259 36.8098 37.4669 36.8098 C 39.2099 36.9328 40.9427 36.9943 42.6652 36.9943 C 49.8015 36.9943 56.8762 36.0715 63.2435 35.241 C 72.0715 34.1029 79.6999 32.4111 86.5285 30.0734 C 87.6666 29.6735 88.8662 29.2429 90.0351 28.8123 C 93.1726 27.6434 96.3101 26.2592 99.0784 24.4136 C 100.709 23.3371 101.693 22.1989 102.154 20.9378 C 102.524 19.892 102.431 18.7846 101.908 17.8003 Z" stroke-linecap="round"/>
</g>
		<g transform="matrix(1 0 0 1 -0.3548 -38.9325)">
<path style="stroke: none; stroke-width: 1; stroke-dasharray: none; stroke-linecap: butt; stroke-dashoffset: 0; stroke-linejoin: miter; stroke-miterlimit: 4; is-custom-font: none; font-file-url: none; fill: rgb(0,173,239); fill-rule: nonzero; opacity: 1;" transform=" translate(-64.1452, -20.0676)" d="M 101.847 12.1098 C 101.109 10.7256 99.5399 9.61825 97.6635 9.15685 C 95.0797 8.54166 91.8807 8.91079 89.0816 9.34142 L 89.5737 11.31 C 92.1575 10.9102 94.9567 10.5718 97.2021 11.1255 C 98.494 11.4331 99.6014 12.1713 100.094 13.0633 C 100.34 13.5555 100.401 14.0476 100.217 14.5706 C 99.909 15.4011 99.14 16.2316 97.9096 17.0621 C 95.6026 18.6001 93.0188 19.7997 90.3735 20.8148 C 88.8663 21.43 87.3283 21.9529 85.8211 22.4758 C 79.1155 24.752 71.6101 26.413 62.9359 27.5511 C 55.0614 28.5969 46.1719 29.7351 37.4669 29.1199 C 37.0567 29.0789 36.6364 29.0378 36.2057 28.9968 C 34.7908 28.8738 33.2836 28.6277 31.8994 28.1048 C 30.1461 27.4589 28.8234 26.4438 28.2697 25.2749 C 27.9314 24.5059 27.9006 23.7984 28.1775 23.091 C 28.7004 21.8606 30.4844 20.0458 35.7136 18.1079 C 35.7341 17.3902 35.7648 16.6725 35.8058 15.9547 C 30.4537 17.8003 27.3777 19.892 26.3319 22.2912 C 25.809 23.5524 25.8397 24.8443 26.4549 26.1669 C 27.2547 27.7972 28.9464 29.1506 31.1919 30.0119 C 32.9452 30.6271 34.7908 30.9039 36.4826 31.0577 C 36.7697 31.0782 37.0465 31.0987 37.3131 31.1192 C 39.0766 31.2423 40.8402 31.3038 42.6037 31.3038 C 49.7707 31.3038 56.8147 30.381 63.1819 29.5505 C 72.01 28.4124 79.6384 26.7206 86.467 24.3829 C 87.7589 23.9215 89.0508 23.4601 90.3735 22.9679 C 93.3879 21.8298 96.3716 20.5072 99.0169 18.7231 C 100.647 17.6465 101.662 16.5084 102.093 15.2473 C 102.462 14.2014 102.401 13.0941 101.847 12.1098 Z" stroke-linecap="round"/>
</g>
		<g transform="matrix(1 0 0 1 32.4252 -46.4596)">
<path style="stroke: none; stroke-width: 1; stroke-dasharray: none; stroke-linecap: butt; stroke-dashoffset: 0; stroke-linejoin: miter; stroke-miterlimit: 4; is-custom-font: none; font-file-url: none; fill: rgb(249,255,249); fill-rule: nonzero; opacity: 1;" transform=" translate(-96.9252, -12.5404)" d="M 97.6943 11.8329 L 101.416 12.5404 L 97.5097 13.2171 L 96.9253 17.0313 L 96.1563 13.2787 L 92.4344 12.5404 L 96.0948 11.6484 L 96.9253 8.04951 L 97.6943 11.8329 Z" stroke-linecap="round"/>
</g>
		<g transform="matrix(1 0 0 1 36.3471 -39.9539)">
<path style="stroke: none; stroke-width: 1; stroke-dasharray: none; stroke-linecap: butt; stroke-dashoffset: 0; stroke-linejoin: miter; stroke-miterlimit: 4; is-custom-font: none; font-file-url: none; fill: rgb(249,255,249); fill-rule: nonzero; opacity: 1;" transform=" translate(-100.8471, -19.0461)" d="M 101.385 18.5385 L 104 19.0615 L 101.262 19.5229 L 100.862 22.1989 L 100.309 19.5536 L 97.6942 19.0307 L 100.278 18.4155 L 100.862 15.8932 L 101.385 18.5385 Z" stroke-linecap="round"/>
</g>
		<g transform="matrix(1 0 0 1 0.5286 27.8129)">
<path style="stroke: none; stroke-width: 1; stroke-dasharray: none; stroke-linecap: butt; stroke-dashoffset: 0; stroke-linejoin: miter; stroke-miterlimit: 4; is-custom-font: none; font-file-url: none; fill: rgb(255,255,255); fill-rule: nonzero; opacity: 1;" transform=" translate(-65.0286, -86.813)" d="M 2.59804 92 C 2.36951 92 2.17706 91.9399 2.0207 91.8196 C 1.87636 91.6873 1.8042 91.5129 1.8042 91.2964 V 78.6129 C 1.8042 78.4084 1.87035 78.24 2.00266 78.1077 C 2.13497 77.9754 2.30336 77.9092 2.50783 77.9092 H 6.89203 C 7.61371 77.9092 8.26322 78.0656 8.84056 78.3783 C 9.42993 78.679 9.89301 79.094 10.2298 79.6232 C 10.5786 80.1524 10.753 80.7659 10.753 81.4635 C 10.753 82.113 10.5786 82.6903 10.2298 83.1955 C 9.88098 83.7007 9.42392 84.0856 8.8586 84.3502 C 9.66448 84.5667 10.314 84.9757 10.8071 85.5771 C 11.3003 86.1664 11.5469 86.9182 11.5469 87.8323 C 11.5469 88.6502 11.3604 89.3719 10.9876 89.9973 C 10.6147 90.6228 10.0975 91.1159 9.43594 91.4768 C 8.78643 91.8256 8.0407 92 7.19874 92 H 2.59804 Z M 3.21147 90.6468 H 7.19874 C 7.77608 90.6468 8.28727 90.5326 8.73231 90.304 C 9.17734 90.0755 9.52615 89.7508 9.77874 89.3298 C 10.0313 88.9088 10.1576 88.4096 10.1576 87.8323 C 10.1576 87.291 10.0313 86.822 9.77874 86.425 C 9.52615 86.0161 9.17734 85.7033 8.73231 85.4868 C 8.28727 85.2583 7.77608 85.144 7.19874 85.144 H 3.21147 V 90.6468 Z M 3.21147 83.7909 H 6.89203 C 7.61371 83.7909 8.20909 83.5864 8.67818 83.1775 C 9.14727 82.7685 9.38182 82.1972 9.38182 81.4635 C 9.38182 80.7418 9.14727 80.1945 8.67818 79.8217 C 8.20909 79.4488 7.61371 79.2624 6.89203 79.2624 H 3.21147 V 83.7909 Z M 15.648 85.9199 C 15.6841 85.1741 15.8765 84.5066 16.2254 83.9172 C 16.5862 83.3278 17.0493 82.8647 17.6146 82.528 C 18.1919 82.1912 18.8294 82.0228 19.527 82.0228 C 20.0803 82.0228 20.5073 82.101 20.808 82.2573 C 21.1087 82.4137 21.223 82.6422 21.1508 82.9429 C 21.1027 83.1233 21.0185 83.2436 20.8982 83.3038 C 20.79 83.3639 20.6517 83.388 20.4833 83.3759 C 20.3269 83.3639 20.1465 83.3519 19.942 83.3399 C 19.2684 83.2797 18.667 83.3519 18.1378 83.5564 C 17.6206 83.7488 17.2056 84.0495 16.8929 84.4585 C 16.5922 84.8674 16.4419 85.3545 16.4419 85.9199 H 15.648 Z M 15.7563 92 C 15.5398 92 15.3714 91.9399 15.2511 91.8196 C 15.1308 91.6993 15.0707 91.5309 15.0707 91.3144 V 82.8166 C 15.0707 82.6001 15.1308 82.4317 15.2511 82.3115 C 15.3714 82.1912 15.5398 82.131 15.7563 82.131 C 15.9728 82.131 16.1412 82.1912 16.2614 82.3115 C 16.3817 82.4317 16.4419 82.6001 16.4419 82.8166 V 91.3144 C 16.4419 91.5309 16.3817 91.6993 16.2614 91.8196 C 16.1412 91.9399 15.9728 92 15.7563 92 Z M 25.2284 92 C 25.0119 92 24.8375 91.9399 24.7052 91.8196 C 24.5849 91.6873 24.5248 91.5129 24.5248 91.2964 V 82.8347 C 24.5248 82.6182 24.5849 82.4498 24.7052 82.3295 C 24.8375 82.1972 25.0119 82.131 25.2284 82.131 C 25.4329 82.131 25.5953 82.1972 25.7156 82.3295 C 25.8479 82.4498 25.914 82.6182 25.914 82.8347 V 91.2964 C 25.914 91.5129 25.8479 91.6873 25.7156 91.8196 C 25.5953 91.9399 25.4329 92 25.2284 92 Z M 25.2104 80.2547 C 24.9458 80.2547 24.7172 80.1585 24.5248 79.966 C 24.3324 79.7736 24.2361 79.539 24.2361 79.2624 C 24.2361 78.9617 24.3324 78.7271 24.5248 78.5587 C 24.7293 78.3783 24.9638 78.2881 25.2284 78.2881 C 25.481 78.2881 25.7035 78.3783 25.896 78.5587 C 26.1005 78.7271 26.2027 78.9617 26.2027 79.2624 C 26.2027 79.539 26.1065 79.7736 25.914 79.966 C 25.7216 80.1585 25.487 80.2547 25.2104 80.2547 Z M 34.7016 92.0902 C 33.7514 92.0902 32.9094 91.8797 32.1757 91.4587 C 31.442 91.0257 30.8647 90.4303 30.4437 89.6726 C 30.0347 88.9148 29.8303 88.0488 29.8303 87.0745 C 29.8303 86.0882 30.0468 85.2162 30.4798 84.4585 C 30.9128 83.7007 31.5082 83.1113 32.2659 82.6903 C 33.0237 82.2573 33.8837 82.0408 34.8459 82.0408 C 35.8202 82.0408 36.6802 82.2573 37.4259 82.6903 C 38.1837 83.1113 38.7731 83.7007 39.194 84.4585 C 39.627 85.2162 39.8496 86.0882 39.8616 87.0745 L 39.0497 87.5075 C 39.0497 88.3976 38.8633 89.1915 38.4904 89.8891 C 38.1175 90.5747 37.6003 91.1159 36.9388 91.5129 C 36.2893 91.8978 35.5436 92.0902 34.7016 92.0902 Z M 34.882 95.8971 C 33.9318 95.8971 33.0959 95.7166 32.3742 95.3558 C 31.6525 95.007 31.0571 94.5259 30.588 93.9124 C 30.4557 93.7681 30.3956 93.6117 30.4076 93.4433 C 30.4317 93.275 30.5219 93.1366 30.6782 93.0284 C 30.8346 92.9201 31.009 92.884 31.2015 92.9201 C 31.3939 92.9562 31.5442 93.0464 31.6525 93.1908 C 32.0013 93.6238 32.4463 93.9726 32.9876 94.2372 C 33.5409 94.5018 34.1784 94.6341 34.9001 94.6341 C 35.5736 94.6341 36.181 94.4717 36.7223 94.147 C 37.2636 93.8222 37.6905 93.3652 38.0033 92.7758 C 38.328 92.1864 38.4904 91.4948 38.4904 90.701 V 87.9586 L 39.0136 86.9122 L 39.8616 87.0745 V 90.7551 C 39.8616 91.7294 39.6451 92.6014 39.2121 93.3712 C 38.7791 94.153 38.1897 94.7664 37.444 95.2115 C 36.6982 95.6685 35.8442 95.8971 34.882 95.8971 Z M 34.8459 90.8273 C 35.5556 90.8273 36.181 90.6709 36.7223 90.3582 C 37.2756 90.0334 37.7086 89.5884 38.0213 89.0231 C 38.334 88.4578 38.4904 87.8082 38.4904 87.0745 C 38.4904 86.3408 38.334 85.6913 38.0213 85.126 C 37.7086 84.5487 37.2756 84.1036 36.7223 83.7909 C 36.181 83.4661 35.5556 83.3038 34.8459 83.3038 C 34.1363 83.3038 33.5048 83.4661 32.9515 83.7909 C 32.3982 84.1036 31.9652 84.5487 31.6525 85.126 C 31.3398 85.6913 31.1834 86.3408 31.1834 87.0745 C 31.1834 87.8082 31.3398 88.4578 31.6525 89.0231 C 31.9652 89.5884 32.3982 90.0334 32.9515 90.3582 C 33.5048 90.6709 34.1363 90.8273 34.8459 90.8273 Z M 44.1693 87.9766 C 43.9527 87.9766 43.7783 87.9105 43.646 87.7782 C 43.5258 87.6459 43.4656 87.4775 43.4656 87.273 V 78.6129 C 43.4656 78.3964 43.5258 78.228 43.646 78.1077 C 43.7783 77.9754 43.9527 77.9092 44.1693 77.9092 C 44.3737 77.9092 44.5361 77.9754 44.6564 78.1077 C 44.7887 78.228 44.8548 78.3964 44.8548 78.6129 V 87.273 C 44.8548 87.4775 44.7887 87.6459 44.6564 87.7782 C 44.5361 87.9105 44.3737 87.9766 44.1693 87.9766 Z M 51.9273 92 C 51.7228 92 51.5544 91.9338 51.4221 91.8015 C 51.2898 91.6692 51.2237 91.5068 51.2237 91.3144 V 86.6235 C 51.2237 85.8778 51.0793 85.2643 50.7907 84.7832 C 50.514 84.3021 50.1291 83.9413 49.636 83.7007 C 49.1548 83.4601 48.6076 83.3399 47.9941 83.3399 C 47.4048 83.3399 46.8695 83.4541 46.3884 83.6826 C 45.9193 83.9112 45.5465 84.2239 45.2698 84.6208 C 44.9932 85.0178 44.8548 85.4688 44.8548 85.974 H 43.8625 C 43.8866 85.2162 44.0911 84.5426 44.476 83.9533 C 44.8609 83.3519 45.372 82.8828 46.0095 82.546 C 46.647 82.1972 47.3567 82.0228 48.1385 82.0228 C 48.9925 82.0228 49.7562 82.2032 50.4298 82.564 C 51.1034 82.9129 51.6326 83.4301 52.0175 84.1157 C 52.4144 84.8013 52.6129 85.6372 52.6129 86.6235 V 91.3144 C 52.6129 91.5068 52.5467 91.6692 52.4144 91.8015 C 52.2821 91.9338 52.1197 92 51.9273 92 Z M 44.1693 92 C 43.9527 92 43.7783 91.9399 43.646 91.8196 C 43.5258 91.6873 43.4656 91.5189 43.4656 91.3144 V 82.8347 C 43.4656 82.6182 43.5258 82.4498 43.646 82.3295 C 43.7783 82.1972 43.9527 82.131 44.1693 82.131 C 44.3737 82.131 44.5361 82.1972 44.6564 82.3295 C 44.7887 82.4498 44.8548 82.6182 44.8548 82.8347 V 91.3144 C 44.8548 91.5189 44.7887 91.6873 44.6564 91.8196 C 44.5361 91.9399 44.3737 92 44.1693 92 Z M 60.4387 92 C 59.8012 92 59.2299 91.8496 58.7247 91.5489 C 58.2316 91.2482 57.8407 90.8393 57.552 90.3221 C 57.2633 89.7929 57.119 89.1915 57.119 88.5179 V 79.6954 C 57.119 79.4909 57.1791 79.3225 57.2994 79.1902 C 57.4317 79.0579 57.6001 78.9917 57.8046 78.9917 C 58.0091 78.9917 58.1775 79.0579 58.3098 79.1902 C 58.4421 79.3225 58.5082 79.4909 58.5082 79.6954 V 88.5179 C 58.5082 89.1313 58.6887 89.6365 59.0495 90.0334 C 59.4103 90.4183 59.8734 90.6108 60.4387 90.6108 H 60.9259 C 61.1183 90.6108 61.2747 90.6769 61.395 90.8092 C 61.5152 90.9415 61.5754 91.1099 61.5754 91.3144 C 61.5754 91.5189 61.5032 91.6873 61.3589 91.8196 C 61.2145 91.9399 61.0341 92 60.8176 92 H 60.4387 Z M 55.9463 83.7007 C 55.7659 83.7007 55.6155 83.6466 55.4952 83.5383 C 55.375 83.418 55.3148 83.2737 55.3148 83.1053 C 55.3148 82.9249 55.375 82.7806 55.4952 82.6723 C 55.6155 82.552 55.7659 82.4919 55.9463 82.4919 H 60.547 C 60.7274 82.4919 60.8777 82.552 60.998 82.6723 C 61.1183 82.7806 61.1784 82.9249 61.1784 83.1053 C 61.1784 83.2737 61.1183 83.418 60.998 83.5383 C 60.8777 83.6466 60.7274 83.7007 60.547 83.7007 H 55.9463 Z M 81.6251 92.1804 C 80.8553 92.1804 80.1396 92.0722 79.4781 91.8557 C 78.8286 91.6271 78.2632 91.3084 77.7821 90.8994 C 77.301 90.4905 76.9341 90.0154 76.6816 89.4741 C 76.5853 89.2817 76.5793 89.1073 76.6635 88.9509 C 76.7597 88.7825 76.9161 88.6682 77.1326 88.6081 C 77.301 88.56 77.4634 88.578 77.6197 88.6622 C 77.7881 88.7464 77.9144 88.8727 77.9986 89.0411 C 78.179 89.3899 78.4437 89.7026 78.7925 89.9793 C 79.1413 90.2559 79.5562 90.4724 80.0374 90.6288 C 80.5185 90.7731 81.0477 90.8453 81.6251 90.8453 C 82.2625 90.8453 82.8279 90.7431 83.321 90.5386 C 83.8141 90.3221 84.199 90.0154 84.4757 89.6185 C 84.7644 89.2095 84.9087 88.7164 84.9087 88.139 C 84.9087 87.4053 84.6381 86.7738 84.0968 86.2446 C 83.5555 85.7154 82.7076 85.3786 81.5529 85.2343 C 80.1456 85.0659 79.0451 84.6329 78.2512 83.9352 C 77.4574 83.2256 77.0604 82.3596 77.0604 81.3372 C 77.0604 80.6035 77.2529 79.966 77.6378 79.4247 C 78.0347 78.8835 78.576 78.4685 79.2616 78.1799 C 79.9472 77.8792 80.735 77.7288 81.6251 77.7288 C 82.2866 77.7288 82.888 77.8371 83.4293 78.0536 C 83.9705 78.258 84.4396 78.5347 84.8365 78.8835 C 85.2455 79.2203 85.5762 79.5931 85.8288 80.0021 C 85.9491 80.1945 85.9852 80.381 85.9371 80.5614 C 85.901 80.7418 85.7988 80.8801 85.6304 80.9764 C 85.45 81.0606 85.2635 81.0726 85.0711 81.0124 C 84.8907 80.9523 84.7523 80.838 84.6561 80.6696 C 84.4757 80.393 84.2472 80.1344 83.9705 79.8938 C 83.7059 79.6413 83.3811 79.4428 82.9962 79.2985 C 82.6114 79.1541 82.1483 79.0759 81.607 79.0639 C 80.6568 79.0639 79.893 79.2684 79.3157 79.6773 C 78.7383 80.0743 78.4497 80.6576 78.4497 81.4274 C 78.4497 81.8364 78.5579 82.2152 78.7744 82.564 C 78.9909 82.9008 79.3458 83.1955 79.8389 83.4481 C 80.3441 83.6887 81.0176 83.8691 81.8596 83.9894 C 83.3631 84.2059 84.4757 84.6689 85.1974 85.3786 C 85.9311 86.0762 86.2979 86.9903 86.2979 88.121 C 86.2979 88.7705 86.1776 89.3478 85.9371 89.853 C 85.7086 90.3582 85.3778 90.7852 84.9448 91.134 C 84.5238 91.4708 84.0246 91.7294 83.4473 91.9098 C 82.882 92.0902 82.2746 92.1804 81.6251 92.1804 Z M 103.295 92 C 103.091 92 102.923 91.9399 102.79 91.8196 C 102.658 91.6873 102.592 91.5189 102.592 91.3144 V 86.1183 C 102.592 85.2643 102.369 84.5908 101.924 84.0976 C 101.479 83.5924 100.908 83.3399 100.21 83.3399 C 99.4645 83.3399 98.8511 83.5924 98.37 84.0976 C 97.9009 84.5908 97.6723 85.2523 97.6844 86.0822 H 96.4395 C 96.4515 85.2764 96.6259 84.5667 96.9627 83.9533 C 97.2995 83.3399 97.7626 82.8647 98.3519 82.528 C 98.9413 82.1912 99.6088 82.0228 100.355 82.0228 C 101.064 82.0228 101.69 82.1912 102.231 82.528 C 102.784 82.8647 103.211 83.3399 103.512 83.9533 C 103.825 84.5667 103.981 85.2884 103.981 86.1183 V 91.3144 C 103.981 91.5189 103.915 91.6873 103.783 91.8196 C 103.662 91.9399 103.5 92 103.295 92 Z M 90.6661 92 C 90.4495 92 90.2751 91.9399 90.1428 91.8196 C 90.0226 91.6873 89.9624 91.5189 89.9624 91.3144 V 82.8347 C 89.9624 82.6302 90.0226 82.4618 90.1428 82.3295 C 90.2751 82.1972 90.4495 82.131 90.6661 82.131 C 90.8705 82.131 91.0329 82.1972 91.1532 82.3295 C 91.2855 82.4618 91.3516 82.6302 91.3516 82.8347 V 91.3144 C 91.3516 91.5189 91.2855 91.6873 91.1532 91.8196 C 91.0329 91.9399 90.8705 92 90.6661 92 Z M 96.9988 92 C 96.7943 92 96.6259 91.9399 96.4936 91.8196 C 96.3613 91.6873 96.2951 91.5189 96.2951 91.3144 V 86.1183 C 96.2951 85.2643 96.0726 84.5908 95.6276 84.0976 C 95.1826 83.5924 94.6112 83.3399 93.9136 83.3399 C 93.1679 83.3399 92.5544 83.5864 92.0733 84.0796 C 91.5922 84.5607 91.3516 85.1922 91.3516 85.974 H 90.3593 C 90.3834 85.2042 90.5518 84.5246 90.8645 83.9352 C 91.1893 83.3338 91.6283 82.8647 92.1816 82.528 C 92.7349 82.1912 93.3603 82.0228 94.0579 82.0228 C 94.7676 82.0228 95.393 82.1912 95.9343 82.528 C 96.4876 82.8647 96.9146 83.3399 97.2153 83.9533 C 97.528 84.5667 97.6844 85.2884 97.6844 86.1183 V 91.3144 C 97.6844 91.5189 97.6182 91.6873 97.4859 91.8196 C 97.3656 91.9399 97.2033 92 96.9988 92 Z M 108.947 92 C 108.731 92 108.556 91.9399 108.424 91.8196 C 108.304 91.6873 108.244 91.5129 108.244 91.2964 V 82.8347 C 108.244 82.6182 108.304 82.4498 108.424 82.3295 C 108.556 82.1972 108.731 82.131 108.947 82.131 C 109.152 82.131 109.314 82.1972 109.434 82.3295 C 109.567 82.4498 109.633 82.6182 109.633 82.8347 V 91.2964 C 109.633 91.5129 109.567 91.6873 109.434 91.8196 C 109.314 91.9399 109.152 92 108.947 92 Z M 108.929 80.2547 C 108.665 80.2547 108.436 80.1585 108.244 79.966 C 108.051 79.7736 107.955 79.539 107.955 79.2624 C 107.955 78.9617 108.051 78.7271 108.244 78.5587 C 108.448 78.3783 108.683 78.2881 108.947 78.2881 C 109.2 78.2881 109.422 78.3783 109.615 78.5587 C 109.819 78.7271 109.922 78.9617 109.922 79.2624 C 109.922 79.539 109.825 79.7736 109.633 79.966 C 109.44 80.1585 109.206 80.2547 108.929 80.2547 Z M 116.201 92 C 115.72 92 115.287 91.8677 114.902 91.6031 C 114.529 91.3385 114.235 90.9716 114.018 90.5025 C 113.814 90.0334 113.712 89.4922 113.712 88.8787 V 78.5948 C 113.712 78.3903 113.772 78.228 113.892 78.1077 C 114.024 77.9754 114.193 77.9092 114.397 77.9092 C 114.602 77.9092 114.764 77.9754 114.884 78.1077 C 115.017 78.228 115.083 78.3903 115.083 78.5948 V 88.8787 C 115.083 89.3959 115.185 89.8169 115.389 90.1417 C 115.606 90.4664 115.877 90.6288 116.201 90.6288 H 116.652 C 116.833 90.6288 116.977 90.695 117.085 90.8273 C 117.194 90.9475 117.248 91.1099 117.248 91.3144 C 117.248 91.5189 117.17 91.6873 117.013 91.8196 C 116.869 91.9399 116.676 92 116.436 92 H 116.201 Z M 123.995 92.0902 C 123.02 92.0902 122.154 91.8797 121.397 91.4587 C 120.651 91.0257 120.061 90.4303 119.628 89.6726 C 119.207 88.9148 118.997 88.0488 118.997 87.0745 C 118.997 86.0882 119.195 85.2222 119.592 84.4765 C 120.001 83.7187 120.561 83.1233 121.27 82.6903 C 121.98 82.2573 122.798 82.0408 123.724 82.0408 C 124.638 82.0408 125.432 82.2513 126.106 82.6723 C 126.791 83.0813 127.32 83.6526 127.693 84.3863 C 128.066 85.12 128.253 85.9559 128.253 86.8941 C 128.253 87.0866 128.192 87.2429 128.072 87.3632 C 127.952 87.4715 127.795 87.5256 127.603 87.5256 H 119.935 V 86.3709 H 127.747 L 126.972 86.9302 C 126.984 86.2326 126.857 85.6071 126.593 85.0538 C 126.328 84.5006 125.949 84.0675 125.456 83.7548 C 124.975 83.4421 124.398 83.2857 123.724 83.2857 C 123.038 83.2857 122.437 83.4481 121.92 83.7729 C 121.403 84.0976 121 84.5487 120.711 85.126 C 120.434 85.6913 120.296 86.3408 120.296 87.0745 C 120.296 87.8082 120.452 88.4578 120.765 89.0231 C 121.09 89.5884 121.529 90.0334 122.082 90.3582 C 122.635 90.6829 123.273 90.8453 123.995 90.8453 C 124.428 90.8453 124.861 90.7731 125.294 90.6288 C 125.739 90.4724 126.094 90.28 126.358 90.0515 C 126.49 89.9432 126.641 89.8891 126.809 89.8891 C 126.978 89.8771 127.122 89.9192 127.242 90.0154 C 127.399 90.1597 127.477 90.3161 127.477 90.4845 C 127.489 90.6529 127.423 90.7972 127.278 90.9175 C 126.881 91.2543 126.376 91.5369 125.763 91.7654 C 125.149 91.982 124.56 92.0902 123.995 92.0902 Z" stroke-linecap="round"/>
</g>
		<g transform="matrix(1 0 0 1 35.0663 50.236)">
<path style="stroke: none; stroke-width: 1; stroke-dasharray: none; stroke-linecap: butt; stroke-dashoffset: 0; stroke-linejoin: miter; stroke-miterlimit: 4; is-custom-font: none; font-file-url: none; fill: rgb(255,255,255); fill-rule: nonzero; opacity: 1;" transform=" translate(-99.5663, -109.236)" d="M 79.0734 111.82 C 79.1726 111.82 79.2606 111.859 79.3373 111.935 L 80.0544 112.713 C 79.6575 113.205 79.1681 113.582 78.5863 113.843 C 78.0089 114.105 77.3143 114.236 76.5024 114.236 C 75.7762 114.236 75.1222 114.112 74.5404 113.864 C 73.963 113.615 73.4691 113.27 73.0587 112.828 C 72.6482 112.386 72.3325 111.859 72.1115 111.245 C 71.895 110.632 71.7867 109.962 71.7867 109.236 C 71.7867 108.501 71.904 107.829 72.1385 107.22 C 72.3731 106.606 72.7023 106.078 73.1263 105.636 C 73.5548 105.194 74.0645 104.852 74.6554 104.608 C 75.2463 104.36 75.9003 104.236 76.6174 104.236 C 77.3301 104.236 77.9616 104.353 78.5118 104.588 C 79.0666 104.822 79.538 105.129 79.9259 105.508 L 79.317 106.354 C 79.2809 106.408 79.2335 106.455 79.1749 106.496 C 79.1208 106.536 79.0441 106.557 78.9449 106.557 C 78.8772 106.557 78.8073 106.539 78.7351 106.502 C 78.663 106.462 78.584 106.414 78.4983 106.36 C 78.4126 106.302 78.3134 106.239 78.2006 106.171 C 78.0879 106.103 77.9571 106.042 77.8082 105.988 C 77.6594 105.93 77.4857 105.882 77.2873 105.846 C 77.0933 105.806 76.8678 105.785 76.6107 105.785 C 76.1732 105.785 75.7717 105.864 75.4064 106.022 C 75.0455 106.175 74.7343 106.401 74.4727 106.699 C 74.2111 106.992 74.0081 107.353 73.8638 107.781 C 73.7195 108.205 73.6473 108.69 73.6473 109.236 C 73.6473 109.786 73.724 110.275 73.8773 110.704 C 74.0352 111.132 74.2472 111.493 74.5133 111.786 C 74.7794 112.08 75.0929 112.305 75.4537 112.463 C 75.8146 112.616 76.2025 112.693 76.6174 112.693 C 76.8655 112.693 77.0888 112.68 77.2873 112.652 C 77.4902 112.625 77.6752 112.583 77.842 112.524 C 78.0134 112.465 78.1736 112.391 78.3224 112.301 C 78.4758 112.206 78.6269 112.091 78.7757 111.956 C 78.8208 111.915 78.8682 111.883 78.9178 111.861 C 78.9674 111.834 79.0193 111.82 79.0734 111.82 Z M 89.6027 112.625 V 114.127 H 83.8721 V 104.344 H 85.6921 V 112.625 H 89.6027 Z M 95.2999 114.127 H 93.4731 V 104.344 H 95.2999 V 114.127 Z M 108.309 104.344 V 114.127 H 107.375 C 107.231 114.127 107.109 114.105 107.01 114.06 C 106.915 114.01 106.822 113.929 106.732 113.816 L 101.624 107.294 C 101.651 107.592 101.665 107.867 101.665 108.119 V 114.127 H 100.061 V 104.344 H 101.015 C 101.092 104.344 101.157 104.349 101.211 104.358 C 101.27 104.362 101.32 104.376 101.36 104.398 C 101.405 104.416 101.448 104.446 101.489 104.486 C 101.529 104.522 101.575 104.572 101.624 104.635 L 106.753 111.184 C 106.739 111.026 106.728 110.871 106.719 110.717 C 106.71 110.564 106.705 110.422 106.705 110.291 V 104.344 H 108.309 Z M 114.885 114.127 H 113.058 V 104.344 H 114.885 V 114.127 Z M 126.365 111.82 C 126.464 111.82 126.552 111.859 126.629 111.935 L 127.346 112.713 C 126.949 113.205 126.46 113.582 125.878 113.843 C 125.3 114.105 124.606 114.236 123.794 114.236 C 123.068 114.236 122.414 114.112 121.832 113.864 C 121.254 113.615 120.761 113.27 120.35 112.828 C 119.94 112.386 119.624 111.859 119.403 111.245 C 119.186 110.632 119.078 109.962 119.078 109.236 C 119.078 108.501 119.195 107.829 119.43 107.22 C 119.664 106.606 119.994 106.078 120.418 105.636 C 120.846 105.194 121.356 104.852 121.947 104.608 C 122.538 104.36 123.192 104.236 123.909 104.236 C 124.622 104.236 125.253 104.353 125.803 104.588 C 126.358 104.822 126.829 105.129 127.217 105.508 L 126.608 106.354 C 126.572 106.408 126.525 106.455 126.466 106.496 C 126.412 106.536 126.336 106.557 126.236 106.557 C 126.169 106.557 126.099 106.539 126.027 106.502 C 125.954 106.462 125.875 106.414 125.79 106.36 C 125.704 106.302 125.605 106.239 125.492 106.171 C 125.379 106.103 125.248 106.042 125.1 105.988 C 124.951 105.93 124.777 105.882 124.579 105.846 C 124.385 105.806 124.159 105.785 123.902 105.785 C 123.465 105.785 123.063 105.864 122.698 106.022 C 122.337 106.175 122.026 106.401 121.764 106.699 C 121.503 106.992 121.3 107.353 121.155 107.781 C 121.011 108.205 120.939 108.69 120.939 109.236 C 120.939 109.786 121.015 110.275 121.169 110.704 C 121.327 111.132 121.539 111.493 121.805 111.786 C 122.071 112.08 122.384 112.305 122.745 112.463 C 123.106 112.616 123.494 112.693 123.909 112.693 C 124.157 112.693 124.38 112.68 124.579 112.652 C 124.782 112.625 124.967 112.583 125.133 112.524 C 125.305 112.465 125.465 112.391 125.614 112.301 C 125.767 112.206 125.918 112.091 126.067 111.956 C 126.112 111.915 126.16 111.883 126.209 111.861 C 126.259 111.834 126.311 111.82 126.365 111.82 Z" stroke-linecap="round"/>
</g>
		<g transform="matrix(1 0 0 1 -32.1429 53.4523)">
<rect style="stroke: none; stroke-width: 1; stroke-dasharray: none; stroke-linecap: butt; stroke-dashoffset: 0; stroke-linejoin: miter; stroke-miterlimit: 4; is-custom-font: none; font-file-url: none; fill: rgb(255,255,255); fill-rule: nonzero; opacity: 1;" x="-30.1999" y="-0.5393" rx="0" ry="0" width="60.3998" height="1.0786"/>
</g>
</g>
</g>
<g transform="matrix(0.9861 -0.1659 0.1659 0.9861 407.8749 706.856)" style="" id="955442">
		
<path xml:space="preserve" font-family="Pacifico" font-size="135" style="stroke: none; stroke-width: 0; stroke-dasharray: none; stroke-linecap: butt; stroke-dashoffset: 0; stroke-linejoin: miter; stroke-miterlimit: 4; is-custom-font: none; font-file-url: none; fill: rgb(48,43,38); fill-rule: nonzero; opacity: 1; white-space: pre;" d="M-183.87 43.49Q-201.82 43.49-212.63 36.67Q-223.42 29.85-223.42 15.81L-223.42 15.81Q-223.42 8.39-220.86 4.47Q-218.29 0.56-213.30 0.56L-213.30 0.56Q-209.65 0.56-207.36 2.45Q-205.06 4.34-205.06 7.31L-205.06 7.31Q-205.06 10.01-205.47 12.03L-205.47 12.03Q-205.47 12.57-205.67 13.92Q-205.88 15.27-205.88 16.76L-205.88 16.76Q-205.88 22.83-199.73 25.80Q-193.59 28.77-182.52 28.77L-182.52 28.77Q-171.04 28.77-164.56 24.66Q-158.08 20.54-158.08 13.11L-158.08 13.11Q-158.08 8.52-161.05 5.22Q-164.02 1.91-168.48-0.32Q-172.93-2.55-181.03-5.79L-181.03-5.79Q-191.43-9.84-197.98-13.48Q-204.52-17.13-209.18-23.40Q-213.84-29.68-213.84-39.00L-213.84-39.00Q-213.84-48.72-208.64-56.28Q-203.44-63.84-193.66-68.02Q-183.87-72.21-170.64-72.21L-170.64-72.21Q-160.78-72.21-152.55-69.30Q-144.31-66.40-139.39-60.46Q-134.46-54.52-134.46-45.88L-134.46-45.88Q-134.46-37.38-137.02-33.06Q-139.59-28.74-144.58-28.74L-144.58-28.74Q-148.09-28.74-150.46-30.90Q-152.82-33.06-152.82-36.03L-152.82-36.03Q-152.82-38.59-152.41-40.75L-152.41-40.75Q-152.01-44.80-152.01-45.88L-152.01-45.88Q-152.01-51.55-157.54-54.52Q-163.08-57.49-171.31-57.49L-171.31-57.49Q-182.92-57.49-189.07-53.24Q-195.21-48.99-195.21-41.29L-195.21-41.29Q-195.21-36.16-192.04-32.52Q-188.86-28.87-184.14-26.44Q-179.41-24.01-170.91-20.64L-170.91-20.64Q-160.65-16.45-154.44-13.08Q-148.23-9.70-143.84-3.90Q-139.45 1.91-139.45 10.41L-139.45 10.41Q-139.45 26.34-151.54 34.92Q-163.62 43.49-183.87 43.49L-183.87 43.49ZM-67.77 12.30Q-66.01 12.30-65.00 13.92Q-63.99 15.54-63.99 18.38L-63.99 18.38Q-63.99 23.78-66.55 26.75L-66.55 26.75Q-71.55 32.82-80.66 37.95Q-89.77 43.08-100.17 43.08L-100.17 43.08Q-114.34 43.08-122.17 35.39Q-130.00 27.69-130.00 14.33L-130.00 14.33Q-130.00 5.01-126.09-3.02Q-122.17-11.05-115.22-15.78Q-108.27-20.50-99.49-20.50L-99.49-20.50Q-91.66-20.50-86.94-15.84Q-82.21-11.19-82.21-3.22L-82.21-3.22Q-82.21 6.09-88.90 12.78Q-95.58 19.46-111.51 23.37L-111.51 23.37Q-108.13 29.58-98.68 29.58L-98.68 29.58Q-92.61 29.58-84.85 25.33Q-77.08 21.08-71.41 14.19L-71.41 14.19Q-69.79 12.30-67.77 12.30L-67.77 12.30ZM-101.79-7.27Q-106.78-7.27-110.23-1.47Q-113.67 4.34-113.67 12.57L-113.67 12.57L-113.67 12.84Q-105.70 10.95-101.11 7.17Q-96.52 3.39-96.52-1.60L-96.52-1.60Q-96.52-4.17-97.94-5.72Q-99.36-7.27-101.79-7.27L-101.79-7.27ZM-65.34 43.08Q-70.47 43.08-72.56 37.68Q-74.65 32.28-74.65 20.40L-74.65 20.40Q-74.65 2.85-69.66-12.94L-69.66-12.94Q-68.44-16.86-65.68-18.68Q-62.91-20.50-57.91-20.50L-57.91-20.50Q-55.21-20.50-54.13-19.83Q-53.05-19.15-53.05-17.26L-53.05-17.26Q-53.05-15.10-55.08-7.54L-55.08-7.54Q-56.43-2.14-57.24 1.84Q-58.05 5.82-58.59 11.76L-58.59 11.76Q-54.94 1.23-49.88-6.06Q-44.82-13.35-39.49-16.92Q-34.15-20.50-29.43-20.50L-29.43-20.50Q-24.70-20.50-22.75-18.34Q-20.79-16.18-20.79-11.73L-20.79-11.73Q-20.79-7.41-23.35 3.93L-23.35 3.93Q-24.43 8.79-24.84 11.22L-24.84 11.22Q-18.09-5.38-9.85-12.94Q-1.62-20.50 5.54-20.50L5.54-20.50Q14.31-20.50 14.31-11.73L14.31-11.73Q14.31-6.46 11.34 7.31L11.34 7.31Q8.78 19.05 8.78 22.83L8.78 22.83Q8.78 28.23 12.69 28.23L12.69 28.23Q15.39 28.23 19.10 24.93Q22.82 21.62 29.03 14.19L29.03 14.19Q30.65 12.30 32.67 12.30L32.67 12.30Q34.43 12.30 35.44 13.92Q36.45 15.54 36.45 18.38L36.45 18.38Q36.45 23.78 33.89 26.75L33.89 26.75Q28.08 33.90 21.40 38.49Q14.72 43.08 6.21 43.08L6.21 43.08Q-0.67 43.08-4.18 39.10Q-7.69 35.12-7.69 27.56L-7.69 27.56Q-7.69 23.78-5.80 14.06L-5.80 14.06Q-4.05 5.55-4.05 2.31L-4.05 2.31Q-4.05 0.15-5.53 0.15L-5.53 0.15Q-7.29 0.15-10.53 4.68Q-13.77 9.20-17.01 16.62Q-20.25 24.05-22.27 32.28L-22.27 32.28Q-23.76 38.76-25.72 40.92Q-27.67 43.08-31.99 43.08L-31.99 43.08Q-36.45 43.08-38.68 38.83Q-40.90 34.58-40.90 28.50L-40.90 28.50Q-40.90 23.37-39.55 13.65L-39.55 13.65Q-38.47 5.01-38.47 2.31L-38.47 2.31Q-38.47 0.15-39.96 0.15L-39.96 0.15Q-41.98 0.15-45.09 5.01Q-48.19 9.87-51.10 17.43Q-54.00 24.99-55.75 32.28L-55.75 32.28Q-57.24 38.63-59.20 40.86Q-61.15 43.08-65.34 43.08L-65.34 43.08ZM43.20-29.41Q37.53-29.41 34.70-32.04Q31.86-34.68 31.86-39.40L31.86-39.40Q31.86-44.13 35.57-47.30Q39.29-50.47 44.82-50.47L44.82-50.47Q49.82-50.47 52.92-48.04Q56.03-45.61 56.03-41.16L56.03-41.16Q56.03-35.76 52.52-32.58Q49.01-29.41 43.20-29.41L43.20-29.41ZM42.12 43.08Q33.35 43.08 29.36 36.87Q25.38 30.66 25.38 20.40L25.38 20.40Q25.38 14.33 26.93 4.81Q28.49-4.71 30.92-12.94L30.92-12.94Q32.13-17.26 34.16-18.88Q36.18-20.50 40.64-20.50L40.64-20.50Q47.52-20.50 47.52-15.91L47.52-15.91Q47.52-12.54 44.96-0.25L44.96-0.25Q41.72 14.60 41.72 19.86L41.72 19.86Q41.72 23.91 42.80 26.07Q43.88 28.23 46.44 28.23L46.44 28.23Q48.87 28.23 52.52 24.86Q56.16 21.48 62.24 14.19L62.24 14.19Q63.86 12.30 65.88 12.30L65.88 12.30Q67.64 12.30 68.65 13.92Q69.66 15.54 69.66 18.38L69.66 18.38Q69.66 23.78 67.10 26.75L67.10 26.75Q53.73 43.08 42.12 43.08L42.12 43.08ZM68.31 43.08Q63.18 43.08 61.09 37.68Q59.00 32.28 59.00 20.40L59.00 20.40Q59.00 2.85 63.99-12.94L63.99-12.94Q65.21-16.86 67.97-18.68Q70.74-20.50 75.74-20.50L75.74-20.50Q78.44-20.50 79.52-19.83Q80.60-19.15 80.60-17.26L80.60-17.26Q80.60-15.10 78.57-7.54L78.57-7.54Q77.22-2.14 76.41 1.91Q75.60 5.96 75.06 11.90L75.06 11.90Q79.52 0.29 85.05-7.00Q90.59-14.29 95.92-17.40Q101.25-20.50 105.71-20.50L105.71-20.50Q114.48-20.50 114.48-11.73L114.48-11.73Q114.48-6.46 111.51 7.31L111.51 7.31Q108.95 19.05 108.95 22.83L108.95 22.83Q108.95 28.23 112.86 28.23L112.86 28.23Q115.56 28.23 119.27 24.93Q122.99 21.62 129.20 14.19L129.20 14.19Q130.82 12.30 132.84 12.30L132.84 12.30Q134.60 12.30 135.61 13.92Q136.62 15.54 136.62 18.38L136.62 18.38Q136.62 23.78 134.06 26.75L134.06 26.75Q128.25 33.90 121.57 38.49Q114.89 43.08 106.38 43.08L106.38 43.08Q99.50 43.08 95.99 39.10Q92.48 35.12 92.48 27.56L92.48 27.56Q92.48 23.78 94.37 14.06L94.37 14.06Q96.12 5.55 96.12 2.31L96.12 2.31Q96.12 0.15 94.64 0.15L94.64 0.15Q92.88 0.15 89.71 4.68Q86.54 9.20 83.23 16.62Q79.92 24.05 77.90 32.28L77.90 32.28Q76.41 38.63 74.45 40.86Q72.50 43.08 68.31 43.08L68.31 43.08ZM185.90 12.30Q187.65 12.30 188.66 13.92Q189.68 15.54 189.68 18.38L189.68 18.38Q189.68 23.78 187.11 26.75L187.11 26.75Q182.12 32.82 173.00 37.95Q163.89 43.08 153.50 43.08L153.50 43.08Q139.32 43.08 131.49 35.39Q123.66 27.69 123.66 14.33L123.66 14.33Q123.66 5.01 127.58-3.02Q131.49-11.05 138.44-15.78Q145.40-20.50 154.17-20.50L154.17-20.50Q162.00-20.50 166.73-15.84Q171.45-11.19 171.45-3.22L171.45-3.22Q171.45 6.09 164.77 12.78Q158.09 19.46 142.16 23.37L142.16 23.37Q145.53 29.58 154.98 29.58L154.98 29.58Q161.06 29.58 168.82 25.33Q176.58 21.08 182.25 14.19L182.25 14.19Q183.87 12.30 185.90 12.30L185.90 12.30ZM151.88-7.27Q146.88-7.27 143.44-1.47Q140.00 4.34 140.00 12.57L140.00 12.57L140.00 12.84Q147.96 10.95 152.55 7.17Q157.14 3.39 157.14-1.60L157.14-1.60Q157.14-4.17 155.72-5.72Q154.31-7.27 151.88-7.27L151.88-7.27ZM238.95 12.30Q240.71 12.30 241.72 13.92Q242.73 15.54 242.73 18.38L242.73 18.38Q242.73 23.78 240.17 26.75L240.17 26.75Q234.36 33.90 227.48 38.49Q220.59 43.08 211.68 43.08L211.68 43.08Q184.14 43.08 184.14 4.34L184.14 4.34Q184.14-1.60 184.55-7.68L184.55-7.68L179.28-7.68Q175.23-7.68 173.81-9.16Q172.40-10.65 172.40-13.89L172.40-13.89Q172.40-21.45 178.47-21.45L178.47-21.45L186.17-21.45Q188.46-36.30 193.19-48.58Q197.91-60.87 204.59-68.16Q211.28-75.45 218.97-75.45L218.97-75.45Q224.64-75.45 227.88-70.45Q231.12-65.46 231.12-57.90L231.12-57.90Q231.12-36.97 213.57-21.45L213.57-21.45L228.69-21.45Q230.85-21.45 231.80-20.50Q232.74-19.56 232.74-16.99L232.74-16.99Q232.74-7.68 217.49-7.68L217.49-7.68L201.02-7.68Q200.75-0.93 200.75 2.85L200.75 2.85Q200.75 16.89 204.05 22.56Q207.36 28.23 214.52 28.23L214.52 28.23Q220.32 28.23 224.78 24.72Q229.23 21.21 235.31 14.19L235.31 14.19Q236.93 12.30 238.95 12.30L238.95 12.30ZM215.33-62.49Q213.30-62.49 210.80-57.42Q208.31-52.36 206.08-43.38Q203.85-34.41 202.37-23.47L202.37-23.47Q210.33-30.36 214.31-38.93Q218.30-47.50 218.30-54.52L218.30-54.52Q218.30-62.49 215.33-62.49L215.33-62.49Z"/></g>
<g transform="matrix(1 0 0 1 463.8965 551.6393)" style="" id="702192">
		
<path xml:space="preserve" font-family="Abel" font-size="64" style="stroke: none; stroke-width: 0; stroke-dasharray: none; stroke-linecap: butt; stroke-dashoffset: 0; stroke-linejoin: miter; stroke-miterlimit: 4; is-custom-font: none; font-file-url: none; fill: rgb(48,43,38); fill-rule: nonzero; opacity: 1; white-space: pre;" d="M-170.72 9.73L-170.72 9.73Q-170.72 12.01-171.58 14.01Q-172.44 16.01-173.94 17.51Q-175.44 19.01-177.44 19.87Q-179.44 20.73-181.72 20.73L-181.72 20.73L-184.91 20.73Q-187.19 20.73-189.20 19.87Q-191.22 19.01-192.72 17.51Q-194.22 16.01-195.08 14.01Q-195.94 12.01-195.94 9.73L-195.94 9.73L-195.94-14.33Q-195.94-16.61-195.08-18.61Q-194.22-20.61-192.72-22.11Q-191.22-23.61-189.20-24.47Q-187.19-25.33-184.91-25.33L-184.91-25.33L-181.72-25.33Q-179.44-25.33-177.44-24.47Q-175.44-23.61-173.94-22.11Q-172.44-20.61-171.58-18.61Q-170.72-16.61-170.72-14.33L-170.72-14.33L-170.72-12.52L-174.75-11.89L-174.75-14.33Q-174.75-15.83-175.31-17.13Q-175.88-18.43-176.84-19.39Q-177.81-20.36-179.11-20.93Q-180.41-21.49-181.91-21.49L-181.91-21.49L-184.72-21.49Q-186.22-21.49-187.52-20.93Q-188.81-20.36-189.80-19.39Q-190.78-18.43-191.34-17.13Q-191.91-15.83-191.91-14.33L-191.91-14.33L-191.91 9.73Q-191.91 11.23-191.34 12.53Q-190.78 13.82-189.80 14.81Q-188.81 15.79-187.52 16.36Q-186.22 16.92-184.72 16.92L-184.72 16.92L-181.91 16.92Q-180.41 16.92-179.11 16.36Q-177.81 15.79-176.84 14.81Q-175.88 13.82-175.31 12.53Q-174.75 11.23-174.75 9.73L-174.75 9.73L-174.75 7.29L-170.72 7.95L-170.72 9.73ZM-141.66 20.11L-142.94 20.11L-145.06 16.92Q-146.38 18.64-148.34 19.68Q-150.31 20.73-152.66 20.73L-152.66 20.73L-153.63 20.73Q-155.56 20.73-157.28 20.00Q-159.00 19.26-160.28 17.98Q-161.56 16.70-162.30 14.98Q-163.03 13.26-163.03 11.32L-163.03 11.32L-163.03 11.01Q-163.03 9.07-162.30 7.36Q-161.56 5.64-160.28 4.36Q-159.00 3.07-157.28 2.34Q-155.56 1.61-153.63 1.61L-153.63 1.61L-145.50 1.61L-145.50-3.33Q-145.50-4.49-145.94-5.50Q-146.38-6.52-147.13-7.27Q-147.88-8.02-148.89-8.46Q-149.91-8.89-151.06-8.89L-151.06-8.89L-153.31-8.89Q-154.47-8.89-155.48-8.46Q-156.50-8.02-157.25-7.27Q-158.00-6.52-158.44-5.50Q-158.88-4.49-158.88-3.33L-158.88-3.33L-158.88-2.18L-162.72-2.80L-162.72-3.11Q-162.72-5.05-161.98-6.77Q-161.25-8.49-159.97-9.77Q-158.69-11.05-156.97-11.79Q-155.25-12.52-153.31-12.52L-153.31-12.52L-151.06-12.52Q-149.13-12.52-147.41-11.79Q-145.69-11.05-144.41-9.77Q-143.13-8.49-142.39-6.77Q-141.66-5.05-141.66-3.11L-141.66-3.11L-141.66 20.11ZM-145.50 11.54L-145.50 4.61L-153.63 4.61Q-154.78 4.61-155.80 5.04Q-156.81 5.48-157.56 6.25Q-158.31 7.01-158.75 8.03Q-159.19 9.04-159.19 10.20L-159.19 10.20L-159.19 11.54Q-159.19 12.70-158.75 13.71Q-158.31 14.73-157.56 15.48Q-156.81 16.23-155.80 16.67Q-154.78 17.11-153.63 17.11L-153.63 17.11L-151.06 17.11Q-149.91 17.11-148.89 16.67Q-147.88 16.23-147.13 15.48Q-146.38 14.73-145.94 13.71Q-145.50 12.70-145.50 11.54L-145.50 11.54ZM-112.59 11.32L-112.59 11.32Q-112.59 13.26-113.33 14.98Q-114.06 16.70-115.34 17.98Q-116.63 19.26-118.34 20.00Q-120.06 20.73-122.00 20.73L-122.00 20.73L-124.56 20.73Q-126.50 20.73-128.22 20.00Q-129.94 19.26-131.22 17.98Q-132.50 16.70-133.23 14.98Q-133.97 13.26-133.97 11.32L-133.97 11.32L-133.97-24.71L-130.13-24.71L-130.13-9.21Q-128.81-10.77-126.97-11.64Q-125.13-12.52-122.97-12.52L-122.97-12.52L-122.00-12.52Q-120.06-12.52-118.34-11.79Q-116.63-11.05-115.34-9.77Q-114.06-8.49-113.33-6.77Q-112.59-5.05-112.59-3.11L-112.59-3.11L-112.59 11.32ZM-116.44 11.54L-116.44-3.33Q-116.44-4.49-116.88-5.50Q-117.31-6.52-118.06-7.27Q-118.81-8.02-119.83-8.46Q-120.84-8.89-122.00-8.89L-122.00-8.89L-124.56-8.89Q-125.72-8.89-126.73-8.46Q-127.75-8.02-128.50-7.27Q-129.25-6.52-129.69-5.50Q-130.13-4.49-130.13-3.33L-130.13-3.33L-130.13 11.54Q-130.13 12.70-129.69 13.71Q-129.25 14.73-128.50 15.48Q-127.75 16.23-126.73 16.67Q-125.72 17.11-124.56 17.11L-124.56 17.11L-122.00 17.11Q-120.84 17.11-119.83 16.67Q-118.81 16.23-118.06 15.48Q-117.31 14.73-116.88 13.71Q-116.44 12.70-116.44 11.54L-116.44 11.54ZM-99.47-19.58L-103.94-19.58L-103.94-24.71L-99.47-24.71L-99.47-19.58ZM-99.78 20.11L-103.63 20.11L-103.63-11.89L-99.78-11.89L-99.78 20.11ZM-69.44 20.11L-73.28 20.11L-73.28-3.33Q-73.28-4.49-73.72-5.50Q-74.16-6.52-74.91-7.27Q-75.66-8.02-76.67-8.46Q-77.69-8.89-78.84-8.89L-78.84-8.89L-81.41-8.89Q-82.56-8.89-83.58-8.46Q-84.59-8.02-85.34-7.27Q-86.09-6.52-86.53-5.50Q-86.97-4.49-86.97-3.33L-86.97-3.33L-86.97 20.11L-90.81 20.11L-90.81-11.89L-89.53-11.89L-87.44-8.64Q-86.13-10.43-84.14-11.47Q-82.16-12.52-79.81-12.52L-79.81-12.52L-78.84-12.52Q-76.91-12.52-75.19-11.79Q-73.47-11.05-72.19-9.77Q-70.91-8.49-70.17-6.77Q-69.44-5.05-69.44-3.11L-69.44-3.11L-69.44 20.11ZM-40.38 11.32L-40.38 11.32Q-40.38 13.26-41.11 14.98Q-41.84 16.70-43.13 17.98Q-44.41 19.26-46.13 20.00Q-47.84 20.73-49.78 20.73L-49.78 20.73L-52.34 20.73Q-54.28 20.73-56.00 20.00Q-57.72 19.26-59.00 17.98Q-60.28 16.70-61.02 14.98Q-61.75 13.26-61.75 11.32L-61.75 11.32L-61.75-3.11Q-61.75-5.05-61.02-6.77Q-60.28-8.49-59.00-9.77Q-57.72-11.05-56.00-11.79Q-54.28-12.52-52.34-12.52L-52.34-12.52L-49.78-12.52Q-47.84-12.52-46.13-11.79Q-44.41-11.05-43.13-9.77Q-41.84-8.49-41.11-6.77Q-40.38-5.05-40.38-3.11L-40.38-3.11L-40.38 4.42L-57.91 4.42L-57.91 11.54Q-57.91 12.70-57.47 13.71Q-57.03 14.73-56.28 15.48Q-55.53 16.23-54.52 16.67Q-53.50 17.11-52.34 17.11L-52.34 17.11L-49.78 17.11Q-48.63 17.11-47.61 16.67Q-46.59 16.23-45.84 15.48Q-45.09 14.73-44.66 13.71Q-44.22 12.70-44.22 11.54L-44.22 11.54L-44.22 9.42L-40.38 10.04L-40.38 11.32ZM-44.22 1.42L-44.22-3.33Q-44.22-4.49-44.66-5.50Q-45.09-6.52-45.84-7.27Q-46.59-8.02-47.61-8.46Q-48.63-8.89-49.78-8.89L-49.78-8.89L-52.34-8.89Q-53.50-8.89-54.52-8.46Q-55.53-8.02-56.28-7.27Q-57.03-6.52-57.47-5.50Q-57.91-4.49-57.91-3.33L-57.91-3.33L-57.91 1.42L-44.22 1.42ZM-17.53 20.11L-21.03 20.11Q-22.78 20.11-24.33 19.45Q-25.88 18.79-27.02 17.64Q-28.16 16.48-28.83 14.95Q-29.50 13.42-29.50 11.67L-29.50 11.67L-29.50-8.24L-35.25-8.24L-35.25-11.89L-29.50-11.89L-29.50-19.58L-25.66-20.21L-25.66-11.89L-17.53-11.89L-17.53-8.24L-25.66-8.24L-25.66 11.86Q-25.66 12.82-25.30 13.65Q-24.94 14.48-24.31 15.11Q-23.69 15.73-22.84 16.09Q-22.00 16.45-21.03 16.45L-21.03 16.45L-17.53 16.45L-17.53 20.11ZM25.62 20.11L24.34 20.11L22.22 16.86Q20.91 18.64 18.94 19.68Q16.97 20.73 14.62 20.73L14.62 20.73L13.66 20.73Q11.72 20.73 10.00 20.00Q8.28 19.26 7.00 17.98Q5.72 16.70 4.98 14.98Q4.25 13.26 4.25 11.32L4.25 11.32L4.25-3.11Q4.25-5.05 4.98-6.77Q5.72-8.49 7.00-9.77Q8.28-11.05 10.00-11.79Q11.72-12.52 13.66-12.52L13.66-12.52L14.62-12.52Q16.78-12.52 18.62-11.64Q20.47-10.77 21.78-9.21L21.78-9.21L21.78-24.71L25.62-24.71L25.62 20.11ZM21.78 11.54L21.78-3.33Q21.78-4.49 21.34-5.50Q20.91-6.52 20.16-7.27Q19.41-8.02 18.39-8.46Q17.37-8.89 16.22-8.89L16.22-8.89L13.66-8.89Q12.50-8.89 11.48-8.46Q10.47-8.02 9.72-7.27Q8.97-6.52 8.53-5.50Q8.09-4.49 8.09-3.33L8.09-3.33L8.09 11.54Q8.09 12.70 8.53 13.71Q8.97 14.73 9.72 15.48Q10.47 16.23 11.48 16.67Q12.50 17.11 13.66 17.11L13.66 17.11L16.22 17.11Q17.37 17.11 18.39 16.67Q19.41 16.23 20.16 15.48Q20.91 14.73 21.34 13.71Q21.78 12.70 21.78 11.54L21.78 11.54ZM54.69 11.32L54.69 11.32Q54.69 13.26 53.95 14.98Q53.22 16.70 51.94 17.98Q50.66 19.26 48.94 20.00Q47.22 20.73 45.28 20.73L45.28 20.73L42.72 20.73Q40.78 20.73 39.06 20.00Q37.34 19.26 36.06 17.98Q34.78 16.70 34.05 14.98Q33.31 13.26 33.31 11.32L33.31 11.32L33.31-3.11Q33.31-5.05 34.05-6.77Q34.78-8.49 36.06-9.77Q37.34-11.05 39.06-11.79Q40.78-12.52 42.72-12.52L42.72-12.52L45.28-12.52Q47.22-12.52 48.94-11.79Q50.66-11.05 51.94-9.77Q53.22-8.49 53.95-6.77Q54.69-5.05 54.69-3.11L54.69-3.11L54.69 4.42L37.16 4.42L37.16 11.54Q37.16 12.70 37.59 13.71Q38.03 14.73 38.78 15.48Q39.53 16.23 40.55 16.67Q41.56 17.11 42.72 17.11L42.72 17.11L45.28 17.11Q46.44 17.11 47.45 16.67Q48.47 16.23 49.22 15.48Q49.97 14.73 50.41 13.71Q50.84 12.70 50.84 11.54L50.84 11.54L50.84 9.42L54.69 10.04L54.69 11.32ZM50.84 1.42L50.84-3.33Q50.84-4.49 50.41-5.50Q49.97-6.52 49.22-7.27Q48.47-8.02 47.45-8.46Q46.44-8.89 45.28-8.89L45.28-8.89L42.72-8.89Q41.56-8.89 40.55-8.46Q39.53-8.02 38.78-7.27Q38.03-6.52 37.59-5.50Q37.16-4.49 37.16-3.33L37.16-3.33L37.16 1.42L50.84 1.42ZM83.75 20.11L79.91 20.11L79.91-3.33Q79.91-4.49 79.47-5.50Q79.03-6.52 78.28-7.27Q77.53-8.02 76.52-8.46Q75.50-8.89 74.34-8.89L74.34-8.89L71.78-8.89Q70.62-8.89 69.61-8.46Q68.59-8.02 67.84-7.27Q67.09-6.52 66.66-5.50Q66.22-4.49 66.22-3.33L66.22-3.33L66.22 20.11L62.37 20.11L62.37-11.89L63.66-11.89L65.75-8.64Q67.06-10.43 69.05-11.47Q71.03-12.52 73.37-12.52L73.37-12.52L74.34-12.52Q76.28-12.52 78.00-11.79Q79.72-11.05 81.00-9.77Q82.28-8.49 83.02-6.77Q83.75-5.05 83.75-3.11L83.75-3.11L83.75 20.11ZM106.59 20.11L103.09 20.11Q101.34 20.11 99.80 19.45Q98.25 18.79 97.11 17.64Q95.97 16.48 95.30 14.95Q94.62 13.42 94.62 11.67L94.62 11.67L94.62-8.24L88.87-8.24L88.87-11.89L94.62-11.89L94.62-19.58L98.47-20.21L98.47-11.89L106.59-11.89L106.59-8.24L98.47-8.24L98.47 11.86Q98.47 12.82 98.83 13.65Q99.19 14.48 99.81 15.11Q100.44 15.73 101.28 16.09Q102.12 16.45 103.09 16.45L103.09 16.45L106.59 16.45L106.59 20.11ZM135.03 20.11L133.75 20.11L131.62 16.92Q130.31 18.64 128.34 19.68Q126.37 20.73 124.03 20.73L124.03 20.73L123.06 20.73Q121.12 20.73 119.41 20.00Q117.69 19.26 116.41 17.98Q115.12 16.70 114.39 14.98Q113.66 13.26 113.66 11.32L113.66 11.32L113.66 11.01Q113.66 9.07 114.39 7.36Q115.12 5.64 116.41 4.36Q117.69 3.07 119.41 2.34Q121.12 1.61 123.06 1.61L123.06 1.61L131.19 1.61L131.19-3.33Q131.19-4.49 130.75-5.50Q130.31-6.52 129.56-7.27Q128.81-8.02 127.80-8.46Q126.78-8.89 125.62-8.89L125.62-8.89L123.37-8.89Q122.22-8.89 121.20-8.46Q120.19-8.02 119.44-7.27Q118.69-6.52 118.25-5.50Q117.81-4.49 117.81-3.33L117.81-3.33L117.81-2.18L113.97-2.80L113.97-3.11Q113.97-5.05 114.70-6.77Q115.44-8.49 116.72-9.77Q118.00-11.05 119.72-11.79Q121.44-12.52 123.37-12.52L123.37-12.52L125.62-12.52Q127.56-12.52 129.28-11.79Q131.00-11.05 132.28-9.77Q133.56-8.49 134.30-6.77Q135.03-5.05 135.03-3.11L135.03-3.11L135.03 20.11ZM131.19 11.54L131.19 4.61L123.06 4.61Q121.91 4.61 120.89 5.04Q119.87 5.48 119.12 6.25Q118.37 7.01 117.94 8.03Q117.50 9.04 117.50 10.20L117.50 10.20L117.50 11.54Q117.50 12.70 117.94 13.71Q118.37 14.73 119.12 15.48Q119.87 16.23 120.89 16.67Q121.91 17.11 123.06 17.11L123.06 17.11L125.62 17.11Q126.78 17.11 127.80 16.67Q128.81 16.23 129.56 15.48Q130.31 14.73 130.75 13.71Q131.19 12.70 131.19 11.54L131.19 11.54ZM148.16-19.58L143.69-19.58L143.69-24.71L148.16-24.71L148.16-19.58ZM147.84 20.11L144.00 20.11L144.00-11.89L147.84-11.89L147.84 20.11ZM170.06-8.24L166.22-8.24Q165.06-8.24 164.05-7.80Q163.03-7.36 162.28-6.61Q161.53-5.86 161.09-4.85Q160.66-3.83 160.66-2.68L160.66-2.68L160.66 20.11L156.81 20.11L156.81-11.89L158.09-11.89L160.19-8.64Q161.50-10.43 163.48-11.47Q165.47-12.52 167.81-12.52L167.81-12.52L170.06-12.52L170.06-8.24ZM196.56 11.32L196.56 11.32Q196.56 13.26 195.83 14.98Q195.09 16.70 193.81 17.98Q192.53 19.26 190.81 20.00Q189.09 20.73 187.16 20.73L187.16 20.73L184.59 20.73Q182.66 20.73 180.94 20.00Q179.22 19.26 177.94 17.98Q176.66 16.70 175.92 14.98Q175.19 13.26 175.19 11.32L175.19 11.32L175.19-3.11Q175.19-5.05 175.92-6.77Q176.66-8.49 177.94-9.77Q179.22-11.05 180.94-11.79Q182.66-12.52 184.59-12.52L184.59-12.52L187.16-12.52Q189.09-12.52 190.81-11.79Q192.53-11.05 193.81-9.77Q195.09-8.49 195.83-6.77Q196.56-5.05 196.56-3.11L196.56-3.11L196.56 4.42L179.03 4.42L179.03 11.54Q179.03 12.70 179.47 13.71Q179.91 14.73 180.66 15.48Q181.41 16.23 182.42 16.67Q183.44 17.11 184.59 17.11L184.59 17.11L187.16 17.11Q188.31 17.11 189.33 16.67Q190.34 16.23 191.09 15.48Q191.84 14.73 192.28 13.71Q192.72 12.70 192.72 11.54L192.72 11.54L192.72 9.42L196.56 10.04L196.56 11.32ZM192.72 1.42L192.72-3.33Q192.72-4.49 192.28-5.50Q191.84-6.52 191.09-7.27Q190.34-8.02 189.33-8.46Q188.31-8.89 187.16-8.89L187.16-8.89L184.59-8.89Q183.44-8.89 182.42-8.46Q181.41-8.02 180.66-7.27Q179.91-6.52 179.47-5.50Q179.03-4.49 179.03-3.33L179.03-3.33L179.03 1.42L192.72 1.42Z"/></g>
<g transform="matrix(5.3735 0 0 3.0456 497.5014 746.3695)" id="542948">
<path style="stroke: none; stroke-width: 0; stroke-dasharray: none; stroke-linecap: butt; stroke-dashoffset: 0; stroke-linejoin: miter; stroke-miterlimit: 4; is-custom-font: none; font-file-url: none; fill: rgb(255,255,255); fill-rule: nonzero; opacity: 1;" vector-effect="non-scaling-stroke" transform=" translate(-79, -78.9999)" d="M 154.685 2.50049 H 154.711 L 154.738 2.49994 C 155.15 2.49126 155.491 2.81853 155.5 3.2304 L 155.5 3.23069 C 155.5 3.24095 155.5 3.25176 155.5 3.26283 L 155.499 3.28886 V 3.3149 V 154.686 C 155.499 155.135 155.135 155.5 154.685 155.5 H 3.31409 C 2.86449 155.5 2.5 155.135 2.5 154.686 V 3.3149 C 2.5 2.86483 2.86465 2.50049 3.31409 2.50049 H 154.685 Z" stroke-linecap="round"/>
</g>
<g transform="matrix(0.9861 -0.1659 0.1659 0.9861 447.4897 793.0465)" style="" id="317853">
		
<path xml:space="preserve" font-family="Pacifico" font-size="135" style="stroke: none; stroke-width: 0; stroke-dasharray: none; stroke-linecap: butt; stroke-dashoffset: 0; stroke-linejoin: miter; stroke-miterlimit: 4; is-custom-font: none; font-file-url: none; fill: rgb(255,255,255); fill-rule: nonzero; opacity: 1; white-space: pre;" d="M-183.87 43.49Q-201.82 43.49-212.63 36.67Q-223.42 29.85-223.42 15.81L-223.42 15.81Q-223.42 8.39-220.86 4.47Q-218.29 0.56-213.30 0.56L-213.30 0.56Q-209.65 0.56-207.36 2.45Q-205.06 4.34-205.06 7.31L-205.06 7.31Q-205.06 10.01-205.47 12.03L-205.47 12.03Q-205.47 12.57-205.67 13.92Q-205.88 15.27-205.88 16.76L-205.88 16.76Q-205.88 22.83-199.73 25.80Q-193.59 28.77-182.52 28.77L-182.52 28.77Q-171.04 28.77-164.56 24.66Q-158.08 20.54-158.08 13.11L-158.08 13.11Q-158.08 8.52-161.05 5.22Q-164.02 1.91-168.48-0.32Q-172.93-2.55-181.03-5.79L-181.03-5.79Q-191.43-9.84-197.98-13.48Q-204.52-17.13-209.18-23.40Q-213.84-29.68-213.84-39.00L-213.84-39.00Q-213.84-48.72-208.64-56.28Q-203.44-63.84-193.66-68.02Q-183.87-72.21-170.64-72.21L-170.64-72.21Q-160.78-72.21-152.55-69.30Q-144.31-66.40-139.39-60.46Q-134.46-54.52-134.46-45.88L-134.46-45.88Q-134.46-37.38-137.02-33.06Q-139.59-28.74-144.58-28.74L-144.58-28.74Q-148.09-28.74-150.46-30.90Q-152.82-33.06-152.82-36.03L-152.82-36.03Q-152.82-38.59-152.41-40.75L-152.41-40.75Q-152.01-44.80-152.01-45.88L-152.01-45.88Q-152.01-51.55-157.54-54.52Q-163.08-57.49-171.31-57.49L-171.31-57.49Q-182.92-57.49-189.07-53.24Q-195.21-48.99-195.21-41.29L-195.21-41.29Q-195.21-36.16-192.04-32.52Q-188.86-28.87-184.14-26.44Q-179.41-24.01-170.91-20.64L-170.91-20.64Q-160.65-16.45-154.44-13.08Q-148.23-9.70-143.84-3.90Q-139.45 1.91-139.45 10.41L-139.45 10.41Q-139.45 26.34-151.54 34.92Q-163.62 43.49-183.87 43.49L-183.87 43.49ZM-67.77 12.30Q-66.01 12.30-65.00 13.92Q-63.99 15.54-63.99 18.38L-63.99 18.38Q-63.99 23.78-66.55 26.75L-66.55 26.75Q-71.55 32.82-80.66 37.95Q-89.77 43.08-100.17 43.08L-100.17 43.08Q-114.34 43.08-122.17 35.39Q-130.00 27.69-130.00 14.33L-130.00 14.33Q-130.00 5.01-126.09-3.02Q-122.17-11.05-115.22-15.78Q-108.27-20.50-99.49-20.50L-99.49-20.50Q-91.66-20.50-86.94-15.84Q-82.21-11.19-82.21-3.22L-82.21-3.22Q-82.21 6.09-88.90 12.78Q-95.58 19.46-111.51 23.37L-111.51 23.37Q-108.13 29.58-98.68 29.58L-98.68 29.58Q-92.61 29.58-84.85 25.33Q-77.08 21.08-71.41 14.19L-71.41 14.19Q-69.79 12.30-67.77 12.30L-67.77 12.30ZM-101.79-7.27Q-106.78-7.27-110.23-1.47Q-113.67 4.34-113.67 12.57L-113.67 12.57L-113.67 12.84Q-105.70 10.95-101.11 7.17Q-96.52 3.39-96.52-1.60L-96.52-1.60Q-96.52-4.17-97.94-5.72Q-99.36-7.27-101.79-7.27L-101.79-7.27ZM-65.34 43.08Q-70.47 43.08-72.56 37.68Q-74.65 32.28-74.65 20.40L-74.65 20.40Q-74.65 2.85-69.66-12.94L-69.66-12.94Q-68.44-16.86-65.68-18.68Q-62.91-20.50-57.91-20.50L-57.91-20.50Q-55.21-20.50-54.13-19.83Q-53.05-19.15-53.05-17.26L-53.05-17.26Q-53.05-15.10-55.08-7.54L-55.08-7.54Q-56.43-2.14-57.24 1.84Q-58.05 5.82-58.59 11.76L-58.59 11.76Q-54.94 1.23-49.88-6.06Q-44.82-13.35-39.49-16.92Q-34.15-20.50-29.43-20.50L-29.43-20.50Q-24.70-20.50-22.75-18.34Q-20.79-16.18-20.79-11.73L-20.79-11.73Q-20.79-7.41-23.35 3.93L-23.35 3.93Q-24.43 8.79-24.84 11.22L-24.84 11.22Q-18.09-5.38-9.85-12.94Q-1.62-20.50 5.54-20.50L5.54-20.50Q14.31-20.50 14.31-11.73L14.31-11.73Q14.31-6.46 11.34 7.31L11.34 7.31Q8.78 19.05 8.78 22.83L8.78 22.83Q8.78 28.23 12.69 28.23L12.69 28.23Q15.39 28.23 19.10 24.93Q22.82 21.62 29.03 14.19L29.03 14.19Q30.65 12.30 32.67 12.30L32.67 12.30Q34.43 12.30 35.44 13.92Q36.45 15.54 36.45 18.38L36.45 18.38Q36.45 23.78 33.89 26.75L33.89 26.75Q28.08 33.90 21.40 38.49Q14.72 43.08 6.21 43.08L6.21 43.08Q-0.67 43.08-4.18 39.10Q-7.69 35.12-7.69 27.56L-7.69 27.56Q-7.69 23.78-5.80 14.06L-5.80 14.06Q-4.05 5.55-4.05 2.31L-4.05 2.31Q-4.05 0.15-5.53 0.15L-5.53 0.15Q-7.29 0.15-10.53 4.68Q-13.77 9.20-17.01 16.62Q-20.25 24.05-22.27 32.28L-22.27 32.28Q-23.76 38.76-25.72 40.92Q-27.67 43.08-31.99 43.08L-31.99 43.08Q-36.45 43.08-38.68 38.83Q-40.90 34.58-40.90 28.50L-40.90 28.50Q-40.90 23.37-39.55 13.65L-39.55 13.65Q-38.47 5.01-38.47 2.31L-38.47 2.31Q-38.47 0.15-39.96 0.15L-39.96 0.15Q-41.98 0.15-45.09 5.01Q-48.19 9.87-51.10 17.43Q-54.00 24.99-55.75 32.28L-55.75 32.28Q-57.24 38.63-59.20 40.86Q-61.15 43.08-65.34 43.08L-65.34 43.08ZM43.20-29.41Q37.53-29.41 34.70-32.04Q31.86-34.68 31.86-39.40L31.86-39.40Q31.86-44.13 35.57-47.30Q39.29-50.47 44.82-50.47L44.82-50.47Q49.82-50.47 52.92-48.04Q56.03-45.61 56.03-41.16L56.03-41.16Q56.03-35.76 52.52-32.58Q49.01-29.41 43.20-29.41L43.20-29.41ZM42.12 43.08Q33.35 43.08 29.36 36.87Q25.38 30.66 25.38 20.40L25.38 20.40Q25.38 14.33 26.93 4.81Q28.49-4.71 30.92-12.94L30.92-12.94Q32.13-17.26 34.16-18.88Q36.18-20.50 40.64-20.50L40.64-20.50Q47.52-20.50 47.52-15.91L47.52-15.91Q47.52-12.54 44.96-0.25L44.96-0.25Q41.72 14.60 41.72 19.86L41.72 19.86Q41.72 23.91 42.80 26.07Q43.88 28.23 46.44 28.23L46.44 28.23Q48.87 28.23 52.52 24.86Q56.16 21.48 62.24 14.19L62.24 14.19Q63.86 12.30 65.88 12.30L65.88 12.30Q67.64 12.30 68.65 13.92Q69.66 15.54 69.66 18.38L69.66 18.38Q69.66 23.78 67.10 26.75L67.10 26.75Q53.73 43.08 42.12 43.08L42.12 43.08ZM68.31 43.08Q63.18 43.08 61.09 37.68Q59.00 32.28 59.00 20.40L59.00 20.40Q59.00 2.85 63.99-12.94L63.99-12.94Q65.21-16.86 67.97-18.68Q70.74-20.50 75.74-20.50L75.74-20.50Q78.44-20.50 79.52-19.83Q80.60-19.15 80.60-17.26L80.60-17.26Q80.60-15.10 78.57-7.54L78.57-7.54Q77.22-2.14 76.41 1.91Q75.60 5.96 75.06 11.90L75.06 11.90Q79.52 0.29 85.05-7.00Q90.59-14.29 95.92-17.40Q101.25-20.50 105.71-20.50L105.71-20.50Q114.48-20.50 114.48-11.73L114.48-11.73Q114.48-6.46 111.51 7.31L111.51 7.31Q108.95 19.05 108.95 22.83L108.95 22.83Q108.95 28.23 112.86 28.23L112.86 28.23Q115.56 28.23 119.27 24.93Q122.99 21.62 129.20 14.19L129.20 14.19Q130.82 12.30 132.84 12.30L132.84 12.30Q134.60 12.30 135.61 13.92Q136.62 15.54 136.62 18.38L136.62 18.38Q136.62 23.78 134.06 26.75L134.06 26.75Q128.25 33.90 121.57 38.49Q114.89 43.08 106.38 43.08L106.38 43.08Q99.50 43.08 95.99 39.10Q92.48 35.12 92.48 27.56L92.48 27.56Q92.48 23.78 94.37 14.06L94.37 14.06Q96.12 5.55 96.12 2.31L96.12 2.31Q96.12 0.15 94.64 0.15L94.64 0.15Q92.88 0.15 89.71 4.68Q86.54 9.20 83.23 16.62Q79.92 24.05 77.90 32.28L77.90 32.28Q76.41 38.63 74.45 40.86Q72.50 43.08 68.31 43.08L68.31 43.08ZM185.90 12.30Q187.65 12.30 188.66 13.92Q189.68 15.54 189.68 18.38L189.68 18.38Q189.68 23.78 187.11 26.75L187.11 26.75Q182.12 32.82 173.00 37.95Q163.89 43.08 153.50 43.08L153.50 43.08Q139.32 43.08 131.49 35.39Q123.66 27.69 123.66 14.33L123.66 14.33Q123.66 5.01 127.58-3.02Q131.49-11.05 138.44-15.78Q145.40-20.50 154.17-20.50L154.17-20.50Q162.00-20.50 166.73-15.84Q171.45-11.19 171.45-3.22L171.45-3.22Q171.45 6.09 164.77 12.78Q158.09 19.46 142.16 23.37L142.16 23.37Q145.53 29.58 154.98 29.58L154.98 29.58Q161.06 29.58 168.82 25.33Q176.58 21.08 182.25 14.19L182.25 14.19Q183.87 12.30 185.90 12.30L185.90 12.30ZM151.88-7.27Q146.88-7.27 143.44-1.47Q140.00 4.34 140.00 12.57L140.00 12.57L140.00 12.84Q147.96 10.95 152.55 7.17Q157.14 3.39 157.14-1.60L157.14-1.60Q157.14-4.17 155.72-5.72Q154.31-7.27 151.88-7.27L151.88-7.27ZM238.95 12.30Q240.71 12.30 241.72 13.92Q242.73 15.54 242.73 18.38L242.73 18.38Q242.73 23.78 240.17 26.75L240.17 26.75Q234.36 33.90 227.48 38.49Q220.59 43.08 211.68 43.08L211.68 43.08Q184.14 43.08 184.14 4.34L184.14 4.34Q184.14-1.60 184.55-7.68L184.55-7.68L179.28-7.68Q175.23-7.68 173.81-9.16Q172.40-10.65 172.40-13.89L172.40-13.89Q172.40-21.45 178.47-21.45L178.47-21.45L186.17-21.45Q188.46-36.30 193.19-48.58Q197.91-60.87 204.59-68.16Q211.28-75.45 218.97-75.45L218.97-75.45Q224.64-75.45 227.88-70.45Q231.12-65.46 231.12-57.90L231.12-57.90Q231.12-36.97 213.57-21.45L213.57-21.45L228.69-21.45Q230.85-21.45 231.80-20.50Q232.74-19.56 232.74-16.99L232.74-16.99Q232.74-7.68 217.49-7.68L217.49-7.68L201.02-7.68Q200.75-0.93 200.75 2.85L200.75 2.85Q200.75 16.89 204.05 22.56Q207.36 28.23 214.52 28.23L214.52 28.23Q220.32 28.23 224.78 24.72Q229.23 21.21 235.31 14.19L235.31 14.19Q236.93 12.30 238.95 12.30L238.95 12.30ZM215.33-62.49Q213.30-62.49 210.80-57.42Q208.31-52.36 206.08-43.38Q203.85-34.41 202.37-23.47L202.37-23.47Q210.33-30.36 214.31-38.93Q218.30-47.50 218.30-54.52L218.30-54.52Q218.30-62.49 215.33-62.49L215.33-62.49Z"/></g>
<g transform="matrix(1 0 0 1 473.8965 624.9726)" style="" id="262698">
		
<path xml:space="preserve" font-family="Abel" font-size="64" style="stroke: none; stroke-width: 0; stroke-dasharray: none; stroke-linecap: butt; stroke-dashoffset: 0; stroke-linejoin: miter; stroke-miterlimit: 4; is-custom-font: none; font-file-url: none; fill: rgb(255,255,255); fill-rule: nonzero; opacity: 1; white-space: pre;" d="M-170.72 9.73L-170.72 9.73Q-170.72 12.01-171.58 14.01Q-172.44 16.01-173.94 17.51Q-175.44 19.01-177.44 19.87Q-179.44 20.73-181.72 20.73L-181.72 20.73L-184.91 20.73Q-187.19 20.73-189.20 19.87Q-191.22 19.01-192.72 17.51Q-194.22 16.01-195.08 14.01Q-195.94 12.01-195.94 9.73L-195.94 9.73L-195.94-14.33Q-195.94-16.61-195.08-18.61Q-194.22-20.61-192.72-22.11Q-191.22-23.61-189.20-24.47Q-187.19-25.33-184.91-25.33L-184.91-25.33L-181.72-25.33Q-179.44-25.33-177.44-24.47Q-175.44-23.61-173.94-22.11Q-172.44-20.61-171.58-18.61Q-170.72-16.61-170.72-14.33L-170.72-14.33L-170.72-12.52L-174.75-11.89L-174.75-14.33Q-174.75-15.83-175.31-17.13Q-175.88-18.43-176.84-19.39Q-177.81-20.36-179.11-20.93Q-180.41-21.49-181.91-21.49L-181.91-21.49L-184.72-21.49Q-186.22-21.49-187.52-20.93Q-188.81-20.36-189.80-19.39Q-190.78-18.43-191.34-17.13Q-191.91-15.83-191.91-14.33L-191.91-14.33L-191.91 9.73Q-191.91 11.23-191.34 12.53Q-190.78 13.82-189.80 14.81Q-188.81 15.79-187.52 16.36Q-186.22 16.92-184.72 16.92L-184.72 16.92L-181.91 16.92Q-180.41 16.92-179.11 16.36Q-177.81 15.79-176.84 14.81Q-175.88 13.82-175.31 12.53Q-174.75 11.23-174.75 9.73L-174.75 9.73L-174.75 7.29L-170.72 7.95L-170.72 9.73ZM-141.66 20.11L-142.94 20.11L-145.06 16.92Q-146.38 18.64-148.34 19.68Q-150.31 20.73-152.66 20.73L-152.66 20.73L-153.63 20.73Q-155.56 20.73-157.28 20.00Q-159.00 19.26-160.28 17.98Q-161.56 16.70-162.30 14.98Q-163.03 13.26-163.03 11.32L-163.03 11.32L-163.03 11.01Q-163.03 9.07-162.30 7.36Q-161.56 5.64-160.28 4.36Q-159.00 3.07-157.28 2.34Q-155.56 1.61-153.63 1.61L-153.63 1.61L-145.50 1.61L-145.50-3.33Q-145.50-4.49-145.94-5.50Q-146.38-6.52-147.13-7.27Q-147.88-8.02-148.89-8.46Q-149.91-8.89-151.06-8.89L-151.06-8.89L-153.31-8.89Q-154.47-8.89-155.48-8.46Q-156.50-8.02-157.25-7.27Q-158.00-6.52-158.44-5.50Q-158.88-4.49-158.88-3.33L-158.88-3.33L-158.88-2.18L-162.72-2.80L-162.72-3.11Q-162.72-5.05-161.98-6.77Q-161.25-8.49-159.97-9.77Q-158.69-11.05-156.97-11.79Q-155.25-12.52-153.31-12.52L-153.31-12.52L-151.06-12.52Q-149.13-12.52-147.41-11.79Q-145.69-11.05-144.41-9.77Q-143.13-8.49-142.39-6.77Q-141.66-5.05-141.66-3.11L-141.66-3.11L-141.66 20.11ZM-145.50 11.54L-145.50 4.61L-153.63 4.61Q-154.78 4.61-155.80 5.04Q-156.81 5.48-157.56 6.25Q-158.31 7.01-158.75 8.03Q-159.19 9.04-159.19 10.20L-159.19 10.20L-159.19 11.54Q-159.19 12.70-158.75 13.71Q-158.31 14.73-157.56 15.48Q-156.81 16.23-155.80 16.67Q-154.78 17.11-153.63 17.11L-153.63 17.11L-151.06 17.11Q-149.91 17.11-148.89 16.67Q-147.88 16.23-147.13 15.48Q-146.38 14.73-145.94 13.71Q-145.50 12.70-145.50 11.54L-145.50 11.54ZM-112.59 11.32L-112.59 11.32Q-112.59 13.26-113.33 14.98Q-114.06 16.70-115.34 17.98Q-116.63 19.26-118.34 20.00Q-120.06 20.73-122.00 20.73L-122.00 20.73L-124.56 20.73Q-126.50 20.73-128.22 20.00Q-129.94 19.26-131.22 17.98Q-132.50 16.70-133.23 14.98Q-133.97 13.26-133.97 11.32L-133.97 11.32L-133.97-24.71L-130.13-24.71L-130.13-9.21Q-128.81-10.77-126.97-11.64Q-125.13-12.52-122.97-12.52L-122.97-12.52L-122.00-12.52Q-120.06-12.52-118.34-11.79Q-116.63-11.05-115.34-9.77Q-114.06-8.49-113.33-6.77Q-112.59-5.05-112.59-3.11L-112.59-3.11L-112.59 11.32ZM-116.44 11.54L-116.44-3.33Q-116.44-4.49-116.88-5.50Q-117.31-6.52-118.06-7.27Q-118.81-8.02-119.83-8.46Q-120.84-8.89-122.00-8.89L-122.00-8.89L-124.56-8.89Q-125.72-8.89-126.73-8.46Q-127.75-8.02-128.50-7.27Q-129.25-6.52-129.69-5.50Q-130.13-4.49-130.13-3.33L-130.13-3.33L-130.13 11.54Q-130.13 12.70-129.69 13.71Q-129.25 14.73-128.50 15.48Q-127.75 16.23-126.73 16.67Q-125.72 17.11-124.56 17.11L-124.56 17.11L-122.00 17.11Q-120.84 17.11-119.83 16.67Q-118.81 16.23-118.06 15.48Q-117.31 14.73-116.88 13.71Q-116.44 12.70-116.44 11.54L-116.44 11.54ZM-99.47-19.58L-103.94-19.58L-103.94-24.71L-99.47-24.71L-99.47-19.58ZM-99.78 20.11L-103.63 20.11L-103.63-11.89L-99.78-11.89L-99.78 20.11ZM-69.44 20.11L-73.28 20.11L-73.28-3.33Q-73.28-4.49-73.72-5.50Q-74.16-6.52-74.91-7.27Q-75.66-8.02-76.67-8.46Q-77.69-8.89-78.84-8.89L-78.84-8.89L-81.41-8.89Q-82.56-8.89-83.58-8.46Q-84.59-8.02-85.34-7.27Q-86.09-6.52-86.53-5.50Q-86.97-4.49-86.97-3.33L-86.97-3.33L-86.97 20.11L-90.81 20.11L-90.81-11.89L-89.53-11.89L-87.44-8.64Q-86.13-10.43-84.14-11.47Q-82.16-12.52-79.81-12.52L-79.81-12.52L-78.84-12.52Q-76.91-12.52-75.19-11.79Q-73.47-11.05-72.19-9.77Q-70.91-8.49-70.17-6.77Q-69.44-5.05-69.44-3.11L-69.44-3.11L-69.44 20.11ZM-40.38 11.32L-40.38 11.32Q-40.38 13.26-41.11 14.98Q-41.84 16.70-43.13 17.98Q-44.41 19.26-46.13 20.00Q-47.84 20.73-49.78 20.73L-49.78 20.73L-52.34 20.73Q-54.28 20.73-56.00 20.00Q-57.72 19.26-59.00 17.98Q-60.28 16.70-61.02 14.98Q-61.75 13.26-61.75 11.32L-61.75 11.32L-61.75-3.11Q-61.75-5.05-61.02-6.77Q-60.28-8.49-59.00-9.77Q-57.72-11.05-56.00-11.79Q-54.28-12.52-52.34-12.52L-52.34-12.52L-49.78-12.52Q-47.84-12.52-46.13-11.79Q-44.41-11.05-43.13-9.77Q-41.84-8.49-41.11-6.77Q-40.38-5.05-40.38-3.11L-40.38-3.11L-40.38 4.42L-57.91 4.42L-57.91 11.54Q-57.91 12.70-57.47 13.71Q-57.03 14.73-56.28 15.48Q-55.53 16.23-54.52 16.67Q-53.50 17.11-52.34 17.11L-52.34 17.11L-49.78 17.11Q-48.63 17.11-47.61 16.67Q-46.59 16.23-45.84 15.48Q-45.09 14.73-44.66 13.71Q-44.22 12.70-44.22 11.54L-44.22 11.54L-44.22 9.42L-40.38 10.04L-40.38 11.32ZM-44.22 1.42L-44.22-3.33Q-44.22-4.49-44.66-5.50Q-45.09-6.52-45.84-7.27Q-46.59-8.02-47.61-8.46Q-48.63-8.89-49.78-8.89L-49.78-8.89L-52.34-8.89Q-53.50-8.89-54.52-8.46Q-55.53-8.02-56.28-7.27Q-57.03-6.52-57.47-5.50Q-57.91-4.49-57.91-3.33L-57.91-3.33L-57.91 1.42L-44.22 1.42ZM-17.53 20.11L-21.03 20.11Q-22.78 20.11-24.33 19.45Q-25.88 18.79-27.02 17.64Q-28.16 16.48-28.83 14.95Q-29.50 13.42-29.50 11.67L-29.50 11.67L-29.50-8.24L-35.25-8.24L-35.25-11.89L-29.50-11.89L-29.50-19.58L-25.66-20.21L-25.66-11.89L-17.53-11.89L-17.53-8.24L-25.66-8.24L-25.66 11.86Q-25.66 12.82-25.30 13.65Q-24.94 14.48-24.31 15.11Q-23.69 15.73-22.84 16.09Q-22.00 16.45-21.03 16.45L-21.03 16.45L-17.53 16.45L-17.53 20.11ZM25.62 20.11L24.34 20.11L22.22 16.86Q20.91 18.64 18.94 19.68Q16.97 20.73 14.62 20.73L14.62 20.73L13.66 20.73Q11.72 20.73 10.00 20.00Q8.28 19.26 7.00 17.98Q5.72 16.70 4.98 14.98Q4.25 13.26 4.25 11.32L4.25 11.32L4.25-3.11Q4.25-5.05 4.98-6.77Q5.72-8.49 7.00-9.77Q8.28-11.05 10.00-11.79Q11.72-12.52 13.66-12.52L13.66-12.52L14.62-12.52Q16.78-12.52 18.62-11.64Q20.47-10.77 21.78-9.21L21.78-9.21L21.78-24.71L25.62-24.71L25.62 20.11ZM21.78 11.54L21.78-3.33Q21.78-4.49 21.34-5.50Q20.91-6.52 20.16-7.27Q19.41-8.02 18.39-8.46Q17.37-8.89 16.22-8.89L16.22-8.89L13.66-8.89Q12.50-8.89 11.48-8.46Q10.47-8.02 9.72-7.27Q8.97-6.52 8.53-5.50Q8.09-4.49 8.09-3.33L8.09-3.33L8.09 11.54Q8.09 12.70 8.53 13.71Q8.97 14.73 9.72 15.48Q10.47 16.23 11.48 16.67Q12.50 17.11 13.66 17.11L13.66 17.11L16.22 17.11Q17.37 17.11 18.39 16.67Q19.41 16.23 20.16 15.48Q20.91 14.73 21.34 13.71Q21.78 12.70 21.78 11.54L21.78 11.54ZM54.69 11.32L54.69 11.32Q54.69 13.26 53.95 14.98Q53.22 16.70 51.94 17.98Q50.66 19.26 48.94 20.00Q47.22 20.73 45.28 20.73L45.28 20.73L42.72 20.73Q40.78 20.73 39.06 20.00Q37.34 19.26 36.06 17.98Q34.78 16.70 34.05 14.98Q33.31 13.26 33.31 11.32L33.31 11.32L33.31-3.11Q33.31-5.05 34.05-6.77Q34.78-8.49 36.06-9.77Q37.34-11.05 39.06-11.79Q40.78-12.52 42.72-12.52L42.72-12.52L45.28-12.52Q47.22-12.52 48.94-11.79Q50.66-11.05 51.94-9.77Q53.22-8.49 53.95-6.77Q54.69-5.05 54.69-3.11L54.69-3.11L54.69 4.42L37.16 4.42L37.16 11.54Q37.16 12.70 37.59 13.71Q38.03 14.73 38.78 15.48Q39.53 16.23 40.55 16.67Q41.56 17.11 42.72 17.11L42.72 17.11L45.28 17.11Q46.44 17.11 47.45 16.67Q48.47 16.23 49.22 15.48Q49.97 14.73 50.41 13.71Q50.84 12.70 50.84 11.54L50.84 11.54L50.84 9.42L54.69 10.04L54.69 11.32ZM50.84 1.42L50.84-3.33Q50.84-4.49 50.41-5.50Q49.97-6.52 49.22-7.27Q48.47-8.02 47.45-8.46Q46.44-8.89 45.28-8.89L45.28-8.89L42.72-8.89Q41.56-8.89 40.55-8.46Q39.53-8.02 38.78-7.27Q38.03-6.52 37.59-5.50Q37.16-4.49 37.16-3.33L37.16-3.33L37.16 1.42L50.84 1.42ZM83.75 20.11L79.91 20.11L79.91-3.33Q79.91-4.49 79.47-5.50Q79.03-6.52 78.28-7.27Q77.53-8.02 76.52-8.46Q75.50-8.89 74.34-8.89L74.34-8.89L71.78-8.89Q70.62-8.89 69.61-8.46Q68.59-8.02 67.84-7.27Q67.09-6.52 66.66-5.50Q66.22-4.49 66.22-3.33L66.22-3.33L66.22 20.11L62.37 20.11L62.37-11.89L63.66-11.89L65.75-8.64Q67.06-10.43 69.05-11.47Q71.03-12.52 73.37-12.52L73.37-12.52L74.34-12.52Q76.28-12.52 78.00-11.79Q79.72-11.05 81.00-9.77Q82.28-8.49 83.02-6.77Q83.75-5.05 83.75-3.11L83.75-3.11L83.75 20.11ZM106.59 20.11L103.09 20.11Q101.34 20.11 99.80 19.45Q98.25 18.79 97.11 17.64Q95.97 16.48 95.30 14.95Q94.62 13.42 94.62 11.67L94.62 11.67L94.62-8.24L88.87-8.24L88.87-11.89L94.62-11.89L94.62-19.58L98.47-20.21L98.47-11.89L106.59-11.89L106.59-8.24L98.47-8.24L98.47 11.86Q98.47 12.82 98.83 13.65Q99.19 14.48 99.81 15.11Q100.44 15.73 101.28 16.09Q102.12 16.45 103.09 16.45L103.09 16.45L106.59 16.45L106.59 20.11ZM135.03 20.11L133.75 20.11L131.62 16.92Q130.31 18.64 128.34 19.68Q126.37 20.73 124.03 20.73L124.03 20.73L123.06 20.73Q121.12 20.73 119.41 20.00Q117.69 19.26 116.41 17.98Q115.12 16.70 114.39 14.98Q113.66 13.26 113.66 11.32L113.66 11.32L113.66 11.01Q113.66 9.07 114.39 7.36Q115.12 5.64 116.41 4.36Q117.69 3.07 119.41 2.34Q121.12 1.61 123.06 1.61L123.06 1.61L131.19 1.61L131.19-3.33Q131.19-4.49 130.75-5.50Q130.31-6.52 129.56-7.27Q128.81-8.02 127.80-8.46Q126.78-8.89 125.62-8.89L125.62-8.89L123.37-8.89Q122.22-8.89 121.20-8.46Q120.19-8.02 119.44-7.27Q118.69-6.52 118.25-5.50Q117.81-4.49 117.81-3.33L117.81-3.33L117.81-2.18L113.97-2.80L113.97-3.11Q113.97-5.05 114.70-6.77Q115.44-8.49 116.72-9.77Q118.00-11.05 119.72-11.79Q121.44-12.52 123.37-12.52L123.37-12.52L125.62-12.52Q127.56-12.52 129.28-11.79Q131.00-11.05 132.28-9.77Q133.56-8.49 134.30-6.77Q135.03-5.05 135.03-3.11L135.03-3.11L135.03 20.11ZM131.19 11.54L131.19 4.61L123.06 4.61Q121.91 4.61 120.89 5.04Q119.87 5.48 119.12 6.25Q118.37 7.01 117.94 8.03Q117.50 9.04 117.50 10.20L117.50 10.20L117.50 11.54Q117.50 12.70 117.94 13.71Q118.37 14.73 119.12 15.48Q119.87 16.23 120.89 16.67Q121.91 17.11 123.06 17.11L123.06 17.11L125.62 17.11Q126.78 17.11 127.80 16.67Q128.81 16.23 129.56 15.48Q130.31 14.73 130.75 13.71Q131.19 12.70 131.19 11.54L131.19 11.54ZM148.16-19.58L143.69-19.58L143.69-24.71L148.16-24.71L148.16-19.58ZM147.84 20.11L144.00 20.11L144.00-11.89L147.84-11.89L147.84 20.11ZM170.06-8.24L166.22-8.24Q165.06-8.24 164.05-7.80Q163.03-7.36 162.28-6.61Q161.53-5.86 161.09-4.85Q160.66-3.83 160.66-2.68L160.66-2.68L160.66 20.11L156.81 20.11L156.81-11.89L158.09-11.89L160.19-8.64Q161.50-10.43 163.48-11.47Q165.47-12.52 167.81-12.52L167.81-12.52L170.06-12.52L170.06-8.24ZM196.56 11.32L196.56 11.32Q196.56 13.26 195.83 14.98Q195.09 16.70 193.81 17.98Q192.53 19.26 190.81 20.00Q189.09 20.73 187.16 20.73L187.16 20.73L184.59 20.73Q182.66 20.73 180.94 20.00Q179.22 19.26 177.94 17.98Q176.66 16.70 175.92 14.98Q175.19 13.26 175.19 11.32L175.19 11.32L175.19-3.11Q175.19-5.05 175.92-6.77Q176.66-8.49 177.94-9.77Q179.22-11.05 180.94-11.79Q182.66-12.52 184.59-12.52L184.59-12.52L187.16-12.52Q189.09-12.52 190.81-11.79Q192.53-11.05 193.81-9.77Q195.09-8.49 195.83-6.77Q196.56-5.05 196.56-3.11L196.56-3.11L196.56 4.42L179.03 4.42L179.03 11.54Q179.03 12.70 179.47 13.71Q179.91 14.73 180.66 15.48Q181.41 16.23 182.42 16.67Q183.44 17.11 184.59 17.11L184.59 17.11L187.16 17.11Q188.31 17.11 189.33 16.67Q190.34 16.23 191.09 15.48Q191.84 14.73 192.28 13.71Q192.72 12.70 192.72 11.54L192.72 11.54L192.72 9.42L196.56 10.04L196.56 11.32ZM192.72 1.42L192.72-3.33Q192.72-4.49 192.28-5.50Q191.84-6.52 191.09-7.27Q190.34-8.02 189.33-8.46Q188.31-8.89 187.16-8.89L187.16-8.89L184.59-8.89Q183.44-8.89 182.42-8.46Q181.41-8.02 180.66-7.27Q179.91-6.52 179.47-5.50Q179.03-4.49 179.03-3.33L179.03-3.33L179.03 1.42L192.72 1.42Z"/></g>
</svg>