<svg width="51" height="51" viewBox="0 0 51 51" fill="none" xmlns="http://www.w3.org/2000/svg">
<g clip-path="url(#clip0_9_409)">
<path d="M49.1651 46.2376L37.0835 33.6722C40.1899 29.9795 41.8919 25.3333 41.8919 20.4963C41.8919 9.19538 32.6975 0.000976562 21.3966 0.000976562C10.0956 0.000976562 0.901184 9.19538 0.901184 20.4963C0.901184 31.7973 10.0956 40.9917 21.3966 40.9917C25.6391 40.9917 29.682 39.7121 33.1386 37.2829L45.312 49.9437C45.8208 50.4722 46.5052 50.7636 47.2385 50.7636C47.9327 50.7636 48.5912 50.4989 49.0911 50.0177C50.1533 48.9956 50.1872 47.3007 49.1651 46.2376ZM21.3966 5.3476C29.7498 5.3476 36.5453 12.1431 36.5453 20.4963C36.5453 28.8495 29.7498 35.6451 21.3966 35.6451C13.0434 35.6451 6.2478 28.8495 6.2478 20.4963C6.2478 12.1431 13.0434 5.3476 21.3966 5.3476Z" fill="white"/>
</g>
<defs>
<clipPath id="clip0_9_409">
<rect width="50.7626" height="50.7626" fill="white" transform="translate(0.0239868)"/>
</clipPath>
</defs>
</svg>
