<svg width="163" height="38" viewBox="0 0 163 38" fill="none" xmlns="http://www.w3.org/2000/svg">
<path d="M23.6474 2.55257C23.5966 2.56527 23.5458 2.57798 23.495 2.59068C19.7793 3.71491 16.216 3.82924 12.6719 1.99998C9.18483 0.18978 3.94478 -0.134149 1.63915 3.69586C0.781685 5.08685 0.457755 6.72556 0.267207 8.34522C-0.418764 13.9854 0.286264 20.4069 1.58199 25.9518C2.43945 29.6675 4.17343 34.5836 7.6414 36.6606C8.49886 37.1751 9.60404 37.4799 10.4996 37.0226C11.1284 36.7177 11.5286 36.0889 11.8144 35.4411C12.8052 33.0973 13.7961 24.5418 18.0644 26.4282C19.0743 26.8664 19.7602 27.8382 20.1032 28.8672C20.8654 31.0585 20.5415 33.4784 21.5895 35.6316C21.9134 36.2795 22.3517 36.9464 23.0186 37.1941C23.5331 37.3847 24.1238 37.2894 24.6382 37.1179C26.9058 36.2985 28.716 33.7452 29.764 31.6682C33.3463 24.5418 34.642 16.272 33.4606 8.38333C33.0795 5.84904 32.1268 3.33382 29.6115 2.26675C27.7251 1.46645 25.591 1.96187 23.6474 2.55257Z" fill="#25EFFC"/>
<path d="M17.0164 24.332C12.7481 22.4647 11.7763 31.0012 10.7664 33.3449C10.4806 33.9928 10.0805 34.6406 9.45165 34.9455C8.55608 35.4028 7.46996 35.0789 6.59344 34.5644C5.16433 33.707 4.0401 32.3731 3.14453 30.8297C4.15443 33.2115 5.58354 35.4219 7.64145 36.6605C8.49892 37.1749 9.60409 37.4798 10.4997 37.0225C11.1285 36.7176 11.5286 36.0888 11.8144 35.4409C12.8053 33.0972 13.7961 24.5416 18.0644 26.428C18.5217 26.6186 18.9028 26.9235 19.2267 27.3046C19.1759 27.1267 19.1251 26.9552 19.0743 26.7901C18.7123 25.7421 18.0263 24.7893 17.0164 24.332Z" fill="#4269F0"/>
<path d="M33.4612 8.38327C33.2326 6.83983 32.7752 5.31545 31.8987 4.09595C32.1464 4.82003 32.2989 5.56316 32.4132 6.3063C33.6137 14.195 32.3179 22.4457 28.7166 29.5722C27.6876 31.6491 25.8774 34.2215 23.5909 35.0218C23.0764 35.2124 22.5047 35.2886 21.9903 35.1171C21.6663 34.9837 21.3996 34.7741 21.1709 34.5264C21.2852 34.8884 21.4186 35.2695 21.5901 35.6316C21.914 36.2794 22.3523 36.9463 23.0192 37.1941C23.5337 37.3846 24.1244 37.2893 24.6389 37.1178C26.9064 36.2985 28.7166 33.7451 29.7646 31.6682C33.3469 24.5417 34.6426 16.2719 33.4612 8.38327Z" fill="#4269F0"/>
<path d="M8.02246 7.73533C8.02246 7.73533 10.3281 13.4708 18.2168 11.6034C26.1054 9.75514 27.5155 1.84741 27.5155 1.84741C27.5155 1.84741 24.1428 2.09513 22.1801 3.2003C20.732 3.82911 19.5887 4.70563 18.3311 5.62025C16.1207 7.23991 13.6627 8.95484 10.8426 8.85956C9.85172 8.82145 8.87992 8.53563 8.02246 8.07832" fill="#4269F0"/>
<path d="M54.7917 16H52.0969L52.1139 14.0108H54.7917C55.4604 14.0108 56.0243 13.8606 56.4834 13.5603C56.9424 13.2542 57.2881 12.8094 57.5205 12.2256C57.7585 11.6419 57.8775 10.9363 57.8775 10.1089V9.50537C57.8775 8.87065 57.8095 8.31243 57.6735 7.83071C57.5431 7.349 57.3476 6.94379 57.0869 6.6151C56.8262 6.2864 56.506 6.03987 56.1263 5.87552C55.7466 5.70551 55.3102 5.6205 54.8172 5.6205H52.0459V3.62281H54.8172C55.6446 3.62281 56.4012 3.76449 57.0869 4.04785C57.7783 4.32554 58.3762 4.72508 58.8806 5.24646C59.385 5.76785 59.7732 6.39124 60.0452 7.11664C60.3229 7.83638 60.4617 8.63829 60.4617 9.52238V10.1089C60.4617 10.9874 60.3229 11.7893 60.0452 12.5147C59.7732 13.2401 59.385 13.8635 58.8806 14.3848C58.3819 14.9006 57.784 15.3001 57.0869 15.5835C56.3955 15.8612 55.6304 16 54.7917 16ZM53.5421 3.62281V16H50.9918V3.62281H53.5421ZM70.6202 14.0108V16H64.0321V14.0108H70.6202ZM64.8652 3.62281V16H62.3149V3.62281H64.8652ZM69.7616 8.66379V10.602H64.0321V8.66379H69.7616ZM70.6117 3.62281V5.6205H64.0321V3.62281H70.6117ZM82.1813 3.62281V16H79.6311L74.6581 7.7032V16H72.1079V3.62281H74.6581L79.6396 11.9281V3.62281H82.1813ZM89.6791 3.62281V16H87.1373V3.62281H89.6791ZM93.4874 3.62281V5.6205H83.3884V3.62281H93.4874ZM99.0555 5.73951L95.6891 16H92.9774L97.5763 3.62281H99.302L99.0555 5.73951ZM101.852 16L98.4774 5.73951L98.2054 3.62281H99.948L104.572 16H101.852ZM101.699 11.3926V13.3902H95.1621V11.3926H101.699ZM113.677 14.0108V16H107.446V14.0108H113.677ZM108.27 3.62281V16H105.72V3.62281H108.27ZM126.649 11.8941H129.191C129.14 12.7272 128.91 13.4668 128.502 14.1128C128.1 14.7589 127.536 15.2633 126.811 15.626C126.091 15.9887 125.224 16.17 124.209 16.17C123.416 16.17 122.705 16.034 122.076 15.762C121.447 15.4843 120.908 15.0876 120.461 14.5719C120.018 14.0561 119.681 13.4328 119.449 12.7017C119.217 11.9706 119.1 11.1517 119.1 10.2449V9.38636C119.1 8.47961 119.219 7.6607 119.457 6.92963C119.701 6.19289 120.047 5.56666 120.495 5.05095C120.948 4.53523 121.489 4.13852 122.118 3.86083C122.747 3.58314 123.45 3.44429 124.226 3.44429C125.258 3.44429 126.128 3.63131 126.836 4.00534C127.55 4.37938 128.103 4.8951 128.494 5.55249C128.89 6.20989 129.129 6.95796 129.208 7.79671H126.658C126.629 7.29799 126.53 6.87579 126.36 6.53009C126.19 6.17872 125.932 5.91519 125.587 5.73951C125.246 5.55816 124.793 5.46749 124.226 5.46749C123.801 5.46749 123.43 5.54683 123.113 5.70551C122.795 5.86419 122.529 6.10505 122.314 6.42808C122.098 6.75111 121.937 7.15915 121.829 7.6522C121.727 8.13958 121.676 8.71196 121.676 9.36936V10.2449C121.676 10.8853 121.724 11.4492 121.821 11.9366C121.917 12.4183 122.064 12.8264 122.263 13.1607C122.467 13.4894 122.727 13.7388 123.045 13.9088C123.368 14.0731 123.756 14.1553 124.209 14.1553C124.742 14.1553 125.181 14.0703 125.527 13.9003C125.873 13.7303 126.136 13.4781 126.318 13.1437C126.505 12.8094 126.615 12.3928 126.649 11.8941ZM135.898 5.73951L132.532 16H129.82L134.419 3.62281H136.145L135.898 5.73951ZM138.695 16L135.32 5.73951L135.048 3.62281H136.791L141.415 16H138.695ZM138.542 11.3926V13.3902H132.005V11.3926H138.542ZM142.563 3.62281H147.179C148.125 3.62281 148.938 3.76449 149.618 4.04785C150.304 4.33121 150.831 4.75058 151.199 5.30597C151.568 5.86136 151.752 6.54426 151.752 7.35467C151.752 8.01773 151.639 8.58729 151.412 9.06333C151.191 9.53371 150.876 9.92758 150.468 10.2449C150.066 10.5566 149.593 10.806 149.049 10.993L148.241 11.4181H144.229L144.212 9.42887H147.196C147.643 9.42887 148.015 9.34953 148.309 9.19084C148.604 9.03216 148.825 8.81114 148.972 8.52778C149.125 8.24442 149.202 7.91572 149.202 7.54169C149.202 7.14498 149.128 6.80211 148.981 6.51309C148.833 6.22406 148.61 6.00304 148.309 5.85002C148.009 5.69701 147.632 5.6205 147.179 5.6205H145.113V16H142.563V3.62281ZM149.482 16L146.66 10.483L149.355 10.466L152.211 15.881V16H149.482ZM162.021 14.0108V16H155.433V14.0108H162.021ZM156.266 3.62281V16H153.716V3.62281H156.266ZM161.162 8.66379V10.602H155.433V8.66379H161.162ZM162.013 3.62281V5.6205H155.433V3.62281H162.013Z" fill="white"/>
<path d="M52.9106 35H51.2778L51.2886 34.1567H52.9106C53.4692 34.1567 53.9347 34.0404 54.3071 33.8076C54.6795 33.5713 54.9588 33.2419 55.145 32.8193C55.3348 32.3932 55.4297 31.8955 55.4297 31.3262V30.8481C55.4297 30.4006 55.376 30.0031 55.2686 29.6558C55.1611 29.3049 55.0036 29.0094 54.7959 28.7695C54.5882 28.526 54.334 28.3416 54.0332 28.2163C53.736 28.091 53.394 28.0283 53.0073 28.0283H51.2456V27.1797H53.0073C53.5194 27.1797 53.9867 27.2656 54.4092 27.4375C54.8317 27.6058 55.1951 27.8511 55.4995 28.1733C55.8075 28.492 56.0438 28.8787 56.2085 29.3335C56.3732 29.7847 56.4556 30.2931 56.4556 30.8589V31.3262C56.4556 31.8919 56.3732 32.4022 56.2085 32.8569C56.0438 33.3081 55.8057 33.693 55.4941 34.0117C55.1862 34.3304 54.8138 34.5757 54.377 34.7476C53.9437 34.9159 53.4549 35 52.9106 35ZM51.8311 27.1797V35H50.7944V27.1797H51.8311ZM64.1914 34.1567V35H60.0503V34.1567H64.1914ZM60.2598 27.1797V35H59.2232V27.1797H60.2598ZM63.6436 30.542V31.3853H60.0503V30.542H63.6436ZM64.1377 27.1797V28.0283H60.0503V27.1797H64.1377ZM72.7008 27.1797V35H71.6588L67.7218 28.9683V35H66.6851V27.1797H67.7218L71.6749 33.2275V27.1797H72.7008ZM78.4762 27.1797V35H77.4557V27.1797H78.4762ZM80.9899 27.1797V28.0283H74.9474V27.1797H80.9899ZM84.4718 27.1797V35H83.4352V27.1797H84.4718ZM91.7351 33.0234C91.7351 32.8408 91.7064 32.6797 91.6491 32.54C91.5954 32.3968 91.4987 32.2679 91.3591 32.1533C91.223 32.0387 91.0332 31.9295 90.7897 31.8257C90.5498 31.7218 90.2455 31.6162 89.8767 31.5088C89.4899 31.3942 89.1408 31.2671 88.8293 31.1274C88.5178 30.9842 88.251 30.8213 88.029 30.6387C87.807 30.4561 87.6369 30.2466 87.5187 30.0103C87.4006 29.7739 87.3415 29.5036 87.3415 29.1992C87.3415 28.8949 87.4042 28.6138 87.5295 28.356C87.6548 28.0981 87.8339 27.8743 88.0666 27.6846C88.3029 27.4912 88.584 27.3408 88.9099 27.2334C89.2357 27.126 89.5992 27.0723 90.0002 27.0723C90.5874 27.0723 91.0852 27.1851 91.4934 27.4106C91.9051 27.6326 92.2185 27.9245 92.4333 28.2861C92.6481 28.6442 92.7556 29.0273 92.7556 29.4355H91.7243C91.7243 29.1419 91.6617 28.8823 91.5363 28.6567C91.411 28.4276 91.2212 28.2485 90.967 28.1196C90.7128 27.9871 90.3905 27.9209 90.0002 27.9209C89.6314 27.9209 89.327 27.9764 89.0871 28.0874C88.8472 28.1984 88.6682 28.3488 88.55 28.5386C88.4354 28.7284 88.3781 28.945 88.3781 29.1885C88.3781 29.3532 88.4121 29.5036 88.4802 29.6396C88.5518 29.7721 88.661 29.8957 88.8078 30.0103C88.9582 30.1248 89.148 30.2305 89.3771 30.3271C89.6099 30.4238 89.8874 30.5169 90.2097 30.6064C90.6537 30.7318 91.0368 30.8714 91.3591 31.0254C91.6813 31.1794 91.9463 31.353 92.154 31.5464C92.3653 31.7362 92.521 31.9528 92.6213 32.1963C92.7251 32.4362 92.7771 32.7083 92.7771 33.0127C92.7771 33.3314 92.7126 33.6196 92.5837 33.8774C92.4548 34.1353 92.2704 34.3555 92.0305 34.5381C91.7906 34.7207 91.5023 34.8621 91.1657 34.9624C90.8327 35.0591 90.4603 35.1074 90.0485 35.1074C89.6869 35.1074 89.3306 35.0573 88.9797 34.957C88.6324 34.8568 88.3155 34.7064 88.029 34.5059C87.7461 34.3053 87.5187 34.0583 87.3469 33.7646C87.1786 33.4674 87.0944 33.1237 87.0944 32.7334H88.1257C88.1257 33.002 88.1776 33.2329 88.2814 33.4263C88.3853 33.616 88.5267 33.7736 88.7058 33.8989C88.8884 34.0243 89.0943 34.1174 89.3234 34.1782C89.5562 34.2355 89.7979 34.2642 90.0485 34.2642C90.4102 34.2642 90.7163 34.214 90.967 34.1138C91.2176 34.0135 91.4074 33.8703 91.5363 33.6841C91.6688 33.4979 91.7351 33.2777 91.7351 33.0234ZM98.198 27.1797V35H97.1775V27.1797H98.198ZM100.712 27.1797V28.0283H94.6692V27.1797H100.712ZM103.082 27.1797H105.671C106.258 27.1797 106.754 27.2692 107.158 27.4482C107.567 27.6273 107.876 27.8923 108.088 28.2432C108.303 28.5905 108.41 29.0184 108.41 29.5269C108.41 29.8849 108.337 30.2126 108.19 30.5098C108.046 30.8034 107.839 31.054 107.567 31.2617C107.298 31.4658 106.976 31.618 106.6 31.7183L106.31 31.8311H103.877L103.866 30.9878H105.703C106.075 30.9878 106.385 30.9233 106.632 30.7944C106.879 30.6619 107.065 30.4847 107.191 30.2627C107.316 30.0407 107.379 29.7954 107.379 29.5269C107.379 29.2261 107.32 28.9629 107.201 28.7373C107.083 28.5117 106.897 28.3381 106.643 28.2163C106.392 28.091 106.068 28.0283 105.671 28.0283H104.118V35H103.082V27.1797ZM107.653 35L105.751 31.4551L106.831 31.4497L108.759 34.9355V35H107.653ZM111.172 27.1797L113.202 31.106L115.238 27.1797H116.414L113.718 32.0781V35H112.681V32.0781L109.985 27.1797H111.172ZM127.288 32.5132H128.32C128.266 33.0073 128.125 33.4495 127.895 33.8398C127.666 34.2301 127.342 34.5399 126.923 34.769C126.504 34.9946 125.982 35.1074 125.355 35.1074C124.897 35.1074 124.479 35.0215 124.103 34.8496C123.731 34.6777 123.411 34.4342 123.142 34.1191C122.873 33.8005 122.666 33.4191 122.519 32.9751C122.376 32.5275 122.304 32.0298 122.304 31.4819V30.7031C122.304 30.1553 122.376 29.6593 122.519 29.2153C122.666 28.7677 122.875 28.3846 123.147 28.0659C123.423 27.7472 123.754 27.502 124.141 27.3301C124.528 27.1582 124.963 27.0723 125.446 27.0723C126.037 27.0723 126.537 27.1833 126.945 27.4053C127.353 27.6273 127.67 27.9352 127.895 28.3291C128.125 28.7194 128.266 29.1724 128.32 29.688H127.288C127.238 29.3228 127.145 29.0094 127.009 28.748C126.873 28.4831 126.68 28.279 126.429 28.1357C126.178 27.9925 125.851 27.9209 125.446 27.9209C125.099 27.9209 124.793 27.9871 124.528 28.1196C124.266 28.2521 124.046 28.4401 123.867 28.6836C123.692 28.9271 123.559 29.2189 123.47 29.5591C123.38 29.8993 123.335 30.277 123.335 30.6924V31.4819C123.335 31.8651 123.375 32.2249 123.454 32.5615C123.536 32.8981 123.659 33.1935 123.824 33.4478C123.989 33.702 124.198 33.9025 124.453 34.0493C124.707 34.1925 125.008 34.2642 125.355 34.2642C125.795 34.2642 126.146 34.1943 126.408 34.0547C126.669 33.915 126.866 33.7145 126.998 33.4531C127.135 33.1917 127.231 32.8784 127.288 32.5132ZM135.685 34.1567V35H131.775V34.1567H135.685ZM131.979 27.1797V35H130.942V27.1797H131.979ZM139.194 27.1797V35H138.157V27.1797H139.194ZM148.305 27.1797V35H147.263L143.326 28.9683V35H142.289V27.1797H143.326L147.279 33.2275V27.1797H148.305ZM152.463 27.1797V35H151.427V27.1797H152.463ZM160.28 32.5132H161.311C161.257 33.0073 161.116 33.4495 160.887 33.8398C160.658 34.2301 160.334 34.5399 159.915 34.769C159.496 34.9946 158.973 35.1074 158.346 35.1074C157.888 35.1074 157.471 35.0215 157.095 34.8496C156.722 34.6777 156.402 34.4342 156.133 34.1191C155.865 33.8005 155.657 33.4191 155.51 32.9751C155.367 32.5275 155.296 32.0298 155.296 31.4819V30.7031C155.296 30.1553 155.367 29.6593 155.51 29.2153C155.657 28.7677 155.867 28.3846 156.139 28.0659C156.414 27.7472 156.746 27.502 157.132 27.3301C157.519 27.1582 157.954 27.0723 158.438 27.0723C159.028 27.0723 159.528 27.1833 159.936 27.4053C160.344 27.6273 160.661 27.9352 160.887 28.3291C161.116 28.7194 161.257 29.1724 161.311 29.688H160.28C160.23 29.3228 160.137 29.0094 160.001 28.748C159.865 28.4831 159.671 28.279 159.421 28.1357C159.17 27.9925 158.842 27.9209 158.438 27.9209C158.09 27.9209 157.784 27.9871 157.519 28.1196C157.258 28.2521 157.038 28.4401 156.858 28.6836C156.683 28.9271 156.551 29.2189 156.461 29.5591C156.372 29.8993 156.327 30.277 156.327 30.6924V31.4819C156.327 31.8651 156.366 32.2249 156.445 32.5615C156.527 32.8981 156.651 33.1935 156.816 33.4478C156.98 33.702 157.19 33.9025 157.444 34.0493C157.698 34.1925 157.999 34.2642 158.346 34.2642C158.787 34.2642 159.138 34.1943 159.399 34.0547C159.66 33.915 159.857 33.7145 159.99 33.4531C160.126 33.1917 160.223 32.8784 160.28 32.5132Z" fill="white"/>
</svg>
