<svg width="167" height="38" viewBox="0 0 167 38" fill="none" xmlns="http://www.w3.org/2000/svg">
<path d="M32.9498 1.75C30.2066 0.597882 26.6222 1.87802 23.8608 3.34103C21.1725 4.76747 17.9173 4.76747 15.229 3.34103C12.4676 1.87802 8.8832 0.597882 6.14005 1.75C0.946357 3.94452 -0.150901 10.144 2.86656 15.5206C5.86574 20.8972 6.23149 26.4566 6.87156 32.0161C6.99957 33.1499 7.14588 34.3935 7.54821 35.4725C8.18827 37.1732 10.1451 38.0876 11.7909 37.0818C13.4734 36.0577 14.6072 34.0826 15.5582 32.4184C16.4177 30.9371 17.515 28.5597 19.5449 28.5597C21.5748 28.5597 22.6721 30.9371 23.5316 32.4184C24.4826 34.0826 25.6164 36.0577 27.2989 37.0818C28.9448 38.0876 30.9015 37.1732 31.5416 35.4725C31.9439 34.3935 32.0902 33.1499 32.2183 32.0161C32.8583 26.4566 33.2241 20.8972 36.2233 15.5206C39.2407 10.144 38.1435 3.94452 32.9498 1.75Z" fill="#4269F0"/>
<path d="M31.7437 0.945561C29.0006 -0.206561 25.4162 1.07358 22.6547 2.53659C19.9665 3.96303 16.7113 3.96303 14.023 2.53659C11.2615 1.07358 7.67715 -0.206561 4.934 0.945561C-0.259697 3.14008 -1.35696 9.33961 1.66051 14.7162C4.65968 20.0928 5.02544 25.6522 5.66551 31.2116C5.79352 32.3455 5.93982 33.589 6.34215 34.668C6.98222 36.3688 8.939 37.2831 10.5849 36.2773C12.2674 35.2532 13.4012 33.2781 14.3521 31.614C15.2117 30.1327 16.3089 27.7553 18.3389 27.7553C20.3688 27.7553 21.466 30.1327 22.3256 31.614C23.2765 33.2781 24.4104 35.2532 26.0928 36.2773C27.7387 37.2831 29.6955 36.3688 30.3356 34.668C30.7379 33.589 30.8842 32.3455 31.0122 31.2116C31.6523 25.6522 32.018 20.0928 35.0172 14.7162C38.0347 9.33961 36.9374 3.14008 31.7437 0.945561Z" fill="#25EFFC"/>
<path d="M17.3882 22.8544C16.5653 22.8544 15.8886 22.1777 15.8886 21.3548V19.1054H13.6392C12.8163 19.1054 12.1396 18.4287 12.1396 17.6058V15.7039C12.1396 14.8809 12.8163 14.2043 13.6392 14.2043H15.8886V11.9549C15.8886 11.132 16.5653 10.4553 17.3882 10.4553H19.2901C20.1131 10.4553 20.7897 11.132 20.7897 11.9549V14.2043H23.0391C23.862 14.2043 24.5387 14.8809 24.5387 15.7039V17.6058C24.5387 18.4287 23.862 19.1054 23.0391 19.1054H20.7897V21.3548C20.7897 22.1777 20.1131 22.8544 19.2901 22.8544H17.3882Z" fill="#184CFF"/>
<path d="M23.0388 14.9174H20.0762V11.9548C20.0762 11.5159 19.7287 11.1685 19.2898 11.1685H17.3879C16.949 11.1685 16.6015 11.5159 16.6015 11.9548V14.9174H13.6389C13.2 14.9174 12.8525 15.2649 12.8525 15.7038V17.6057C12.8525 18.0446 13.2 18.3921 13.6389 18.3921H16.6015V21.3547C16.6015 21.7936 16.949 22.1411 17.3879 22.1411H19.2898C19.7287 22.1411 20.0762 21.7936 20.0762 21.3547V18.3921H23.0388C23.4777 18.3921 23.8251 18.0446 23.8251 17.6057V15.7038C23.8251 15.2649 23.4777 14.9174 23.0388 14.9174Z" fill="#4269F0"/>
<path d="M8.20747 6.26729C9.83508 6.70619 11.5541 6.8342 13.2183 6.61475C14.8825 6.3953 16.4735 5.81009 17.9914 5.0603C18.7412 4.69454 19.4727 4.27393 20.2225 3.85331C20.5882 3.65215 20.954 3.43269 21.338 3.23153C21.7038 3.03037 22.0878 2.82921 22.4718 2.64633C23.2399 2.26229 23.9897 1.87824 24.7761 1.53078C25.5625 1.18331 26.3854 0.890709 27.2449 0.762695L27.2632 0.817567C25.6722 1.43935 24.2823 2.40859 22.801 3.24982C21.338 4.12763 19.8201 4.93228 18.2474 5.60893C16.6564 6.28557 14.9922 6.8342 13.2549 6.9805C11.5358 7.10851 9.7985 6.87077 8.1709 6.34043L8.20747 6.26729Z" fill="#E3F9FE"/>
<path d="M58.7888 16H56.094L56.111 14.0108H58.7888C59.4575 14.0108 60.0214 13.8606 60.4804 13.5603C60.9395 13.2542 61.2852 12.8094 61.5175 12.2256C61.7555 11.6419 61.8746 10.9363 61.8746 10.1089V9.50537C61.8746 8.87065 61.8066 8.31243 61.6705 7.83071C61.5402 7.349 61.3447 6.94379 61.084 6.6151C60.8233 6.2864 60.5031 6.03987 60.1234 5.87552C59.7437 5.70551 59.3073 5.6205 58.8143 5.6205H56.043V3.62281H58.8143C59.6417 3.62281 60.3983 3.76449 61.084 4.04785C61.7754 4.32554 62.3733 4.72508 62.8777 5.24646C63.382 5.76785 63.7702 6.39124 64.0423 7.11664C64.32 7.83638 64.4588 8.63829 64.4588 9.52238V10.1089C64.4588 10.9874 64.32 11.7893 64.0423 12.5147C63.7702 13.2401 63.382 13.8635 62.8777 14.3848C62.3789 14.9006 61.7811 15.3001 61.084 15.5835C60.3926 15.8612 59.6275 16 58.7888 16ZM57.5391 3.62281V16H54.9889V3.62281H57.5391ZM74.6173 14.0108V16H68.0292V14.0108H74.6173ZM68.8622 3.62281V16H66.312V3.62281H68.8622ZM73.7587 8.66379V10.602H68.0292V8.66379H73.7587ZM74.6088 3.62281V5.6205H68.0292V3.62281H74.6088ZM86.1784 3.62281V16H83.6282L78.6552 7.7032V16H76.1049V3.62281H78.6552L83.6367 11.9281V3.62281H86.1784ZM93.6761 3.62281V16H91.1344V3.62281H93.6761ZM97.4845 3.62281V5.6205H87.3855V3.62281H97.4845ZM103.053 5.73951L99.6862 16H96.9744L101.573 3.62281H103.299L103.053 5.73951ZM105.849 16L102.474 5.73951L102.202 3.62281H103.945L108.57 16H105.849ZM105.696 11.3926V13.3902H99.1592V11.3926H105.696ZM117.674 14.0108V16H111.443V14.0108H117.674ZM112.267 3.62281V16H109.717V3.62281H112.267ZM130.646 11.8941H133.188C133.137 12.7272 132.907 13.4668 132.499 14.1128C132.097 14.7589 131.533 15.2633 130.808 15.626C130.088 15.9887 129.221 16.17 128.206 16.17C127.413 16.17 126.702 16.034 126.073 15.762C125.444 15.4843 124.905 15.0876 124.458 14.5719C124.016 14.0561 123.678 13.4328 123.446 12.7017C123.214 11.9706 123.097 11.1517 123.097 10.2449V9.38636C123.097 8.47961 123.216 7.6607 123.454 6.92963C123.698 6.19289 124.044 5.56666 124.492 5.05095C124.945 4.53523 125.486 4.13852 126.115 3.86083C126.744 3.58314 127.447 3.44429 128.223 3.44429C129.255 3.44429 130.125 3.63131 130.833 4.00534C131.547 4.37938 132.1 4.8951 132.491 5.55249C132.888 6.20989 133.126 6.95796 133.205 7.79671H130.655C130.626 7.29799 130.527 6.87579 130.357 6.53009C130.187 6.17872 129.929 5.91519 129.584 5.73951C129.244 5.55816 128.79 5.46749 128.223 5.46749C127.798 5.46749 127.427 5.54683 127.11 5.70551C126.792 5.86419 126.526 6.10505 126.311 6.42808C126.095 6.75111 125.934 7.15915 125.826 7.6522C125.724 8.13958 125.673 8.71196 125.673 9.36936V10.2449C125.673 10.8853 125.721 11.4492 125.818 11.9366C125.914 12.4183 126.061 12.8264 126.26 13.1607C126.464 13.4894 126.724 13.7388 127.042 13.9088C127.365 14.0731 127.753 14.1553 128.206 14.1553C128.739 14.1553 129.178 14.0703 129.524 13.9003C129.87 13.7303 130.133 13.4781 130.315 13.1437C130.502 12.8094 130.612 12.3928 130.646 11.8941ZM139.895 5.73951L136.529 16H133.817L138.416 3.62281H140.142L139.895 5.73951ZM142.692 16L139.317 5.73951L139.045 3.62281H140.788L145.412 16H142.692ZM142.539 11.3926V13.3902H136.002V11.3926H142.539ZM146.56 3.62281H151.176C152.122 3.62281 152.935 3.76449 153.615 4.04785C154.301 4.33121 154.828 4.75058 155.197 5.30597C155.565 5.86136 155.749 6.54426 155.749 7.35467C155.749 8.01773 155.636 8.58729 155.409 9.06333C155.188 9.53371 154.874 9.92758 154.465 10.2449C154.063 10.5566 153.59 10.806 153.046 10.993L152.238 11.4181H148.226L148.209 9.42887H151.193C151.64 9.42887 152.012 9.34953 152.306 9.19084C152.601 9.03216 152.822 8.81114 152.969 8.52778C153.122 8.24442 153.199 7.91572 153.199 7.54169C153.199 7.14498 153.125 6.80211 152.978 6.51309C152.83 6.22406 152.607 6.00304 152.306 5.85002C152.006 5.69701 151.629 5.6205 151.176 5.6205H149.11V16H146.56V3.62281ZM153.479 16L150.657 10.483L153.352 10.466L156.208 15.881V16H153.479ZM166.018 14.0108V16H159.43V14.0108H166.018ZM160.263 3.62281V16H157.713V3.62281H160.263ZM165.16 8.66379V10.602H159.43V8.66379H165.16ZM166.01 3.62281V5.6205H159.43V3.62281H166.01Z" fill="white"/>
<path d="M56.9077 35H55.2749L55.2856 34.1567H56.9077C57.4663 34.1567 57.9318 34.0404 58.3042 33.8076C58.6766 33.5713 58.9559 33.2419 59.1421 32.8193C59.3319 32.3932 59.4268 31.8955 59.4268 31.3262V30.8481C59.4268 30.4006 59.373 30.0031 59.2656 29.6558C59.1582 29.3049 59.0007 29.0094 58.793 28.7695C58.5853 28.526 58.3311 28.3416 58.0303 28.2163C57.7331 28.091 57.3911 28.0283 57.0044 28.0283H55.2427V27.1797H57.0044C57.5164 27.1797 57.9837 27.2656 58.4062 27.4375C58.8288 27.6058 59.1922 27.8511 59.4966 28.1733C59.8045 28.492 60.0409 28.8787 60.2056 29.3335C60.3703 29.7847 60.4526 30.2931 60.4526 30.8589V31.3262C60.4526 31.8919 60.3703 32.4022 60.2056 32.8569C60.0409 33.3081 59.8027 33.693 59.4912 34.0117C59.1833 34.3304 58.8109 34.5757 58.374 34.7476C57.9408 34.9159 57.452 35 56.9077 35ZM55.8281 27.1797V35H54.7915V27.1797H55.8281ZM68.1885 34.1567V35H64.0474V34.1567H68.1885ZM64.2569 27.1797V35H63.2203V27.1797H64.2569ZM67.6407 30.542V31.3853H64.0474V30.542H67.6407ZM68.1348 27.1797V28.0283H64.0474V27.1797H68.1348ZM76.6978 27.1797V35H75.6558L71.7188 28.9683V35H70.6822V27.1797H71.7188L75.672 33.2275V27.1797H76.6978ZM82.4733 27.1797V35H81.4528V27.1797H82.4733ZM84.9869 27.1797V28.0283H78.9445V27.1797H84.9869ZM88.4689 27.1797V35H87.4323V27.1797H88.4689ZM95.7321 33.0234C95.7321 32.8408 95.7035 32.6797 95.6462 32.54C95.5925 32.3968 95.4958 32.2679 95.3562 32.1533C95.2201 32.0387 95.0303 31.9295 94.7868 31.8257C94.5469 31.7218 94.2425 31.6162 93.8737 31.5088C93.487 31.3942 93.1379 31.2671 92.8264 31.1274C92.5148 30.9842 92.2481 30.8213 92.0261 30.6387C91.8041 30.4561 91.634 30.2466 91.5158 30.0103C91.3977 29.7739 91.3386 29.5036 91.3386 29.1992C91.3386 28.8949 91.4012 28.6138 91.5266 28.356C91.6519 28.0981 91.8309 27.8743 92.0637 27.6846C92.3 27.4912 92.5811 27.3408 92.9069 27.2334C93.2328 27.126 93.5962 27.0723 93.9973 27.0723C94.5845 27.0723 95.0822 27.1851 95.4904 27.4106C95.9022 27.6326 96.2155 27.9245 96.4304 28.2861C96.6452 28.6442 96.7526 29.0273 96.7526 29.4355H95.7214C95.7214 29.1419 95.6587 28.8823 95.5334 28.6567C95.4081 28.4276 95.2183 28.2485 94.9641 28.1196C94.7098 27.9871 94.3876 27.9209 93.9973 27.9209C93.6284 27.9209 93.3241 27.9764 93.0842 28.0874C92.8443 28.1984 92.6652 28.3488 92.5471 28.5386C92.4325 28.7284 92.3752 28.945 92.3752 29.1885C92.3752 29.3532 92.4092 29.5036 92.4772 29.6396C92.5489 29.7721 92.6581 29.8957 92.8049 30.0103C92.9553 30.1248 93.1451 30.2305 93.3742 30.3271C93.607 30.4238 93.8845 30.5169 94.2067 30.6064C94.6507 30.7318 95.0339 30.8714 95.3562 31.0254C95.6784 31.1794 95.9434 31.353 96.1511 31.5464C96.3623 31.7362 96.5181 31.9528 96.6184 32.1963C96.7222 32.4362 96.7741 32.7083 96.7741 33.0127C96.7741 33.3314 96.7097 33.6196 96.5808 33.8774C96.4519 34.1353 96.2674 34.3555 96.0275 34.5381C95.7876 34.7207 95.4994 34.8621 95.1628 34.9624C94.8298 35.0591 94.4574 35.1074 94.0456 35.1074C93.684 35.1074 93.3277 35.0573 92.9768 34.957C92.6294 34.8568 92.3125 34.7064 92.0261 34.5059C91.7432 34.3053 91.5158 34.0583 91.3439 33.7646C91.1757 33.4674 91.0915 33.1237 91.0915 32.7334H92.1228C92.1228 33.002 92.1747 33.2329 92.2785 33.4263C92.3824 33.616 92.5238 33.7736 92.7028 33.8989C92.8854 34.0243 93.0913 34.1174 93.3205 34.1782C93.5533 34.2355 93.795 34.2642 94.0456 34.2642C94.4073 34.2642 94.7134 34.214 94.9641 34.1138C95.2147 34.0135 95.4045 33.8703 95.5334 33.6841C95.6659 33.4979 95.7321 33.2777 95.7321 33.0234ZM102.195 27.1797V35H101.175V27.1797H102.195ZM104.709 27.1797V28.0283H98.6663V27.1797H104.709ZM107.079 27.1797H109.668C110.255 27.1797 110.751 27.2692 111.156 27.4482C111.564 27.6273 111.873 27.8923 112.085 28.2432C112.3 28.5905 112.407 29.0184 112.407 29.5269C112.407 29.8849 112.334 30.2126 112.187 30.5098C112.044 30.8034 111.836 31.054 111.564 31.2617C111.295 31.4658 110.973 31.618 110.597 31.7183L110.307 31.8311H107.874L107.863 30.9878H109.7C110.072 30.9878 110.382 30.9233 110.629 30.7944C110.876 30.6619 111.062 30.4847 111.188 30.2627C111.313 30.0407 111.376 29.7954 111.376 29.5269C111.376 29.2261 111.317 28.9629 111.199 28.7373C111.08 28.5117 110.894 28.3381 110.64 28.2163C110.389 28.091 110.065 28.0283 109.668 28.0283H108.116V35H107.079V27.1797ZM111.65 35L109.748 31.4551L110.828 31.4497L112.756 34.9355V35H111.65ZM115.169 27.1797L117.2 31.106L119.235 27.1797H120.411L117.715 32.0781V35H116.679V32.0781L113.982 27.1797H115.169ZM131.286 32.5132H132.317C132.263 33.0073 132.122 33.4495 131.892 33.8398C131.663 34.2301 131.339 34.5399 130.92 34.769C130.501 34.9946 129.979 35.1074 129.352 35.1074C128.894 35.1074 128.476 35.0215 128.1 34.8496C127.728 34.6777 127.408 34.4342 127.139 34.1191C126.871 33.8005 126.663 33.4191 126.516 32.9751C126.373 32.5275 126.301 32.0298 126.301 31.4819V30.7031C126.301 30.1553 126.373 29.6593 126.516 29.2153C126.663 28.7677 126.872 28.3846 127.144 28.0659C127.42 27.7472 127.751 27.502 128.138 27.3301C128.525 27.1582 128.96 27.0723 129.443 27.0723C130.034 27.0723 130.534 27.1833 130.942 27.4053C131.35 27.6273 131.667 27.9352 131.892 28.3291C132.122 28.7194 132.263 29.1724 132.317 29.688H131.286C131.235 29.3228 131.142 29.0094 131.006 28.748C130.87 28.4831 130.677 28.279 130.426 28.1357C130.176 27.9925 129.848 27.9209 129.443 27.9209C129.096 27.9209 128.79 27.9871 128.525 28.1196C128.263 28.2521 128.043 28.4401 127.864 28.6836C127.689 28.9271 127.556 29.2189 127.467 29.5591C127.377 29.8993 127.332 30.277 127.332 30.6924V31.4819C127.332 31.8651 127.372 32.2249 127.451 32.5615C127.533 32.8981 127.656 33.1935 127.821 33.4478C127.986 33.702 128.195 33.9025 128.45 34.0493C128.704 34.1925 129.005 34.2642 129.352 34.2642C129.792 34.2642 130.143 34.1943 130.405 34.0547C130.666 33.915 130.863 33.7145 130.996 33.4531C131.132 33.1917 131.228 32.8784 131.286 32.5132ZM139.682 34.1567V35H135.772V34.1567H139.682ZM135.976 27.1797V35H134.939V27.1797H135.976ZM143.191 27.1797V35H142.154V27.1797H143.191ZM152.302 27.1797V35H151.26L147.323 28.9683V35H146.286V27.1797H147.323L151.276 33.2275V27.1797H152.302ZM156.461 27.1797V35H155.424V27.1797H156.461ZM164.277 32.5132H165.308C165.254 33.0073 165.113 33.4495 164.884 33.8398C164.655 34.2301 164.331 34.5399 163.912 34.769C163.493 34.9946 162.97 35.1074 162.343 35.1074C161.885 35.1074 161.468 35.0215 161.092 34.8496C160.72 34.6777 160.399 34.4342 160.13 34.1191C159.862 33.8005 159.654 33.4191 159.507 32.9751C159.364 32.5275 159.293 32.0298 159.293 31.4819V30.7031C159.293 30.1553 159.364 29.6593 159.507 29.2153C159.654 28.7677 159.864 28.3846 160.136 28.0659C160.412 27.7472 160.743 27.502 161.129 27.3301C161.516 27.1582 161.951 27.0723 162.435 27.0723C163.025 27.0723 163.525 27.1833 163.933 27.4053C164.341 27.6273 164.658 27.9352 164.884 28.3291C165.113 28.7194 165.254 29.1724 165.308 29.688H164.277C164.227 29.3228 164.134 29.0094 163.998 28.748C163.862 28.4831 163.668 28.279 163.418 28.1357C163.167 27.9925 162.839 27.9209 162.435 27.9209C162.087 27.9209 161.781 27.9871 161.516 28.1196C161.255 28.2521 161.035 28.4401 160.856 28.6836C160.68 28.9271 160.548 29.2189 160.458 29.5591C160.369 29.8993 160.324 30.277 160.324 30.6924V31.4819C160.324 31.8651 160.363 32.2249 160.442 32.5615C160.524 32.8981 160.648 33.1935 160.813 33.4478C160.977 33.702 161.187 33.9025 161.441 34.0493C161.695 34.1925 161.996 34.2642 162.343 34.2642C162.784 34.2642 163.135 34.1943 163.396 34.0547C163.657 33.915 163.854 33.7145 163.987 33.4531C164.123 33.1917 164.22 32.8784 164.277 32.5132Z" fill="white"/>
</svg>
