<svg width="139" height="144" viewBox="0 0 139 144" fill="none" xmlns="http://www.w3.org/2000/svg">
<g clip-path="url(#clip0_203_4332)">
<path d="M20.905 123H18.2102L18.2272 121.011H20.905C21.5737 121.011 22.1376 120.861 22.5966 120.56C23.0557 120.254 23.4014 119.809 23.6337 119.226C23.8718 118.642 23.9908 117.936 23.9908 117.109V116.505C23.9908 115.871 23.9228 115.312 23.7868 114.831C23.6564 114.349 23.4609 113.944 23.2002 113.615C22.9395 113.286 22.6193 113.04 22.2396 112.876C21.8599 112.706 21.4235 112.62 20.9305 112.62H18.1592V110.623H20.9305C21.7579 110.623 22.5145 110.764 23.2002 111.048C23.8916 111.326 24.4895 111.725 24.9939 112.246C25.4982 112.768 25.8865 113.391 26.1585 114.117C26.4362 114.836 26.575 115.638 26.575 116.522V117.109C26.575 117.987 26.4362 118.789 26.1585 119.515C25.8865 120.24 25.4982 120.863 24.9939 121.385C24.4952 121.901 23.8973 122.3 23.2002 122.583C22.5088 122.861 21.7437 123 20.905 123ZM19.6554 110.623V123H17.1051V110.623H19.6554ZM36.7335 121.011V123H30.1454V121.011H36.7335ZM30.9784 110.623V123H28.4282V110.623H30.9784ZM35.8749 115.664V117.602H30.1454V115.664H35.8749ZM36.725 110.623V112.62H30.1454V110.623H36.725ZM48.2946 110.623V123H45.7444L40.7714 114.703V123H38.2211V110.623H40.7714L45.7529 118.928V110.623H48.2946ZM55.7923 110.623V123H53.2506V110.623H55.7923ZM59.6007 110.623V112.62H49.5017V110.623H59.6007ZM65.1687 112.74L61.8024 123H59.0907L63.6896 110.623H65.4153L65.1687 112.74ZM67.9655 123L64.5907 112.74L64.3187 110.623H66.0613L70.6858 123H67.9655ZM67.8125 118.393V120.39H61.2754V118.393H67.8125ZM79.7901 121.011V123H73.559V121.011H79.7901ZM74.3836 110.623V123H71.8334V110.623H74.3836ZM92.7624 118.894H95.3041C95.2531 119.727 95.0236 120.467 94.6156 121.113C94.2132 121.759 93.6493 122.263 92.9239 122.626C92.2042 122.989 91.3371 123.17 90.3227 123.17C89.5293 123.17 88.818 123.034 88.189 122.762C87.5599 122.484 87.0215 122.088 86.5738 121.572C86.1318 121.056 85.7946 120.433 85.5622 119.702C85.3298 118.971 85.2137 118.152 85.2137 117.245V116.386C85.2137 115.48 85.3327 114.661 85.5707 113.93C85.8144 113.193 86.1601 112.567 86.6078 112.051C87.0612 111.535 87.6024 111.139 88.2315 110.861C88.8605 110.583 89.5633 110.444 90.3397 110.444C91.3711 110.444 92.241 110.631 92.9494 111.005C93.6635 111.379 94.216 111.895 94.6071 112.552C95.0038 113.21 95.2418 113.958 95.3211 114.797H92.7709C92.7426 114.298 92.6434 113.876 92.4734 113.53C92.3034 113.179 92.0455 112.915 91.6998 112.74C91.3598 112.558 90.9064 112.467 90.3397 112.467C89.9146 112.467 89.5434 112.547 89.2261 112.706C88.9087 112.864 88.6423 113.105 88.427 113.428C88.2116 113.751 88.0501 114.159 87.9424 114.652C87.8404 115.14 87.7894 115.712 87.7894 116.369V117.245C87.7894 117.885 87.8376 118.449 87.9339 118.937C88.0303 119.418 88.1776 119.826 88.376 120.161C88.58 120.489 88.8407 120.739 89.158 120.909C89.4811 121.073 89.8693 121.155 90.3227 121.155C90.8554 121.155 91.2946 121.07 91.6403 120.9C91.986 120.73 92.2495 120.478 92.4309 120.144C92.6179 119.809 92.7284 119.393 92.7624 118.894ZM102.011 112.74L98.645 123H95.9332L100.532 110.623H102.258L102.011 112.74ZM104.808 123L101.433 112.74L101.161 110.623H102.904L107.528 123H104.808ZM104.655 118.393V120.39H98.1179V118.393H104.655ZM108.676 110.623H113.292C114.238 110.623 115.052 110.764 115.732 111.048C116.417 111.331 116.944 111.751 117.313 112.306C117.681 112.861 117.865 113.544 117.865 114.355C117.865 115.018 117.752 115.587 117.525 116.063C117.304 116.534 116.99 116.928 116.582 117.245C116.179 117.557 115.706 117.806 115.162 117.993L114.354 118.418H110.342L110.325 116.429H113.309C113.757 116.429 114.128 116.35 114.422 116.191C114.717 116.032 114.938 115.811 115.086 115.528C115.239 115.244 115.315 114.916 115.315 114.542C115.315 114.145 115.241 113.802 115.094 113.513C114.947 113.224 114.723 113.003 114.422 112.85C114.122 112.697 113.745 112.62 113.292 112.62H111.226V123H108.676V110.623ZM115.596 123L112.773 117.483L115.468 117.466L118.324 122.881V123H115.596ZM128.134 121.011V123H121.546V121.011H128.134ZM122.379 110.623V123H119.829V110.623H122.379ZM127.276 115.664V117.602H121.546V115.664H127.276ZM128.126 110.623V112.62H121.546V110.623H128.126Z" fill="white"/>
<path d="M53.5736 138.219H55.1605C55.1098 138.824 54.9405 139.364 54.6527 139.838C54.365 140.307 53.9608 140.678 53.4403 140.948C52.9198 141.219 52.2872 141.355 51.5424 141.355C50.9711 141.355 50.4569 141.253 49.9999 141.05C49.5429 140.843 49.1514 140.551 48.8256 140.174C48.4997 139.793 48.2501 139.334 48.0766 138.797C47.9073 138.259 47.8227 137.658 47.8227 136.994V136.226C47.8227 135.561 47.9094 134.961 48.0829 134.423C48.2606 133.886 48.5146 133.427 48.8446 133.046C49.1747 132.661 49.5704 132.366 50.0316 132.163C50.4971 131.96 51.0198 131.859 51.5995 131.859C52.3358 131.859 52.9579 131.994 53.4657 132.265C53.9735 132.536 54.3671 132.91 54.6464 133.388C54.9299 133.867 55.1034 134.415 55.1669 135.032H53.58C53.5377 134.635 53.4446 134.294 53.3007 134.01C53.161 133.727 52.9537 133.511 52.6786 133.363C52.4035 133.211 52.0438 133.135 51.5995 133.135C51.2356 133.135 50.9182 133.202 50.6474 133.338C50.3765 133.473 50.1501 133.672 49.9682 133.934C49.7862 134.197 49.6487 134.52 49.5556 134.906C49.4667 135.286 49.4223 135.722 49.4223 136.213V136.994C49.4223 137.459 49.4625 137.883 49.5429 138.263C49.6275 138.64 49.7545 138.964 49.9237 139.235C50.0972 139.505 50.3173 139.715 50.5839 139.863C50.8505 140.011 51.17 140.085 51.5424 140.085C51.9952 140.085 52.3612 140.013 52.6405 139.869C52.9241 139.726 53.1378 139.516 53.2816 139.241C53.4298 138.962 53.5271 138.621 53.5736 138.219ZM64.6069 139.965V141.228H59.9667V139.965H64.6069ZM60.4111 131.986V141.228H58.8178V131.986H60.4111ZM69.7495 131.986V141.228H68.1562V131.986H69.7495ZM81.2715 131.986V141.228H79.6782L75.5332 134.607V141.228H73.94V131.986H75.5332L79.6909 138.619V131.986H81.2715ZM87.0806 131.986V141.228H85.4874V131.986H87.0806ZM96.7301 138.219H98.317C98.2662 138.824 98.0969 139.364 97.8092 139.838C97.5214 140.307 97.1173 140.678 96.5968 140.948C96.0763 141.219 95.4436 141.355 94.6988 141.355C94.1275 141.355 93.6134 141.253 93.1563 141.05C92.6993 140.843 92.3079 140.551 91.982 140.174C91.6562 139.793 91.4065 139.334 91.233 138.797C91.0637 138.259 90.9791 137.658 90.9791 136.994V136.226C90.9791 135.561 91.0659 134.961 91.2394 134.423C91.4171 133.886 91.671 133.427 92.0011 133.046C92.3312 132.661 92.7268 132.366 93.1881 132.163C93.6536 131.96 94.1762 131.859 94.756 131.859C95.4923 131.859 96.1144 131.994 96.6222 132.265C97.13 132.536 97.5235 132.91 97.8028 133.388C98.0864 133.867 98.2599 134.415 98.3233 135.032H96.7364C96.6941 134.635 96.601 134.294 96.4571 134.01C96.3175 133.727 96.1101 133.511 95.8351 133.363C95.56 133.211 95.2003 133.135 94.756 133.135C94.392 133.135 94.0746 133.202 93.8038 133.338C93.533 133.473 93.3066 133.672 93.1246 133.934C92.9426 134.197 92.8051 134.52 92.712 134.906C92.6231 135.286 92.5787 135.722 92.5787 136.213V136.994C92.5787 137.459 92.6189 137.883 92.6993 138.263C92.784 138.64 92.9109 138.964 93.0802 139.235C93.2537 139.505 93.4737 139.715 93.7403 139.863C94.0069 140.011 94.3264 140.085 94.6988 140.085C95.1516 140.085 95.5177 140.013 95.797 139.869C96.0805 139.726 96.2942 139.516 96.4381 139.241C96.5862 138.962 96.6835 138.621 96.7301 138.219Z" fill="white"/>
<path d="M104.651 10.0526C98.2838 7.33584 90.0063 10.3497 83.5541 13.7456C77.3141 17.0566 69.8006 17.0566 63.5606 13.7456C57.1508 10.3497 48.8308 7.33584 42.4635 10.0526C30.408 15.104 27.8611 29.4942 34.8227 41.9742C41.8268 54.4542 42.6757 67.3586 44.1614 80.3056C44.4586 82.9374 44.7557 85.7815 45.6896 88.286C47.2178 92.2762 51.7598 94.3562 55.5378 92.0215C59.4431 89.6443 62.1173 85.0598 64.3247 81.2394C66.2773 77.7586 68.8667 72.2403 73.5786 72.2403C78.2479 72.2403 80.8373 77.7586 82.79 81.2394C84.9973 85.0598 87.6716 89.6443 91.5769 92.0215C95.3973 94.3562 99.8969 92.2762 101.425 88.286C102.359 85.7815 102.656 82.9374 102.996 80.3056C104.439 67.3586 105.288 54.4542 112.292 41.9742C119.254 29.4942 116.749 15.104 104.651 10.0526Z" fill="#25EFFC"/>
<path d="M112.335 15.953C113.014 21.2591 111.783 27.202 108.684 32.7628C101.68 45.2428 100.831 58.1472 99.3454 71.0517C99.0483 73.6836 98.7511 76.5701 97.8172 79.0321C96.2891 83.0223 91.7895 85.1448 87.9691 82.8101C84.0638 80.4329 81.3895 75.8484 79.1822 71.9856C77.2295 68.5472 74.6401 63.0289 69.9707 63.0289C65.2589 63.0289 62.6695 68.5472 60.7169 71.9856C58.5095 75.8484 55.8352 80.4329 51.9299 82.8101C49.383 84.3807 46.454 83.9137 44.374 82.2158C44.6287 84.2958 45.0107 86.4182 45.6899 88.286C47.2181 92.2762 51.7601 94.3562 55.5381 92.0215C59.4434 89.6444 62.1177 85.0599 64.325 81.2395C66.2777 77.7587 68.8671 72.2403 73.5789 72.2403C78.2483 72.2403 80.8377 77.7587 82.7903 81.2395C84.9977 85.0599 87.6719 89.6444 91.5772 92.0215C95.3976 94.3562 99.8972 92.2762 101.425 88.286C102.359 85.7815 102.656 82.9374 102.996 80.3056C104.439 67.3587 105.288 54.4542 112.292 41.9742C117.386 32.8477 117.386 22.7448 112.335 15.953Z" fill="#4269F0"/>
<path d="M50.02 22.4053C53.8404 23.424 57.8306 23.6787 61.6935 23.1694C65.5563 22.7024 69.2494 21.3016 72.7302 19.6036C74.513 18.7122 76.211 17.7359 77.909 16.7596C78.7579 16.2926 79.6069 15.8257 80.4983 15.3587C81.3898 14.8918 82.2387 14.4249 83.1302 13.9579C84.913 13.109 86.6534 12.2175 88.4787 11.411C90.3465 10.6045 92.2567 9.88284 94.2093 9.58569L94.2518 9.75549C90.5587 11.1563 87.3751 13.4485 83.8943 15.4012C80.5408 17.3963 77.0175 19.2641 73.3245 20.8347C69.6738 22.4477 65.811 23.7212 61.7784 24.0608C57.7882 24.3579 53.7555 23.8061 49.9775 22.5326L50.02 22.4053Z" fill="#E3F9FE"/>
<path d="M84.3607 29.6639C81.3468 28.348 76.9321 31.3619 73.5786 36.7104C70.1827 31.3619 65.8105 28.348 62.7542 29.6639C58.9762 31.3194 58.6791 39.0027 62.075 46.8982C64.7917 53.1382 69.0366 57.5953 72.6023 58.3594C72.6589 58.3877 72.7155 58.4018 72.7721 58.4018C72.857 58.4018 72.9419 58.416 73.0268 58.4443C73.1966 58.4726 73.3805 58.4867 73.5786 58.4867C73.7484 58.4867 73.9324 58.4726 74.1305 58.4443C74.1871 58.416 74.2578 58.4018 74.3427 58.4018C74.3993 58.4018 74.4701 58.3877 74.555 58.3594C78.0782 57.5953 82.3231 53.1382 85.0399 46.8982C88.4782 39.0027 88.1811 31.3194 84.3607 29.6639Z" fill="#184CFF"/>
<path d="M82.5353 32.0836C79.9884 30.9799 76.3802 33.4844 73.5786 37.9415C70.777 33.4844 67.1263 30.9799 64.5794 32.0836C61.4382 33.4419 61.1835 39.8517 64.0276 46.3888C66.2774 51.5676 69.8006 55.3031 72.7296 55.8974C72.7862 55.9257 72.8428 55.9399 72.8994 55.9399C72.9843 55.9399 73.055 55.954 73.1116 55.9823C73.2531 55.9823 73.4088 55.9823 73.5786 55.9823C73.7201 55.9823 73.8616 55.9823 74.0031 55.9823C74.088 55.954 74.1587 55.9399 74.2153 55.9399C74.2719 55.9399 74.3285 55.9257 74.3851 55.8974C77.3141 55.3031 80.8373 51.5676 83.0871 46.3888C85.9312 39.8517 85.6765 33.4419 82.5353 32.0836Z" fill="#4269F0"/>
</g>
<defs>
<clipPath id="clip0_203_4332">
<rect width="139" height="144" fill="white"/>
</clipPath>
</defs>
</svg>
