<svg width="139" height="150" viewBox="0 0 139 150" fill="none" xmlns="http://www.w3.org/2000/svg">
<g clip-path="url(#clip0_204_4511)">
<path d="M20.905 129H18.2102L18.2272 127.011H20.905C21.5737 127.011 22.1376 126.861 22.5966 126.56C23.0557 126.254 23.4014 125.809 23.6337 125.226C23.8718 124.642 23.9908 123.936 23.9908 123.109V122.505C23.9908 121.871 23.9228 121.312 23.7868 120.831C23.6564 120.349 23.4609 119.944 23.2002 119.615C22.9395 119.286 22.6193 119.04 22.2396 118.876C21.8599 118.706 21.4235 118.62 20.9305 118.62H18.1592V116.623H20.9305C21.7579 116.623 22.5145 116.764 23.2002 117.048C23.8916 117.326 24.4895 117.725 24.9939 118.246C25.4982 118.768 25.8865 119.391 26.1585 120.117C26.4362 120.836 26.575 121.638 26.575 122.522V123.109C26.575 123.987 26.4362 124.789 26.1585 125.515C25.8865 126.24 25.4982 126.863 24.9939 127.385C24.4952 127.901 23.8973 128.3 23.2002 128.583C22.5088 128.861 21.7437 129 20.905 129ZM19.6554 116.623V129H17.1051V116.623H19.6554ZM36.7335 127.011V129H30.1454V127.011H36.7335ZM30.9784 116.623V129H28.4282V116.623H30.9784ZM35.8749 121.664V123.602H30.1454V121.664H35.8749ZM36.725 116.623V118.62H30.1454V116.623H36.725ZM48.2946 116.623V129H45.7444L40.7714 120.703V129H38.2211V116.623H40.7714L45.7529 124.928V116.623H48.2946ZM55.7923 116.623V129H53.2506V116.623H55.7923ZM59.6007 116.623V118.62H49.5017V116.623H59.6007ZM65.1687 118.74L61.8024 129H59.0907L63.6896 116.623H65.4153L65.1687 118.74ZM67.9655 129L64.5907 118.74L64.3187 116.623H66.0613L70.6858 129H67.9655ZM67.8125 124.393V126.39H61.2754V124.393H67.8125ZM79.7901 127.011V129H73.559V127.011H79.7901ZM74.3836 116.623V129H71.8334V116.623H74.3836ZM92.7624 124.894H95.3041C95.2531 125.727 95.0236 126.467 94.6156 127.113C94.2132 127.759 93.6493 128.263 92.9239 128.626C92.2042 128.989 91.3371 129.17 90.3227 129.17C89.5293 129.17 88.818 129.034 88.189 128.762C87.5599 128.484 87.0215 128.088 86.5738 127.572C86.1318 127.056 85.7946 126.433 85.5622 125.702C85.3298 124.971 85.2137 124.152 85.2137 123.245V122.386C85.2137 121.48 85.3327 120.661 85.5707 119.93C85.8144 119.193 86.1601 118.567 86.6078 118.051C87.0612 117.535 87.6024 117.139 88.2315 116.861C88.8605 116.583 89.5633 116.444 90.3397 116.444C91.3711 116.444 92.241 116.631 92.9494 117.005C93.6635 117.379 94.216 117.895 94.6071 118.552C95.0038 119.21 95.2418 119.958 95.3211 120.797H92.7709C92.7426 120.298 92.6434 119.876 92.4734 119.53C92.3034 119.179 92.0455 118.915 91.6998 118.74C91.3598 118.558 90.9064 118.467 90.3397 118.467C89.9146 118.467 89.5434 118.547 89.2261 118.706C88.9087 118.864 88.6423 119.105 88.427 119.428C88.2116 119.751 88.0501 120.159 87.9424 120.652C87.8404 121.14 87.7894 121.712 87.7894 122.369V123.245C87.7894 123.885 87.8376 124.449 87.9339 124.937C88.0303 125.418 88.1776 125.826 88.376 126.161C88.58 126.489 88.8407 126.739 89.158 126.909C89.4811 127.073 89.8693 127.155 90.3227 127.155C90.8554 127.155 91.2946 127.07 91.6403 126.9C91.986 126.73 92.2495 126.478 92.4309 126.144C92.6179 125.809 92.7284 125.393 92.7624 124.894ZM102.011 118.74L98.645 129H95.9332L100.532 116.623H102.258L102.011 118.74ZM104.808 129L101.433 118.74L101.161 116.623H102.904L107.528 129H104.808ZM104.655 124.393V126.39H98.1179V124.393H104.655ZM108.676 116.623H113.292C114.238 116.623 115.052 116.764 115.732 117.048C116.417 117.331 116.944 117.751 117.313 118.306C117.681 118.861 117.865 119.544 117.865 120.355C117.865 121.018 117.752 121.587 117.525 122.063C117.304 122.534 116.99 122.928 116.582 123.245C116.179 123.557 115.706 123.806 115.162 123.993L114.354 124.418H110.342L110.325 122.429H113.309C113.757 122.429 114.128 122.35 114.422 122.191C114.717 122.032 114.938 121.811 115.086 121.528C115.239 121.244 115.315 120.916 115.315 120.542C115.315 120.145 115.241 119.802 115.094 119.513C114.947 119.224 114.723 119.003 114.422 118.85C114.122 118.697 113.745 118.62 113.292 118.62H111.226V129H108.676V116.623ZM115.596 129L112.773 123.483L115.468 123.466L118.324 128.881V129H115.596ZM128.134 127.011V129H121.546V127.011H128.134ZM122.379 116.623V129H119.829V116.623H122.379ZM127.276 121.664V123.602H121.546V121.664H127.276ZM128.126 116.623V118.62H121.546V116.623H128.126Z" fill="white"/>
<path d="M53.5736 144.219H55.1605C55.1098 144.824 54.9405 145.364 54.6527 145.838C54.365 146.307 53.9608 146.678 53.4403 146.948C52.9198 147.219 52.2872 147.355 51.5424 147.355C50.9711 147.355 50.4569 147.253 49.9999 147.05C49.5429 146.843 49.1514 146.551 48.8256 146.174C48.4997 145.793 48.2501 145.334 48.0766 144.797C47.9073 144.259 47.8227 143.658 47.8227 142.994V142.226C47.8227 141.561 47.9094 140.961 48.0829 140.423C48.2606 139.886 48.5146 139.427 48.8446 139.046C49.1747 138.661 49.5704 138.366 50.0316 138.163C50.4971 137.96 51.0198 137.859 51.5995 137.859C52.3358 137.859 52.9579 137.994 53.4657 138.265C53.9735 138.536 54.3671 138.91 54.6464 139.388C54.9299 139.867 55.1034 140.415 55.1669 141.032H53.58C53.5377 140.635 53.4446 140.294 53.3007 140.01C53.161 139.727 52.9537 139.511 52.6786 139.363C52.4035 139.211 52.0438 139.135 51.5995 139.135C51.2356 139.135 50.9182 139.202 50.6474 139.338C50.3765 139.473 50.1501 139.672 49.9682 139.934C49.7862 140.197 49.6487 140.52 49.5556 140.906C49.4667 141.286 49.4223 141.722 49.4223 142.213V142.994C49.4223 143.459 49.4625 143.883 49.5429 144.263C49.6275 144.64 49.7545 144.964 49.9237 145.235C50.0972 145.505 50.3173 145.715 50.5839 145.863C50.8505 146.011 51.17 146.085 51.5424 146.085C51.9952 146.085 52.3612 146.013 52.6405 145.869C52.9241 145.726 53.1378 145.516 53.2816 145.241C53.4298 144.962 53.5271 144.621 53.5736 144.219ZM64.6069 145.965V147.228H59.9667V145.965H64.6069ZM60.4111 137.986V147.228H58.8178V137.986H60.4111ZM69.7495 137.986V147.228H68.1562V137.986H69.7495ZM81.2715 137.986V147.228H79.6782L75.5332 140.607V147.228H73.94V137.986H75.5332L79.6909 144.619V137.986H81.2715ZM87.0806 137.986V147.228H85.4874V137.986H87.0806ZM96.7301 144.219H98.317C98.2662 144.824 98.0969 145.364 97.8092 145.838C97.5214 146.307 97.1173 146.678 96.5968 146.948C96.0763 147.219 95.4436 147.355 94.6988 147.355C94.1275 147.355 93.6134 147.253 93.1563 147.05C92.6993 146.843 92.3079 146.551 91.982 146.174C91.6562 145.793 91.4065 145.334 91.233 144.797C91.0637 144.259 90.9791 143.658 90.9791 142.994V142.226C90.9791 141.561 91.0659 140.961 91.2394 140.423C91.4171 139.886 91.671 139.427 92.0011 139.046C92.3312 138.661 92.7268 138.366 93.1881 138.163C93.6536 137.96 94.1762 137.859 94.756 137.859C95.4923 137.859 96.1144 137.994 96.6222 138.265C97.13 138.536 97.5235 138.91 97.8028 139.388C98.0864 139.867 98.2599 140.415 98.3233 141.032H96.7364C96.6941 140.635 96.601 140.294 96.4571 140.01C96.3175 139.727 96.1101 139.511 95.8351 139.363C95.56 139.211 95.2003 139.135 94.756 139.135C94.392 139.135 94.0746 139.202 93.8038 139.338C93.533 139.473 93.3066 139.672 93.1246 139.934C92.9426 140.197 92.8051 140.52 92.712 140.906C92.6231 141.286 92.5787 141.722 92.5787 142.213V142.994C92.5787 143.459 92.6189 143.883 92.6993 144.263C92.784 144.64 92.9109 144.964 93.0802 145.235C93.2537 145.505 93.4737 145.715 93.7403 145.863C94.0069 146.011 94.3264 146.085 94.6988 146.085C95.1516 146.085 95.5177 146.013 95.797 145.869C96.0805 145.726 96.2942 145.516 96.4381 145.241C96.5862 144.962 96.6835 144.621 96.7301 144.219Z" fill="white"/>
<path d="M70.2341 54.9303C68.1878 54.9303 66.5054 53.2478 66.5054 51.2016V45.6085H60.9123C58.8661 45.6085 57.1836 43.926 57.1836 41.8798V37.1507C57.1836 35.1045 58.8661 33.422 60.9123 33.422H66.5054V27.8289C66.5054 25.7827 68.1878 24.1002 70.2341 24.1002H74.9632C77.0094 24.1002 78.6919 25.7827 78.6919 27.8289V33.422H84.2849C86.3312 33.422 88.0136 35.1045 88.0136 37.1507V41.8798C88.0136 43.926 86.3312 45.6085 84.2849 45.6085H78.6919V51.2016C78.6919 53.2478 77.0094 54.9303 74.9632 54.9303H70.2341Z" fill="#184CFF"/>
<path d="M84.2849 35.1954H76.9185V27.8289C76.9185 26.7376 76.0545 25.8737 74.9632 25.8737H70.2341C69.1428 25.8737 68.2788 26.7376 68.2788 27.8289V35.1954H60.9123C59.821 35.1954 58.957 36.0594 58.957 37.1507V41.8798C58.957 42.9711 59.821 43.8351 60.9123 43.8351H68.2788V51.2016C68.2788 52.2929 69.1428 53.1569 70.2341 53.1569H74.9632C76.0545 53.1569 76.9185 52.2929 76.9185 51.2016V43.8351H84.2849C85.3763 43.8351 86.2402 42.9711 86.2402 41.8798V37.1507C86.2402 36.0594 85.3763 35.1954 84.2849 35.1954Z" fill="#4269F0"/>
<path d="M47.4083 13.6871C51.4553 14.7784 55.7297 15.0967 59.8677 14.551C64.0056 14.0054 67.9617 12.5503 71.7359 10.6859C73.6002 9.77648 75.4191 8.73064 77.2834 7.68478C78.1929 7.18459 79.1023 6.63892 80.0572 6.13872C80.9667 5.63853 81.9216 5.13836 82.8765 4.68364C84.7863 3.72873 86.6507 2.7738 88.606 1.90983C90.5613 1.04586 92.6075 0.318304 94.7447 0L94.7902 0.136438C90.8341 1.68249 87.3782 4.0925 83.695 6.18421C80.0572 8.36687 76.2831 10.3676 72.3725 12.0501C68.4164 13.7326 64.2784 15.0967 59.9586 15.4605C55.6842 15.7788 51.3644 15.1877 47.3174 13.869L47.4083 13.6871Z" fill="#E3F9FE"/>
<path d="M115.582 23.9431C115.582 21.5634 115.242 19.5236 114.222 17.4838C111.503 12.0444 105.723 8.98478 99.6041 8.30486C93.4847 7.28497 87.0254 8.98477 82.266 11.0245C77.8464 13.0643 72.747 13.0643 68.3275 11.0245C63.568 8.98477 57.1087 7.28497 50.6494 8.30486C42.1504 9.32474 34.6712 15.4441 35.0112 24.963C35.3511 31.7623 39.0907 38.5615 41.1305 45.0208C43.5102 51.1401 45.8899 57.9394 44.8701 64.3987C42.8303 76.9773 36.711 101.455 46.2299 105.194C55.7489 108.934 62.2082 95.3353 63.568 81.7368C64.9279 68.1383 75.1267 69.1582 75.1267 69.1582C75.1267 69.1582 85.6656 68.1383 87.0254 81.7368C88.3853 95.3353 94.8446 108.934 104.364 105.194C113.882 101.455 107.763 76.9773 105.723 64.3987C104.364 55.5597 108.783 46.3807 112.183 38.2216C113.882 33.802 115.582 28.7026 115.582 23.9431Z" fill="#4269F0"/>
<path d="M111.582 20.2901C111.582 17.9103 111.242 15.8705 110.222 13.8308C107.503 8.39136 101.723 5.33171 95.6041 4.65178C89.4847 3.63189 83.0254 5.33169 78.266 7.37147C73.8464 9.41124 68.747 9.41124 64.3275 7.37147C59.568 5.33169 53.1087 3.63189 46.6494 4.65178C38.1504 5.67167 30.6712 11.791 31.0112 21.31C31.3511 28.1092 35.0907 34.9084 37.1305 41.3677C39.5102 47.4871 41.8899 54.2863 40.8701 60.7456C38.8303 73.3242 32.711 97.8015 42.2299 101.541C51.7489 105.281 58.2082 91.6822 59.568 78.0837C60.9279 64.4852 71.1267 65.5051 71.1267 65.5051C71.1267 65.5051 81.6656 64.4852 83.0254 78.0837C84.3853 91.6822 90.8446 105.281 100.364 101.541C109.882 97.8015 103.763 73.3242 101.723 60.7456C100.364 51.9066 104.783 42.7276 108.183 34.5685C109.882 30.149 111.582 25.0495 111.582 20.2901Z" fill="#25EFFC"/>
<path d="M82.3449 31.5086C81.8916 31.2819 81.4383 31.1686 80.985 31.1686C79.6252 30.8286 78.6053 31.1686 77.2454 31.8485C77.2454 31.8485 74.8657 27.089 74.5257 26.7491C73.8458 26.0691 72.8259 25.7292 72.146 26.0691C71.1261 26.0691 70.4462 27.089 70.7861 28.1089C69.7662 26.7491 68.7464 25.3892 67.3865 24.3693C66.0267 23.6894 64.3268 24.7093 64.3268 26.0691L62.627 25.0493C62.2871 25.0493 61.6072 24.7093 61.6072 24.7093C60.5873 24.0294 58.5475 22.3296 55.8278 25.0493C53.448 27.769 55.4878 29.8087 55.8278 30.4887C56.0544 30.9419 56.2811 31.2819 56.5077 31.5086L57.8675 33.2084C56.1677 33.5483 55.4878 35.2481 56.1677 36.268C57.5276 37.9678 59.9073 39.3277 59.9073 39.3277C59.9073 39.3277 57.1876 39.6676 58.2075 42.3873C59.2274 44.0872 64.6668 45.787 64.6668 45.787C64.6668 45.787 62.2871 47.4868 64.6668 50.8864C66.3666 53.6061 71.4661 53.9461 74.5257 53.9461C80.645 53.2662 85.4045 48.8466 85.7445 42.3873C86.0845 39.6676 85.7445 35.9281 84.0447 33.2084C83.5914 32.5284 83.0248 31.9618 82.3449 31.5086Z" fill="#4269F0"/>
<path d="M85.7444 52.9261C83.7046 50.2064 81.3249 48.1667 78.9451 45.7869C76.4521 43.2939 74.0723 41.0274 71.8059 38.9877C69.9928 37.4012 68.1796 35.928 66.3665 34.5681L57.1875 26.4091C62.2869 29.1288 67.3864 32.8683 73.1657 37.6278C77.9252 42.0473 82.6847 46.8068 86.0843 52.5862C86.0843 52.8128 85.971 52.9261 85.7444 52.9261Z" fill="white"/>
<path fill-rule="evenodd" clip-rule="evenodd" d="M57.5285 26.0692C62.288 28.7889 67.3875 32.5285 73.1668 37.6279C77.9263 42.0475 82.6858 46.8069 86.0854 52.5863C86.0854 52.8129 86.0854 52.9263 86.0854 52.9263C85.8588 53.1529 85.7455 53.2662 85.7455 53.2662C85.7455 53.2662 85.6321 53.1529 85.4055 52.9263C83.7057 50.5465 81.3259 48.1668 78.9462 45.7871C76.4531 43.5206 74.0734 41.3675 71.807 39.3278C69.9939 37.7413 68.1807 36.1548 66.3676 34.5683C65.6876 33.8883 65.0077 33.3217 64.3278 32.8685L56.8486 26.4092C56.8486 26.4092 56.8486 26.2958 56.8486 26.0692C57.0753 25.8426 57.1886 25.7292 57.1886 25.7292C57.1886 25.7292 57.3019 25.8426 57.5285 26.0692ZM64.6678 32.5285C67.0475 34.5683 69.7672 36.948 72.147 38.9878C74.4134 41.0276 76.7931 43.1807 79.2862 45.4471C81.3259 47.8268 83.7057 50.2066 85.7455 52.9263C82.6858 47.1469 77.9263 42.3874 72.8269 37.9679C68.0674 33.5484 62.968 29.4688 57.1886 26.0692L64.6678 32.5285Z" fill="#3EC1CB"/>
</g>
<defs>
<clipPath id="clip0_204_4511">
<rect width="139" height="150" fill="white"/>
</clipPath>
</defs>
</svg>
