<svg width="139" height="144" viewBox="0 0 139 144" fill="none" xmlns="http://www.w3.org/2000/svg">
<g clip-path="url(#clip0_204_4349)">
<path d="M20.905 123H18.2102L18.2272 121.011H20.905C21.5737 121.011 22.1376 120.861 22.5966 120.56C23.0557 120.254 23.4014 119.809 23.6337 119.226C23.8718 118.642 23.9908 117.936 23.9908 117.109V116.505C23.9908 115.871 23.9228 115.312 23.7868 114.831C23.6564 114.349 23.4609 113.944 23.2002 113.615C22.9395 113.286 22.6193 113.04 22.2396 112.876C21.8599 112.706 21.4235 112.62 20.9305 112.62H18.1592V110.623H20.9305C21.7579 110.623 22.5145 110.764 23.2002 111.048C23.8916 111.326 24.4895 111.725 24.9939 112.246C25.4982 112.768 25.8865 113.391 26.1585 114.117C26.4362 114.836 26.575 115.638 26.575 116.522V117.109C26.575 117.987 26.4362 118.789 26.1585 119.515C25.8865 120.24 25.4982 120.863 24.9939 121.385C24.4952 121.901 23.8973 122.3 23.2002 122.583C22.5088 122.861 21.7437 123 20.905 123ZM19.6554 110.623V123H17.1051V110.623H19.6554ZM36.7335 121.011V123H30.1454V121.011H36.7335ZM30.9784 110.623V123H28.4282V110.623H30.9784ZM35.8749 115.664V117.602H30.1454V115.664H35.8749ZM36.725 110.623V112.62H30.1454V110.623H36.725ZM48.2946 110.623V123H45.7444L40.7714 114.703V123H38.2211V110.623H40.7714L45.7529 118.928V110.623H48.2946ZM55.7923 110.623V123H53.2506V110.623H55.7923ZM59.6007 110.623V112.62H49.5017V110.623H59.6007ZM65.1687 112.74L61.8024 123H59.0907L63.6896 110.623H65.4153L65.1687 112.74ZM67.9655 123L64.5907 112.74L64.3187 110.623H66.0613L70.6858 123H67.9655ZM67.8125 118.393V120.39H61.2754V118.393H67.8125ZM79.7901 121.011V123H73.559V121.011H79.7901ZM74.3836 110.623V123H71.8334V110.623H74.3836ZM92.7624 118.894H95.3041C95.2531 119.727 95.0236 120.467 94.6156 121.113C94.2132 121.759 93.6493 122.263 92.9239 122.626C92.2042 122.989 91.3371 123.17 90.3227 123.17C89.5293 123.17 88.818 123.034 88.189 122.762C87.5599 122.484 87.0215 122.088 86.5738 121.572C86.1318 121.056 85.7946 120.433 85.5622 119.702C85.3298 118.971 85.2137 118.152 85.2137 117.245V116.386C85.2137 115.48 85.3327 114.661 85.5707 113.93C85.8144 113.193 86.1601 112.567 86.6078 112.051C87.0612 111.535 87.6024 111.139 88.2315 110.861C88.8605 110.583 89.5633 110.444 90.3397 110.444C91.3711 110.444 92.241 110.631 92.9494 111.005C93.6635 111.379 94.216 111.895 94.6071 112.552C95.0038 113.21 95.2418 113.958 95.3211 114.797H92.7709C92.7426 114.298 92.6434 113.876 92.4734 113.53C92.3034 113.179 92.0455 112.915 91.6998 112.74C91.3598 112.558 90.9064 112.467 90.3397 112.467C89.9146 112.467 89.5434 112.547 89.2261 112.706C88.9087 112.864 88.6423 113.105 88.427 113.428C88.2116 113.751 88.0501 114.159 87.9424 114.652C87.8404 115.14 87.7894 115.712 87.7894 116.369V117.245C87.7894 117.885 87.8376 118.449 87.9339 118.937C88.0303 119.418 88.1776 119.826 88.376 120.161C88.58 120.489 88.8407 120.739 89.158 120.909C89.4811 121.073 89.8693 121.155 90.3227 121.155C90.8554 121.155 91.2946 121.07 91.6403 120.9C91.986 120.73 92.2495 120.478 92.4309 120.144C92.6179 119.809 92.7284 119.393 92.7624 118.894ZM102.011 112.74L98.645 123H95.9332L100.532 110.623H102.258L102.011 112.74ZM104.808 123L101.433 112.74L101.161 110.623H102.904L107.528 123H104.808ZM104.655 118.393V120.39H98.1179V118.393H104.655ZM108.676 110.623H113.292C114.238 110.623 115.052 110.764 115.732 111.048C116.417 111.331 116.944 111.751 117.313 112.306C117.681 112.861 117.865 113.544 117.865 114.355C117.865 115.018 117.752 115.587 117.525 116.063C117.304 116.534 116.99 116.928 116.582 117.245C116.179 117.557 115.706 117.806 115.162 117.993L114.354 118.418H110.342L110.325 116.429H113.309C113.757 116.429 114.128 116.35 114.422 116.191C114.717 116.032 114.938 115.811 115.086 115.528C115.239 115.244 115.315 114.916 115.315 114.542C115.315 114.145 115.241 113.802 115.094 113.513C114.947 113.224 114.723 113.003 114.422 112.85C114.122 112.697 113.745 112.62 113.292 112.62H111.226V123H108.676V110.623ZM115.596 123L112.773 117.483L115.468 117.466L118.324 122.881V123H115.596ZM128.134 121.011V123H121.546V121.011H128.134ZM122.379 110.623V123H119.829V110.623H122.379ZM127.276 115.664V117.602H121.546V115.664H127.276ZM128.126 110.623V112.62H121.546V110.623H128.126Z" fill="white"/>
<path d="M53.5736 138.219H55.1605C55.1098 138.824 54.9405 139.364 54.6527 139.838C54.365 140.307 53.9608 140.678 53.4403 140.948C52.9198 141.219 52.2872 141.355 51.5424 141.355C50.9711 141.355 50.4569 141.253 49.9999 141.05C49.5429 140.843 49.1514 140.551 48.8256 140.174C48.4997 139.793 48.2501 139.334 48.0766 138.797C47.9073 138.259 47.8227 137.658 47.8227 136.994V136.226C47.8227 135.561 47.9094 134.961 48.0829 134.423C48.2606 133.886 48.5146 133.427 48.8446 133.046C49.1747 132.661 49.5704 132.366 50.0316 132.163C50.4971 131.96 51.0198 131.859 51.5995 131.859C52.3358 131.859 52.9579 131.994 53.4657 132.265C53.9735 132.536 54.3671 132.91 54.6464 133.388C54.9299 133.867 55.1034 134.415 55.1669 135.032H53.58C53.5377 134.635 53.4446 134.294 53.3007 134.01C53.161 133.727 52.9537 133.511 52.6786 133.363C52.4035 133.211 52.0438 133.135 51.5995 133.135C51.2356 133.135 50.9182 133.202 50.6474 133.338C50.3765 133.473 50.1501 133.672 49.9682 133.934C49.7862 134.197 49.6487 134.52 49.5556 134.906C49.4667 135.286 49.4223 135.722 49.4223 136.213V136.994C49.4223 137.459 49.4625 137.883 49.5429 138.263C49.6275 138.64 49.7545 138.964 49.9237 139.235C50.0972 139.505 50.3173 139.715 50.5839 139.863C50.8505 140.011 51.17 140.085 51.5424 140.085C51.9952 140.085 52.3612 140.013 52.6405 139.869C52.9241 139.726 53.1378 139.516 53.2816 139.241C53.4298 138.962 53.5271 138.621 53.5736 138.219ZM64.6069 139.965V141.228H59.9667V139.965H64.6069ZM60.4111 131.986V141.228H58.8178V131.986H60.4111ZM69.7495 131.986V141.228H68.1562V131.986H69.7495ZM81.2715 131.986V141.228H79.6782L75.5332 134.607V141.228H73.94V131.986H75.5332L79.6909 138.619V131.986H81.2715ZM87.0806 131.986V141.228H85.4874V131.986H87.0806ZM96.7301 138.219H98.317C98.2662 138.824 98.0969 139.364 97.8092 139.838C97.5214 140.307 97.1173 140.678 96.5968 140.948C96.0763 141.219 95.4436 141.355 94.6988 141.355C94.1275 141.355 93.6134 141.253 93.1563 141.05C92.6993 140.843 92.3079 140.551 91.982 140.174C91.6562 139.793 91.4065 139.334 91.233 138.797C91.0637 138.259 90.9791 137.658 90.9791 136.994V136.226C90.9791 135.561 91.0659 134.961 91.2394 134.423C91.4171 133.886 91.671 133.427 92.0011 133.046C92.3312 132.661 92.7268 132.366 93.1881 132.163C93.6536 131.96 94.1762 131.859 94.756 131.859C95.4923 131.859 96.1144 131.994 96.6222 132.265C97.13 132.536 97.5235 132.91 97.8028 133.388C98.0864 133.867 98.2599 134.415 98.3233 135.032H96.7364C96.6941 134.635 96.601 134.294 96.4571 134.01C96.3175 133.727 96.1101 133.511 95.8351 133.363C95.56 133.211 95.2003 133.135 94.756 133.135C94.392 133.135 94.0746 133.202 93.8038 133.338C93.533 133.473 93.3066 133.672 93.1246 133.934C92.9426 134.197 92.8051 134.52 92.712 134.906C92.6231 135.286 92.5787 135.722 92.5787 136.213V136.994C92.5787 137.459 92.6189 137.883 92.6993 138.263C92.784 138.64 92.9109 138.964 93.0802 139.235C93.2537 139.505 93.4737 139.715 93.7403 139.863C94.0069 140.011 94.3264 140.085 94.6988 140.085C95.1516 140.085 95.5177 140.013 95.797 139.869C96.0805 139.726 96.2942 139.516 96.4381 139.241C96.5862 138.962 96.6835 138.621 96.7301 138.219Z" fill="white"/>
<path d="M108.93 3.10788C102.11 0.243145 93.197 3.42619 86.3307 7.06395C79.6463 10.6108 71.5523 10.6108 64.8679 7.06395C58.0016 3.42619 49.0891 0.243145 42.2683 3.10788C29.3543 8.56453 26.6259 23.9796 34.1288 37.3483C41.5862 50.7171 42.4957 64.5406 44.0872 78.3641C44.4055 81.1833 44.7693 84.2755 45.7697 86.9583C47.3612 91.1872 52.2267 93.4608 56.3192 90.9598C60.5026 88.4134 63.3219 83.5024 65.6864 79.3645C67.8236 75.6812 70.5519 69.7699 75.5993 69.7699C80.6467 69.7699 83.375 75.6812 85.5122 79.3645C87.8768 83.5024 90.696 88.4134 94.8795 90.9598C98.9719 93.4608 103.837 91.1872 105.429 86.9583C106.429 84.2755 106.793 81.1833 107.111 78.3641C108.703 64.5406 109.612 50.7171 117.07 37.3483C124.573 23.9796 121.844 8.56453 108.93 3.10788Z" fill="#4269F0"/>
<path d="M105.93 1.10788C99.1095 -1.75686 90.197 1.42619 83.3307 5.06395C76.6463 8.61077 68.5523 8.61077 61.8679 5.06395C55.0016 1.42619 46.0891 -1.75686 39.2683 1.10788C26.3543 6.56453 23.6259 21.9796 31.1288 35.3483C38.5862 48.7171 39.4957 62.5406 41.0872 76.3641C41.4055 79.1833 41.7693 82.2755 42.7697 84.9583C44.3612 89.1872 49.2267 91.4608 53.3192 88.9598C57.5026 86.4134 60.3219 81.5024 62.6864 77.3645C64.8236 73.6812 67.5519 67.7699 72.5993 67.7699C77.6467 67.7699 80.375 73.6812 82.5122 77.3645C84.8768 81.5024 87.696 86.4134 91.8795 88.9598C95.9719 91.4608 100.837 89.1872 102.429 84.9583C103.429 82.2755 103.793 79.1833 104.111 76.3641C105.703 62.5406 106.612 48.7171 114.07 35.3483C121.573 21.9796 118.844 6.56453 105.93 1.10788Z" fill="#25EFFC"/>
<path d="M70.2341 55.5835C68.1878 55.5835 66.5054 53.901 66.5054 51.8548V46.2617H60.9123C58.8661 46.2617 57.1836 44.5792 57.1836 42.533V37.8039C57.1836 35.7577 58.8661 34.0752 60.9123 34.0752H66.5054V28.4821C66.5054 26.4359 68.1878 24.7534 70.2341 24.7534H74.9632C77.0094 24.7534 78.6919 26.4359 78.6919 28.4821V34.0752H84.2849C86.3312 34.0752 88.0136 35.7577 88.0136 37.8039V42.533C88.0136 44.5792 86.3312 46.2617 84.2849 46.2617H78.6919V51.8548C78.6919 53.901 77.0094 55.5835 74.9632 55.5835H70.2341Z" fill="#184CFF"/>
<path d="M84.2849 35.8486H76.9185V28.4821C76.9185 27.3908 76.0545 26.5269 74.9632 26.5269H70.2341C69.1428 26.5269 68.2788 27.3908 68.2788 28.4821V35.8486H60.9123C59.821 35.8486 58.957 36.7126 58.957 37.8039V42.533C58.957 43.6243 59.821 44.4883 60.9123 44.4883H68.2788V51.8548C68.2788 52.9461 69.1428 53.8101 70.2341 53.8101H74.9632C76.0545 53.8101 76.9185 52.9461 76.9185 51.8548V44.4883H84.2849C85.3763 44.4883 86.2402 43.6243 86.2402 42.533V37.8039C86.2402 36.7126 85.3763 35.8486 84.2849 35.8486Z" fill="#4269F0"/>
<path d="M47.4083 14.3402C51.4553 15.4315 55.7297 15.7498 59.8677 15.2041C64.0056 14.6585 67.9617 13.2034 71.7359 11.339C73.6002 10.4296 75.4191 9.38372 77.2834 8.33786C78.1929 7.83767 79.1023 7.29199 80.0572 6.7918C80.9667 6.29161 81.9216 5.79144 82.8765 5.33672C84.7863 4.3818 86.6507 3.42688 88.606 2.56291C90.5613 1.69894 92.6075 0.97138 94.7447 0.653076L94.7902 0.789514C90.8341 2.33556 87.3782 4.74557 83.695 6.83729C80.0572 9.01995 76.2831 11.0207 72.3725 12.7032C68.4164 14.3856 64.2784 15.7498 59.9586 16.1136C55.6842 16.4319 51.3644 15.8407 47.3174 14.522L47.4083 14.3402Z" fill="#E3F9FE"/>
</g>
<defs>
<clipPath id="clip0_204_4349">
<rect width="139" height="144" fill="white"/>
</clipPath>
</defs>
</svg>
