<svg width="130" height="144" viewBox="0 0 130 144" fill="none" xmlns="http://www.w3.org/2000/svg">
<g clip-path="url(#clip0_203_4308)">
<path d="M13.905 123H11.2102L11.2272 121.011H13.905C14.5737 121.011 15.1376 120.861 15.5966 120.56C16.0557 120.254 16.4014 119.809 16.6337 119.226C16.8718 118.642 16.9908 117.936 16.9908 117.109V116.505C16.9908 115.871 16.9228 115.312 16.7868 114.831C16.6564 114.349 16.4609 113.944 16.2002 113.615C15.9395 113.286 15.6193 113.04 15.2396 112.876C14.8599 112.706 14.4235 112.62 13.9305 112.62H11.1592V110.623H13.9305C14.7579 110.623 15.5145 110.764 16.2002 111.048C16.8916 111.326 17.4895 111.725 17.9939 112.246C18.4982 112.768 18.8865 113.391 19.1585 114.117C19.4362 114.836 19.575 115.638 19.575 116.522V117.109C19.575 117.987 19.4362 118.789 19.1585 119.515C18.8865 120.24 18.4982 120.863 17.9939 121.385C17.4952 121.901 16.8973 122.3 16.2002 122.583C15.5088 122.861 14.7437 123 13.905 123ZM12.6554 110.623V123H10.1051V110.623H12.6554ZM29.7335 121.011V123H23.1454V121.011H29.7335ZM23.9784 110.623V123H21.4282V110.623H23.9784ZM28.8749 115.664V117.602H23.1454V115.664H28.8749ZM29.725 110.623V112.62H23.1454V110.623H29.725ZM41.2946 110.623V123H38.7444L33.7714 114.703V123H31.2211V110.623H33.7714L38.7529 118.928V110.623H41.2946ZM48.7923 110.623V123H46.2506V110.623H48.7923ZM52.6007 110.623V112.62H42.5017V110.623H52.6007ZM58.1687 112.74L54.8024 123H52.0907L56.6896 110.623H58.4153L58.1687 112.74ZM60.9655 123L57.5907 112.74L57.3187 110.623H59.0613L63.6858 123H60.9655ZM60.8125 118.393V120.39H54.2754V118.393H60.8125ZM72.7901 121.011V123H66.559V121.011H72.7901ZM67.3836 110.623V123H64.8334V110.623H67.3836ZM85.7624 118.894H88.3041C88.2531 119.727 88.0236 120.467 87.6156 121.113C87.2132 121.759 86.6493 122.263 85.9239 122.626C85.2042 122.989 84.3371 123.17 83.3227 123.17C82.5293 123.17 81.818 123.034 81.189 122.762C80.5599 122.484 80.0215 122.088 79.5738 121.572C79.1318 121.056 78.7946 120.433 78.5622 119.702C78.3298 118.971 78.2137 118.152 78.2137 117.245V116.386C78.2137 115.48 78.3327 114.661 78.5707 113.93C78.8144 113.193 79.1601 112.567 79.6078 112.051C80.0612 111.535 80.6024 111.139 81.2315 110.861C81.8605 110.583 82.5633 110.444 83.3397 110.444C84.3711 110.444 85.241 110.631 85.9494 111.005C86.6635 111.379 87.216 111.895 87.6071 112.552C88.0038 113.21 88.2418 113.958 88.3211 114.797H85.7709C85.7426 114.298 85.6434 113.876 85.4734 113.53C85.3034 113.179 85.0455 112.915 84.6998 112.74C84.3598 112.558 83.9064 112.467 83.3397 112.467C82.9146 112.467 82.5434 112.547 82.2261 112.706C81.9087 112.864 81.6423 113.105 81.427 113.428C81.2116 113.751 81.0501 114.159 80.9424 114.652C80.8404 115.14 80.7894 115.712 80.7894 116.369V117.245C80.7894 117.885 80.8376 118.449 80.9339 118.937C81.0303 119.418 81.1776 119.826 81.376 120.161C81.58 120.489 81.8407 120.739 82.158 120.909C82.4811 121.073 82.8693 121.155 83.3227 121.155C83.8554 121.155 84.2946 121.07 84.6403 120.9C84.986 120.73 85.2495 120.478 85.4309 120.144C85.6179 119.809 85.7284 119.393 85.7624 118.894ZM95.0113 112.74L91.645 123H88.9332L93.5321 110.623H95.2578L95.0113 112.74ZM97.8081 123L94.4332 112.74L94.1612 110.623H95.9039L100.528 123H97.8081ZM97.655 118.393V120.39H91.1179V118.393H97.655ZM101.676 110.623H106.292C107.238 110.623 108.052 110.764 108.732 111.048C109.417 111.331 109.944 111.751 110.313 112.306C110.681 112.861 110.865 113.544 110.865 114.355C110.865 115.018 110.752 115.587 110.525 116.063C110.304 116.534 109.99 116.928 109.582 117.245C109.179 117.557 108.706 117.806 108.162 117.993L107.354 118.418H103.342L103.325 116.429H106.309C106.757 116.429 107.128 116.35 107.422 116.191C107.717 116.032 107.938 115.811 108.086 115.528C108.239 115.244 108.315 114.916 108.315 114.542C108.315 114.145 108.241 113.802 108.094 113.513C107.947 113.224 107.723 113.003 107.422 112.85C107.122 112.697 106.745 112.62 106.292 112.62H104.226V123H101.676V110.623ZM108.596 123L105.773 117.483L108.468 117.466L111.324 122.881V123H108.596ZM121.134 121.011V123H114.546V121.011H121.134ZM115.379 110.623V123H112.829V110.623H115.379ZM120.276 115.664V117.602H114.546V115.664H120.276ZM121.126 110.623V112.62H114.546V110.623H121.126Z" fill="white"/>
<path d="M46.5736 138.219H48.1605C48.1098 138.824 47.9405 139.364 47.6527 139.838C47.365 140.307 46.9608 140.678 46.4403 140.948C45.9198 141.219 45.2872 141.355 44.5424 141.355C43.9711 141.355 43.4569 141.253 42.9999 141.05C42.5429 140.843 42.1514 140.551 41.8256 140.174C41.4997 139.793 41.2501 139.334 41.0766 138.797C40.9073 138.259 40.8227 137.658 40.8227 136.994V136.226C40.8227 135.561 40.9094 134.961 41.0829 134.423C41.2606 133.886 41.5146 133.427 41.8446 133.046C42.1747 132.661 42.5704 132.366 43.0316 132.163C43.4971 131.96 44.0198 131.859 44.5995 131.859C45.3358 131.859 45.9579 131.994 46.4657 132.265C46.9735 132.536 47.3671 132.91 47.6464 133.388C47.9299 133.867 48.1034 134.415 48.1669 135.032H46.58C46.5377 134.635 46.4446 134.294 46.3007 134.01C46.161 133.727 45.9537 133.511 45.6786 133.363C45.4035 133.211 45.0438 133.135 44.5995 133.135C44.2356 133.135 43.9182 133.202 43.6474 133.338C43.3765 133.473 43.1501 133.672 42.9682 133.934C42.7862 134.197 42.6487 134.52 42.5556 134.906C42.4667 135.286 42.4223 135.722 42.4223 136.213V136.994C42.4223 137.459 42.4625 137.883 42.5429 138.263C42.6275 138.64 42.7545 138.964 42.9237 139.235C43.0972 139.505 43.3173 139.715 43.5839 139.863C43.8505 140.011 44.17 140.085 44.5424 140.085C44.9952 140.085 45.3612 140.013 45.6405 139.869C45.9241 139.726 46.1378 139.516 46.2816 139.241C46.4298 138.962 46.5271 138.621 46.5736 138.219ZM57.6069 139.965V141.228H52.9667V139.965H57.6069ZM53.4111 131.986V141.228H51.8178V131.986H53.4111ZM62.7495 131.986V141.228H61.1562V131.986H62.7495ZM74.2715 131.986V141.228H72.6782L68.5332 134.607V141.228H66.94V131.986H68.5332L72.6909 138.619V131.986H74.2715ZM80.0806 131.986V141.228H78.4874V131.986H80.0806ZM89.7301 138.219H91.317C91.2662 138.824 91.0969 139.364 90.8092 139.838C90.5214 140.307 90.1173 140.678 89.5968 140.948C89.0763 141.219 88.4436 141.355 87.6988 141.355C87.1275 141.355 86.6134 141.253 86.1563 141.05C85.6993 140.843 85.3079 140.551 84.982 140.174C84.6562 139.793 84.4065 139.334 84.233 138.797C84.0637 138.259 83.9791 137.658 83.9791 136.994V136.226C83.9791 135.561 84.0659 134.961 84.2394 134.423C84.4171 133.886 84.671 133.427 85.0011 133.046C85.3312 132.661 85.7268 132.366 86.1881 132.163C86.6536 131.96 87.1762 131.859 87.756 131.859C88.4923 131.859 89.1144 131.994 89.6222 132.265C90.13 132.536 90.5235 132.91 90.8028 133.388C91.0864 133.867 91.2599 134.415 91.3233 135.032H89.7364C89.6941 134.635 89.601 134.294 89.4571 134.01C89.3175 133.727 89.1101 133.511 88.8351 133.363C88.56 133.211 88.2003 133.135 87.756 133.135C87.392 133.135 87.0746 133.202 86.8038 133.338C86.533 133.473 86.3066 133.672 86.1246 133.934C85.9426 134.197 85.8051 134.52 85.712 134.906C85.6231 135.286 85.5787 135.722 85.5787 136.213V136.994C85.5787 137.459 85.6189 137.883 85.6993 138.263C85.784 138.64 85.9109 138.964 86.0802 139.235C86.2537 139.505 86.4737 139.715 86.7403 139.863C87.0069 140.011 87.3264 140.085 87.6988 140.085C88.1516 140.085 88.5177 140.013 88.797 139.869C89.0805 139.726 89.2942 139.516 89.4381 139.241C89.5862 138.962 89.6835 138.621 89.7301 138.219Z" fill="white"/>
<path fill-rule="evenodd" clip-rule="evenodd" d="M110.537 31.8601C109.58 35.41 107.49 37.9294 104.557 38.7083C104.52 38.7298 104.474 38.7357 104.431 38.7487C104.361 38.7664 104.288 38.7786 104.217 38.7942C104.287 38.779 104.359 38.7668 104.428 38.7494C92.3302 41.7931 70.8214 20.358 70.7715 20.4079C71.4391 20.6292 72.083 20.7447 72.7376 20.7502C74.0291 20.7606 75.3606 20.3546 76.9999 19.515C80.7016 17.6192 84.6068 16.1256 88.6352 15.0898C94.8699 13.4868 104.024 13.2784 108.589 19.438C111.321 23.1252 111.262 26.8773 110.537 31.8601ZM96.0741 37.1434C96.5008 37.3721 96.9208 37.5748 97.3356 37.7602C96.9212 37.5748 96.5008 37.3721 96.0741 37.1434Z" fill="url(#paint0_linear_203_4308)"/>
<path opacity="0.412" fill-rule="evenodd" clip-rule="evenodd" d="M82.8994 30.5144C85.2056 32.1108 87.6006 33.6857 89.9623 35.1216C95.1013 38.0113 100.426 39.9915 104.429 38.7492C104.116 38.8273 103.792 38.8828 103.46 38.9224C103.792 38.8828 104.118 38.8273 104.432 38.7485C104.474 38.7355 104.52 38.7296 104.563 38.7156C104.561 38.713 104.559 38.7107 104.558 38.7082C107.491 37.9292 109.581 35.4098 110.537 31.8599C110.678 30.8915 110.781 29.9382 110.846 29.0031C104.026 40.4112 86.278 32.0701 82.8994 30.5144Z" fill="url(#paint1_linear_203_4308)"/>
<path opacity="0.478" fill-rule="evenodd" clip-rule="evenodd" d="M72.1603 21.2302C73.4966 21.3527 74.9102 21.0474 76.6802 20.3199C80.6768 18.6764 84.8495 17.4675 89.11 16.7429C95.7044 15.6212 105.201 16.1963 109.395 22.9687C110.176 24.2288 110.675 25.4721 110.959 26.7407C110.917 24.0892 110.303 21.7509 108.589 19.438C104.024 13.2784 94.8699 13.4868 88.6352 15.0898C84.6068 16.1256 80.7016 17.6192 76.9999 19.515C75.3602 20.3546 74.0291 20.7606 72.7376 20.7502C72.083 20.7443 71.4391 20.6292 70.7715 20.4079C70.777 20.4024 71.0542 20.6681 71.5364 21.1199C71.7436 21.161 71.9501 21.2109 72.1603 21.2302Z" fill="url(#paint2_linear_203_4308)"/>
<path fill-rule="evenodd" clip-rule="evenodd" d="M75.6587 73.1909C76.0417 75.6507 79.6875 89.8971 85.325 89.2776C90.9735 88.334 95.95 82.3302 102.467 63.8277C102.556 63.5772 102.643 63.343 102.729 63.1143C105.779 53.7481 110.191 40.959 110.981 29.6452C110.897 30.1163 110.794 30.5711 110.677 31.013C110.641 31.1477 110.595 31.2731 110.557 31.4049C110.468 31.7076 110.377 32.0073 110.271 32.2934C110.22 32.4332 110.16 32.5654 110.105 32.7012C109.997 32.9661 109.886 33.227 109.764 33.4761C109.702 33.6026 109.634 33.7233 109.568 33.8454C109.437 34.0896 109.301 34.3261 109.156 34.5514C109.086 34.658 109.016 34.7605 108.943 34.8623C108.784 35.0895 108.617 35.3049 108.442 35.5103C108.372 35.5928 108.301 35.6746 108.229 35.7538C108.034 35.964 107.831 36.1593 107.62 36.3433C107.554 36.4002 107.49 36.4591 107.424 36.5135C107.184 36.7081 106.932 36.8828 106.673 37.0438C106.625 37.0734 106.58 37.1067 106.53 37.1352C106.217 37.3184 105.891 37.479 105.555 37.6188C105.515 37.6377 105.47 37.6477 105.429 37.6658C105.384 37.6825 105.335 37.6906 105.289 37.7062C105.334 37.691 105.382 37.6829 105.426 37.6666C93.7012 41.9877 71.0238 20.379 70.9786 20.4379C70.3388 20.2606 69.6723 19.9812 68.9492 19.5967C65.0629 17.5314 60.6977 16.1933 56.0746 15.717C50.177 15.135 43.1363 15.5335 38.8836 20.5082C29.7762 31.1395 37.7172 50.9239 40.6854 62.4848C45.8551 83.0333 49.7063 89.9189 55.3275 90.6746C55.7671 90.7294 56.1679 90.6531 56.5386 90.5369C58.5766 89.9038 59.6408 88.0165 60.4472 86.7335C61.7912 84.6027 62.7578 82.332 63.6212 80.0366C64.4172 77.9169 65.0947 75.758 65.7371 73.582C66.2278 71.9194 66.6101 68.8768 69.0665 68.4227C70.462 68.167 72.8396 68.4272 73.9228 69.3897C74.9549 70.3063 75.3786 71.811 75.6587 73.1909Z" fill="url(#paint3_linear_203_4308)"/>
<path fill-rule="evenodd" clip-rule="evenodd" d="M95.8832 78.2972C88.2671 83.7067 83.4915 73.7111 79.432 66.8018C74.9295 59.0717 68.401 55.4743 60.477 56.0431C56.5577 56.3262 52.7213 57.7528 49.1247 59.6404C48.469 59.9709 41.1308 64.0378 41.2836 64.728C46.1069 83.5239 49.9429 89.9536 55.3284 90.6745C55.7687 90.7292 56.1691 90.6526 56.5396 90.5368C58.5771 89.904 59.6414 88.0164 60.4481 86.7334C61.7921 84.6026 62.7587 82.3319 63.6221 80.0365C64.4181 77.9168 65.0956 75.7579 65.738 73.5819C66.2287 71.9193 66.611 68.877 69.0674 68.4226C70.4629 68.1673 72.8405 68.4267 73.9237 69.3896C74.9558 70.3062 75.3802 71.8108 75.6596 73.1908C76.0426 75.6509 79.6884 89.897 85.3259 89.2775C89.1552 88.6592 92.8414 85.5466 96.7614 77.6944C96.4794 77.8716 96.1889 78.0704 95.8832 78.2972Z" fill="url(#paint4_linear_203_4308)"/>
<path fill-rule="evenodd" clip-rule="evenodd" d="M58.6471 26.6785C62.2167 29.4369 65.1616 32.8684 67.6284 36.7322C70.2258 40.7936 72.0591 45.1921 75.6261 48.9182C82.0451 55.5166 92.43 60.5723 101.098 54.3384C103.788 52.3556 105.996 49.5402 107.896 46.3977C109.387 40.838 110.613 35.0185 110.983 29.6452C110.898 30.1163 110.796 30.5711 110.679 31.013C110.643 31.1477 110.597 31.2731 110.559 31.4049C110.47 31.7076 110.378 32.0073 110.273 32.2934C110.222 32.4332 110.162 32.5654 110.106 32.7012C109.999 32.9661 109.888 33.227 109.766 33.4761C109.704 33.6026 109.636 33.7233 109.57 33.8454C109.439 34.0896 109.303 34.3261 109.157 34.5514C109.088 34.658 109.017 34.7605 108.945 34.8623C108.786 35.0895 108.619 35.3049 108.444 35.5103C108.373 35.5928 108.303 35.6746 108.23 35.7538C108.036 35.964 107.832 36.1593 107.622 36.3433C107.556 36.4002 107.492 36.4591 107.425 36.5135C107.186 36.7081 106.934 36.8828 106.675 37.0438C106.627 37.0734 106.581 37.1067 106.532 37.1352C106.219 37.3184 105.892 37.479 105.552 37.6114C105.553 37.614 105.555 37.6163 105.557 37.6188C105.516 37.6377 105.472 37.6477 105.43 37.6658C105.431 37.6658 105.43 37.6658 105.43 37.6658C105.386 37.6825 105.336 37.6906 105.291 37.7062C105.336 37.691 105.384 37.6829 105.428 37.6666C93.7026 41.9874 71.0266 20.379 70.98 20.4375C70.98 20.4375 70.98 20.4379 70.9804 20.4379C70.3406 20.2606 69.6741 19.9812 68.951 19.5967C65.0647 17.5314 60.6995 16.1933 56.0764 15.717C50.1788 15.135 43.1381 15.5335 38.8854 20.5082C38.5834 20.8616 38.3033 21.2239 38.0391 21.5928C39.026 20.234 45.1534 20.7213 46.6011 20.869C50.6328 21.3438 54.239 23.0753 57.279 25.4962C57.7557 25.8762 58.2071 26.2733 58.6471 26.6785Z" fill="url(#paint5_linear_203_4308)"/>
<path fill-rule="evenodd" clip-rule="evenodd" d="M49.6078 17.1091C41.7523 17.9965 38.538 22.5341 37.0955 26.597C36.1485 29.2769 35.898 32.1515 36.241 34.9728C36.7502 39.1837 37.2642 41.3641 37.2694 41.3626C47.5255 35.0753 57.0452 28.5401 66.4402 20.8241C58.8341 16.1048 49.6138 17.1583 49.6078 17.1091Z" fill="url(#paint6_linear_203_4308)"/>
<path fill-rule="evenodd" clip-rule="evenodd" d="M70.374 20.2269C73.4444 23.0468 94.7004 42.9477 105.533 39.0236C105.489 39.0395 105.44 39.0473 105.396 39.0621C105.441 39.0469 105.49 39.0387 105.536 39.0228C105.576 39.0054 105.622 38.9951 105.662 38.9766C105.661 38.974 105.659 38.9718 105.657 38.9692C106 38.8389 106.326 38.6802 106.64 38.4988C106.688 38.4707 106.734 38.4374 106.783 38.4078C107.044 38.2491 107.295 38.0751 107.535 37.8816C107.602 37.8276 107.666 37.7687 107.732 37.7121C107.943 37.5293 108.147 37.3346 108.341 37.1248C108.414 37.046 108.485 36.9646 108.555 36.8821C108.73 36.6771 108.896 36.4617 109.056 36.2352C109.129 36.1334 109.199 36.0306 109.268 35.9244C109.414 35.699 109.549 35.4622 109.68 35.2183C109.746 35.0958 109.814 34.9755 109.875 34.8482C109.997 34.5996 110.107 34.3379 110.215 34.0722C110.27 33.936 110.329 33.8043 110.38 33.6641C110.484 33.3769 110.575 33.0768 110.664 32.773C110.668 32.7619 110.671 32.7504 110.675 32.7389C110.802 31.6961 110.913 30.6603 110.982 29.6452C110.898 30.1163 110.795 30.5711 110.678 31.013C110.642 31.1477 110.596 31.2731 110.558 31.4049C110.469 31.7076 110.378 32.0073 110.272 32.2934C110.221 32.4332 110.161 32.5654 110.106 32.7012C109.998 32.9661 109.887 33.227 109.765 33.4761C109.703 33.6026 109.636 33.7233 109.57 33.8454C109.439 34.0896 109.302 34.3261 109.157 34.5514C109.087 34.658 109.017 34.7605 108.945 34.8623C108.785 35.0895 108.618 35.3049 108.444 35.5103C108.373 35.5928 108.303 35.6746 108.23 35.7538C108.035 35.964 107.832 36.1593 107.621 36.3433C107.555 36.4002 107.491 36.4591 107.425 36.5135C107.185 36.7081 106.933 36.8828 106.674 37.0438C106.626 37.0734 106.581 37.1067 106.532 37.1352C106.218 37.3184 105.892 37.479 105.551 37.6114C105.553 37.614 105.554 37.6163 105.556 37.6188C105.515 37.6377 105.472 37.6477 105.43 37.6658C105.43 37.6658 105.429 37.6658 105.43 37.6658C105.385 37.6825 105.336 37.6906 105.29 37.7062C105.335 37.691 105.383 37.6829 105.427 37.6666C93.702 41.9874 71.0261 20.379 70.9794 20.4375C70.9794 20.4375 70.9794 20.4379 70.9798 20.4379C70.7826 20.3831 70.5772 20.3009 70.374 20.2269Z" fill="url(#paint7_linear_203_4308)"/>
<path fill-rule="evenodd" clip-rule="evenodd" d="M70.374 20.2269C73.4444 23.0468 94.7004 42.9477 105.533 39.0236C105.489 39.0395 105.44 39.0473 105.396 39.0621C105.441 39.0469 105.49 39.0387 105.536 39.0228C105.576 39.0054 105.622 38.9951 105.662 38.9766C105.661 38.974 105.659 38.9718 105.657 38.9692C106 38.8389 106.326 38.6802 106.64 38.4988C106.688 38.4707 106.734 38.4374 106.783 38.4078C107.044 38.2491 107.295 38.0751 107.535 37.8816C107.602 37.8276 107.666 37.7687 107.732 37.7121C107.943 37.5293 108.147 37.3346 108.341 37.1248C108.414 37.046 108.485 36.9646 108.555 36.8821C108.73 36.6771 108.896 36.4617 109.056 36.2352C109.129 36.1334 109.199 36.0306 109.268 35.9244C109.414 35.699 109.549 35.4622 109.68 35.2183C109.746 35.0958 109.814 34.9755 109.875 34.8482C109.997 34.5996 110.107 34.3379 110.215 34.0722C110.27 33.936 110.329 33.8043 110.38 33.6641C110.484 33.3769 110.575 33.0768 110.664 32.773C110.668 32.7619 110.671 32.7504 110.675 32.7389C110.802 31.6961 110.913 30.6603 110.982 29.6452C110.898 30.1163 110.795 30.5711 110.678 31.013C110.642 31.1477 110.596 31.2731 110.558 31.4049C110.469 31.7076 110.378 32.0073 110.272 32.2934C110.221 32.4332 110.161 32.5654 110.106 32.7012C109.998 32.9661 109.887 33.227 109.765 33.4761C109.703 33.6026 109.636 33.7233 109.57 33.8454C109.439 34.0896 109.302 34.3261 109.157 34.5514C109.087 34.658 109.017 34.7605 108.945 34.8623C108.785 35.0895 108.618 35.3049 108.444 35.5103C108.373 35.5928 108.303 35.6746 108.23 35.7538C108.035 35.964 107.832 36.1593 107.621 36.3433C107.555 36.4002 107.491 36.4591 107.425 36.5135C107.185 36.7081 106.933 36.8828 106.674 37.0438C106.626 37.0734 106.581 37.1067 106.532 37.1352C106.218 37.3184 105.892 37.479 105.551 37.6114C105.553 37.614 105.554 37.6163 105.556 37.6188C105.515 37.6377 105.472 37.6477 105.43 37.6658C105.43 37.6658 105.429 37.6658 105.43 37.6658C105.385 37.6825 105.336 37.6906 105.29 37.7062C105.335 37.691 105.383 37.6829 105.427 37.6666C94.4129 41.8053 73.488 22.6501 71.2344 20.6736C71.0842 20.5356 70.9976 20.4541 70.9794 20.4375C70.9794 20.4375 70.9794 20.4379 70.9798 20.4379C70.7826 20.3831 70.5772 20.3009 70.374 20.2269Z" fill="url(#paint8_linear_203_4308)"/>
<path fill-rule="evenodd" clip-rule="evenodd" d="M75.2461 71.6148C74.8482 69.7401 72.8022 64.2288 66.6241 63.8984C57.3257 63.3736 52.9535 69.5173 46.4697 81.1041C49.2263 87.5505 51.9799 90.2549 55.3278 90.6745C55.7674 90.7293 56.1682 90.6531 56.539 90.5369C58.5769 89.9037 59.6411 88.0164 60.4475 86.7334C61.7915 84.6026 62.7581 82.332 63.6215 80.0365C64.4175 77.9168 65.095 75.7579 65.7375 73.582C66.2281 71.9193 66.6104 68.8767 69.0669 68.4227C70.4623 68.167 72.84 68.4271 73.9231 69.3896C74.564 69.9591 74.9637 70.7607 75.2461 71.6148Z" fill="url(#paint9_linear_203_4308)"/>
<path fill-rule="evenodd" clip-rule="evenodd" d="M39.5348 9.22736C31.8095 10.057 31.1371 10.7298 30.3074 18.4547C29.4778 10.7298 28.8054 10.057 21.0801 9.22736C28.8054 8.39806 29.4778 7.7253 30.3074 0C31.1371 7.7253 31.8095 8.39806 39.5348 9.22736Z" fill="url(#paint10_linear_203_4308)"/>
<path fill-rule="evenodd" clip-rule="evenodd" d="M51.8259 29.0183C46.7917 29.5589 46.3535 29.9971 45.8129 35.0313C45.2722 29.9971 44.8341 29.5589 39.7998 29.0183C44.8341 28.4776 45.2722 28.0395 45.8129 23.0056C46.3535 28.0395 46.7917 28.4776 51.8259 29.0183Z" fill="white"/>
<path fill-rule="evenodd" clip-rule="evenodd" d="M29.8915 24.9847C25.3324 25.4743 24.9353 25.871 24.4458 30.4301C23.9562 25.871 23.5591 25.4743 19 24.9847C23.5591 24.4951 23.9562 24.098 24.4458 19.5389C24.9353 24.098 25.3324 24.4951 29.8915 24.9847Z" fill="url(#paint11_linear_203_4308)"/>
</g>
<defs>
<linearGradient id="paint0_linear_203_4308" x1="70.7715" y1="14.1323" x2="710.178" y2="2543.06" gradientUnits="userSpaceOnUse">
<stop stop-color="#426AF0"/>
<stop offset="0.99" stop-color="#7613CE"/>
</linearGradient>
<linearGradient id="paint1_linear_203_4308" x1="82.8994" y1="29.0031" x2="181.068" y2="1066.1" gradientUnits="userSpaceOnUse">
<stop stop-color="#426AF0"/>
<stop offset="0.99" stop-color="#7613CE"/>
</linearGradient>
<linearGradient id="paint2_linear_203_4308" x1="70.7715" y1="14.1323" x2="242.219" y2="1353.89" gradientUnits="userSpaceOnUse">
<stop stop-color="#426AF0"/>
<stop offset="0.99" stop-color="#7613CE"/>
</linearGradient>
<linearGradient id="paint3_linear_203_4308" x1="34.6406" y1="15.5133" x2="2198.34" y2="7225.44" gradientUnits="userSpaceOnUse">
<stop stop-color="#25F1FC"/>
<stop offset="1" stop-color="#426AF0"/>
</linearGradient>
<linearGradient id="paint4_linear_203_4308" x1="1432.83" y1="55.9849" x2="866.552" y2="3549.56" gradientUnits="userSpaceOnUse">
<stop stop-color="#25F1FC"/>
<stop offset="1" stop-color="#426AF0"/>
</linearGradient>
<linearGradient id="paint5_linear_203_4308" x1="38.0391" y1="15.5133" x2="790.349" y2="4245.13" gradientUnits="userSpaceOnUse">
<stop stop-color="#25F1FC"/>
<stop offset="1" stop-color="#426AF0"/>
</linearGradient>
<linearGradient id="paint6_linear_203_4308" x1="1673.57" y1="2064.7" x2="499.435" y2="-220.973" gradientUnits="userSpaceOnUse">
<stop stop-color="white" stop-opacity="0"/>
<stop offset="0.99" stop-color="white"/>
</linearGradient>
<linearGradient id="paint7_linear_203_4308" x1="70.374" y1="20.2269" x2="1583.55" y2="2320.7" gradientUnits="userSpaceOnUse">
<stop stop-color="white" stop-opacity="0"/>
<stop offset="0.52" stop-color="white"/>
<stop offset="1" stop-color="white" stop-opacity="0"/>
</linearGradient>
<linearGradient id="paint8_linear_203_4308" x1="70.374" y1="20.2269" x2="1583.55" y2="2320.7" gradientUnits="userSpaceOnUse">
<stop stop-color="white" stop-opacity="0"/>
<stop offset="0.52" stop-color="white"/>
<stop offset="1" stop-color="white" stop-opacity="0"/>
</linearGradient>
<linearGradient id="paint9_linear_203_4308" x1="777.82" y1="63.8673" x2="136.854" y2="2680.47" gradientUnits="userSpaceOnUse">
<stop offset="0.01" stop-color="#7613CE"/>
<stop offset="1" stop-color="#426AF0"/>
</linearGradient>
<linearGradient id="paint10_linear_203_4308" x1="21.0801" y1="0" x2="395.416" y2="1807.1" gradientUnits="userSpaceOnUse">
<stop stop-color="#25F1FC"/>
<stop offset="1" stop-color="#426AF0"/>
</linearGradient>
<linearGradient id="paint11_linear_203_4308" x1="19" y1="19.5389" x2="239.909" y2="1086.01" gradientUnits="userSpaceOnUse">
<stop stop-color="#25F1FC"/>
<stop offset="1" stop-color="#426AF0"/>
</linearGradient>
<clipPath id="clip0_203_4308">
<rect width="130" height="144" fill="white"/>
</clipPath>
</defs>
</svg>
