<svg width="139" height="144" viewBox="0 0 139 144" fill="none" xmlns="http://www.w3.org/2000/svg">
<g clip-path="url(#clip0_203_4283)">
<path d="M20.905 123H18.2102L18.2272 121.011H20.905C21.5737 121.011 22.1376 120.861 22.5966 120.56C23.0557 120.254 23.4014 119.809 23.6337 119.226C23.8718 118.642 23.9908 117.936 23.9908 117.109V116.505C23.9908 115.871 23.9228 115.312 23.7868 114.831C23.6564 114.349 23.4609 113.944 23.2002 113.615C22.9395 113.286 22.6193 113.04 22.2396 112.876C21.8599 112.706 21.4235 112.62 20.9305 112.62H18.1592V110.623H20.9305C21.7579 110.623 22.5145 110.764 23.2002 111.048C23.8916 111.326 24.4895 111.725 24.9939 112.246C25.4982 112.768 25.8865 113.391 26.1585 114.117C26.4362 114.836 26.575 115.638 26.575 116.522V117.109C26.575 117.987 26.4362 118.789 26.1585 119.515C25.8865 120.24 25.4982 120.863 24.9939 121.385C24.4952 121.901 23.8973 122.3 23.2002 122.583C22.5088 122.861 21.7437 123 20.905 123ZM19.6554 110.623V123H17.1051V110.623H19.6554ZM36.7335 121.011V123H30.1454V121.011H36.7335ZM30.9784 110.623V123H28.4282V110.623H30.9784ZM35.8749 115.664V117.602H30.1454V115.664H35.8749ZM36.725 110.623V112.62H30.1454V110.623H36.725ZM48.2946 110.623V123H45.7444L40.7714 114.703V123H38.2211V110.623H40.7714L45.7529 118.928V110.623H48.2946ZM55.7923 110.623V123H53.2506V110.623H55.7923ZM59.6007 110.623V112.62H49.5017V110.623H59.6007ZM65.1687 112.74L61.8024 123H59.0907L63.6896 110.623H65.4153L65.1687 112.74ZM67.9655 123L64.5907 112.74L64.3187 110.623H66.0613L70.6858 123H67.9655ZM67.8125 118.393V120.39H61.2754V118.393H67.8125ZM79.7901 121.011V123H73.559V121.011H79.7901ZM74.3836 110.623V123H71.8334V110.623H74.3836ZM92.7624 118.894H95.3041C95.2531 119.727 95.0236 120.467 94.6156 121.113C94.2132 121.759 93.6493 122.263 92.9239 122.626C92.2042 122.989 91.3371 123.17 90.3227 123.17C89.5293 123.17 88.818 123.034 88.189 122.762C87.5599 122.484 87.0215 122.088 86.5738 121.572C86.1318 121.056 85.7946 120.433 85.5622 119.702C85.3298 118.971 85.2137 118.152 85.2137 117.245V116.386C85.2137 115.48 85.3327 114.661 85.5707 113.93C85.8144 113.193 86.1601 112.567 86.6078 112.051C87.0612 111.535 87.6024 111.139 88.2315 110.861C88.8605 110.583 89.5633 110.444 90.3397 110.444C91.3711 110.444 92.241 110.631 92.9494 111.005C93.6635 111.379 94.216 111.895 94.6071 112.552C95.0038 113.21 95.2418 113.958 95.3211 114.797H92.7709C92.7426 114.298 92.6434 113.876 92.4734 113.53C92.3034 113.179 92.0455 112.915 91.6998 112.74C91.3598 112.558 90.9064 112.467 90.3397 112.467C89.9146 112.467 89.5434 112.547 89.2261 112.706C88.9087 112.864 88.6423 113.105 88.427 113.428C88.2116 113.751 88.0501 114.159 87.9424 114.652C87.8404 115.14 87.7894 115.712 87.7894 116.369V117.245C87.7894 117.885 87.8376 118.449 87.9339 118.937C88.0303 119.418 88.1776 119.826 88.376 120.161C88.58 120.489 88.8407 120.739 89.158 120.909C89.4811 121.073 89.8693 121.155 90.3227 121.155C90.8554 121.155 91.2946 121.07 91.6403 120.9C91.986 120.73 92.2495 120.478 92.4309 120.144C92.6179 119.809 92.7284 119.393 92.7624 118.894ZM102.011 112.74L98.645 123H95.9332L100.532 110.623H102.258L102.011 112.74ZM104.808 123L101.433 112.74L101.161 110.623H102.904L107.528 123H104.808ZM104.655 118.393V120.39H98.1179V118.393H104.655ZM108.676 110.623H113.292C114.238 110.623 115.052 110.764 115.732 111.048C116.417 111.331 116.944 111.751 117.313 112.306C117.681 112.861 117.865 113.544 117.865 114.355C117.865 115.018 117.752 115.587 117.525 116.063C117.304 116.534 116.99 116.928 116.582 117.245C116.179 117.557 115.706 117.806 115.162 117.993L114.354 118.418H110.342L110.325 116.429H113.309C113.757 116.429 114.128 116.35 114.422 116.191C114.717 116.032 114.938 115.811 115.086 115.528C115.239 115.244 115.315 114.916 115.315 114.542C115.315 114.145 115.241 113.802 115.094 113.513C114.947 113.224 114.723 113.003 114.422 112.85C114.122 112.697 113.745 112.62 113.292 112.62H111.226V123H108.676V110.623ZM115.596 123L112.773 117.483L115.468 117.466L118.324 122.881V123H115.596ZM128.134 121.011V123H121.546V121.011H128.134ZM122.379 110.623V123H119.829V110.623H122.379ZM127.276 115.664V117.602H121.546V115.664H127.276ZM128.126 110.623V112.62H121.546V110.623H128.126Z" fill="white"/>
<path d="M53.5736 138.219H55.1605C55.1098 138.824 54.9405 139.364 54.6527 139.838C54.365 140.307 53.9608 140.678 53.4403 140.948C52.9198 141.219 52.2872 141.355 51.5424 141.355C50.9711 141.355 50.4569 141.253 49.9999 141.05C49.5429 140.843 49.1514 140.551 48.8256 140.174C48.4997 139.793 48.2501 139.334 48.0766 138.797C47.9073 138.259 47.8227 137.658 47.8227 136.994V136.226C47.8227 135.561 47.9094 134.961 48.0829 134.423C48.2606 133.886 48.5146 133.427 48.8446 133.046C49.1747 132.661 49.5704 132.366 50.0316 132.163C50.4971 131.96 51.0198 131.859 51.5995 131.859C52.3358 131.859 52.9579 131.994 53.4657 132.265C53.9735 132.536 54.3671 132.91 54.6464 133.388C54.9299 133.867 55.1034 134.415 55.1669 135.032H53.58C53.5377 134.635 53.4446 134.294 53.3007 134.01C53.161 133.727 52.9537 133.511 52.6786 133.363C52.4035 133.211 52.0438 133.135 51.5995 133.135C51.2356 133.135 50.9182 133.202 50.6474 133.338C50.3765 133.473 50.1501 133.672 49.9682 133.934C49.7862 134.197 49.6487 134.52 49.5556 134.906C49.4667 135.286 49.4223 135.722 49.4223 136.213V136.994C49.4223 137.459 49.4625 137.883 49.5429 138.263C49.6275 138.64 49.7545 138.964 49.9237 139.235C50.0972 139.505 50.3173 139.715 50.5839 139.863C50.8505 140.011 51.17 140.085 51.5424 140.085C51.9952 140.085 52.3612 140.013 52.6405 139.869C52.9241 139.726 53.1378 139.516 53.2816 139.241C53.4298 138.962 53.5271 138.621 53.5736 138.219ZM64.6069 139.965V141.228H59.9667V139.965H64.6069ZM60.4111 131.986V141.228H58.8178V131.986H60.4111ZM69.7495 131.986V141.228H68.1562V131.986H69.7495ZM81.2715 131.986V141.228H79.6782L75.5332 134.607V141.228H73.94V131.986H75.5332L79.6909 138.619V131.986H81.2715ZM87.0806 131.986V141.228H85.4874V131.986H87.0806ZM96.7301 138.219H98.317C98.2662 138.824 98.0969 139.364 97.8092 139.838C97.5214 140.307 97.1173 140.678 96.5968 140.948C96.0763 141.219 95.4436 141.355 94.6988 141.355C94.1275 141.355 93.6134 141.253 93.1563 141.05C92.6993 140.843 92.3079 140.551 91.982 140.174C91.6562 139.793 91.4065 139.334 91.233 138.797C91.0637 138.259 90.9791 137.658 90.9791 136.994V136.226C90.9791 135.561 91.0659 134.961 91.2394 134.423C91.4171 133.886 91.671 133.427 92.0011 133.046C92.3312 132.661 92.7268 132.366 93.1881 132.163C93.6536 131.96 94.1762 131.859 94.756 131.859C95.4923 131.859 96.1144 131.994 96.6222 132.265C97.13 132.536 97.5235 132.91 97.8028 133.388C98.0864 133.867 98.2599 134.415 98.3233 135.032H96.7364C96.6941 134.635 96.601 134.294 96.4571 134.01C96.3175 133.727 96.1101 133.511 95.8351 133.363C95.56 133.211 95.2003 133.135 94.756 133.135C94.392 133.135 94.0746 133.202 93.8038 133.338C93.533 133.473 93.3066 133.672 93.1246 133.934C92.9426 134.197 92.8051 134.52 92.712 134.906C92.6231 135.286 92.5787 135.722 92.5787 136.213V136.994C92.5787 137.459 92.6189 137.883 92.6993 138.263C92.784 138.64 92.9109 138.964 93.0802 139.235C93.2537 139.505 93.4737 139.715 93.7403 139.863C94.0069 140.011 94.3264 140.085 94.6988 140.085C95.1516 140.085 95.5177 140.013 95.797 139.869C96.0805 139.726 96.2942 139.516 96.4381 139.241C96.5862 138.962 96.6835 138.621 96.7301 138.219Z" fill="white"/>
<path d="M88.2313 13.2464C88.1148 13.2756 87.9983 13.3047 87.8818 13.3338C79.3605 15.9121 71.1888 16.1743 63.0608 11.9792C55.0639 7.82777 43.0467 7.08489 37.7591 15.8684C35.7927 19.0584 35.0498 22.8165 34.6128 26.5309C33.0396 39.4658 34.6565 54.1923 37.628 66.9087C39.5945 75.43 43.5711 86.7043 51.5243 91.4675C53.4907 92.6473 56.0253 93.3465 58.0791 92.2977C59.5212 91.5985 60.4388 90.1565 61.0943 88.6707C63.3667 83.2958 65.639 63.675 75.4276 68.0011C77.7436 69.0062 79.3168 71.2349 80.1033 73.5946C81.8513 78.62 81.1084 84.1697 83.5119 89.1077C84.2547 90.5935 85.2598 92.1229 86.7893 92.691C87.9692 93.128 89.3238 92.9095 90.5037 92.5162C95.7039 90.6372 99.8552 84.7815 102.259 80.0183C110.474 63.675 113.446 44.7096 110.736 26.6183C109.862 20.8063 107.677 15.0381 101.909 12.591C97.5829 10.7556 92.6886 11.8918 88.2313 13.2464Z" fill="#25EFFC"/>
<path d="M73.0237 63.1943C63.2352 58.9118 61.0065 78.4889 58.6905 83.8638C58.035 85.3496 57.1173 86.8354 55.6753 87.5345C53.6214 88.5833 51.1306 87.8404 49.1204 86.6606C45.843 84.6941 43.2648 81.6352 41.2109 78.0956C43.527 83.5579 46.8044 88.627 51.5239 91.4674C53.4903 92.6473 56.0249 93.3465 58.0787 92.2977C59.5208 91.5985 60.4384 90.1565 61.0939 88.6707C63.3663 83.2958 65.6386 63.6749 75.4272 68.0011C76.4759 68.4381 77.3499 69.1373 78.0928 70.0113C77.9763 69.6034 77.8597 69.2101 77.7432 68.8314C76.9129 66.428 75.3398 64.243 73.0237 63.1943Z" fill="#4269F0"/>
<path d="M110.737 26.6183C110.212 23.0787 109.163 19.5827 107.153 16.786C107.721 18.4466 108.071 20.1508 108.333 21.8551C111.086 39.9464 108.115 58.868 99.8555 75.2114C97.4958 79.9746 93.3444 85.874 88.1005 87.7093C86.9207 88.1463 85.6097 88.3211 84.4298 87.9278C83.687 87.6219 83.0752 87.1412 82.5508 86.5731C82.813 87.4034 83.1189 88.2774 83.5122 89.1077C84.255 90.5935 85.2601 92.1229 86.7896 92.691C87.9694 93.128 89.3241 92.9095 90.504 92.5162C95.7042 90.6371 99.8555 84.7815 102.259 80.0183C110.474 63.6749 113.446 44.7096 110.737 26.6183Z" fill="#4269F0"/>
<path d="M52.3984 25.1325C52.3984 25.1325 57.686 38.2858 75.7773 34.0034C93.8687 29.7646 97.1024 11.6295 97.1024 11.6295C97.1024 11.6295 89.3677 12.1976 84.8667 14.7321C81.5456 16.1742 78.9237 18.1844 76.0395 20.2819C70.9705 23.9963 65.3333 27.9292 58.8659 27.7107C56.5935 27.6233 54.3649 26.9678 52.3984 25.9191" fill="#4269F0"/>
</g>
<defs>
<clipPath id="clip0_203_4283">
<rect width="139" height="144" fill="white"/>
</clipPath>
</defs>
</svg>
