<svg width="168" height="38" viewBox="0 0 168 38" fill="none" xmlns="http://www.w3.org/2000/svg">
<path d="M33.3184 0.476163C30.4379 -0.752836 26.6933 0.610587 23.7745 2.14683C20.9516 3.64468 17.5527 3.64468 14.7298 2.14683C11.8301 0.610587 8.06633 -0.752836 5.18587 0.476163C-0.267814 2.76133 -1.42 9.27119 1.72931 14.9169C4.89782 20.5626 5.28188 26.4003 5.95399 32.2573C6.08841 33.4479 6.22283 34.7345 6.6453 35.8675C7.33661 37.6726 9.39134 38.6135 11.1004 37.5574C12.8671 36.482 14.0769 34.408 15.0755 32.6798C15.9588 31.1051 17.1302 28.6087 19.2617 28.6087C21.3741 28.6087 22.5455 31.1051 23.4288 32.6798C24.4274 34.408 25.6372 36.482 27.4038 37.5574C29.1321 38.6135 31.1677 37.6726 31.859 35.8675C32.2814 34.7345 32.4159 33.4479 32.5695 32.2573C33.2224 26.4003 33.6065 20.5626 36.775 14.9169C39.9243 9.27119 38.7913 2.76133 33.3184 0.476163Z" fill="#25EFFC"/>
<path d="M36.794 3.14526C37.1012 5.54565 36.5443 8.23408 35.1425 10.7497C31.974 16.3954 31.5899 22.2331 30.9178 28.0709C30.7834 29.2615 30.649 30.5673 30.2265 31.6811C29.5352 33.4862 27.4997 34.4463 25.7714 33.3901C24.0047 32.3148 22.7949 30.2408 21.7964 28.4934C20.913 26.9379 19.7416 24.4415 17.6293 24.4415C15.4977 24.4415 14.3263 26.9379 13.443 28.4934C12.4444 30.2408 11.2346 32.3148 9.46795 33.3901C8.31577 34.1007 6.99076 33.8894 6.0498 33.1213C6.16502 34.0623 6.33785 35.0224 6.6451 35.8674C7.33641 37.6724 9.39114 38.6134 11.1002 37.5572C12.8669 36.4818 14.0767 34.4079 15.0753 32.6796C15.9586 31.105 17.13 28.6086 19.2615 28.6086C21.3739 28.6086 22.5453 31.105 23.4286 32.6796C24.4272 34.4079 25.637 36.4818 27.4036 37.5572C29.1319 38.6134 31.1675 37.6724 31.8588 35.8674C32.2812 34.7344 32.4157 33.4478 32.5693 32.2572C33.2222 26.4002 33.6063 20.5625 36.7748 14.9168C39.0791 10.7881 39.0791 6.21776 36.794 3.14526Z" fill="#4269F0"/>
<path d="M8.60515 6.06423C10.3334 6.5251 12.1385 6.64032 13.886 6.40988C15.6335 6.19865 17.3042 5.56495 18.8788 4.79682C19.6853 4.39356 20.4535 3.95189 21.2216 3.51022C21.6056 3.29898 21.9897 3.08775 22.393 2.87651C22.7962 2.66528 23.1803 2.45405 23.5836 2.24281C24.3901 1.85875 25.1774 1.45549 26.0032 1.09063C26.8481 0.725768 27.7122 0.399314 28.5956 0.264893L28.6148 0.341704C26.9441 0.975406 25.5039 2.01237 23.9292 2.89572C22.4122 3.79826 20.8183 4.6432 19.1476 5.35371C17.4962 6.08343 15.7487 6.65952 13.9244 6.81315C12.1193 6.94757 10.295 6.69793 8.58594 6.12184L8.60515 6.06423Z" fill="#E3F9FE"/>
<path d="M24.1399 9.34802C22.7765 8.75273 20.7794 10.1161 19.2623 12.5357C17.7261 10.1161 15.7481 8.75273 14.3655 9.34802C12.6564 10.0969 12.522 13.5727 14.0583 17.1445C15.2873 19.9673 17.2076 21.9837 18.8206 22.3293C18.8462 22.3421 18.8718 22.3485 18.8974 22.3485C18.9358 22.3485 18.9743 22.3549 19.0127 22.3677C19.0895 22.3805 19.1727 22.3869 19.2623 22.3869C19.3391 22.3869 19.4223 22.3805 19.5119 22.3677C19.5375 22.3549 19.5696 22.3485 19.608 22.3485C19.6336 22.3485 19.6656 22.3421 19.704 22.3293C21.2978 21.9837 23.2181 19.9673 24.4471 17.1445C26.0026 13.5727 25.8682 10.0969 24.1399 9.34802Z" fill="#184CFF"/>
<path d="M23.3136 10.4426C22.1614 9.94329 20.5292 11.0763 19.2617 13.0926C17.9943 11.0763 16.3429 9.94329 15.1907 10.4426C13.7697 11.0571 13.6544 13.9567 14.941 16.914C15.9588 19.2568 17.5527 20.9467 18.8777 21.2155C18.9033 21.2283 18.9289 21.2347 18.9545 21.2347C18.9929 21.2347 19.0249 21.2411 19.0505 21.2539C19.1145 21.2539 19.1849 21.2539 19.2617 21.2539C19.3258 21.2539 19.3898 21.2539 19.4538 21.2539C19.4922 21.2411 19.5242 21.2347 19.5498 21.2347C19.5754 21.2347 19.601 21.2283 19.6266 21.2155C20.9516 20.9467 22.5455 19.2568 23.5632 16.914C24.8498 13.9567 24.7346 11.0571 23.3136 10.4426Z" fill="#4269F0"/>
<path d="M59.4138 16H56.719L56.736 14.0108H59.4138C60.0825 14.0108 60.6464 13.8606 61.1054 13.5603C61.5645 13.2542 61.9102 12.8094 62.1425 12.2256C62.3805 11.6419 62.4996 10.9363 62.4996 10.1089V9.50537C62.4996 8.87065 62.4316 8.31243 62.2955 7.83071C62.1652 7.349 61.9697 6.94379 61.709 6.6151C61.4483 6.2864 61.1281 6.03987 60.7484 5.87552C60.3687 5.70551 59.9323 5.6205 59.4393 5.6205H56.668V3.62281H59.4393C60.2667 3.62281 61.0233 3.76449 61.709 4.04785C62.4004 4.32554 62.9983 4.72508 63.5027 5.24646C64.007 5.76785 64.3952 6.39124 64.6673 7.11664C64.945 7.83638 65.0838 8.63829 65.0838 9.52238V10.1089C65.0838 10.9874 64.945 11.7893 64.6673 12.5147C64.3952 13.2401 64.007 13.8635 63.5027 14.3848C63.0039 14.9006 62.4061 15.3001 61.709 15.5835C61.0176 15.8612 60.2525 16 59.4138 16ZM58.1641 3.62281V16H55.6139V3.62281H58.1641ZM75.2423 14.0108V16H68.6542V14.0108H75.2423ZM69.4872 3.62281V16H66.937V3.62281H69.4872ZM74.3837 8.66379V10.602H68.6542V8.66379H74.3837ZM75.2338 3.62281V5.6205H68.6542V3.62281H75.2338ZM86.8034 3.62281V16H84.2532L79.2802 7.7032V16H76.7299V3.62281H79.2802L84.2617 11.9281V3.62281H86.8034ZM94.3011 3.62281V16H91.7594V3.62281H94.3011ZM98.1095 3.62281V5.6205H88.0105V3.62281H98.1095ZM103.678 5.73951L100.311 16H97.5994L102.198 3.62281H103.924L103.678 5.73951ZM106.474 16L103.099 5.73951L102.827 3.62281H104.57L109.195 16H106.474ZM106.321 11.3926V13.3902H99.7842V11.3926H106.321ZM118.299 14.0108V16H112.068V14.0108H118.299ZM112.892 3.62281V16H110.342V3.62281H112.892ZM131.271 11.8941H133.813C133.762 12.7272 133.532 13.4668 133.124 14.1128C132.722 14.7589 132.158 15.2633 131.433 15.626C130.713 15.9887 129.846 16.17 128.831 16.17C128.038 16.17 127.327 16.034 126.698 15.762C126.069 15.4843 125.53 15.0876 125.083 14.5719C124.641 14.0561 124.303 13.4328 124.071 12.7017C123.839 11.9706 123.722 11.1517 123.722 10.2449V9.38636C123.722 8.47961 123.841 7.6607 124.079 6.92963C124.323 6.19289 124.669 5.56666 125.117 5.05095C125.57 4.53523 126.111 4.13852 126.74 3.86083C127.369 3.58314 128.072 3.44429 128.848 3.44429C129.88 3.44429 130.75 3.63131 131.458 4.00534C132.172 4.37938 132.725 4.8951 133.116 5.55249C133.513 6.20989 133.751 6.95796 133.83 7.79671H131.28C131.251 7.29799 131.152 6.87579 130.982 6.53009C130.812 6.17872 130.554 5.91519 130.209 5.73951C129.869 5.55816 129.415 5.46749 128.848 5.46749C128.423 5.46749 128.052 5.54683 127.735 5.70551C127.417 5.86419 127.151 6.10505 126.936 6.42808C126.72 6.75111 126.559 7.15915 126.451 7.6522C126.349 8.13958 126.298 8.71196 126.298 9.36936V10.2449C126.298 10.8853 126.346 11.4492 126.443 11.9366C126.539 12.4183 126.686 12.8264 126.885 13.1607C127.089 13.4894 127.349 13.7388 127.667 13.9088C127.99 14.0731 128.378 14.1553 128.831 14.1553C129.364 14.1553 129.803 14.0703 130.149 13.9003C130.495 13.7303 130.758 13.4781 130.94 13.1437C131.127 12.8094 131.237 12.3928 131.271 11.8941ZM140.52 5.73951L137.154 16H134.442L139.041 3.62281H140.767L140.52 5.73951ZM143.317 16L139.942 5.73951L139.67 3.62281H141.413L146.037 16H143.317ZM143.164 11.3926V13.3902H136.627V11.3926H143.164ZM147.185 3.62281H151.801C152.747 3.62281 153.56 3.76449 154.24 4.04785C154.926 4.33121 155.453 4.75058 155.822 5.30597C156.19 5.86136 156.374 6.54426 156.374 7.35467C156.374 8.01773 156.261 8.58729 156.034 9.06333C155.813 9.53371 155.499 9.92758 155.09 10.2449C154.688 10.5566 154.215 10.806 153.671 10.993L152.863 11.4181H148.851L148.834 9.42887H151.818C152.265 9.42887 152.637 9.34953 152.931 9.19084C153.226 9.03216 153.447 8.81114 153.594 8.52778C153.747 8.24442 153.824 7.91572 153.824 7.54169C153.824 7.14498 153.75 6.80211 153.603 6.51309C153.455 6.22406 153.232 6.00304 152.931 5.85002C152.631 5.69701 152.254 5.6205 151.801 5.6205H149.735V16H147.185V3.62281ZM154.104 16L151.282 10.483L153.977 10.466L156.833 15.881V16H154.104ZM166.643 14.0108V16H160.055V14.0108H166.643ZM160.888 3.62281V16H158.338V3.62281H160.888ZM165.785 8.66379V10.602H160.055V8.66379H165.785ZM166.635 3.62281V5.6205H160.055V3.62281H166.635Z" fill="white"/>
<path d="M57.5327 35H55.8999L55.9106 34.1567H57.5327C58.0913 34.1567 58.5568 34.0404 58.9292 33.8076C59.3016 33.5713 59.5809 33.2419 59.7671 32.8193C59.9569 32.3932 60.0518 31.8955 60.0518 31.3262V30.8481C60.0518 30.4006 59.998 30.0031 59.8906 29.6558C59.7832 29.3049 59.6257 29.0094 59.418 28.7695C59.2103 28.526 58.9561 28.3416 58.6553 28.2163C58.3581 28.091 58.0161 28.0283 57.6294 28.0283H55.8677V27.1797H57.6294C58.1414 27.1797 58.6087 27.2656 59.0312 27.4375C59.4538 27.6058 59.8172 27.8511 60.1216 28.1733C60.4295 28.492 60.6659 28.8787 60.8306 29.3335C60.9953 29.7847 61.0776 30.2931 61.0776 30.8589V31.3262C61.0776 31.8919 60.9953 32.4022 60.8306 32.8569C60.6659 33.3081 60.4277 33.693 60.1162 34.0117C59.8083 34.3304 59.4359 34.5757 58.999 34.7476C58.5658 34.9159 58.077 35 57.5327 35ZM56.4531 27.1797V35H55.4165V27.1797H56.4531ZM68.8135 34.1567V35H64.6724V34.1567H68.8135ZM64.8819 27.1797V35H63.8453V27.1797H64.8819ZM68.2657 30.542V31.3853H64.6724V30.542H68.2657ZM68.7598 27.1797V28.0283H64.6724V27.1797H68.7598ZM77.3228 27.1797V35H76.2808L72.3438 28.9683V35H71.3072V27.1797H72.3438L76.297 33.2275V27.1797H77.3228ZM83.0983 27.1797V35H82.0778V27.1797H83.0983ZM85.6119 27.1797V28.0283H79.5695V27.1797H85.6119ZM89.0939 27.1797V35H88.0573V27.1797H89.0939ZM96.3571 33.0234C96.3571 32.8408 96.3285 32.6797 96.2712 32.54C96.2175 32.3968 96.1208 32.2679 95.9812 32.1533C95.8451 32.0387 95.6553 31.9295 95.4118 31.8257C95.1719 31.7218 94.8675 31.6162 94.4987 31.5088C94.112 31.3942 93.7629 31.2671 93.4514 31.1274C93.1398 30.9842 92.8731 30.8213 92.6511 30.6387C92.4291 30.4561 92.259 30.2466 92.1408 30.0103C92.0227 29.7739 91.9636 29.5036 91.9636 29.1992C91.9636 28.8949 92.0262 28.6138 92.1516 28.356C92.2769 28.0981 92.4559 27.8743 92.6887 27.6846C92.925 27.4912 93.2061 27.3408 93.5319 27.2334C93.8578 27.126 94.2212 27.0723 94.6223 27.0723C95.2095 27.0723 95.7072 27.1851 96.1154 27.4106C96.5272 27.6326 96.8405 27.9245 97.0554 28.2861C97.2702 28.6442 97.3776 29.0273 97.3776 29.4355H96.3464C96.3464 29.1419 96.2837 28.8823 96.1584 28.6567C96.0331 28.4276 95.8433 28.2485 95.5891 28.1196C95.3348 27.9871 95.0126 27.9209 94.6223 27.9209C94.2534 27.9209 93.9491 27.9764 93.7092 28.0874C93.4693 28.1984 93.2902 28.3488 93.1721 28.5386C93.0575 28.7284 93.0002 28.945 93.0002 29.1885C93.0002 29.3532 93.0342 29.5036 93.1022 29.6396C93.1739 29.7721 93.2831 29.8957 93.4299 30.0103C93.5803 30.1248 93.7701 30.2305 93.9992 30.3271C94.232 30.4238 94.5095 30.5169 94.8317 30.6064C95.2757 30.7318 95.6589 30.8714 95.9812 31.0254C96.3034 31.1794 96.5684 31.353 96.7761 31.5464C96.9873 31.7362 97.1431 31.9528 97.2434 32.1963C97.3472 32.4362 97.3991 32.7083 97.3991 33.0127C97.3991 33.3314 97.3347 33.6196 97.2058 33.8774C97.0769 34.1353 96.8924 34.3555 96.6525 34.5381C96.4126 34.7207 96.1244 34.8621 95.7878 34.9624C95.4548 35.0591 95.0824 35.1074 94.6706 35.1074C94.309 35.1074 93.9527 35.0573 93.6018 34.957C93.2544 34.8568 92.9375 34.7064 92.6511 34.5059C92.3682 34.3053 92.1408 34.0583 91.9689 33.7646C91.8007 33.4674 91.7165 33.1237 91.7165 32.7334H92.7478C92.7478 33.002 92.7997 33.2329 92.9035 33.4263C93.0074 33.616 93.1488 33.7736 93.3278 33.8989C93.5104 34.0243 93.7163 34.1174 93.9455 34.1782C94.1783 34.2355 94.42 34.2642 94.6706 34.2642C95.0323 34.2642 95.3384 34.214 95.5891 34.1138C95.8397 34.0135 96.0295 33.8703 96.1584 33.6841C96.2909 33.4979 96.3571 33.2777 96.3571 33.0234ZM102.82 27.1797V35H101.8V27.1797H102.82ZM105.334 27.1797V28.0283H99.2913V27.1797H105.334ZM107.704 27.1797H110.293C110.88 27.1797 111.376 27.2692 111.781 27.4482C112.189 27.6273 112.498 27.8923 112.71 28.2432C112.925 28.5905 113.032 29.0184 113.032 29.5269C113.032 29.8849 112.959 30.2126 112.812 30.5098C112.669 30.8034 112.461 31.054 112.189 31.2617C111.92 31.4658 111.598 31.618 111.222 31.7183L110.932 31.8311H108.499L108.488 30.9878H110.325C110.697 30.9878 111.007 30.9233 111.254 30.7944C111.501 30.6619 111.687 30.4847 111.813 30.2627C111.938 30.0407 112.001 29.7954 112.001 29.5269C112.001 29.2261 111.942 28.9629 111.824 28.7373C111.705 28.5117 111.519 28.3381 111.265 28.2163C111.014 28.091 110.69 28.0283 110.293 28.0283H108.741V35H107.704V27.1797ZM112.275 35L110.373 31.4551L111.453 31.4497L113.381 34.9355V35H112.275ZM115.794 27.1797L117.825 31.106L119.86 27.1797H121.036L118.34 32.0781V35H117.304V32.0781L114.607 27.1797H115.794ZM131.911 32.5132H132.942C132.888 33.0073 132.747 33.4495 132.517 33.8398C132.288 34.2301 131.964 34.5399 131.545 34.769C131.126 34.9946 130.604 35.1074 129.977 35.1074C129.519 35.1074 129.101 35.0215 128.725 34.8496C128.353 34.6777 128.033 34.4342 127.764 34.1191C127.496 33.8005 127.288 33.4191 127.141 32.9751C126.998 32.5275 126.926 32.0298 126.926 31.4819V30.7031C126.926 30.1553 126.998 29.6593 127.141 29.2153C127.288 28.7677 127.497 28.3846 127.769 28.0659C128.045 27.7472 128.376 27.502 128.763 27.3301C129.15 27.1582 129.585 27.0723 130.068 27.0723C130.659 27.0723 131.159 27.1833 131.567 27.4053C131.975 27.6273 132.292 27.9352 132.517 28.3291C132.747 28.7194 132.888 29.1724 132.942 29.688H131.911C131.86 29.3228 131.767 29.0094 131.631 28.748C131.495 28.4831 131.302 28.279 131.051 28.1357C130.801 27.9925 130.473 27.9209 130.068 27.9209C129.721 27.9209 129.415 27.9871 129.15 28.1196C128.888 28.2521 128.668 28.4401 128.489 28.6836C128.314 28.9271 128.181 29.2189 128.092 29.5591C128.002 29.8993 127.957 30.277 127.957 30.6924V31.4819C127.957 31.8651 127.997 32.2249 128.076 32.5615C128.158 32.8981 128.281 33.1935 128.446 33.4478C128.611 33.702 128.82 33.9025 129.075 34.0493C129.329 34.1925 129.63 34.2642 129.977 34.2642C130.417 34.2642 130.768 34.1943 131.03 34.0547C131.291 33.915 131.488 33.7145 131.621 33.4531C131.757 33.1917 131.853 32.8784 131.911 32.5132ZM140.307 34.1567V35H136.397V34.1567H140.307ZM136.601 27.1797V35H135.564V27.1797H136.601ZM143.816 27.1797V35H142.779V27.1797H143.816ZM152.927 27.1797V35H151.885L147.948 28.9683V35H146.911V27.1797H147.948L151.901 33.2275V27.1797H152.927ZM157.086 27.1797V35H156.049V27.1797H157.086ZM164.902 32.5132H165.933C165.879 33.0073 165.738 33.4495 165.509 33.8398C165.28 34.2301 164.956 34.5399 164.537 34.769C164.118 34.9946 163.595 35.1074 162.968 35.1074C162.51 35.1074 162.093 35.0215 161.717 34.8496C161.345 34.6777 161.024 34.4342 160.755 34.1191C160.487 33.8005 160.279 33.4191 160.132 32.9751C159.989 32.5275 159.918 32.0298 159.918 31.4819V30.7031C159.918 30.1553 159.989 29.6593 160.132 29.2153C160.279 28.7677 160.489 28.3846 160.761 28.0659C161.037 27.7472 161.368 27.502 161.754 27.3301C162.141 27.1582 162.576 27.0723 163.06 27.0723C163.65 27.0723 164.15 27.1833 164.558 27.4053C164.966 27.6273 165.283 27.9352 165.509 28.3291C165.738 28.7194 165.879 29.1724 165.933 29.688H164.902C164.852 29.3228 164.759 29.0094 164.623 28.748C164.487 28.4831 164.293 28.279 164.043 28.1357C163.792 27.9925 163.464 27.9209 163.06 27.9209C162.712 27.9209 162.406 27.9871 162.141 28.1196C161.88 28.2521 161.66 28.4401 161.481 28.6836C161.305 28.9271 161.173 29.2189 161.083 29.5591C160.994 29.8993 160.949 30.277 160.949 30.6924V31.4819C160.949 31.8651 160.988 32.2249 161.067 32.5615C161.149 32.8981 161.273 33.1935 161.438 33.4478C161.602 33.702 161.812 33.9025 162.066 34.0493C162.32 34.1925 162.621 34.2642 162.968 34.2642C163.409 34.2642 163.76 34.1943 164.021 34.0547C164.282 33.915 164.479 33.7145 164.612 33.4531C164.748 33.1917 164.845 32.8784 164.902 32.5132Z" fill="white"/>
</svg>
