<svg width="158" height="38" viewBox="0 0 158 38" fill="none" xmlns="http://www.w3.org/2000/svg">
<path d="M13.452 19.692C12.7505 19.692 12.1736 19.1152 12.1736 18.4136V16.4959H10.256C9.55439 16.4959 8.97754 15.9191 8.97754 15.2175V13.5961C8.97754 12.8945 9.55439 12.3177 10.256 12.3177H12.1736V10.4C12.1736 9.69844 12.7505 9.12158 13.452 9.12158H15.0735C15.775 9.12158 16.3519 9.69844 16.3519 10.4V12.3177H18.2695C18.9711 12.3177 19.548 12.8945 19.548 13.5961V15.2175C19.548 15.9191 18.9711 16.4959 18.2695 16.4959H16.3519V18.4136C16.3519 19.1152 15.775 19.692 15.0735 19.692H13.452Z" fill="#184CFF"/>
<path d="M18.2689 12.9258H15.7432V10.4001C15.7432 10.026 15.447 9.72974 15.0728 9.72974H13.4514C13.0773 9.72974 12.781 10.026 12.781 10.4001V12.9258H10.2554C9.88118 12.9258 9.58496 13.222 9.58496 13.5962V15.2176C9.58496 15.5918 9.88118 15.888 10.2554 15.888H12.781V18.4137C12.781 18.7879 13.0773 19.0841 13.4514 19.0841H15.0728C15.447 19.0841 15.7432 18.7879 15.7432 18.4137V15.888H18.2689C18.6431 15.888 18.9393 15.5918 18.9393 15.2176V13.5962C18.9393 13.222 18.6431 12.9258 18.2689 12.9258Z" fill="#4269F0"/>
<path d="M5.62493 5.55142C7.01249 5.92559 8.47801 6.03472 9.89676 5.84763C11.3155 5.66055 12.6719 5.16165 13.9659 4.52243C14.6051 4.21062 15.2287 3.85204 15.868 3.49346C16.1798 3.32196 16.4916 3.13487 16.819 2.96337C17.1308 2.79188 17.4582 2.62039 17.7856 2.46448C18.4404 2.13708 19.0796 1.80967 19.75 1.51345C20.4204 1.21723 21.122 0.967777 21.8547 0.858643L21.8703 0.905422C20.514 1.4355 19.3291 2.2618 18.0662 2.97897C16.819 3.72732 15.525 4.4133 14.1842 4.99015C12.8278 5.567 11.409 6.03472 9.92793 6.15945C8.46242 6.26858 6.98131 6.0659 5.59375 5.61377L5.62493 5.55142Z" fill="#E3F9FE"/>
<path d="M29.0006 9.06785C29.0006 8.25193 28.8841 7.55256 28.5344 6.8532C27.6019 4.98824 25.6204 3.93921 23.5223 3.70609C21.4242 3.35641 19.2096 3.9392 17.5777 4.63856C16.0625 5.33792 14.3141 5.33792 12.7988 4.63856C11.1669 3.9392 8.9523 3.35641 6.73766 3.70609C3.82365 4.05577 1.25934 6.15385 1.3759 9.41753C1.49246 11.7487 2.77461 14.0799 3.47397 16.2946C4.28989 18.3926 5.10581 20.7239 4.75613 22.9385C4.05677 27.2512 1.95869 35.6435 5.22237 36.9257C8.48605 38.2079 10.7007 33.5455 11.1669 28.8831C11.6332 24.2207 15.13 24.5703 15.13 24.5703C15.13 24.5703 18.7433 24.2207 19.2096 28.8831C19.6758 33.5455 21.8905 38.2079 25.1541 36.9257C28.4178 35.6435 26.3197 27.2512 25.6204 22.9385C25.1541 19.9079 26.6694 16.7608 27.835 13.9634C28.4178 12.4481 29.0006 10.6997 29.0006 9.06785Z" fill="#4269F0"/>
<path d="M27.6286 7.81516C27.6286 6.99924 27.512 6.29988 27.1623 5.60052C26.2298 3.73556 24.2483 2.68652 22.1502 2.4534C20.0522 2.10372 17.8375 2.68652 16.2057 3.38588C14.6904 4.08524 12.942 4.08524 11.4267 3.38588C9.79486 2.68652 7.58023 2.10372 5.36559 2.4534C2.45158 2.80308 -0.112735 4.90116 0.00382517 8.16484C0.120385 10.496 1.40254 12.8272 2.1019 15.0419C2.91782 17.14 3.73374 19.4712 3.38406 21.6858C2.6847 25.9985 0.58662 34.3908 3.8503 35.673C7.11398 36.9552 9.32862 32.2928 9.79486 27.6304C10.2611 22.968 13.7579 23.3177 13.7579 23.3177C13.7579 23.3177 17.3713 22.968 17.8375 27.6304C18.3037 32.2928 20.5184 36.9552 23.7821 35.673C27.0457 34.3908 24.9477 25.9985 24.2483 21.6858C23.7821 18.6552 25.2974 15.5081 26.463 12.7107C27.0458 11.1954 27.6286 9.447 27.6286 7.81516Z" fill="#25EFFC"/>
<path d="M17.6047 11.6618C17.4493 11.5841 17.2939 11.5452 17.1384 11.5452C16.6722 11.4286 16.3225 11.5452 15.8563 11.7783C15.8563 11.7783 15.0404 10.1465 14.9238 10.0299C14.6907 9.79681 14.341 9.68025 14.1079 9.79681C13.7582 9.79681 13.5251 10.1465 13.6416 10.4962C13.292 10.0299 12.9423 9.56369 12.476 9.21401C12.0098 8.98089 11.427 9.33057 11.427 9.79681L10.8442 9.44713C10.7276 9.44713 10.4945 9.33057 10.4945 9.33057C10.1448 9.09745 9.44548 8.51465 8.513 9.44713C7.69708 10.3796 8.39644 11.079 8.513 11.3121C8.5907 11.4675 8.66842 11.5841 8.74612 11.6618L9.21236 12.2446C8.62956 12.3611 8.39644 12.9439 8.62956 13.2936C9.0958 13.8764 9.91172 14.3427 9.91172 14.3427C9.91172 14.3427 8.97924 14.4592 9.32892 15.3917C9.6786 15.9745 11.5436 16.5573 11.5436 16.5573C11.5436 16.5573 10.7276 17.1401 11.5436 18.3057C12.1264 19.2382 13.8748 19.3547 14.9238 19.3547C17.0219 19.1216 18.6537 17.6063 18.7703 15.3917C18.8868 14.4592 18.7703 13.1771 18.1875 12.2446C18.0321 12.0115 17.8378 11.8172 17.6047 11.6618Z" fill="#4269F0"/>
<path d="M18.7696 19.005C18.0702 18.0725 17.2543 17.3732 16.4384 16.5572C15.5836 15.7025 14.7677 14.9254 13.9906 14.226C13.3689 13.6821 12.7473 13.177 12.1256 12.7108L8.97852 9.91333C10.7269 10.8458 12.4753 12.128 14.4568 13.7598C16.0887 15.2751 17.7205 16.9069 18.8861 18.8885C18.8861 18.9662 18.8473 19.005 18.7696 19.005Z" fill="white"/>
<path fill-rule="evenodd" clip-rule="evenodd" d="M9.09542 9.79673C10.7273 10.7292 12.4757 12.0114 14.4572 13.7598C16.089 15.2751 17.7209 16.9069 18.8865 18.8884C18.8865 18.9661 18.8865 19.005 18.8865 19.005C18.8088 19.0827 18.7699 19.1215 18.7699 19.1215C18.7699 19.1215 18.7311 19.0827 18.6533 19.005C18.0705 18.1891 17.2546 17.3731 16.4387 16.5572C15.5839 15.7802 14.768 15.0419 13.9909 14.3426C13.3693 13.7986 12.7476 13.2547 12.126 12.7107C11.8929 12.4776 11.6597 12.2833 11.4266 12.1279L8.8623 9.9133C8.8623 9.9133 8.8623 9.87444 8.8623 9.79673C8.94001 9.71903 8.97886 9.68018 8.97886 9.68018C8.97886 9.68018 9.01771 9.71903 9.09542 9.79673ZM11.5432 12.0114C12.3591 12.7107 13.2916 13.5267 14.1075 14.226C14.8846 14.9254 15.7005 15.6636 16.5553 16.4407C17.2546 17.2566 18.0705 18.0725 18.7699 19.005C17.7209 17.0235 16.089 15.3916 14.3406 13.8763C12.7088 12.3611 10.9604 10.9623 8.97886 9.79673L11.5432 12.0114Z" fill="#3EC1CB"/>
<path d="M49.905 16H47.2102L47.2272 14.0108H49.905C50.5737 14.0108 51.1376 13.8606 51.5966 13.5603C52.0557 13.2542 52.4014 12.8094 52.6337 12.2256C52.8718 11.6419 52.9908 10.9363 52.9908 10.1089V9.50537C52.9908 8.87065 52.9228 8.31243 52.7868 7.83071C52.6564 7.349 52.4609 6.94379 52.2002 6.6151C51.9395 6.2864 51.6193 6.03987 51.2396 5.87552C50.8599 5.70551 50.4235 5.6205 49.9305 5.6205H47.1592V3.62281H49.9305C50.7579 3.62281 51.5145 3.76449 52.2002 4.04785C52.8916 4.32554 53.4895 4.72508 53.9939 5.24646C54.4982 5.76785 54.8865 6.39124 55.1585 7.11664C55.4362 7.83638 55.575 8.63829 55.575 9.52238V10.1089C55.575 10.9874 55.4362 11.7893 55.1585 12.5147C54.8865 13.2401 54.4982 13.8635 53.9939 14.3848C53.4952 14.9006 52.8973 15.3001 52.2002 15.5835C51.5088 15.8612 50.7437 16 49.905 16ZM48.6554 3.62281V16H46.1051V3.62281H48.6554ZM65.7335 14.0108V16H59.1454V14.0108H65.7335ZM59.9784 3.62281V16H57.4282V3.62281H59.9784ZM64.8749 8.66379V10.602H59.1454V8.66379H64.8749ZM65.725 3.62281V5.6205H59.1454V3.62281H65.725ZM77.2946 3.62281V16H74.7444L69.7714 7.7032V16H67.2211V3.62281H69.7714L74.7529 11.9281V3.62281H77.2946ZM84.7923 3.62281V16H82.2506V3.62281H84.7923ZM88.6007 3.62281V5.6205H78.5017V3.62281H88.6007ZM94.1687 5.73951L90.8024 16H88.0907L92.6896 3.62281H94.4153L94.1687 5.73951ZM96.9655 16L93.5907 5.73951L93.3187 3.62281H95.0613L99.6858 16H96.9655ZM96.8125 11.3926V13.3902H90.2754V11.3926H96.8125ZM108.79 14.0108V16H102.559V14.0108H108.79ZM103.384 3.62281V16H100.833V3.62281H103.384ZM121.762 11.8941H124.304C124.253 12.7272 124.024 13.4668 123.616 14.1128C123.213 14.7589 122.649 15.2633 121.924 15.626C121.204 15.9887 120.337 16.17 119.323 16.17C118.529 16.17 117.818 16.034 117.189 15.762C116.56 15.4843 116.022 15.0876 115.574 14.5719C115.132 14.0561 114.795 13.4328 114.562 12.7017C114.33 11.9706 114.214 11.1517 114.214 10.2449V9.38636C114.214 8.47961 114.333 7.6607 114.571 6.92963C114.814 6.19289 115.16 5.56666 115.608 5.05095C116.061 4.53523 116.602 4.13852 117.231 3.86083C117.861 3.58314 118.563 3.44429 119.34 3.44429C120.371 3.44429 121.241 3.63131 121.949 4.00534C122.663 4.37938 123.216 4.8951 123.607 5.55249C124.004 6.20989 124.242 6.95796 124.321 7.79671H121.771C121.743 7.29799 121.643 6.87579 121.473 6.53009C121.303 6.17872 121.045 5.91519 120.7 5.73951C120.36 5.55816 119.906 5.46749 119.34 5.46749C118.915 5.46749 118.543 5.54683 118.226 5.70551C117.909 5.86419 117.642 6.10505 117.427 6.42808C117.212 6.75111 117.05 7.15915 116.942 7.6522C116.84 8.13958 116.789 8.71196 116.789 9.36936V10.2449C116.789 10.8853 116.838 11.4492 116.934 11.9366C117.03 12.4183 117.178 12.8264 117.376 13.1607C117.58 13.4894 117.841 13.7388 118.158 13.9088C118.481 14.0731 118.869 14.1553 119.323 14.1553C119.855 14.1553 120.295 14.0703 120.64 13.9003C120.986 13.7303 121.25 13.4781 121.431 13.1437C121.618 12.8094 121.728 12.3928 121.762 11.8941ZM131.011 5.73951L127.645 16H124.933L129.532 3.62281H131.258L131.011 5.73951ZM133.808 16L130.433 5.73951L130.161 3.62281H131.904L136.528 16H133.808ZM133.655 11.3926V13.3902H127.118V11.3926H133.655ZM137.676 3.62281H142.292C143.238 3.62281 144.052 3.76449 144.732 4.04785C145.417 4.33121 145.944 4.75058 146.313 5.30597C146.681 5.86136 146.865 6.54426 146.865 7.35467C146.865 8.01773 146.752 8.58729 146.525 9.06333C146.304 9.53371 145.99 9.92758 145.582 10.2449C145.179 10.5566 144.706 10.806 144.162 10.993L143.354 11.4181H139.342L139.325 9.42887H142.309C142.757 9.42887 143.128 9.34953 143.422 9.19084C143.717 9.03216 143.938 8.81114 144.086 8.52778C144.239 8.24442 144.315 7.91572 144.315 7.54169C144.315 7.14498 144.241 6.80211 144.094 6.51309C143.947 6.22406 143.723 6.00304 143.422 5.85002C143.122 5.69701 142.745 5.6205 142.292 5.6205H140.226V16H137.676V3.62281ZM144.596 16L141.773 10.483L144.468 10.466L147.324 15.881V16H144.596ZM157.134 14.0108V16H150.546V14.0108H157.134ZM151.379 3.62281V16H148.829V3.62281H151.379ZM156.276 8.66379V10.602H150.546V8.66379H156.276ZM157.126 3.62281V5.6205H150.546V3.62281H157.126Z" fill="white"/>
<path d="M48.0239 35H46.3911L46.4019 34.1567H48.0239C48.5825 34.1567 49.048 34.0404 49.4204 33.8076C49.7928 33.5713 50.0721 33.2419 50.2583 32.8193C50.4481 32.3932 50.543 31.8955 50.543 31.3262V30.8481C50.543 30.4006 50.4893 30.0031 50.3818 29.6558C50.2744 29.3049 50.1169 29.0094 49.9092 28.7695C49.7015 28.526 49.4473 28.3416 49.1465 28.2163C48.8493 28.091 48.5073 28.0283 48.1206 28.0283H46.3589V27.1797H48.1206C48.6326 27.1797 49.0999 27.2656 49.5225 27.4375C49.945 27.6058 50.3084 27.8511 50.6128 28.1733C50.9207 28.492 51.1571 28.8787 51.3218 29.3335C51.4865 29.7847 51.5688 30.2931 51.5688 30.8589V31.3262C51.5688 31.8919 51.4865 32.4022 51.3218 32.8569C51.1571 33.3081 50.9189 33.693 50.6074 34.0117C50.2995 34.3304 49.9271 34.5757 49.4902 34.7476C49.057 34.9159 48.5682 35 48.0239 35ZM46.9443 27.1797V35H45.9077V27.1797H46.9443ZM59.3047 34.1567V35H55.1636V34.1567H59.3047ZM55.3731 27.1797V35H54.3365V27.1797H55.3731ZM58.7569 30.542V31.3853H55.1636V30.542H58.7569ZM59.251 27.1797V28.0283H55.1636V27.1797H59.251ZM67.814 27.1797V35H66.7721L62.835 28.9683V35H61.7984V27.1797H62.835L66.7882 33.2275V27.1797H67.814ZM73.5895 27.1797V35H72.569V27.1797H73.5895ZM76.1031 27.1797V28.0283H70.0607V27.1797H76.1031ZM79.5851 27.1797V35H78.5485V27.1797H79.5851ZM86.8483 33.0234C86.8483 32.8408 86.8197 32.6797 86.7624 32.54C86.7087 32.3968 86.612 32.2679 86.4724 32.1533C86.3363 32.0387 86.1465 31.9295 85.903 31.8257C85.6631 31.7218 85.3588 31.6162 84.9899 31.5088C84.6032 31.3942 84.2541 31.2671 83.9426 31.1274C83.6311 30.9842 83.3643 30.8213 83.1423 30.6387C82.9203 30.4561 82.7502 30.2466 82.632 30.0103C82.5139 29.7739 82.4548 29.5036 82.4548 29.1992C82.4548 28.8949 82.5174 28.6138 82.6428 28.356C82.7681 28.0981 82.9471 27.8743 83.1799 27.6846C83.4162 27.4912 83.6973 27.3408 84.0231 27.2334C84.349 27.126 84.7124 27.0723 85.1135 27.0723C85.7007 27.0723 86.1984 27.1851 86.6066 27.4106C87.0184 27.6326 87.3317 27.9245 87.5466 28.2861C87.7614 28.6442 87.8688 29.0273 87.8688 29.4355H86.8376C86.8376 29.1419 86.7749 28.8823 86.6496 28.6567C86.5243 28.4276 86.3345 28.2485 86.0803 28.1196C85.826 27.9871 85.5038 27.9209 85.1135 27.9209C84.7447 27.9209 84.4403 27.9764 84.2004 28.0874C83.9605 28.1984 83.7814 28.3488 83.6633 28.5386C83.5487 28.7284 83.4914 28.945 83.4914 29.1885C83.4914 29.3532 83.5254 29.5036 83.5935 29.6396C83.6651 29.7721 83.7743 29.8957 83.9211 30.0103C84.0715 30.1248 84.2613 30.2305 84.4904 30.3271C84.7232 30.4238 85.0007 30.5169 85.3229 30.6064C85.767 30.7318 86.1501 30.8714 86.4724 31.0254C86.7946 31.1794 87.0596 31.353 87.2673 31.5464C87.4785 31.7362 87.6343 31.9528 87.7346 32.1963C87.8384 32.4362 87.8903 32.7083 87.8903 33.0127C87.8903 33.3314 87.8259 33.6196 87.697 33.8774C87.5681 34.1353 87.3837 34.3555 87.1437 34.5381C86.9038 34.7207 86.6156 34.8621 86.279 34.9624C85.946 35.0591 85.5736 35.1074 85.1618 35.1074C84.8002 35.1074 84.4439 35.0573 84.093 34.957C83.7456 34.8568 83.4287 34.7064 83.1423 34.5059C82.8594 34.3053 82.632 34.0583 82.4602 33.7646C82.2919 33.4674 82.2077 33.1237 82.2077 32.7334H83.239C83.239 33.002 83.2909 33.2329 83.3947 33.4263C83.4986 33.616 83.64 33.7736 83.819 33.8989C84.0017 34.0243 84.2076 34.1174 84.4367 34.1782C84.6695 34.2355 84.9112 34.2642 85.1618 34.2642C85.5235 34.2642 85.8296 34.214 86.0803 34.1138C86.3309 34.0135 86.5207 33.8703 86.6496 33.6841C86.7821 33.4979 86.8483 33.2777 86.8483 33.0234ZM93.3113 27.1797V35H92.2908V27.1797H93.3113ZM95.8249 27.1797V28.0283H89.7825V27.1797H95.8249ZM98.1951 27.1797H100.784C101.371 27.1797 101.867 27.2692 102.272 27.4482C102.68 27.6273 102.99 27.8923 103.201 28.2432C103.416 28.5905 103.523 29.0184 103.523 29.5269C103.523 29.8849 103.45 30.2126 103.303 30.5098C103.16 30.8034 102.952 31.054 102.68 31.2617C102.411 31.4658 102.089 31.618 101.713 31.7183L101.423 31.8311H98.99L98.9793 30.9878H100.816C101.189 30.9878 101.498 30.9233 101.745 30.7944C101.992 30.6619 102.179 30.4847 102.304 30.2627C102.429 30.0407 102.492 29.7954 102.492 29.5269C102.492 29.2261 102.433 28.9629 102.315 28.7373C102.197 28.5117 102.01 28.3381 101.756 28.2163C101.505 28.091 101.181 28.0283 100.784 28.0283H99.2317V35H98.1951V27.1797ZM102.766 35L100.865 31.4551L101.944 31.4497L103.872 34.9355V35H102.766ZM106.285 27.1797L108.316 31.106L110.351 27.1797H111.528L108.831 32.0781V35H107.795V32.0781L105.098 27.1797H106.285ZM122.402 32.5132H123.433C123.379 33.0073 123.238 33.4495 123.009 33.8398C122.78 34.2301 122.455 34.5399 122.037 34.769C121.618 34.9946 121.095 35.1074 120.468 35.1074C120.01 35.1074 119.593 35.0215 119.217 34.8496C118.844 34.6777 118.524 34.4342 118.255 34.1191C117.987 33.8005 117.779 33.4191 117.632 32.9751C117.489 32.5275 117.417 32.0298 117.417 31.4819V30.7031C117.417 30.1553 117.489 29.6593 117.632 29.2153C117.779 28.7677 117.989 28.3846 118.261 28.0659C118.536 27.7472 118.868 27.502 119.254 27.3301C119.641 27.1582 120.076 27.0723 120.559 27.0723C121.15 27.0723 121.65 27.1833 122.058 27.4053C122.466 27.6273 122.783 27.9352 123.009 28.3291C123.238 28.7194 123.379 29.1724 123.433 29.688H122.402C122.352 29.3228 122.259 29.0094 122.122 28.748C121.986 28.4831 121.793 28.279 121.542 28.1357C121.292 27.9925 120.964 27.9209 120.559 27.9209C120.212 27.9209 119.906 27.9871 119.641 28.1196C119.38 28.2521 119.159 28.4401 118.98 28.6836C118.805 28.9271 118.672 29.2189 118.583 29.5591C118.493 29.8993 118.449 30.277 118.449 30.6924V31.4819C118.449 31.8651 118.488 32.2249 118.567 32.5615C118.649 32.8981 118.773 33.1935 118.937 33.4478C119.102 33.702 119.312 33.9025 119.566 34.0493C119.82 34.1925 120.121 34.2642 120.468 34.2642C120.909 34.2642 121.26 34.1943 121.521 34.0547C121.782 33.915 121.979 33.7145 122.112 33.4531C122.248 33.1917 122.344 32.8784 122.402 32.5132ZM130.798 34.1567V35H126.888V34.1567H130.798ZM127.092 27.1797V35H126.056V27.1797H127.092ZM134.307 27.1797V35H133.27V27.1797H134.307ZM143.418 27.1797V35H142.376L138.439 28.9683V35H137.402V27.1797H138.439L142.392 33.2275V27.1797H143.418ZM147.577 27.1797V35H146.54V27.1797H147.577ZM155.393 32.5132H156.424C156.371 33.0073 156.229 33.4495 156 33.8398C155.771 34.2301 155.447 34.5399 155.028 34.769C154.609 34.9946 154.086 35.1074 153.46 35.1074C153.001 35.1074 152.584 35.0215 152.208 34.8496C151.836 34.6777 151.515 34.4342 151.247 34.1191C150.978 33.8005 150.77 33.4191 150.624 32.9751C150.48 32.5275 150.409 32.0298 150.409 31.4819V30.7031C150.409 30.1553 150.48 29.6593 150.624 29.2153C150.77 28.7677 150.98 28.3846 151.252 28.0659C151.528 27.7472 151.859 27.502 152.246 27.3301C152.632 27.1582 153.067 27.0723 153.551 27.0723C154.142 27.0723 154.641 27.1833 155.049 27.4053C155.458 27.6273 155.775 27.9352 156 28.3291C156.229 28.7194 156.371 29.1724 156.424 29.688H155.393C155.343 29.3228 155.25 29.0094 155.114 28.748C154.978 28.4831 154.784 28.279 154.534 28.1357C154.283 27.9925 153.956 27.9209 153.551 27.9209C153.204 27.9209 152.897 27.9871 152.632 28.1196C152.371 28.2521 152.151 28.4401 151.972 28.6836C151.796 28.9271 151.664 29.2189 151.574 29.5591C151.485 29.8993 151.44 30.277 151.44 30.6924V31.4819C151.44 31.8651 151.479 32.2249 151.558 32.5615C151.641 32.8981 151.764 33.1935 151.929 33.4478C152.094 33.702 152.303 33.9025 152.557 34.0493C152.811 34.1925 153.112 34.2642 153.46 34.2642C153.9 34.2642 154.251 34.1943 154.512 34.0547C154.774 33.915 154.971 33.7145 155.103 33.4531C155.239 33.1917 155.336 32.8784 155.393 32.5132Z" fill="white"/>
</svg>
