<svg width="174" height="45" viewBox="0 0 174 45" fill="none" xmlns="http://www.w3.org/2000/svg">
<path fill-rule="evenodd" clip-rule="evenodd" d="M44.6069 16.3297C44.1409 18.0597 43.1223 19.2874 41.6928 19.667C41.6746 19.6775 41.6522 19.6804 41.6317 19.6867C41.5974 19.6954 41.5619 19.7013 41.5273 19.7089C41.5615 19.7015 41.5965 19.6955 41.6302 19.6871C35.7345 21.1703 25.2529 10.7246 25.2285 10.7489C25.5538 10.8567 25.8676 10.913 26.1866 10.9157C26.816 10.9208 27.4649 10.7229 28.2637 10.3137C30.0676 9.38989 31.9707 8.66205 33.9339 8.15729C36.9722 7.37608 41.4333 7.27455 43.6577 10.2762C44.9892 12.0731 44.9603 13.9015 44.6069 16.3297ZM37.559 18.9044C37.7669 19.0158 37.9716 19.1147 38.1737 19.205C37.9718 19.1147 37.7669 19.0158 37.559 18.9044Z" fill="url(#paint0_linear_249_2623)"/>
<path opacity="0.412" fill-rule="evenodd" clip-rule="evenodd" d="M31.1396 15.6742C32.2635 16.4522 33.4306 17.2197 34.5815 17.9194C37.0859 19.3277 39.6809 20.2926 41.6316 19.6872C41.479 19.7253 41.3209 19.7523 41.1595 19.7716C41.3212 19.7523 41.4801 19.7253 41.633 19.6869C41.6536 19.6806 41.6759 19.6777 41.6965 19.6708C41.6958 19.6696 41.6949 19.6685 41.6942 19.6672C43.1237 19.2876 44.1422 18.0599 44.6082 16.3299C44.6767 15.858 44.727 15.3935 44.7586 14.9377C41.4352 20.4971 32.7861 16.4324 31.1396 15.6742Z" fill="url(#paint1_linear_249_2623)"/>
<path opacity="0.478" fill-rule="evenodd" clip-rule="evenodd" d="M25.9053 11.1496C26.5565 11.2093 27.2454 11.0605 28.1079 10.706C30.0556 9.90511 32.089 9.31595 34.1652 8.96285C37.3788 8.41625 42.0066 8.6965 44.0507 11.9968C44.431 12.6109 44.6745 13.2168 44.8128 13.835C44.7924 12.5429 44.4929 11.4033 43.6577 10.2762C41.4333 7.27455 36.9722 7.37608 33.9339 8.15729C31.9707 8.66205 30.0676 9.38989 28.2637 10.3137C27.4647 10.7229 26.816 10.9208 26.1866 10.9157C25.8676 10.9128 25.5538 10.8567 25.2285 10.7489C25.2312 10.7462 25.3663 10.8757 25.6013 11.0959C25.7023 11.1159 25.8029 11.1402 25.9053 11.1496Z" fill="url(#paint2_linear_249_2623)"/>
<path fill-rule="evenodd" clip-rule="evenodd" d="M27.611 36.4712C27.7976 37.6699 29.5743 44.6124 32.3215 44.3106C35.0742 43.8507 37.4993 40.9249 40.6752 31.9083C40.7187 31.7862 40.7609 31.6721 40.8029 31.5606C42.2894 26.9963 44.4392 20.7639 44.8242 15.2505C44.7831 15.4801 44.7331 15.7017 44.676 15.9171C44.6585 15.9827 44.6361 16.0438 44.6176 16.108C44.5743 16.2555 44.5297 16.4016 44.4783 16.541C44.4533 16.6092 44.4241 16.6736 44.3972 16.7397C44.3447 16.8689 44.2906 16.996 44.2313 17.1174C44.201 17.179 44.168 17.2378 44.1359 17.2973C44.072 17.4164 44.0055 17.5316 43.9346 17.6414C43.9009 17.6934 43.8665 17.7433 43.8313 17.7929C43.7536 17.9036 43.6722 18.0086 43.5871 18.1087C43.5527 18.1489 43.5184 18.1887 43.4829 18.2273C43.3882 18.3298 43.289 18.425 43.1862 18.5146C43.1541 18.5424 43.1231 18.5711 43.0906 18.5976C42.974 18.6924 42.851 18.7775 42.7247 18.856C42.7015 18.8704 42.6793 18.8866 42.6553 18.9005C42.5024 18.9898 42.3439 19.0681 42.18 19.1362C42.1603 19.1454 42.1385 19.1503 42.1185 19.1591C42.0966 19.1672 42.0727 19.1712 42.0505 19.1788C42.0723 19.1714 42.0957 19.1674 42.1172 19.1595C36.4034 21.2653 25.3523 10.7349 25.3303 10.7636C25.0185 10.6772 24.6937 10.5411 24.3413 10.3537C22.4474 9.34724 20.3202 8.69515 18.0673 8.46306C15.1933 8.17939 11.7622 8.37361 9.68977 10.7979C5.25152 15.9787 9.12135 25.62 10.5678 31.2539C13.0871 41.2676 14.9639 44.6231 17.7032 44.9913C17.9174 45.018 18.1127 44.9809 18.2934 44.9242C19.2865 44.6157 19.8052 43.696 20.1981 43.0708C20.8531 42.0324 21.3241 40.9258 21.7448 39.8072C22.1328 38.7743 22.4629 37.7222 22.776 36.6618C23.0151 35.8515 23.2014 34.3688 24.3985 34.1476C25.0785 34.0229 26.2372 34.1497 26.765 34.6188C27.268 35.0655 27.4745 35.7987 27.611 36.4712Z" fill="url(#paint3_linear_249_2623)"/>
<path fill-rule="evenodd" clip-rule="evenodd" d="M37.466 38.9597C33.7545 41.5958 31.4273 36.7248 29.449 33.3577C27.2549 29.5907 24.0734 27.8376 20.2119 28.1148C18.3019 28.2528 16.4324 28.948 14.6797 29.8679C14.3601 30.0289 10.7841 32.0108 10.8586 32.3471C13.2091 41.5067 15.0784 44.6401 17.7028 44.9914C17.9174 45.018 18.1126 44.9807 18.2931 44.9243C19.286 44.6159 19.8047 43.696 20.1978 43.0708C20.8528 42.0324 21.3238 40.9259 21.7445 39.8072C22.1324 38.7743 22.4626 37.7222 22.7757 36.6618C23.0148 35.8516 23.2011 34.369 24.3982 34.1476C25.0782 34.0232 26.2369 34.1496 26.7647 34.6188C27.2677 35.0655 27.4745 35.7987 27.6107 36.4712C27.7973 37.6701 29.574 44.6125 32.3212 44.3106C34.1873 44.0092 35.9837 42.4924 37.894 38.6659C37.7565 38.7523 37.615 38.8491 37.466 38.9597Z" fill="url(#paint4_linear_249_2623)"/>
<path fill-rule="evenodd" clip-rule="evenodd" d="M19.321 13.8048C21.0606 15.149 22.4957 16.8213 23.6978 18.7041C24.9636 20.6833 25.8569 22.8268 27.5952 24.6426C30.7233 27.8582 35.7841 30.3219 40.0081 27.284C41.3191 26.3177 42.3952 24.9457 43.3208 23.4143C44.0476 20.705 44.6449 17.869 44.8252 15.2505C44.7841 15.4801 44.7341 15.7017 44.677 15.9171C44.6595 15.9827 44.6371 16.0438 44.6185 16.108C44.5753 16.2555 44.5307 16.4016 44.4793 16.541C44.4542 16.6092 44.425 16.6736 44.3982 16.7397C44.3457 16.8689 44.2916 16.996 44.2323 17.1174C44.202 17.179 44.169 17.2378 44.1369 17.2973C44.073 17.4164 44.0065 17.5316 43.9356 17.6414C43.9019 17.6934 43.8674 17.7433 43.8323 17.7929C43.7545 17.9036 43.6732 18.0086 43.5881 18.1087C43.5537 18.1489 43.5194 18.1887 43.4839 18.2273C43.3892 18.3298 43.29 18.425 43.1872 18.5146C43.1551 18.5424 43.1241 18.5711 43.0916 18.5976C42.975 18.6924 42.852 18.7775 42.7257 18.856C42.7025 18.8704 42.6803 18.8866 42.6563 18.9005C42.5037 18.9898 42.3445 19.0681 42.1786 19.1326C42.1793 19.1339 42.18 19.135 42.1809 19.1362C42.1609 19.1454 42.1398 19.1503 42.1194 19.1591C42.1196 19.1591 42.1191 19.1591 42.1194 19.1591C42.0976 19.1672 42.0736 19.1712 42.0515 19.1788C42.0733 19.1714 42.0967 19.1674 42.1182 19.1595C36.4042 21.2651 25.3538 10.7349 25.3311 10.7634C25.3311 10.7634 25.3311 10.7636 25.3313 10.7636C25.0195 10.6772 24.6947 10.5411 24.3423 10.3537C22.4484 9.34724 20.3212 8.69515 18.0682 8.46306C15.1942 8.17939 11.7632 8.37361 9.69075 10.7979C9.54359 10.9701 9.40708 11.1466 9.27832 11.3264C9.75928 10.6642 12.7453 10.9017 13.4507 10.9737C15.4155 11.2051 17.1729 12.0489 18.6543 13.2286C18.8866 13.4138 19.1066 13.6073 19.321 13.8048Z" fill="url(#paint5_linear_249_2623)"/>
<path fill-rule="evenodd" clip-rule="evenodd" d="M14.9163 9.14121C11.0881 9.57366 9.52169 11.7849 8.81874 13.7648C8.35726 15.0708 8.23518 16.4717 8.40235 17.8466C8.65049 19.8986 8.90098 20.9611 8.9035 20.9604C13.9015 17.8965 18.5406 14.7118 23.119 10.9516C19.4124 8.65178 14.9191 9.1652 14.9163 9.14121Z" fill="url(#paint6_linear_249_2623)"/>
<path fill-rule="evenodd" clip-rule="evenodd" d="M25.0361 10.6606C26.5324 12.0348 36.8909 21.7329 42.1698 19.8206C42.1484 19.8284 42.1246 19.8322 42.1029 19.8394C42.1251 19.832 42.1489 19.828 42.1711 19.8203C42.1909 19.8118 42.2129 19.8067 42.2328 19.7977C42.232 19.7965 42.2311 19.7954 42.2304 19.7941C42.3972 19.7306 42.5561 19.6533 42.7092 19.5649C42.7328 19.5512 42.7552 19.535 42.7788 19.5205C42.906 19.4432 43.0284 19.3584 43.1454 19.2641C43.1783 19.2378 43.2091 19.2091 43.2412 19.1815C43.3444 19.0924 43.4435 18.9976 43.538 18.8953C43.5737 18.8569 43.6082 18.8172 43.6425 18.777C43.7277 18.6771 43.8087 18.5722 43.8866 18.4618C43.922 18.4122 43.9562 18.3621 43.9898 18.3103C44.0608 18.2005 44.1268 18.0851 44.1907 17.9662C44.2228 17.9065 44.2558 17.8479 44.2859 17.7859C44.3452 17.6647 44.3988 17.5372 44.4513 17.4077C44.4781 17.3414 44.507 17.2772 44.532 17.2088C44.5827 17.0689 44.6271 16.9226 44.6702 16.7746C44.672 16.7692 44.6734 16.7636 44.6754 16.758C44.7373 16.2498 44.7914 15.745 44.8253 15.2504C44.7842 15.4799 44.7342 15.7016 44.677 15.9169C44.6595 15.9825 44.6372 16.0437 44.6186 16.1079C44.5753 16.2554 44.5308 16.4015 44.4794 16.5409C44.4543 16.609 44.4251 16.6734 44.3982 16.7396C44.3458 16.8687 44.2917 16.9958 44.2323 17.1172C44.202 17.1789 44.169 17.2377 44.1369 17.2972C44.0731 17.4162 44.0066 17.5314 43.9357 17.6413C43.902 17.6932 43.8675 17.7432 43.8323 17.7927C43.7546 17.9035 43.6733 18.0084 43.5882 18.1085C43.5537 18.1487 43.5195 18.1886 43.4839 18.2272C43.3893 18.3296 43.2901 18.4248 43.1873 18.5144C43.1552 18.5422 43.1242 18.5709 43.0917 18.5974C42.975 18.6923 42.852 18.7774 42.7258 18.8558C42.7025 18.8702 42.6804 18.8865 42.6564 18.9004C42.5038 18.9896 42.3446 19.0679 42.1787 19.1325C42.1794 19.1337 42.1801 19.1348 42.181 19.1361C42.161 19.1453 42.1399 19.1501 42.1195 19.159C42.1197 19.159 42.1192 19.159 42.1195 19.159C42.0977 19.1671 42.0737 19.171 42.0515 19.1786C42.0734 19.1712 42.0968 19.1673 42.1183 19.1593C36.4043 21.2649 25.3539 10.7348 25.3312 10.7633C25.3312 10.7633 25.3312 10.7634 25.3313 10.7634C25.2352 10.7367 25.1351 10.6967 25.0361 10.6606Z" fill="url(#paint7_linear_249_2623)"/>
<path fill-rule="evenodd" clip-rule="evenodd" d="M25.0361 10.6606C26.5324 12.0348 36.8909 21.7329 42.1698 19.8206C42.1484 19.8284 42.1246 19.8322 42.1029 19.8394C42.1251 19.832 42.1489 19.828 42.1711 19.8203C42.1909 19.8118 42.2129 19.8067 42.2328 19.7977C42.232 19.7965 42.2311 19.7954 42.2304 19.7941C42.3972 19.7306 42.5561 19.6533 42.7092 19.5649C42.7328 19.5512 42.7552 19.535 42.7788 19.5205C42.906 19.4432 43.0284 19.3584 43.1454 19.2641C43.1783 19.2378 43.2091 19.2091 43.2412 19.1815C43.3444 19.0924 43.4435 18.9976 43.538 18.8953C43.5737 18.8569 43.6082 18.8172 43.6425 18.777C43.7277 18.6771 43.8087 18.5722 43.8866 18.4618C43.922 18.4122 43.9562 18.3621 43.9898 18.3103C44.0608 18.2005 44.1268 18.0851 44.1907 17.9662C44.2228 17.9065 44.2558 17.8479 44.2859 17.7859C44.3452 17.6647 44.3988 17.5372 44.4513 17.4077C44.4781 17.3414 44.507 17.2772 44.532 17.2088C44.5827 17.0689 44.6271 16.9226 44.6702 16.7746C44.672 16.7692 44.6734 16.7636 44.6754 16.758C44.7373 16.2498 44.7914 15.745 44.8253 15.2504C44.7842 15.4799 44.7342 15.7016 44.677 15.9169C44.6595 15.9825 44.6372 16.0437 44.6186 16.1079C44.5753 16.2554 44.5308 16.4015 44.4794 16.5409C44.4543 16.609 44.4251 16.6734 44.3982 16.7396C44.3458 16.8687 44.2917 16.9958 44.2323 17.1172C44.202 17.1789 44.169 17.2377 44.1369 17.2972C44.0731 17.4162 44.0066 17.5314 43.9357 17.6413C43.902 17.6932 43.8675 17.7432 43.8323 17.7927C43.7546 17.9035 43.6733 18.0084 43.5882 18.1085C43.5537 18.1487 43.5195 18.1886 43.4839 18.2272C43.3893 18.3296 43.2901 18.4248 43.1873 18.5144C43.1552 18.5422 43.1242 18.5709 43.0917 18.5974C42.975 18.6923 42.852 18.7774 42.7258 18.8558C42.7025 18.8702 42.6804 18.8865 42.6564 18.9004C42.5038 18.9896 42.3446 19.0679 42.1787 19.1325C42.1794 19.1337 42.1801 19.1348 42.181 19.1361C42.161 19.1453 42.1399 19.1501 42.1195 19.159C42.1197 19.159 42.1192 19.159 42.1195 19.159C42.0977 19.1671 42.0737 19.171 42.0515 19.1786C42.0734 19.1712 42.0968 19.1673 42.1183 19.1593C36.7507 21.1762 26.5537 11.8415 25.4554 10.8783C25.3822 10.811 25.34 10.7714 25.3312 10.7633C25.3312 10.7633 25.3312 10.7634 25.3313 10.7634C25.2352 10.7367 25.1351 10.6967 25.0361 10.6606Z" fill="url(#paint8_linear_249_2623)"/>
<path fill-rule="evenodd" clip-rule="evenodd" d="M27.41 35.703C27.2161 34.7894 26.219 32.1037 23.2083 31.9426C18.677 31.6869 16.5464 34.6808 13.3867 40.3273C14.73 43.4688 16.0719 44.7867 17.7034 44.9912C17.9177 45.0179 18.113 44.9807 18.2937 44.9241C19.2868 44.6155 19.8054 43.6958 20.1984 43.0706C20.8533 42.0322 21.3244 40.9257 21.7451 39.8071C22.133 38.7741 22.4632 37.722 22.7763 36.6616C23.0154 35.8514 23.2017 34.3687 24.3987 34.1474C25.0788 34.0228 26.2374 34.1496 26.7653 34.6186C27.0776 34.8962 27.2724 35.2868 27.41 35.703Z" fill="url(#paint9_linear_249_2623)"/>
<path fill-rule="evenodd" clip-rule="evenodd" d="M10.008 5.30038C6.2433 5.7047 5.91563 6.03255 5.51132 9.79705C5.10701 6.03255 4.77934 5.7047 1.01465 5.30038C4.77934 4.89625 5.10701 4.5684 5.51132 0.803711C5.91563 4.5684 6.2433 4.89625 10.008 5.30038Z" fill="url(#paint10_linear_249_2623)"/>
<path fill-rule="evenodd" clip-rule="evenodd" d="M15.9963 14.945C13.543 15.2085 13.3295 15.422 13.066 17.8753C12.8025 15.422 12.589 15.2085 10.1357 14.945C12.589 14.6815 12.8025 14.468 13.066 12.0149C13.3295 14.468 13.543 14.6815 15.9963 14.945Z" fill="white"/>
<path fill-rule="evenodd" clip-rule="evenodd" d="M5.30764 12.9793C3.08591 13.2178 2.8924 13.4112 2.65382 15.6329C2.41524 13.4112 2.22174 13.2178 0 12.9793C2.22174 12.7407 2.41524 12.5472 2.65382 10.3254C2.8924 12.5472 3.08591 12.7407 5.30764 12.9793Z" fill="url(#paint11_linear_249_2623)"/>
<path d="M65.7302 19.9019H63.0354L63.0524 17.9127H65.7302C66.3989 17.9127 66.9628 17.7625 67.4218 17.4621C67.8809 17.1561 68.2266 16.7112 68.4589 16.1275C68.697 15.5438 68.816 14.8382 68.816 14.0108V13.4072C68.816 12.7725 68.748 12.2143 68.6119 11.7326C68.4816 11.2509 68.2861 10.8456 68.0254 10.517C67.7647 10.1883 67.4445 9.94173 67.0648 9.77738C66.6851 9.60736 66.2487 9.52236 65.7557 9.52236H62.9844V7.52466H65.7557C66.5831 7.52466 67.3397 7.66634 68.0254 7.9497C68.7168 8.2274 69.3147 8.62694 69.8191 9.14832C70.3234 9.6697 70.7116 10.2931 70.9837 11.0185C71.2614 11.7382 71.4002 12.5401 71.4002 13.4242V14.0108C71.4002 14.8892 71.2614 15.6911 70.9837 16.4165C70.7116 17.1419 70.3234 17.7653 69.8191 18.2867C69.3203 18.8024 68.7225 19.202 68.0254 19.4853C67.334 19.763 66.5689 19.9019 65.7302 19.9019ZM64.4805 7.52466V19.9019H61.9303V7.52466H64.4805ZM81.5587 17.9127V19.9019H74.9706V17.9127H81.5587ZM75.8036 7.52466V19.9019H73.2534V7.52466H75.8036ZM80.7001 12.5656V14.5038H74.9706V12.5656H80.7001ZM81.5502 7.52466V9.52236H74.9706V7.52466H81.5502ZM93.1198 7.52466V19.9019H90.5696L85.5966 11.6051V19.9019H83.0463V7.52466H85.5966L90.5781 15.83V7.52466H93.1198ZM100.618 7.52466V19.9019H98.0758V7.52466H100.618ZM104.426 7.52466V9.52236H94.3269V7.52466H104.426ZM109.994 9.64137L106.628 19.9019H103.916L108.515 7.52466H110.24L109.994 9.64137ZM112.791 19.9019L109.416 9.64137L109.144 7.52466H110.887L115.511 19.9019H112.791ZM112.638 15.2944V17.2921H106.101V15.2944H112.638ZM124.615 17.9127V19.9019H118.384V17.9127H124.615ZM119.209 7.52466V19.9019H116.659V7.52466H119.209ZM137.588 15.796H140.129C140.078 16.629 139.849 17.3686 139.441 18.0147C139.038 18.6607 138.475 19.1651 137.749 19.5278C137.029 19.8905 136.162 20.0719 135.148 20.0719C134.354 20.0719 133.643 19.9359 133.014 19.6638C132.385 19.3861 131.847 18.9894 131.399 18.4737C130.957 17.958 130.62 17.3346 130.387 16.6035C130.155 15.8725 130.039 15.0536 130.039 14.1468V13.2882C130.039 12.3815 130.158 11.5626 130.396 10.8315C130.64 10.0947 130.985 9.46852 131.433 8.9528C131.886 8.43708 132.428 8.04038 133.057 7.76269C133.686 7.48499 134.388 7.34615 135.165 7.34615C136.196 7.34615 137.066 7.53316 137.775 7.9072C138.489 8.28124 139.041 8.79695 139.432 9.45435C139.829 10.1117 140.067 10.8598 140.146 11.6986H137.596C137.568 11.1999 137.469 10.7776 137.299 10.4319C137.129 10.0806 136.871 9.81705 136.525 9.64137C136.185 9.46002 135.732 9.36934 135.165 9.36934C134.74 9.36934 134.369 9.44868 134.051 9.60736C133.734 9.76605 133.468 10.0069 133.252 10.3299C133.037 10.653 132.875 11.061 132.768 11.5541C132.666 12.0414 132.615 12.6138 132.615 13.2712V14.1468C132.615 14.7872 132.663 15.3511 132.759 15.8385C132.855 16.3202 133.003 16.7282 133.201 17.0626C133.405 17.3913 133.666 17.6406 133.983 17.8107C134.306 17.975 134.694 18.0572 135.148 18.0572C135.681 18.0572 136.12 17.9722 136.465 17.8022C136.811 17.6321 137.075 17.3799 137.256 17.0456C137.443 16.7112 137.554 16.2947 137.588 15.796ZM146.836 9.64137L143.47 19.9019H140.758L145.357 7.52466H147.083L146.836 9.64137ZM149.633 19.9019L146.258 9.64137L145.986 7.52466H147.729L152.354 19.9019H149.633ZM149.48 15.2944V17.2921H142.943V15.2944H149.48ZM153.501 7.52466H158.117C159.063 7.52466 159.877 7.66634 160.557 7.9497C161.243 8.23306 161.77 8.65244 162.138 9.20783C162.506 9.76321 162.691 10.4461 162.691 11.2565C162.691 11.9196 162.577 12.4891 162.35 12.9652C162.129 13.4356 161.815 13.8294 161.407 14.1468C161.005 14.4585 160.531 14.7079 159.987 14.8949L159.18 15.3199H155.167L155.15 13.3307H158.134C158.582 13.3307 158.953 13.2514 159.248 13.0927C159.542 12.934 159.763 12.713 159.911 12.4296C160.064 12.1463 160.14 11.8176 160.14 11.4435C160.14 11.0468 160.067 10.704 159.919 10.4149C159.772 10.1259 159.548 9.90489 159.248 9.75188C158.947 9.59886 158.57 9.52236 158.117 9.52236H156.051V19.9019H153.501V7.52466ZM160.421 19.9019L157.599 14.3848L160.293 14.3678L163.15 19.7828V19.9019H160.421ZM172.96 17.9127V19.9019H166.371V17.9127H172.96ZM167.204 7.52466V19.9019H164.654V7.52466H167.204ZM172.101 12.5656V14.5038H166.371V12.5656H172.101ZM172.951 7.52466V9.52236H166.371V7.52466H172.951Z" fill="white"/>
<path d="M63.8491 38.9019H62.2163L62.2271 38.0586H63.8491C64.4077 38.0586 64.8732 37.9422 65.2456 37.7095C65.618 37.4731 65.8973 37.1437 66.0835 36.7212C66.2733 36.2951 66.3682 35.7974 66.3682 35.228V34.75C66.3682 34.3024 66.3145 33.9049 66.207 33.5576C66.0996 33.2067 65.9421 32.9113 65.7344 32.6714C65.5267 32.4279 65.2725 32.2435 64.9717 32.1182C64.6745 31.9928 64.3325 31.9302 63.9458 31.9302H62.1841V31.0815H63.9458C64.4578 31.0815 64.9251 31.1675 65.3477 31.3394C65.7702 31.5076 66.1336 31.7529 66.438 32.0752C66.7459 32.3939 66.9823 32.7806 67.147 33.2354C67.3117 33.6865 67.394 34.195 67.394 34.7607V35.228C67.394 35.7938 67.3117 36.304 67.147 36.7588C66.9823 37.21 66.7441 37.5949 66.4326 37.9136C66.1247 38.2323 65.7523 38.4775 65.3154 38.6494C64.8822 38.8177 64.3934 38.9019 63.8491 38.9019ZM62.7695 31.0815V38.9019H61.7329V31.0815H62.7695ZM75.1299 38.0586V38.9019H70.9888V38.0586H75.1299ZM71.1983 31.0815V38.9019H70.1617V31.0815H71.1983ZM74.5821 34.4438V35.2871H70.9888V34.4438H74.5821ZM75.0762 31.0815V31.9302H70.9888V31.0815H75.0762ZM83.6392 31.0815V38.9019H82.5972L78.6602 32.8701V38.9019H77.6236V31.0815H78.6602L82.6134 37.1294V31.0815H83.6392ZM89.4147 31.0815V38.9019H88.3942V31.0815H89.4147ZM91.9283 31.0815V31.9302H85.8859V31.0815H91.9283ZM95.4103 31.0815V38.9019H94.3737V31.0815H95.4103ZM102.674 36.9253C102.674 36.7427 102.645 36.5815 102.588 36.4419C102.534 36.2987 102.437 36.1698 102.298 36.0552C102.161 35.9406 101.972 35.8314 101.728 35.7275C101.488 35.6237 101.184 35.5181 100.815 35.4106C100.428 35.2961 100.079 35.1689 99.7678 35.0293C99.4562 34.8861 99.1895 34.7231 98.9675 34.5405C98.7455 34.3579 98.5754 34.1484 98.4572 33.9121C98.3391 33.6758 98.28 33.4054 98.28 33.1011C98.28 32.7967 98.3426 32.5156 98.468 32.2578C98.5933 32 98.7723 31.7762 99.0051 31.5864C99.2414 31.3931 99.5225 31.2427 99.8483 31.1353C100.174 31.0278 100.538 30.9741 100.939 30.9741C101.526 30.9741 102.024 31.0869 102.432 31.3125C102.844 31.5345 103.157 31.8263 103.372 32.188C103.587 32.5461 103.694 32.9292 103.694 33.3374H102.663C102.663 33.0438 102.6 32.7842 102.475 32.5586C102.349 32.3294 102.16 32.1504 101.905 32.0215C101.651 31.889 101.329 31.8228 100.939 31.8228C100.57 31.8228 100.265 31.8783 100.026 31.9893C99.7857 32.1003 99.6066 32.2507 99.4885 32.4404C99.3739 32.6302 99.3166 32.8468 99.3166 33.0903C99.3166 33.255 99.3506 33.4054 99.4187 33.5415C99.4903 33.674 99.5995 33.7975 99.7463 33.9121C99.8967 34.0267 100.086 34.1323 100.316 34.229C100.548 34.3257 100.826 34.4188 101.148 34.5083C101.592 34.6336 101.975 34.7733 102.298 34.9272C102.62 35.0812 102.885 35.2549 103.092 35.4482C103.304 35.638 103.46 35.8547 103.56 36.0981C103.664 36.3381 103.716 36.6102 103.716 36.9146C103.716 37.2332 103.651 37.5215 103.522 37.7793C103.393 38.0371 103.209 38.2573 102.969 38.4399C102.729 38.6226 102.441 38.764 102.104 38.8643C101.771 38.9609 101.399 39.0093 100.987 39.0093C100.625 39.0093 100.269 38.9591 99.9182 38.8589C99.5708 38.7586 99.2539 38.6082 98.9675 38.4077C98.6846 38.2072 98.4572 37.9601 98.2854 37.6665C98.1171 37.3693 98.0329 37.0256 98.0329 36.6353H99.0642C99.0642 36.9038 99.1161 37.1348 99.2199 37.3281C99.3238 37.5179 99.4652 37.6755 99.6442 37.8008C99.8269 37.9261 100.033 38.0192 100.262 38.0801C100.495 38.1374 100.736 38.166 100.987 38.166C101.349 38.166 101.655 38.1159 101.905 38.0156C102.156 37.9154 102.346 37.7721 102.475 37.5859C102.607 37.3997 102.674 37.1795 102.674 36.9253ZM109.136 31.0815V38.9019H108.116V31.0815H109.136ZM111.65 31.0815V31.9302H105.608V31.0815H111.65ZM114.02 31.0815H116.609C117.196 31.0815 117.692 31.1711 118.097 31.3501C118.505 31.5291 118.815 31.7941 119.026 32.145C119.241 32.4924 119.348 32.9202 119.348 33.4287C119.348 33.7868 119.275 34.1144 119.128 34.4116C118.985 34.7052 118.777 34.9559 118.505 35.1636C118.237 35.3677 117.914 35.5199 117.538 35.6201L117.248 35.7329H114.815L114.804 34.8896H116.641C117.014 34.8896 117.324 34.8252 117.571 34.6963C117.818 34.5638 118.004 34.3866 118.129 34.1646C118.255 33.9425 118.317 33.6973 118.317 33.4287C118.317 33.1279 118.258 32.8647 118.14 32.6392C118.022 32.4136 117.836 32.2399 117.581 32.1182C117.331 31.9928 117.007 31.9302 116.609 31.9302H115.057V38.9019H114.02V31.0815ZM118.591 38.9019L116.69 35.3569L117.769 35.3516L119.698 38.8374V38.9019H118.591ZM122.111 31.0815L124.141 35.0078L126.177 31.0815H127.353L124.657 35.98V38.9019H123.62V35.98L120.924 31.0815H122.111ZM138.227 36.415H139.258C139.204 36.9092 139.063 37.3514 138.834 37.7417C138.605 38.132 138.281 38.4417 137.862 38.6709C137.443 38.8965 136.92 39.0093 136.293 39.0093C135.835 39.0093 135.418 38.9233 135.042 38.7515C134.669 38.5796 134.349 38.3361 134.08 38.021C133.812 37.7023 133.604 37.321 133.457 36.877C133.314 36.4294 133.243 35.9316 133.243 35.3838V34.605C133.243 34.0571 133.314 33.5612 133.457 33.1172C133.604 32.6696 133.814 32.2865 134.086 31.9678C134.362 31.6491 134.693 31.4038 135.079 31.2319C135.466 31.0601 135.901 30.9741 136.385 30.9741C136.975 30.9741 137.475 31.0851 137.883 31.3071C138.291 31.5291 138.608 31.8371 138.834 32.231C139.063 32.6213 139.204 33.0742 139.258 33.5898H138.227C138.177 33.2246 138.084 32.9113 137.948 32.6499C137.812 32.3849 137.618 32.1808 137.368 32.0376C137.117 31.8944 136.789 31.8228 136.385 31.8228C136.037 31.8228 135.731 31.889 135.466 32.0215C135.205 32.154 134.985 32.342 134.806 32.5854C134.63 32.8289 134.498 33.1208 134.408 33.4609C134.319 33.8011 134.274 34.1789 134.274 34.5942V35.3838C134.274 35.7669 134.313 36.1268 134.392 36.4634C134.474 36.8 134.598 37.0954 134.763 37.3496C134.927 37.6038 135.137 37.8044 135.391 37.9512C135.645 38.0944 135.946 38.166 136.293 38.166C136.734 38.166 137.085 38.0962 137.346 37.9565C137.607 37.8169 137.804 37.6164 137.937 37.355C138.073 37.0936 138.17 36.7803 138.227 36.415ZM146.623 38.0586V38.9019H142.713V38.0586H146.623ZM142.917 31.0815V38.9019H141.881V31.0815H142.917ZM150.132 31.0815V38.9019H149.096V31.0815H150.132ZM159.243 31.0815V38.9019H158.201L154.264 32.8701V38.9019H153.228V31.0815H154.264L158.217 37.1294V31.0815H159.243ZM163.402 31.0815V38.9019H162.365V31.0815H163.402ZM171.218 36.415H172.25C172.196 36.9092 172.054 37.3514 171.825 37.7417C171.596 38.132 171.272 38.4417 170.853 38.6709C170.434 38.8965 169.911 39.0093 169.285 39.0093C168.826 39.0093 168.409 38.9233 168.033 38.7515C167.661 38.5796 167.34 38.3361 167.072 38.021C166.803 37.7023 166.596 37.321 166.449 36.877C166.306 36.4294 166.234 35.9316 166.234 35.3838V34.605C166.234 34.0571 166.306 33.5612 166.449 33.1172C166.596 32.6696 166.805 32.2865 167.077 31.9678C167.353 31.6491 167.684 31.4038 168.071 31.2319C168.458 31.0601 168.893 30.9741 169.376 30.9741C169.967 30.9741 170.466 31.0851 170.875 31.3071C171.283 31.5291 171.6 31.8371 171.825 32.231C172.054 32.6213 172.196 33.0742 172.25 33.5898H171.218C171.168 33.2246 171.075 32.9113 170.939 32.6499C170.803 32.3849 170.61 32.1808 170.359 32.0376C170.108 31.8944 169.781 31.8228 169.376 31.8228C169.029 31.8228 168.723 31.889 168.458 32.0215C168.196 32.154 167.976 32.342 167.797 32.5854C167.622 32.8289 167.489 33.1208 167.4 33.4609C167.31 33.8011 167.265 34.1789 167.265 34.5942V35.3838C167.265 35.7669 167.305 36.1268 167.383 36.4634C167.466 36.8 167.589 37.0954 167.754 37.3496C167.919 37.6038 168.128 37.8044 168.382 37.9512C168.637 38.0944 168.937 38.166 169.285 38.166C169.725 38.166 170.076 38.0962 170.338 37.9565C170.599 37.8169 170.796 37.6164 170.928 37.355C171.064 37.0936 171.161 36.7803 171.218 36.415Z" fill="white"/>
<defs>
<linearGradient id="paint0_linear_249_2623" x1="25.2285" y1="7.69067" x2="336.824" y2="1240.08" gradientUnits="userSpaceOnUse">
<stop stop-color="#426AF0"/>
<stop offset="0.99" stop-color="#7613CE"/>
</linearGradient>
<linearGradient id="paint1_linear_249_2623" x1="31.1396" y1="14.9377" x2="78.979" y2="520.334" gradientUnits="userSpaceOnUse">
<stop stop-color="#426AF0"/>
<stop offset="0.99" stop-color="#7613CE"/>
</linearGradient>
<linearGradient id="paint2_linear_249_2623" x1="25.2285" y1="7.69067" x2="108.778" y2="660.579" gradientUnits="userSpaceOnUse">
<stop stop-color="#426AF0"/>
<stop offset="0.99" stop-color="#7613CE"/>
</linearGradient>
<linearGradient id="paint3_linear_249_2623" x1="7.62207" y1="8.36377" x2="1062.04" y2="3521.9" gradientUnits="userSpaceOnUse">
<stop stop-color="#25F1FC"/>
<stop offset="1" stop-color="#426AF0"/>
</linearGradient>
<linearGradient id="paint4_linear_249_2623" x1="688.988" y1="28.0864" x2="413.028" y2="1730.57" gradientUnits="userSpaceOnUse">
<stop stop-color="#25F1FC"/>
<stop offset="1" stop-color="#426AF0"/>
</linearGradient>
<linearGradient id="paint5_linear_249_2623" x1="9.27832" y1="8.36377" x2="375.894" y2="2069.54" gradientUnits="userSpaceOnUse">
<stop stop-color="#25F1FC"/>
<stop offset="1" stop-color="#426AF0"/>
</linearGradient>
<linearGradient id="paint6_linear_249_2623" x1="806.304" y1="1006.97" x2="234.126" y2="-106.881" gradientUnits="userSpaceOnUse">
<stop stop-color="white" stop-opacity="0"/>
<stop offset="0.99" stop-color="white"/>
</linearGradient>
<linearGradient id="paint7_linear_249_2623" x1="25.0361" y1="10.6606" x2="762.438" y2="1131.73" gradientUnits="userSpaceOnUse">
<stop stop-color="white" stop-opacity="0"/>
<stop offset="0.52" stop-color="white"/>
<stop offset="1" stop-color="white" stop-opacity="0"/>
</linearGradient>
<linearGradient id="paint8_linear_249_2623" x1="25.0361" y1="10.6606" x2="762.438" y2="1131.73" gradientUnits="userSpaceOnUse">
<stop stop-color="white" stop-opacity="0"/>
<stop offset="0.52" stop-color="white"/>
<stop offset="1" stop-color="white" stop-opacity="0"/>
</linearGradient>
<linearGradient id="paint9_linear_249_2623" x1="369.788" y1="31.9275" x2="57.4326" y2="1307.05" gradientUnits="userSpaceOnUse">
<stop offset="0.01" stop-color="#7613CE"/>
<stop offset="1" stop-color="#426AF0"/>
</linearGradient>
<linearGradient id="paint10_linear_249_2623" x1="1.01465" y1="0.803711" x2="183.436" y2="881.441" gradientUnits="userSpaceOnUse">
<stop stop-color="#25F1FC"/>
<stop offset="1" stop-color="#426AF0"/>
</linearGradient>
<linearGradient id="paint11_linear_249_2623" x1="0" y1="10.3254" x2="107.653" y2="530.039" gradientUnits="userSpaceOnUse">
<stop stop-color="#25F1FC"/>
<stop offset="1" stop-color="#426AF0"/>
</linearGradient>
</defs>
</svg>
