<svg width="25" height="25" viewBox="0 0 25 25" fill="none" xmlns="http://www.w3.org/2000/svg">
<g clip-path="url(#clip0_1_28)">
<path d="M23.5183 17.417C23.4566 17.3681 18.9791 14.1406 17.7501 14.3723C17.1634 14.4761 16.8279 14.8762 16.1548 15.6773C16.0465 15.8066 15.7862 16.1165 15.5839 16.3369C15.1585 16.1981 14.7435 16.0292 14.3421 15.8315C12.2703 14.8228 10.5964 13.1489 9.5878 11.0771C9.38989 10.6758 9.22097 10.2608 9.08236 9.83536C9.30349 9.63228 9.61337 9.37204 9.74575 9.26072C10.543 8.59131 10.9439 8.25585 11.0477 7.66767C11.2606 6.4492 8.03537 1.94084 8.00153 1.90023C7.8552 1.69118 7.66423 1.51728 7.44244 1.3911C7.22065 1.26492 6.97358 1.18962 6.71912 1.17065C5.41189 1.17065 1.67975 6.0122 1.67975 6.82753C1.67975 6.87491 1.74819 11.6917 7.68788 17.7336C13.7238 23.6666 18.5398 23.735 18.5872 23.735C19.4033 23.735 24.2441 20.0029 24.2441 18.6956C24.2253 18.4421 24.1505 18.1958 24.025 17.9747C23.8994 17.7536 23.7264 17.5631 23.5183 17.417Z" fill="white"/>
</g>
<defs>
<clipPath id="clip0_1_28">
<rect width="24.0686" height="24.0686" fill="white" transform="translate(0.927246 0.418304)"/>
</clipPath>
</defs>
</svg>
