<svg width="25" height="25" viewBox="0 0 25 25" fill="none" xmlns="http://www.w3.org/2000/svg">
<g clip-path="url(#clip0_182_2425)">
<path d="M22.7541 16.9987C22.6924 16.9498 18.2149 13.7223 16.9859 13.954C16.3992 14.0578 16.0637 14.4579 15.3906 15.259C15.2822 15.3883 15.022 15.6982 14.8197 15.9186C14.3943 15.7798 13.9793 15.6109 13.5779 15.4132C11.5061 14.4045 9.8322 12.7306 8.82358 10.6588C8.62566 10.2575 8.45675 9.84252 8.31814 9.41705C8.53927 9.21397 8.84915 8.95373 8.98153 8.84241C9.7788 8.173 10.1797 7.83755 10.2835 7.24937C10.4964 6.0309 7.27115 1.52254 7.23731 1.48192C7.09097 1.27288 6.90001 1.09898 6.67822 0.972798C6.45643 0.846619 6.20936 0.771317 5.9549 0.752342C4.64767 0.752342 0.915527 5.5939 0.915527 6.40922C0.915527 6.45661 0.983973 11.2733 6.92366 17.3153C12.9596 23.2482 17.7756 23.3167 17.823 23.3167C18.6391 23.3167 23.4799 19.5845 23.4799 18.2773C23.4611 18.0237 23.3863 17.7775 23.2607 17.5564C23.1352 17.3353 22.9622 17.1448 22.7541 16.9987Z" fill="#024260"/>
</g>
<defs>
<clipPath id="clip0_182_2425">
<rect width="24.0686" height="24.0686" fill="white" transform="translate(0.163086)"/>
</clipPath>
</defs>
</svg>
