<svg width="40" height="41" viewBox="0 0 40 41" fill="none" xmlns="http://www.w3.org/2000/svg">
<g opacity="0.5">
<path d="M7.85923 29.8861C6.19619 28.0353 5.19836 26.0161 5.19836 22.6509C5.19836 16.7618 9.35597 11.5457 15.1766 8.85352L16.6734 11.0409C11.1853 14.0696 10.0212 17.9396 9.68858 20.4635C10.5201 19.9587 11.6842 19.7905 12.8484 19.9587C15.8418 20.2953 18.1701 22.6509 18.1701 25.8479C18.1701 27.3622 17.5049 28.8766 16.5071 30.0544C15.3429 31.2322 14.0125 31.737 12.3495 31.737C10.5201 31.737 8.85706 30.8957 7.85923 29.8861ZM24.4897 29.8861C22.8266 28.0353 21.8288 26.0161 21.8288 22.6509C21.8288 16.7618 25.9864 11.5457 31.8071 8.85352L33.3038 11.0409C27.8158 14.0696 26.6516 17.9396 26.319 20.4635C27.1505 19.9587 28.3147 19.7905 29.4788 19.9587C32.4723 20.2953 34.8005 22.6509 34.8005 25.8479C34.8005 27.3622 34.1353 28.8766 33.1375 30.0544C32.1397 31.2322 30.6429 31.737 28.9799 31.737C27.1505 31.737 25.4875 30.8957 24.4897 29.8861Z" fill="white"/>
</g>
</svg>
