<svg width="15" height="15" viewBox="0 0 15 15" fill="none" xmlns="http://www.w3.org/2000/svg">
<g clip-path="url(#clip0_1_229)">
<path d="M0.812865 6.9803L4.07738 8.19872L5.34095 12.2623C5.4218 12.5226 5.74005 12.6188 5.95129 12.4461L7.77099 10.9626C7.96173 10.8072 8.23342 10.7995 8.43276 10.9442L11.7148 13.327C11.9408 13.4913 12.261 13.3675 12.3176 13.0944L14.7219 1.52929C14.7838 1.23101 14.4907 0.982179 14.2067 1.09203L0.80904 6.26044C0.478413 6.38795 0.481294 6.85605 0.812865 6.9803ZM5.13731 7.55012L11.5174 3.62062C11.6321 3.55021 11.75 3.70525 11.6516 3.79659L6.38614 8.69104C6.20107 8.86332 6.08168 9.09388 6.04787 9.34413L5.8685 10.6733C5.84475 10.8508 5.59545 10.8684 5.54647 10.6967L4.85665 8.27281C4.77764 7.99636 4.89278 7.70105 5.13731 7.55012Z" fill="white"/>
</g>
<defs>
<clipPath id="clip0_1_229">
<rect width="14.1677" height="14.1677" fill="white" transform="translate(0.5625 0.148911)"/>
</clipPath>
</defs>
</svg>
