<svg width="11" height="11" viewBox="0 0 11 11" fill="none" xmlns="http://www.w3.org/2000/svg">
<g clip-path="url(#clip0_65_1088)">
<path d="M0.190726 5.20263L2.67683 6.13052L3.6391 9.22518C3.70067 9.42338 3.94304 9.49664 4.10391 9.36512L5.4897 8.23539C5.63496 8.11703 5.84187 8.11114 5.99368 8.22133L8.49316 10.036C8.66525 10.1611 8.90905 10.0668 8.95221 9.85884L10.7832 1.0514C10.8303 0.824243 10.6071 0.634745 10.3908 0.718399L0.187813 4.65442C-0.0639767 4.75152 -0.0617829 5.10801 0.190726 5.20263ZM3.48402 5.63658L8.34279 2.64406C8.43011 2.59044 8.51995 2.70851 8.44496 2.77807L4.43507 6.50545C4.29413 6.63665 4.20321 6.81223 4.17746 7.00281L4.04086 8.01507C4.02277 8.15023 3.83291 8.16364 3.79562 8.03284L3.27028 6.18695C3.21011 5.97641 3.29779 5.75152 3.48402 5.63658Z" fill="black"/>
</g>
<defs>
<clipPath id="clip0_65_1088">
<rect width="10.7894" height="10.7894" fill="white"/>
</clipPath>
</defs>
</svg>
