<svg width="17" height="16" viewBox="0 0 17 16" fill="none" xmlns="http://www.w3.org/2000/svg">
<g clip-path="url(#clip0_182_2439)">
<path d="M0.588869 7.61126L4.22606 8.96878L5.63388 13.4963C5.72396 13.7863 6.07854 13.8934 6.3139 13.701L8.34133 12.0482C8.55385 11.8751 8.85655 11.8664 9.07865 12.0277L12.7354 14.6825C12.9872 14.8655 13.3439 14.7276 13.407 14.4234L16.0858 1.53796C16.1547 1.20563 15.8282 0.928397 15.5117 1.05078L0.584607 6.80922C0.216237 6.95129 0.219446 7.47283 0.588869 7.61126ZM5.40699 8.24614L12.5154 3.86805C12.6432 3.7896 12.7746 3.96234 12.6649 4.0641L6.79839 9.51731C6.59219 9.70925 6.45917 9.96613 6.4215 10.2449L6.22166 11.7259C6.19519 11.9236 5.91743 11.9433 5.86287 11.7519L5.09429 9.05133C5.00626 8.74331 5.13454 8.4143 5.40699 8.24614Z" fill="#024260"/>
</g>
<defs>
<clipPath id="clip0_182_2439">
<rect width="15.7851" height="15.7851" fill="white" transform="translate(0.30957)"/>
</clipPath>
</defs>
</svg>
