<svg width="18" height="18" viewBox="0 0 18 18" fill="none" xmlns="http://www.w3.org/2000/svg">
<path fill-rule="evenodd" clip-rule="evenodd" d="M16.9642 17.0618H12.3222L12.009 16.6066L7.9721 10.741L7.37494 9.87448L2.35073 2.57572L1.21875 0.930176H5.86078L6.17394 1.38403L9.95338 6.87404L10.5506 7.74192L15.8322 15.4162L16.9642 17.0618ZM14.9657 16.0108L9.84194 8.56604L9.24474 7.69812L5.30874 1.97987H3.21596L8.08226 9.0504L8.67942 9.91828L12.8729 16.0108H14.9657Z" fill="black"/>
<path d="M8.0813 9.0504L8.67846 9.91828L7.97114 10.741L2.53821 17.0618H1.19922L7.37398 9.87448L8.0813 9.0504Z" fill="black"/>
<path d="M16.4049 0.930176L10.5499 7.74192L9.8413 8.56468L9.24414 7.69812L9.95278 6.87404L13.9193 2.25723L15.0659 0.930176H16.4049Z" fill="black"/>
</svg>
