<svg width="15" height="14" viewBox="0 0 15 14" fill="none" xmlns="http://www.w3.org/2000/svg">
<g clip-path="url(#clip0_182_2455)">
<path d="M7.53056 6.10352e-05H7.52706C3.66743 6.10352e-05 0.528809 3.13956 0.528809 7.00006C0.528809 8.53131 1.02231 9.95056 1.86143 11.1029L0.989059 13.7034L3.67968 12.8433C4.78656 13.5766 6.10693 14.0001 7.53056 14.0001C11.3902 14.0001 14.5288 10.8597 14.5288 7.00006C14.5288 3.14044 11.3902 6.10352e-05 7.53056 6.10352e-05ZM11.6037 9.88494C11.4348 10.3618 10.7646 10.7573 10.2299 10.8728C9.86418 10.9507 9.38643 11.0128 7.77818 10.3461C5.72106 9.49381 4.39631 7.40344 4.29306 7.26781C4.19418 7.13219 3.46181 6.16094 3.46181 5.15644C3.46181 4.15194 3.97193 3.66281 4.17756 3.45281C4.34643 3.28044 4.62556 3.20169 4.89331 3.20169C4.97993 3.20169 5.05781 3.20606 5.12781 3.20956C5.33343 3.21831 5.43668 3.23056 5.57231 3.55519C5.74118 3.96206 6.15243 4.96656 6.20143 5.06981C6.25131 5.17306 6.30118 5.31306 6.23118 5.44869C6.16556 5.58869 6.10781 5.65081 6.00456 5.76981C5.90131 5.88881 5.80331 5.97981 5.70006 6.10756C5.60556 6.21869 5.49881 6.33769 5.61781 6.54331C5.73681 6.74456 6.14806 7.41569 6.75356 7.95469C7.53493 8.65031 8.16843 8.87256 8.39506 8.96706C8.56393 9.03706 8.76518 9.02044 8.88856 8.88919C9.04518 8.72031 9.23856 8.44031 9.43543 8.16469C9.57543 7.96694 9.75218 7.94244 9.93768 8.01244C10.1267 8.07806 11.1268 8.57244 11.3324 8.67481C11.5381 8.77806 11.6737 8.82706 11.7236 8.91369C11.7726 9.00031 11.7726 9.40719 11.6037 9.88494Z" fill="#024260"/>
</g>
<defs>
<clipPath id="clip0_182_2455">
<rect width="14" height="14" fill="white" transform="translate(0.52832)"/>
</clipPath>
</defs>
</svg>
