<svg width="14" height="14" viewBox="0 0 14 14" fill="none" xmlns="http://www.w3.org/2000/svg">
<g clip-path="url(#clip0_53_1123)">
<path d="M7.00212 5.91278e-05H6.99862C3.13899 5.91278e-05 0.000366211 3.13956 0.000366211 7.00006C0.000366211 8.53131 0.493866 9.95056 1.33299 11.1029L0.460616 13.7034L3.15124 12.8433C4.25812 13.5766 5.57849 14.0001 7.00212 14.0001C10.8617 14.0001 14.0004 10.8597 14.0004 7.00006C14.0004 3.14043 10.8617 5.91278e-05 7.00212 5.91278e-05ZM11.0752 9.88493C10.9064 10.3618 10.2361 10.7573 9.70149 10.8728C9.33574 10.9507 8.85799 11.0128 7.24974 10.3461C5.19262 9.49381 3.86787 7.40343 3.76462 7.26781C3.66574 7.13218 2.93337 6.16093 2.93337 5.15643C2.93337 4.15193 3.44349 3.66281 3.64912 3.45281C3.81799 3.28043 4.09712 3.20168 4.36487 3.20168C4.45149 3.20168 4.52937 3.20606 4.59937 3.20956C4.80499 3.21831 4.90824 3.23056 5.04387 3.55518C5.21274 3.96206 5.62399 4.96656 5.67299 5.06981C5.72287 5.17306 5.77274 5.31306 5.70274 5.44868C5.63712 5.58868 5.57937 5.65081 5.47612 5.76981C5.37287 5.88881 5.27487 5.97981 5.17162 6.10756C5.07712 6.21868 4.97037 6.33768 5.08937 6.54331C5.20837 6.74456 5.61962 7.41568 6.22512 7.95468C7.00649 8.65031 7.63999 8.87256 7.86662 8.96706C8.03549 9.03706 8.23674 9.02043 8.36012 8.88918C8.51674 8.72031 8.71012 8.44031 8.90699 8.16468C9.04699 7.96693 9.22374 7.94243 9.40924 8.01243C9.59824 8.07806 10.5984 8.57243 10.804 8.67481C11.0096 8.77806 11.1452 8.82706 11.1951 8.91368C11.2441 9.00031 11.2441 9.40718 11.0752 9.88493Z" fill="white"/>
</g>
<defs>
<clipPath id="clip0_53_1123">
<rect width="14" height="14" fill="white"/>
</clipPath>
</defs>
</svg>
